<svg width="1223" height="133" viewBox="0 0 1223 133" fill="none" xmlns="http://www.w3.org/2000/svg">
<path d="M413.702 65.002C413.702 110.23 403.821 132.186 335.363 132.187H260.766C188.118 132.187 183.743 114.359 183.743 68.9463H232.229C232.229 82.909 235.944 91.2441 260.766 91.2441H335.363C360.158 91.244 365.218 78.7806 365.218 65.002V40.9932H337.365V0.0507812H413.702V65.002ZM934.144 97.7275C941.548 97.7277 947.529 103.723 947.529 111.086V117.87C947.529 125.259 941.521 131.228 934.144 131.229H916.146C908.742 131.229 902.76 125.233 902.76 117.87V111.086C902.76 103.697 908.768 97.7275 916.146 97.7275H934.144ZM96.9951 0.90918C128.51 0.90918 158.181 21.762 158.181 66.0439V66.0703C158.181 110.379 128.536 131.205 96.9951 131.205H0V0.90918H96.9951ZM487.959 131.205H439.475V0.90918H487.959V131.205ZM633.831 77.7715V0.90918H682.315V131.205H618.891L562.554 54.3428V131.205H514.069V0.90918H577.494L633.831 77.7715ZM828.189 77.7715V0.90918H876.674V131.205H813.248L756.912 54.3428V131.205H708.428V0.90918H771.853L828.189 77.7715ZM1151.98 131.205H1098.65L1089.69 107.749H1034.09L1025.13 131.205H971.799L1025.9 0.90918H1097.88L1151.98 131.205ZM1222.84 131.205H1174.35V0.90918H1222.84V131.205ZM48.4844 90.2627H82.0547C92.4894 90.2627 109.67 90.2623 109.67 66.0703C109.67 41.8783 92.5157 41.8779 82.0547 41.8779H48.4844V90.2627ZM1046.79 74.248H1076.99L1061.89 34.4102L1046.79 74.248ZM221.027 0C230.171 0.000226195 237.575 7.3892 237.575 16.5137V24.875C237.575 33.9995 230.171 41.3884 221.027 41.3887H198.813C189.67 41.3886 182.266 33.9995 182.266 24.875V16.5137C182.266 7.38913 189.67 0.0001119 198.813 0H221.027Z" fill="url(#paint0_linear_29_473)"/>
<defs>
<linearGradient id="paint0_linear_29_473" x1="551.196" y1="132.315" x2="550.108" y2="-16.9315" gradientUnits="userSpaceOnUse">
<stop stop-color="#0053F1" stop-opacity="0.05"/>
<stop offset="0.228675" stop-color="#0053F1"/>
<stop offset="0.703866" stop-color="#79DCF3"/>
</linearGradient>
</defs>
</svg>
