<svg width="292" height="157" viewBox="0 0 292 157" fill="none" xmlns="http://www.w3.org/2000/svg">
<path d="M115.245 104.481C110.205 104.481 105.855 103.761 102.195 102.321C98.595 100.881 95.805 98.8114 93.825 96.1114C91.905 93.3514 90.945 90.1114 90.945 86.3914C90.945 82.7914 91.875 79.7314 93.735 77.2114C95.655 74.6314 98.415 72.6514 102.015 71.2714C105.675 69.8914 110.085 69.2014 115.245 69.2014C120.345 69.2014 124.725 69.8914 128.385 71.2714C132.045 72.6514 134.835 74.6314 136.755 77.2114C138.735 79.7314 139.725 82.7914 139.725 86.3914C139.725 90.1114 138.735 93.3514 136.755 96.1114C134.775 98.8114 131.955 100.881 128.295 102.321C124.635 103.761 120.285 104.481 115.245 104.481ZM115.245 98.9914C120.825 98.9914 125.175 97.8514 128.295 95.5714C131.475 93.2914 133.065 90.2014 133.065 86.3014C133.065 82.4014 131.475 79.3414 128.295 77.1214C125.175 74.8414 120.825 73.7014 115.245 73.7014C109.665 73.7014 105.315 74.8414 102.195 77.1214C99.075 79.3414 97.515 82.4014 97.515 86.3014C97.515 90.2014 99.075 93.2914 102.195 95.5714C105.315 97.8514 109.665 98.9914 115.245 98.9914ZM115.245 72.8914C110.565 72.8914 106.575 72.2614 103.275 71.0014C100.035 69.7414 97.545 67.9414 95.805 65.6014C94.065 63.2014 93.195 60.3514 93.195 57.0514C93.195 53.5714 94.095 50.6014 95.895 48.1414C97.755 45.6214 100.335 43.7014 103.635 42.3814C106.935 41.0614 110.805 40.4014 115.245 40.4014C119.685 40.4014 123.555 41.0614 126.855 42.3814C130.215 43.7014 132.825 45.6214 134.685 48.1414C136.545 50.6014 137.475 53.5714 137.475 57.0514C137.475 60.3514 136.605 63.2014 134.865 65.6014C133.125 67.9414 130.575 69.7414 127.215 71.0014C123.915 72.2614 119.925 72.8914 115.245 72.8914ZM115.245 68.5714C120.165 68.5714 124.005 67.5514 126.765 65.5114C129.525 63.4714 130.905 60.7414 130.905 57.3214C130.905 53.7214 129.465 50.9314 126.585 48.9514C123.765 46.9114 119.985 45.8914 115.245 45.8914C110.505 45.8914 106.725 46.9114 103.905 48.9514C101.085 50.9314 99.675 53.6914 99.675 57.2314C99.675 60.7114 101.025 63.4714 103.725 65.5114C106.485 67.5514 110.325 68.5714 115.245 68.5714ZM173.808 104.481C168.948 104.481 164.628 103.221 160.848 100.701C157.068 98.1214 154.098 94.4614 151.938 89.7214C149.778 84.9214 148.698 79.1614 148.698 72.4414C148.698 65.7214 149.778 59.9914 151.938 55.2514C154.098 50.4514 157.068 46.7914 160.848 44.2714C164.628 41.6914 168.948 40.4014 173.808 40.4014C178.668 40.4014 182.988 41.6914 186.768 44.2714C190.548 46.7914 193.518 50.4514 195.678 55.2514C197.898 59.9914 199.008 65.7214 199.008 72.4414C199.008 79.1614 197.898 84.9214 195.678 89.7214C193.518 94.4614 190.548 98.1214 186.768 100.701C182.988 103.221 178.668 104.481 173.808 104.481ZM173.808 98.5414C177.528 98.5414 180.768 97.5514 183.528 95.5714C186.288 93.5314 188.448 90.5914 190.008 86.7514C191.568 82.8514 192.348 78.0814 192.348 72.4414C192.348 66.8014 191.568 62.0614 190.008 58.2214C188.448 54.3214 186.288 51.3814 183.528 49.4014C180.768 47.3614 177.528 46.3414 173.808 46.3414C170.208 46.3414 166.998 47.3614 164.178 49.4014C161.358 51.3814 159.168 54.3214 157.608 58.2214C156.048 62.0614 155.268 66.8014 155.268 72.4414C155.268 78.0814 156.048 82.8514 157.608 86.7514C159.168 90.5914 161.358 93.5314 164.178 95.5714C166.998 97.5514 170.208 98.5414 173.808 98.5414ZM216.747 103.941L259.767 40.9414H265.077L222.057 103.941H216.747ZM221.607 74.6914C218.787 74.6914 216.297 74.0014 214.137 72.6214C211.977 71.1814 210.297 69.1714 209.097 66.5914C207.957 64.0114 207.387 61.0114 207.387 57.5914C207.387 54.1714 207.957 51.1714 209.097 48.5914C210.297 46.0114 211.977 44.0314 214.137 42.6514C216.297 41.2114 218.787 40.4914 221.607 40.4914C224.427 40.4914 226.887 41.2114 228.987 42.6514C231.147 44.0314 232.827 46.0114 234.027 48.5914C235.227 51.1714 235.827 54.1714 235.827 57.5914C235.827 61.0114 235.227 64.0114 234.027 66.5914C232.827 69.1714 231.147 71.1814 228.987 72.6214C226.887 74.0014 224.427 74.6914 221.607 74.6914ZM221.607 70.6414C224.547 70.6414 226.887 69.5014 228.627 67.2214C230.427 64.8814 231.327 61.6714 231.327 57.5914C231.327 53.5114 230.427 50.3314 228.627 48.0514C226.887 45.7114 224.547 44.5414 221.607 44.5414C218.607 44.5414 216.237 45.7114 214.497 48.0514C212.757 50.3314 211.887 53.5114 211.887 57.5914C211.887 61.6714 212.757 64.8814 214.497 67.2214C216.237 69.5014 218.607 70.6414 221.607 70.6414ZM260.217 104.391C257.457 104.391 254.997 103.701 252.837 102.321C250.677 100.881 248.997 98.8714 247.797 96.2914C246.597 93.7114 245.997 90.7114 245.997 87.2914C245.997 83.8714 246.597 80.8714 247.797 78.2914C248.997 75.7114 250.677 73.7314 252.837 72.3514C254.997 70.9114 257.457 70.1914 260.217 70.1914C263.097 70.1914 265.587 70.9114 267.687 72.3514C269.847 73.7314 271.497 75.7114 272.637 78.2914C273.837 80.8714 274.437 83.8714 274.437 87.2914C274.437 90.7114 273.837 93.7114 272.637 96.2914C271.497 98.8714 269.847 100.881 267.687 102.321C265.587 103.701 263.097 104.391 260.217 104.391ZM260.217 100.341C263.157 100.341 265.497 99.2014 267.237 96.9214C269.037 94.5814 269.937 91.3714 269.937 87.2914C269.937 83.2114 269.037 80.0314 267.237 77.7514C265.497 75.4114 263.157 74.2414 260.217 74.2414C257.277 74.2414 254.907 75.4114 253.107 77.7514C251.367 80.0314 250.497 83.2114 250.497 87.2914C250.497 91.3714 251.367 94.5814 253.107 96.9214C254.907 99.2014 257.277 100.341 260.217 100.341Z" fill="white"/>
<path d="M94.4394 138.156L90.1914 125.556H91.5594L95.5374 137.418H94.8534L98.9574 125.556H100.181L104.231 137.418H103.583L107.597 125.556H108.875L104.627 138.156H103.223L99.3534 126.906H99.7134L95.8254 138.156H94.4394ZM114.179 138.246C113.267 138.246 112.445 138.042 111.713 137.634C110.993 137.214 110.423 136.644 110.003 135.924C109.583 135.192 109.373 134.358 109.373 133.422C109.373 132.474 109.583 131.64 110.003 130.92C110.423 130.2 110.993 129.636 111.713 129.228C112.433 128.82 113.255 128.616 114.179 128.616C115.115 128.616 115.943 128.82 116.663 129.228C117.395 129.636 117.965 130.2 118.373 130.92C118.793 131.64 119.003 132.474 119.003 133.422C119.003 134.358 118.793 135.192 118.373 135.924C117.965 136.644 117.395 137.214 116.663 137.634C115.931 138.042 115.103 138.246 114.179 138.246ZM114.179 137.112C114.863 137.112 115.469 136.962 115.997 136.662C116.525 136.35 116.939 135.918 117.239 135.366C117.551 134.802 117.707 134.154 117.707 133.422C117.707 132.678 117.551 132.03 117.239 131.478C116.939 130.926 116.525 130.5 115.997 130.2C115.469 129.888 114.869 129.732 114.197 129.732C113.525 129.732 112.925 129.888 112.397 130.2C111.869 130.5 111.449 130.926 111.137 131.478C110.825 132.03 110.669 132.678 110.669 133.422C110.669 134.154 110.825 134.802 111.137 135.366C111.449 135.918 111.869 136.35 112.397 136.662C112.925 136.962 113.519 137.112 114.179 137.112ZM121.612 138.156V128.706H122.836V131.28L122.71 130.83C122.974 130.11 123.418 129.564 124.042 129.192C124.666 128.808 125.44 128.616 126.364 128.616V129.858C126.316 129.858 126.268 129.858 126.22 129.858C126.172 129.846 126.124 129.84 126.076 129.84C125.08 129.84 124.3 130.146 123.736 130.758C123.172 131.358 122.89 132.216 122.89 133.332V138.156H121.612ZM129.704 135.708L129.74 134.07L135.626 128.706H137.192L133.034 132.684L132.314 133.296L129.704 135.708ZM128.696 138.156V124.8H129.974V138.156H128.696ZM136.022 138.156L132.08 133.242L132.908 132.252L137.588 138.156H136.022ZM139.507 138.156V124.8H140.785V138.156H139.507ZM148.193 138.246C147.281 138.246 146.459 138.042 145.727 137.634C145.007 137.214 144.437 136.644 144.017 135.924C143.597 135.192 143.387 134.358 143.387 133.422C143.387 132.474 143.597 131.64 144.017 130.92C144.437 130.2 145.007 129.636 145.727 129.228C146.447 128.82 147.269 128.616 148.193 128.616C149.129 128.616 149.957 128.82 150.677 129.228C151.409 129.636 151.979 130.2 152.387 130.92C152.807 131.64 153.017 132.474 153.017 133.422C153.017 134.358 152.807 135.192 152.387 135.924C151.979 136.644 151.409 137.214 150.677 137.634C149.945 138.042 149.117 138.246 148.193 138.246ZM148.193 137.112C148.877 137.112 149.483 136.962 150.011 136.662C150.539 136.35 150.953 135.918 151.253 135.366C151.565 134.802 151.721 134.154 151.721 133.422C151.721 132.678 151.565 132.03 151.253 131.478C150.953 130.926 150.539 130.5 150.011 130.2C149.483 129.888 148.883 129.732 148.211 129.732C147.539 129.732 146.939 129.888 146.411 130.2C145.883 130.5 145.463 130.926 145.151 131.478C144.839 132.03 144.683 132.678 144.683 133.422C144.683 134.154 144.839 134.802 145.151 135.366C145.463 135.918 145.883 136.35 146.411 136.662C146.939 136.962 147.533 137.112 148.193 137.112ZM161.495 138.156V136.068L161.441 135.726V132.234C161.441 131.43 161.213 130.812 160.757 130.38C160.313 129.948 159.647 129.732 158.759 129.732C158.147 129.732 157.565 129.834 157.013 130.038C156.461 130.242 155.993 130.512 155.609 130.848L155.033 129.894C155.513 129.486 156.089 129.174 156.761 128.958C157.433 128.73 158.141 128.616 158.885 128.616C160.109 128.616 161.051 128.922 161.711 129.534C162.383 130.134 162.719 131.052 162.719 132.288V138.156H161.495ZM158.237 138.246C157.529 138.246 156.911 138.132 156.383 137.904C155.867 137.664 155.471 137.34 155.195 136.932C154.919 136.512 154.781 136.032 154.781 135.492C154.781 135 154.895 134.556 155.123 134.16C155.363 133.752 155.747 133.428 156.275 133.188C156.815 132.936 157.535 132.81 158.435 132.81H161.693V133.764H158.471C157.559 133.764 156.923 133.926 156.563 134.25C156.215 134.574 156.041 134.976 156.041 135.456C156.041 135.996 156.251 136.428 156.671 136.752C157.091 137.076 157.679 137.238 158.435 137.238C159.155 137.238 159.773 137.076 160.289 136.752C160.817 136.416 161.201 135.936 161.441 135.312L161.729 136.194C161.489 136.818 161.069 137.316 160.469 137.688C159.881 138.06 159.137 138.246 158.237 138.246ZM169.952 138.246C169.052 138.246 168.242 138.042 167.522 137.634C166.814 137.226 166.256 136.662 165.848 135.942C165.44 135.21 165.236 134.37 165.236 133.422C165.236 132.462 165.44 131.622 165.848 130.902C166.256 130.182 166.814 129.624 167.522 129.228C168.242 128.82 169.052 128.616 169.952 128.616C170.78 128.616 171.518 128.802 172.166 129.174C172.826 129.546 173.348 130.092 173.732 130.812C174.128 131.52 174.326 132.39 174.326 133.422C174.326 134.442 174.134 135.312 173.75 136.032C173.366 136.752 172.844 137.304 172.184 137.688C171.536 138.06 170.792 138.246 169.952 138.246ZM170.042 137.112C170.714 137.112 171.314 136.962 171.842 136.662C172.382 136.35 172.802 135.918 173.102 135.366C173.414 134.802 173.57 134.154 173.57 133.422C173.57 132.678 173.414 132.03 173.102 131.478C172.802 130.926 172.382 130.5 171.842 130.2C171.314 129.888 170.714 129.732 170.042 129.732C169.382 129.732 168.788 129.888 168.26 130.2C167.732 130.5 167.312 130.926 167 131.478C166.688 132.03 166.532 132.678 166.532 133.422C166.532 134.154 166.688 134.802 167 135.366C167.312 135.918 167.732 136.35 168.26 136.662C168.788 136.962 169.382 137.112 170.042 137.112ZM173.606 138.156V135.312L173.732 133.404L173.552 131.496V124.8H174.83V138.156H173.606ZM183.37 138.156V125.556H188.086C189.154 125.556 190.072 125.73 190.84 126.078C191.608 126.414 192.196 126.906 192.604 127.554C193.024 128.19 193.234 128.964 193.234 129.876C193.234 130.764 193.024 131.532 192.604 132.18C192.196 132.816 191.608 133.308 190.84 133.656C190.072 133.992 189.154 134.16 188.086 134.16H184.108L184.702 133.548V138.156H183.37ZM191.974 138.156L188.734 133.584H190.174L193.432 138.156H191.974ZM184.702 133.656L184.108 133.026H188.05C189.31 133.026 190.264 132.75 190.912 132.198C191.572 131.646 191.902 130.872 191.902 129.876C191.902 128.868 191.572 128.088 190.912 127.536C190.264 126.984 189.31 126.708 188.05 126.708H184.108L184.702 126.078V133.656ZM200.122 138.246C199.138 138.246 198.274 138.042 197.53 137.634C196.786 137.214 196.204 136.644 195.784 135.924C195.364 135.192 195.154 134.358 195.154 133.422C195.154 132.486 195.352 131.658 195.748 130.938C196.156 130.218 196.708 129.654 197.404 129.246C198.112 128.826 198.904 128.616 199.78 128.616C200.668 128.616 201.454 128.82 202.138 129.228C202.834 129.624 203.38 130.188 203.776 130.92C204.172 131.64 204.37 132.474 204.37 133.422C204.37 133.482 204.364 133.548 204.352 133.62C204.352 133.68 204.352 133.746 204.352 133.818H196.126V132.864H203.668L203.164 133.242C203.164 132.558 203.014 131.952 202.714 131.424C202.426 130.884 202.03 130.464 201.526 130.164C201.022 129.864 200.44 129.714 199.78 129.714C199.132 129.714 198.55 129.864 198.034 130.164C197.518 130.464 197.116 130.884 196.828 131.424C196.54 131.964 196.396 132.582 196.396 133.278V133.476C196.396 134.196 196.552 134.832 196.864 135.384C197.188 135.924 197.632 136.35 198.196 136.662C198.772 136.962 199.426 137.112 200.158 137.112C200.734 137.112 201.268 137.01 201.76 136.806C202.264 136.602 202.696 136.29 203.056 135.87L203.776 136.698C203.356 137.202 202.828 137.586 202.192 137.85C201.568 138.114 200.878 138.246 200.122 138.246ZM210.733 138.246C209.833 138.246 209.023 138.042 208.303 137.634C207.595 137.226 207.037 136.662 206.629 135.942C206.221 135.21 206.017 134.37 206.017 133.422C206.017 132.462 206.221 131.622 206.629 130.902C207.037 130.182 207.595 129.624 208.303 129.228C209.023 128.82 209.833 128.616 210.733 128.616C211.561 128.616 212.299 128.802 212.947 129.174C213.607 129.546 214.129 130.092 214.513 130.812C214.909 131.52 215.107 132.39 215.107 133.422C215.107 134.442 214.915 135.312 214.531 136.032C214.147 136.752 213.625 137.304 212.965 137.688C212.317 138.06 211.573 138.246 210.733 138.246ZM210.823 137.112C211.495 137.112 212.095 136.962 212.623 136.662C213.163 136.35 213.583 135.918 213.883 135.366C214.195 134.802 214.351 134.154 214.351 133.422C214.351 132.678 214.195 132.03 213.883 131.478C213.583 130.926 213.163 130.5 212.623 130.2C212.095 129.888 211.495 129.732 210.823 129.732C210.163 129.732 209.569 129.888 209.041 130.2C208.513 130.5 208.093 130.926 207.781 131.478C207.469 132.03 207.313 132.678 207.313 133.422C207.313 134.154 207.469 134.802 207.781 135.366C208.093 135.918 208.513 136.35 209.041 136.662C209.569 136.962 210.163 137.112 210.823 137.112ZM214.387 138.156V135.312L214.513 133.404L214.333 131.496V124.8H215.611V138.156H214.387ZM223.077 138.246C222.273 138.246 221.571 138.096 220.971 137.796C220.371 137.496 219.903 137.046 219.567 136.446C219.243 135.846 219.081 135.096 219.081 134.196V128.706H220.359V134.052C220.359 135.06 220.605 135.822 221.097 136.338C221.601 136.842 222.303 137.094 223.203 137.094C223.863 137.094 224.433 136.962 224.913 136.698C225.405 136.422 225.777 136.026 226.029 135.51C226.293 134.994 226.425 134.376 226.425 133.656V128.706H227.703V138.156H226.479V135.564L226.677 136.032C226.377 136.728 225.909 137.274 225.273 137.67C224.649 138.054 223.917 138.246 223.077 138.246ZM235.188 138.246C234.252 138.246 233.412 138.042 232.668 137.634C231.936 137.214 231.36 136.644 230.94 135.924C230.52 135.192 230.31 134.358 230.31 133.422C230.31 132.474 230.52 131.64 230.94 130.92C231.36 130.2 231.936 129.636 232.668 129.228C233.412 128.82 234.252 128.616 235.188 128.616C235.992 128.616 236.718 128.772 237.366 129.084C238.014 129.396 238.524 129.864 238.896 130.488L237.942 131.136C237.618 130.656 237.216 130.302 236.736 130.074C236.256 129.846 235.734 129.732 235.17 129.732C234.498 129.732 233.892 129.888 233.352 130.2C232.812 130.5 232.386 130.926 232.074 131.478C231.762 132.03 231.606 132.678 231.606 133.422C231.606 134.166 231.762 134.814 232.074 135.366C232.386 135.918 232.812 136.35 233.352 136.662C233.892 136.962 234.498 137.112 235.17 137.112C235.734 137.112 236.256 136.998 236.736 136.77C237.216 136.542 237.618 136.194 237.942 135.726L238.896 136.374C238.524 136.986 238.014 137.454 237.366 137.778C236.718 138.09 235.992 138.246 235.188 138.246ZM244.5 138.246C243.612 138.246 242.928 138.006 242.448 137.526C241.968 137.046 241.728 136.368 241.728 135.492V126.618H243.006V135.42C243.006 135.972 243.144 136.398 243.42 136.698C243.708 136.998 244.116 137.148 244.644 137.148C245.208 137.148 245.676 136.986 246.048 136.662L246.498 137.58C246.246 137.808 245.94 137.976 245.58 138.084C245.232 138.192 244.872 138.246 244.5 138.246ZM240.036 129.768V128.706H245.886V129.768H240.036ZM248.825 138.156V128.706H250.103V138.156H248.825ZM249.473 126.618C249.209 126.618 248.987 126.528 248.807 126.348C248.627 126.168 248.537 125.952 248.537 125.7C248.537 125.448 248.627 125.238 248.807 125.07C248.987 124.89 249.209 124.8 249.473 124.8C249.737 124.8 249.959 124.884 250.139 125.052C250.319 125.22 250.409 125.43 250.409 125.682C250.409 125.946 250.319 126.168 250.139 126.348C249.971 126.528 249.749 126.618 249.473 126.618ZM257.511 138.246C256.599 138.246 255.777 138.042 255.045 137.634C254.325 137.214 253.755 136.644 253.335 135.924C252.915 135.192 252.705 134.358 252.705 133.422C252.705 132.474 252.915 131.64 253.335 130.92C253.755 130.2 254.325 129.636 255.045 129.228C255.765 128.82 256.587 128.616 257.511 128.616C258.447 128.616 259.275 128.82 259.995 129.228C260.727 129.636 261.297 130.2 261.705 130.92C262.125 131.64 262.335 132.474 262.335 133.422C262.335 134.358 262.125 135.192 261.705 135.924C261.297 136.644 260.727 137.214 259.995 137.634C259.263 138.042 258.435 138.246 257.511 138.246ZM257.511 137.112C258.195 137.112 258.801 136.962 259.329 136.662C259.857 136.35 260.271 135.918 260.571 135.366C260.883 134.802 261.039 134.154 261.039 133.422C261.039 132.678 260.883 132.03 260.571 131.478C260.271 130.926 259.857 130.5 259.329 130.2C258.801 129.888 258.201 129.732 257.529 129.732C256.857 129.732 256.257 129.888 255.729 130.2C255.201 130.5 254.781 130.926 254.469 131.478C254.157 132.03 254.001 132.678 254.001 133.422C254.001 134.154 254.157 134.802 254.469 135.366C254.781 135.918 255.201 136.35 255.729 136.662C256.257 136.962 256.851 137.112 257.511 137.112ZM269.768 128.616C270.536 128.616 271.208 128.766 271.784 129.066C272.372 129.354 272.828 129.798 273.152 130.398C273.488 130.998 273.656 131.754 273.656 132.666V138.156H272.378V132.792C272.378 131.796 272.126 131.046 271.622 130.542C271.13 130.026 270.434 129.768 269.534 129.768C268.862 129.768 268.274 129.906 267.77 130.182C267.278 130.446 266.894 130.836 266.618 131.352C266.354 131.856 266.222 132.468 266.222 133.188V138.156H264.944V128.706H266.168V131.298L265.97 130.812C266.27 130.128 266.75 129.594 267.41 129.21C268.07 128.814 268.856 128.616 269.768 128.616Z" fill="white"/>
<path d="M5.45866 32.0893C5.33181 32.0646 5.19121 31.9997 5.03688 31.8947C4.89434 31.7874 4.80232 31.6889 4.76081 31.599C4.65704 31.3745 4.53729 31.098 4.40156 30.7695C4.26583 30.4411 4.12562 30.0891 3.98092 29.7135C3.83623 29.3379 3.69042 28.9565 3.54348 28.5691C3.40609 28.1677 3.27319 27.7899 3.14476 27.4356C3.0141 27.0696 2.90307 26.7426 2.81167 26.4546C2.72027 26.1666 2.65187 25.9353 2.60646 25.7607C2.5706 25.5721 2.61527 25.4536 2.74047 25.4054C3.04025 25.3118 3.27964 25.3823 3.45862 25.617C3.55791 25.818 3.66869 26.0473 3.79097 26.305C3.91326 26.5627 4.04002 26.844 4.17127 27.1488C4.43403 26.989 4.66171 26.8052 4.85432 26.5976C5.04693 26.3899 5.19604 26.1784 5.30165 25.9628C5.4168 25.7333 5.4848 25.5127 5.50564 25.3011C5.53604 25.0755 5.5086 24.8669 5.42335 24.6755C5.32182 24.4627 5.1254 24.329 4.83408 24.2745C4.54277 24.2199 4.22617 24.2251 3.8843 24.2901C3.41274 24.3798 3.00515 24.5489 2.66153 24.7974C2.32745 25.032 2.03069 25.3021 1.77125 25.608C1.64995 25.741 1.50342 25.8055 1.33165 25.8015C1.14586 25.788 1.00668 25.6984 0.914113 25.5327C0.882736 25.3677 0.885313 25.2206 0.921845 25.0915C0.958376 24.9624 1.01483 24.8418 1.09121 24.7295C1.38495 24.2828 1.76481 23.9358 2.23081 23.6884C2.70859 23.4387 3.22452 23.2613 3.7786 23.1559C4.22657 23.0708 4.67031 23.0597 5.10982 23.1227C5.56111 23.1835 5.96886 23.3686 6.33306 23.678C6.51935 23.8869 6.63715 24.121 6.68645 24.3804C6.74755 24.6375 6.76037 24.8977 6.72492 25.1609C6.68946 25.4242 6.6164 25.6824 6.50573 25.9355C6.40684 26.1864 6.29646 26.4089 6.17459 26.6031C6.46482 26.5235 6.77104 26.4958 7.09324 26.52C7.4132 26.5325 7.709 26.6106 7.98063 26.7544C8.26182 26.8842 8.50705 27.0819 8.71634 27.3474C8.92563 27.613 9.06949 27.9521 9.14793 28.3647C9.23758 28.8363 9.21329 29.2868 9.07505 29.7161C8.9486 30.1433 8.74021 30.5249 8.44989 30.861C8.17135 31.1949 7.82855 31.48 7.4215 31.7162C7.02624 31.9501 6.59873 32.1108 6.13896 32.1982C5.93855 32.2363 5.76819 32.2076 5.62789 32.1121C5.56895 32.1233 5.51254 32.1157 5.45866 32.0893ZM4.68193 28.3893C4.86365 28.8311 5.04284 29.2918 5.21949 29.7712C5.39615 30.2507 5.5787 30.729 5.76714 31.2062L5.83787 31.1927C6.09723 31.1434 6.37119 31.0425 6.65977 30.8899C6.96014 30.7351 7.22909 30.5435 7.46661 30.3151C7.7019 30.0749 7.8833 29.8083 8.01083 29.5154C8.13611 29.2106 8.16148 28.8943 8.08694 28.5665C7.97196 28.2829 7.79381 28.0847 7.55247 27.9718C7.31114 27.8589 7.03273 27.808 6.71726 27.8191C6.41357 27.828 6.08348 27.8908 5.72699 28.0074C5.38005 28.11 5.0317 28.2373 4.68193 28.3893ZM11.3448 25.3636C11.3346 25.6954 11.3311 26.0625 11.3343 26.465C11.3353 26.8557 11.3517 27.2312 11.3836 27.5916C11.4272 27.9497 11.4877 28.268 11.5651 28.5465C11.6543 28.8227 11.769 29.0085 11.9093 29.104C12.1164 29.1013 12.3306 28.975 12.5519 28.7253C12.7709 28.4638 12.9739 28.1504 13.161 27.785C13.348 27.4197 13.507 27.0352 13.638 26.6316C13.7666 26.2163 13.8454 25.8593 13.8741 25.5607C13.8943 25.4103 13.9076 25.2551 13.9138 25.0951C13.9201 24.9351 13.9075 24.7726 13.8761 24.6075C13.8582 24.5132 13.9003 24.4136 14.0025 24.3087C14.1143 24.1897 14.2103 24.1165 14.2905 24.089C14.3473 24.066 14.4143 24.0655 14.4918 24.0874C14.581 24.1071 14.6619 24.1467 14.7342 24.2062C14.8162 24.2517 14.8897 24.3171 14.9548 24.4025C15.0294 24.4738 15.0757 24.5566 15.0936 24.6509C15.1844 25.0001 15.2938 25.3824 15.4216 25.7978C15.5494 26.2133 15.6832 26.6276 15.8228 27.0408C15.9742 27.4517 16.1234 27.8509 16.2703 28.2383C16.4173 28.6256 16.5564 28.9717 16.6876 29.2766C16.7476 29.3995 16.7403 29.5536 16.6656 29.7388C16.5908 29.9241 16.492 30.0467 16.369 30.1067C16.2674 30.1504 16.1532 30.16 16.0263 30.1352C15.9113 30.1082 15.8108 30.0296 15.725 29.8993C15.6347 29.7455 15.5376 29.5563 15.4339 29.3317C15.3396 29.0931 15.2443 28.8486 15.1478 28.5982C15.0609 28.3338 14.9774 28.0871 14.8972 27.858C14.8147 27.6172 14.7519 27.4154 14.7088 27.2526C14.5924 27.6045 14.4419 27.969 14.2571 28.3462C14.0818 28.7093 13.8785 29.0533 13.6471 29.3783C13.4253 29.6892 13.1757 29.9504 12.8983 30.1619C12.6305 30.3594 12.334 30.4707 12.009 30.4959C11.5263 30.5266 11.0826 30.1529 10.6782 29.3747C10.5211 29.0625 10.4045 28.7061 10.3283 28.3052C10.2639 27.9022 10.2183 27.5016 10.1915 27.1036C10.1742 26.6916 10.1673 26.3021 10.1708 25.9349C10.1861 25.5656 10.2019 25.2633 10.2183 25.0281C10.2239 24.9293 10.2554 24.8378 10.3127 24.7537C10.3677 24.6577 10.4447 24.6125 10.5434 24.6182C10.727 24.6199 10.9063 24.6958 11.0814 24.8457C11.2683 24.9934 11.3561 25.166 11.3448 25.3636ZM20.3736 23.5921C20.3254 23.4669 20.2783 23.3476 20.2323 23.2342C20.1863 23.1208 20.1128 23.0554 20.0117 23.038C19.8001 23.0171 19.5868 23.0516 19.3718 23.1413C19.1567 23.2311 18.965 23.3469 18.7966 23.4889C18.6259 23.619 18.488 23.7613 18.383 23.9156C18.2757 24.0582 18.2252 24.1777 18.2313 24.2743C18.2296 24.4578 18.3092 24.6198 18.4703 24.7602C18.6313 24.9006 18.8513 25.0297 19.1303 25.1477C19.5899 25.3168 20.0684 25.4885 20.5657 25.6627C21.063 25.8369 21.4907 26.0304 21.8487 26.2433C22.2068 26.4561 22.4702 26.7175 22.6391 27.0275C22.8175 27.3233 22.8634 27.6933 22.7768 28.1373C22.7076 28.4802 22.5153 28.7855 22.1997 29.0532C21.8841 29.3208 21.5254 29.5539 21.1234 29.7525C20.7191 29.9393 20.3093 30.0966 19.8939 30.2244C19.4762 30.3405 19.12 30.4265 18.8253 30.4826C18.7545 30.496 18.6617 30.4892 18.5466 30.4623C18.4411 30.4212 18.3344 30.3743 18.2267 30.3215C18.1307 30.2665 18.0406 30.2103 17.9564 30.153C17.8818 30.0817 17.8389 30.0166 17.8277 29.9576C17.7873 29.7454 17.8536 29.5802 18.0266 29.4618C18.1995 29.3434 18.3862 29.2652 18.5866 29.2271C18.8695 29.1733 19.1679 29.1043 19.4817 29.0202C19.8051 28.9221 20.1085 28.8156 20.392 28.7006C20.6733 28.5738 20.9217 28.435 21.1373 28.284C21.353 28.1331 21.4922 27.9662 21.5552 27.7832C21.6108 27.626 21.5264 27.4711 21.3019 27.3183C21.0869 27.1515 20.806 26.9912 20.4592 26.8373C20.1241 26.6811 19.7607 26.5364 19.369 26.4032C18.989 26.2678 18.6595 26.1411 18.3806 26.0232C18.1016 25.9052 17.8524 25.751 17.633 25.5606C17.4114 25.3585 17.2445 25.0909 17.1323 24.758C17.0623 24.4538 17.0711 24.1467 17.1587 23.8369C17.2464 23.5271 17.3821 23.2448 17.5657 22.99C17.7589 22.7212 17.9905 22.4939 18.2606 22.3082C18.5307 22.1225 18.8131 22.0016 19.1078 21.9456C19.6192 21.8728 20.0646 21.9347 20.444 22.1313C20.8211 22.3161 21.0863 22.6505 21.2393 23.1344C21.2707 23.2994 21.267 23.4406 21.2282 23.5579C21.2013 23.673 21.1252 23.7546 21 23.8029C20.8394 23.8578 20.7005 23.8659 20.5832 23.8271C20.4754 23.7743 20.4056 23.696 20.3736 23.5921ZM25.6634 20.5893C25.6623 20.7117 25.5921 20.7922 25.4529 20.8309C25.3136 20.8696 25.1969 20.8979 25.1026 20.9158C24.8101 20.9836 24.5092 21.0714 24.1998 21.179C23.9023 21.2845 23.5915 21.4168 23.2676 21.5761C23.1351 21.6502 22.9785 21.6616 22.7978 21.6105C22.617 21.5594 22.4854 21.4134 22.403 21.1725C22.3851 21.0782 22.4059 20.9949 22.4654 20.9225C22.5249 20.8501 22.5974 20.7813 22.6827 20.7163C22.8225 20.6164 22.994 20.5227 23.1973 20.4352C23.3983 20.3359 23.6026 20.2543 23.8103 20.1904C24.0298 20.1242 24.2409 20.078 24.4436 20.0517C24.644 20.0136 24.8124 19.9999 24.9488 20.0106C25.1486 20.0337 25.3128 20.0941 25.4413 20.1918C25.5816 20.2873 25.6556 20.4198 25.6634 20.5893ZM26.3762 26.5552C26.4946 26.7281 26.5751 26.9265 26.6177 27.1505C26.6698 27.3605 26.6389 27.5191 26.5249 27.6262C26.38 27.7637 26.2021 27.7914 25.991 27.7094C25.78 27.6274 25.6083 27.4951 25.4759 27.3126C25.2991 27.0897 25.1418 26.8082 25.0038 26.468C24.8636 26.1159 24.7422 25.7665 24.6396 25.4195C24.537 25.0726 24.4506 24.747 24.3806 24.4427C24.3223 24.1362 24.2786 23.9063 24.2495 23.7531C24.2299 23.5858 24.2479 23.4236 24.3035 23.2664C24.3592 23.1093 24.4496 23.0066 24.5748 22.9583C24.7892 22.9298 24.9792 22.9975 25.1447 23.1615C25.308 23.3136 25.4095 23.5264 25.4493 23.7998C25.4896 24.012 25.5404 24.2467 25.6015 24.5038C25.6626 24.7609 25.7354 25.0157 25.8201 25.2684C25.9048 25.521 25.9942 25.7666 26.0885 26.0052C26.1804 26.232 26.2764 26.4153 26.3762 26.5552ZM28.3693 21.504C28.4383 21.6741 28.5117 21.8678 28.5897 22.0851C28.6772 22.2883 28.7669 22.5033 28.8589 22.7302C28.9486 22.9452 29.0336 23.1672 29.1138 23.3963C29.194 23.6253 29.266 23.8437 29.33 24.0514C29.4132 23.718 29.5048 23.3647 29.6048 22.9914C29.7049 22.6182 29.8223 22.2722 29.9571 21.9534C30.1015 21.6206 30.2619 21.3397 30.4382 21.1107C30.6264 20.8795 30.8501 20.7392 31.1094 20.6899C31.4985 20.616 31.8496 20.6958 32.1627 20.9294C32.4876 21.1608 32.7789 21.4719 33.0364 21.8627C33.3035 22.2394 33.5337 22.6476 33.7272 23.0872C33.9208 23.5268 34.0865 23.9167 34.2245 24.2569C34.3557 24.5617 34.2591 24.8244 33.9345 25.0449C33.7852 25.1588 33.6636 25.1941 33.5699 25.1509C33.4762 25.1076 33.4178 25.0576 33.3948 25.0009C33.309 24.8707 33.1853 24.6377 33.0238 24.3019C32.874 23.964 32.7054 23.6235 32.5181 23.2804C32.3425 22.9351 32.1582 22.6404 31.9652 22.3961C31.7722 22.1519 31.5895 22.0583 31.4171 22.1155C31.2072 22.1677 31.0488 22.3627 30.942 22.7006C30.8476 22.975 30.7529 23.2801 30.658 23.6157C30.5725 23.9373 30.4893 24.2708 30.4084 24.6159C30.3252 24.9494 30.2431 25.2887 30.1622 25.6338C30.0908 25.965 30.0208 26.2715 29.9522 26.5532C29.8853 26.6515 29.7905 26.7306 29.6675 26.7906C29.5541 26.8366 29.4281 26.8483 29.2894 26.8258C29.1648 26.8129 29.0593 26.7719 28.9729 26.7028C28.8865 26.6337 28.8354 26.5579 28.8197 26.4754C28.5388 25.576 28.2677 24.7603 28.0063 24.0282C27.7568 23.2939 27.4685 22.5486 27.1415 21.7924C27.0075 21.537 26.9494 21.3281 26.9675 21.1659C26.995 20.9897 27.1595 20.8912 27.461 20.8705C27.887 20.8628 28.1898 21.074 28.3693 21.504ZM39.3309 21.1607C38.9227 21.5192 38.4679 21.8256 37.9666 22.0797C37.463 22.322 36.9047 22.5014 36.2916 22.618C36.3937 23.0261 36.5743 23.3338 36.8336 23.541C37.0906 23.7364 37.3827 23.8275 37.71 23.8141C37.9031 23.8018 38.0906 23.7601 38.2725 23.6888C38.4662 23.6154 38.6388 23.5276 38.7904 23.4255C38.9516 23.3093 39.0939 23.1907 39.2175 23.0695C39.341 22.9483 39.4468 22.8304 39.535 22.7159C39.6232 22.6014 39.724 22.5212 39.8374 22.4752C39.9485 22.4174 40.0358 22.3947 40.0993 22.4071C40.2755 22.4347 40.3681 22.6003 40.377 22.904C40.26 23.3171 40.0505 23.6928 39.7484 24.0312C39.4441 24.3578 39.0805 24.5979 38.6578 24.7516C38.294 24.894 37.9016 24.9503 37.4806 24.9204C37.0596 24.8905 36.6608 24.7526 36.2843 24.5066C35.9616 24.287 35.6947 24.0079 35.4838 23.6694C35.2729 23.3308 35.1127 22.9704 35.0034 22.5881C34.8985 22.2293 34.8619 21.8759 34.8935 21.5279C34.9368 21.1777 35.041 20.8586 35.2062 20.5707C35.3691 20.271 35.594 20.0084 35.8809 19.7828C36.1678 19.5572 36.5212 19.3923 36.9411 19.2881C37.4413 19.1563 37.919 19.1632 38.3742 19.3088C38.8294 19.4543 39.1776 19.7118 39.4189 20.0813C39.5558 20.2873 39.6163 20.4773 39.6006 20.6514C39.5966 20.8231 39.5067 20.9929 39.3309 21.1607ZM37.0688 20.3448C36.9554 20.3908 36.8335 20.4567 36.7033 20.5426C36.5848 20.6262 36.4756 20.7263 36.3756 20.8431C36.2852 20.9457 36.2041 21.065 36.1322 21.2008C36.0698 21.3226 36.0462 21.4554 36.0613 21.5991C36.2617 21.561 36.4764 21.5018 36.7055 21.4216C36.9463 21.3392 37.1743 21.2531 37.3893 21.1634C37.6139 21.0596 37.8137 20.9544 37.9889 20.8478C38.1759 20.739 38.3263 20.631 38.4403 20.5238C38.3034 20.3178 38.1008 20.2158 37.8325 20.2179C37.5737 20.2061 37.3192 20.2484 37.0688 20.3448ZM44.3427 19.0352C44.2945 18.91 44.2474 18.7907 44.2014 18.6773C44.1554 18.5639 44.0819 18.4985 43.9808 18.4811C43.7692 18.4602 43.5559 18.4947 43.3409 18.5844C43.1259 18.6741 42.9341 18.79 42.7657 18.932C42.595 19.0621 42.4571 19.2044 42.3521 19.3587C42.2448 19.5012 42.1943 19.6208 42.2004 19.7173C42.1987 19.9009 42.2783 20.0629 42.4394 20.2033C42.6004 20.3437 42.8204 20.4728 43.0994 20.5908C43.559 20.7599 44.0375 20.9316 44.5348 21.1058C45.0321 21.28 45.4598 21.4735 45.8178 21.6864C46.1759 21.8992 46.4393 22.1606 46.6082 22.4705C46.7866 22.7664 46.8325 23.1364 46.7459 23.5804C46.6767 23.9233 46.4844 24.2286 46.1688 24.4963C45.8532 24.7639 45.4945 24.997 45.0925 25.1956C44.6883 25.3824 44.2784 25.5397 43.863 25.6675C43.4453 25.7836 43.0891 25.8696 42.7944 25.9256C42.7237 25.9391 42.6308 25.9323 42.5157 25.9053C42.4102 25.8643 42.3035 25.8174 42.1958 25.7646C42.0998 25.7096 42.0097 25.6534 41.9256 25.5961C41.8509 25.5248 41.808 25.4597 41.7968 25.4007C41.7565 25.1885 41.8228 25.0232 41.9957 24.9049C42.1686 24.7865 42.3553 24.7082 42.5557 24.6701C42.8386 24.6163 43.137 24.5474 43.4508 24.4633C43.7742 24.3652 44.0776 24.2586 44.3611 24.1437C44.6424 24.0169 44.8909 23.8781 45.1065 23.7271C45.3221 23.5762 45.4613 23.4093 45.5243 23.2263C45.5799 23.0691 45.4955 22.9142 45.271 22.7614C45.0561 22.5946 44.7752 22.4343 44.4283 22.2803C44.0932 22.1242 43.7298 21.9795 43.3381 21.8463C42.9581 21.7109 42.6286 21.5842 42.3497 21.4662C42.0707 21.3483 41.8216 21.1941 41.6021 21.0037C41.3805 20.8016 41.2136 20.534 41.1014 20.2011C41.0314 19.8968 41.0402 19.5898 41.1279 19.28C41.2155 18.9701 41.3512 18.6878 41.5348 18.4331C41.728 18.1642 41.9597 17.937 42.2297 17.7513C42.4998 17.5656 42.7822 17.4447 43.0769 17.3887C43.5883 17.3159 44.0337 17.3778 44.4131 17.5744C44.7903 17.7592 45.0554 18.0935 45.2084 18.5775C45.2398 18.7425 45.2361 18.8837 45.1974 19.001C45.1704 19.1161 45.0943 19.1977 44.9691 19.2459C44.8085 19.3009 44.6696 19.309 44.5523 19.2702C44.4445 19.2174 44.3747 19.1391 44.3427 19.0352ZM50.335 17.896C50.2868 17.7708 50.2396 17.6515 50.1937 17.5381C50.1477 17.4247 50.0742 17.3593 49.9731 17.3418C49.7615 17.321 49.5482 17.3554 49.3332 17.4452C49.1181 17.5349 48.9264 17.6508 48.7579 17.7927C48.5873 17.9229 48.4494 18.0651 48.3444 18.2195C48.2371 18.362 48.1865 18.4816 48.1927 18.5781C48.1909 18.7617 48.2706 18.9236 48.4317 19.064C48.5927 19.2044 48.8127 19.3336 49.0916 19.4516C49.5513 19.6207 50.0298 19.7924 50.5271 19.9666C51.0244 20.1407 51.452 20.3343 51.8101 20.5471C52.1682 20.76 52.4316 21.0214 52.6005 21.3313C52.7789 21.6272 52.8248 21.9971 52.7382 22.4411C52.669 22.7841 52.4766 23.0894 52.1611 23.357C51.8455 23.6247 51.4867 23.8578 51.0848 24.0564C50.6805 24.2431 50.2707 24.4005 49.8553 24.5283C49.4376 24.6443 49.0814 24.7304 48.7867 24.7864C48.7159 24.7999 48.623 24.7931 48.508 24.7661C48.4025 24.7251 48.2958 24.6782 48.1881 24.6254C48.0921 24.5703 48.002 24.5142 47.9178 24.4569C47.8432 24.3856 47.8003 24.3205 47.7891 24.2615C47.7487 24.0493 47.815 23.884 47.988 23.7656C48.1609 23.6473 48.3476 23.569 48.548 23.5309C48.8309 23.4771 49.1293 23.4082 49.4431 23.3241C49.7665 23.226 50.0699 23.1194 50.3534 23.0044C50.6347 22.8777 50.8831 22.7388 51.0987 22.5879C51.3143 22.437 51.4536 22.27 51.5165 22.0871C51.5722 21.9299 51.4877 21.7749 51.2633 21.6222C51.0483 21.4554 50.7674 21.295 50.4206 21.1411C50.0855 20.9849 49.7221 20.8403 49.3303 20.7071C48.9504 20.5717 48.6209 20.445 48.342 20.327C48.063 20.209 47.8138 20.0549 47.5944 19.8645C47.3728 19.6623 47.2059 19.3948 47.0937 19.0619C47.0236 18.7576 47.0325 18.4506 47.1201 18.1407C47.2078 17.8309 47.3435 17.5486 47.5271 17.2938C47.7203 17.025 47.9519 16.7978 48.222 16.612C48.4921 16.4263 48.7745 16.3055 49.0692 16.2494C49.5806 16.1766 50.026 16.2385 50.4054 16.4351C50.7825 16.62 51.0476 16.9543 51.2007 17.4382C51.2321 17.6033 51.2284 17.7445 51.1896 17.8618C51.1626 17.9768 51.0866 18.0585 50.9614 18.1067C50.8008 18.1617 50.6619 18.1698 50.5446 18.131C50.4368 18.0782 50.3669 17.9999 50.335 17.896ZM57.515 17.7036C57.1068 18.0621 56.652 18.3685 56.1506 18.6226C55.647 18.8649 55.0887 19.0443 54.4757 19.1609C54.5777 19.569 54.7584 19.8767 55.0176 20.0839C55.2747 20.2793 55.5668 20.3704 55.8941 20.357C56.0872 20.3447 56.2747 20.303 56.4566 20.2318C56.6503 20.1583 56.8229 20.0705 56.9745 19.9684C57.1356 19.8523 57.278 19.7336 57.4015 19.6124C57.525 19.4912 57.6309 19.3733 57.7191 19.2588C57.8072 19.1444 57.908 19.0641 58.0214 19.0181C58.1326 18.9604 58.2199 18.9377 58.2833 18.95C58.4596 18.9776 58.5521 19.1432 58.561 19.4469C58.4441 19.86 58.2346 20.2357 57.9325 20.5741C57.6281 20.9007 57.2646 21.1408 56.8418 21.2945C56.478 21.437 56.0856 21.4932 55.6647 21.4633C55.2437 21.4334 54.8449 21.2955 54.4683 21.0495C54.1456 20.8299 53.8788 20.5508 53.6679 20.2123C53.4569 19.8737 53.2968 19.5133 53.1874 19.131C53.0826 18.7722 53.046 18.4189 53.0775 18.0708C53.1209 17.7206 53.2251 17.4015 53.3902 17.1136C53.5531 16.8139 53.778 16.5513 54.0649 16.3257C54.3519 16.1002 54.7053 15.9352 55.1252 15.831C55.6254 15.6992 56.1031 15.7061 56.5583 15.8517C57.0135 15.9972 57.3617 16.2547 57.6029 16.6242C57.7398 16.8302 57.8004 17.0203 57.7846 17.1943C57.7806 17.366 57.6908 17.5358 57.515 17.7036ZM55.2528 16.8877C55.1394 16.9337 55.0176 16.9997 54.8873 17.0855C54.7689 17.1691 54.6596 17.2692 54.5597 17.386C54.4693 17.4887 54.3881 17.6079 54.3162 17.7437C54.2539 17.8655 54.2302 17.9983 54.2453 18.142C54.4458 18.1039 54.6605 18.0447 54.8895 17.9645C55.1304 17.8821 55.3583 17.796 55.5733 17.7063C55.7979 17.6025 55.9978 17.4973 56.173 17.3907C56.3599 17.2819 56.5104 17.1739 56.6244 17.0667C56.4875 16.8607 56.2849 16.7587 56.0166 16.7609C55.7578 16.749 55.5032 16.7913 55.2528 16.8877ZM62.5268 15.5781C62.4785 15.4529 62.4314 15.3336 62.3854 15.2202C62.3394 15.1068 62.2659 15.0414 62.1649 15.024C61.9533 15.0031 61.74 15.0376 61.5249 15.1273C61.3099 15.2171 61.1182 15.3329 60.9497 15.4749C60.779 15.605 60.6412 15.7473 60.5362 15.9016C60.4289 16.0442 60.3783 16.1637 60.3845 16.2603C60.3827 16.4438 60.4624 16.6058 60.6234 16.7462C60.7845 16.8866 61.0045 17.0158 61.2834 17.1337C61.7431 17.3029 62.2216 17.4745 62.7189 17.6487C63.2162 17.8229 63.6438 18.0164 64.0019 18.2293C64.3599 18.4422 64.6234 18.7035 64.7922 19.0135C64.9707 19.3094 65.0166 19.6793 64.93 20.1233C64.8608 20.4662 64.6684 20.7715 64.3529 21.0392C64.0373 21.3068 63.6785 21.5399 63.2765 21.7385C62.8723 21.9253 62.4625 22.0826 62.047 22.2104C61.6294 22.3265 61.2732 22.4125 60.9785 22.4686C60.9077 22.482 60.8148 22.4752 60.6998 22.4483C60.5942 22.4072 60.4876 22.3603 60.3798 22.3075C60.2839 22.2525 60.1938 22.1963 60.1096 22.139C60.035 22.0677 59.9921 22.0026 59.9809 21.9437C59.9405 21.7315 60.0068 21.5662 60.1797 21.4478C60.3527 21.3294 60.5393 21.2512 60.7398 21.2131C61.0227 21.1593 61.3211 21.0903 61.6349 21.0062C61.9582 20.9081 62.2617 20.8016 62.5452 20.6866C62.8265 20.5598 63.0749 20.421 63.2905 20.2701C63.5061 20.1191 63.6454 19.9522 63.7083 19.7692C63.764 19.6121 63.6795 19.4571 63.455 19.3043C63.2401 19.1375 62.9592 18.9772 62.6124 18.8233C62.2773 18.6671 61.9139 18.5224 61.5221 18.3892C61.1421 18.2538 60.8127 18.1271 60.5337 18.0092C60.2548 17.8912 60.0056 17.737 59.7862 17.5466C59.5645 17.3445 59.3976 17.0769 59.2855 16.744C59.2154 16.4398 59.2242 16.1327 59.3119 15.8229C59.3996 15.5131 59.5352 15.2308 59.7189 14.976C59.9121 14.7072 60.1437 14.4799 60.4138 14.2942C60.6838 14.1085 60.9662 13.9876 61.261 13.9316C61.7724 13.8588 62.2178 13.9207 62.5972 14.1173C62.9743 14.3021 63.2394 14.6365 63.3925 15.1204C63.4239 15.2854 63.4202 15.4266 63.3814 15.5439C63.3544 15.659 63.2783 15.7406 63.1531 15.7889C62.9926 15.8438 62.8537 15.8519 62.7363 15.8131C62.6286 15.7603 62.5587 15.682 62.5268 15.5781ZM74.3768 14.0948C74.3032 14.1576 74.2064 14.1944 74.0862 14.205C73.9639 14.2038 73.8491 14.1463 73.7419 14.0323C73.5062 13.8206 73.2528 13.7405 72.9817 13.792C72.7341 13.8391 72.5213 13.9406 72.3433 14.0966C72.1749 14.2386 72.032 14.4184 71.9146 14.6362C71.8067 14.8399 71.7269 15.0628 71.6752 15.3047C71.6235 15.5466 71.6012 15.7829 71.6084 16.0136C71.6279 16.4374 71.7648 16.7718 72.019 17.0166C72.2732 17.2614 72.6125 17.3435 73.0369 17.2628C73.381 17.2096 73.7518 17.0719 74.1493 16.8498C74.5564 16.6136 74.9261 16.3417 75.2585 16.0342C75.4101 15.9321 75.5555 15.8617 75.6948 15.8231C75.834 15.7844 75.9653 15.8327 76.0888 15.968C76.2425 16.1342 76.25 16.3343 76.1113 16.5684C75.9703 16.7906 75.767 17.0064 75.5014 17.2157C75.2381 17.4367 74.9537 17.6435 74.6483 17.8359C74.3524 18.0143 74.045 18.1644 73.7261 18.2861C73.405 18.396 73.0749 18.4587 72.7359 18.4743C72.4086 18.4877 72.0867 18.4329 71.7701 18.3098C71.2639 18.0885 70.9098 17.7038 70.7079 17.1559C70.506 16.608 70.4364 16.0166 70.4989 15.3817C70.527 15.1443 70.5847 14.9013 70.6718 14.6526C70.7566 14.3922 70.8695 14.1508 71.0105 13.9286C71.1633 13.7041 71.3393 13.5058 71.5386 13.3335C71.7357 13.1494 71.9654 13.0081 72.2275 12.9094C72.6503 12.7557 73.0778 12.7233 73.51 12.8121C73.9399 12.8892 74.2601 13.1276 74.4704 13.5273C74.5119 13.6172 74.531 13.7174 74.5276 13.8279C74.5219 13.9267 74.4717 14.0157 74.3768 14.0948ZM80.7573 10.8113C80.8672 11.1325 80.9698 11.4794 81.0651 11.8522C81.1699 12.2109 81.2641 12.5778 81.3476 12.9528C81.4429 13.3255 81.5242 13.6887 81.5914 14.0424C81.6587 14.3961 81.7133 14.7155 81.7553 15.0007C82.1818 15.1883 82.4495 15.3756 82.5584 15.5626C82.679 15.7473 82.7244 15.9219 82.6946 16.0863C82.6642 16.312 82.5558 16.4486 82.3694 16.4963C82.1926 16.5299 81.974 16.5043 81.7135 16.4194C81.5709 16.5687 81.4069 16.7342 81.2216 16.916C81.0341 17.0861 80.8347 17.2583 80.6236 17.4328C80.4103 17.5955 80.1947 17.7465 79.9768 17.8856C79.759 18.0247 79.5532 18.131 79.3595 18.2045C78.9935 18.3352 78.6381 18.3294 78.2935 18.1873C77.9607 18.0429 77.7031 17.7804 77.5208 17.3997C77.3986 17.142 77.3282 16.8684 77.3098 16.5787C77.2891 16.2773 77.3249 15.9834 77.417 15.6972C77.5069 15.3991 77.6496 15.1216 77.8451 14.8646C78.0523 14.6053 78.3097 14.3854 78.6174 14.2047C78.6932 14.1537 78.7996 14.1029 78.9366 14.0524C79.0854 13.9997 79.2375 13.9647 79.393 13.9473C79.558 13.916 79.7287 13.914 79.9049 13.9416C80.0812 13.9692 80.2535 14.0403 80.4218 14.1548C80.3837 13.9544 80.3364 13.7374 80.2798 13.5039C80.2327 13.2563 80.1797 13.0099 80.1209 12.7646C80.062 12.5192 80.0006 12.2927 79.9367 12.085C79.8823 11.8633 79.8288 11.678 79.7761 11.5292C79.7189 11.3569 79.628 11.2642 79.5034 11.2513C79.3883 11.2243 79.2539 11.256 79.1 11.3463C78.835 11.4944 78.5397 11.7399 78.214 12.0827C77.8883 12.4256 77.5836 12.7828 77.3 13.1543C77.2141 13.2805 77.0993 13.3512 76.9556 13.3663C76.8237 13.3792 76.7016 13.3474 76.5893 13.2711C76.4771 13.1947 76.4039 13.0987 76.3697 12.983C76.3332 12.8556 76.3546 12.7111 76.4338 12.5494C76.5939 12.2991 76.7764 12.0384 76.9814 11.7674C77.1864 11.4963 77.4076 11.2466 77.6452 11.0182C77.8804 10.7781 78.1283 10.5721 78.3889 10.4005C78.6494 10.2288 78.92 10.1102 79.2007 10.0446C79.611 9.95434 79.9473 9.98814 80.2094 10.146C80.4692 10.292 80.6518 10.5138 80.7573 10.8113ZM79.4288 15.0032C79.2823 15.0677 79.1318 15.1757 78.9774 15.3272C78.8325 15.4647 78.705 15.6294 78.595 15.8214C78.4944 15.9993 78.4278 16.1951 78.3952 16.409C78.3721 16.6088 78.408 16.7975 78.5028 16.9749C78.5398 17.0411 78.597 17.0852 78.6745 17.1071C78.7637 17.1268 78.8533 17.1159 78.9431 17.0744C79.2148 16.9616 79.5118 16.7891 79.8341 16.5569C80.166 16.3105 80.4189 16.067 80.593 15.8263C80.5796 15.7555 80.5274 15.6738 80.4365 15.5812C80.3434 15.4767 80.2395 15.3804 80.1251 15.2923C80.0083 15.1923 79.8832 15.1123 79.7496 15.0522C79.6278 14.9898 79.5209 14.9735 79.4288 15.0032ZM83.9576 10.9358C84.0266 11.1059 84.1 11.2996 84.178 11.5169C84.2655 11.7201 84.3552 11.9351 84.4472 12.1619C84.5369 12.377 84.6219 12.599 84.7021 12.828C84.7823 13.0571 84.8544 13.2755 84.9183 13.4832C85.0015 13.1498 85.0931 12.7965 85.1931 12.4232C85.2932 12.05 85.4106 11.7039 85.5455 11.3851C85.6898 11.0523 85.8502 10.7714 86.0265 10.5425C86.2147 10.3113 86.4384 10.171 86.6978 10.1217C87.0868 10.0477 87.4379 10.1276 87.751 10.3612C88.076 10.5926 88.3672 10.9037 88.6247 11.2944C88.8918 11.6712 89.122 12.0794 89.3156 12.519C89.5091 12.9585 89.6748 13.3484 89.8128 13.6887C89.944 13.9935 89.8474 14.2562 89.5228 14.4767C89.3735 14.5906 89.252 14.6259 89.1582 14.5826C89.0645 14.5394 89.0061 14.4894 88.9831 14.4327C88.8973 14.3025 88.7736 14.0695 88.6121 13.7337C88.4623 13.3957 88.2937 13.0552 88.1064 12.7122C87.9308 12.3669 87.7465 12.0721 87.5535 11.8279C87.3605 11.5836 87.1778 11.4901 87.0054 11.5473C86.7955 11.5994 86.6371 11.7945 86.5303 12.1323C86.4359 12.4068 86.3412 12.7119 86.2463 13.0475C86.1608 13.3691 86.0776 13.7025 85.9967 14.0477C85.9135 14.3811 85.8314 14.7204 85.7505 15.0656C85.6791 15.3968 85.6091 15.7032 85.5405 15.985C85.4737 16.0832 85.3788 16.1623 85.2558 16.2224C85.1424 16.2683 85.0164 16.2801 84.8777 16.2576C84.7531 16.2446 84.6476 16.2036 84.5612 16.1345C84.4748 16.0655 84.4237 15.9897 84.408 15.9072C84.1271 15.0078 83.856 14.1921 83.5946 13.46C83.3451 12.7257 83.0568 11.9804 82.7298 11.2242C82.5958 10.9687 82.5377 10.7599 82.5558 10.5977C82.5833 10.4214 82.7478 10.323 83.0493 10.3023C83.4753 10.2946 83.7781 10.5058 83.9576 10.9358ZM10.9525 47.4943C11.0624 47.8154 11.165 48.1624 11.2603 48.5351C11.3652 48.8939 11.4594 49.2607 11.5429 49.6357C11.6382 50.0085 11.7194 50.3717 11.7867 50.7254C11.8539 51.079 11.9085 51.3985 11.9505 51.6836C12.3771 51.8713 12.6448 52.0586 12.7536 52.2455C12.8742 52.4302 12.9196 52.6048 12.8898 52.7693C12.8594 52.9949 12.7511 53.1316 12.5647 53.1792C12.3878 53.2129 12.1692 53.1872 11.9088 53.1024C11.7662 53.2517 11.6022 53.4172 11.4169 53.599C11.2293 53.769 11.03 53.9413 10.8189 54.1158C10.6055 54.2785 10.3899 54.4294 10.1721 54.5686C9.95421 54.7077 9.74845 54.814 9.55476 54.8875C9.18872 55.0181 8.8334 55.0124 8.48879 54.8703C8.15597 54.7259 7.8984 54.4634 7.7161 54.0827C7.59382 53.825 7.52347 53.5513 7.50504 53.2617C7.48438 52.9602 7.52013 52.6664 7.61228 52.3801C7.7022 52.0821 7.84488 51.8046 8.04031 51.5475C8.24753 51.2883 8.50498 51.0683 8.81266 50.8877C8.88846 50.8366 8.99485 50.7859 9.13183 50.7354C9.2806 50.6827 9.43274 50.6476 9.58823 50.6303C9.75328 50.5989 9.92393 50.597 10.1002 50.6246C10.2764 50.6522 10.4487 50.7232 10.6171 50.8378C10.579 50.6374 10.5316 50.4204 10.475 50.1869C10.428 49.9393 10.375 49.6929 10.3161 49.4475C10.2573 49.2022 10.1959 48.9757 10.132 48.768C10.0776 48.5462 10.0241 48.361 9.97135 48.2122C9.91415 48.0398 9.82324 47.9472 9.69863 47.9342C9.58357 47.9073 9.44912 47.9389 9.29528 48.0292C9.03028 48.1773 8.73493 48.4228 8.40923 48.7657C8.08354 49.1086 7.77889 49.4657 7.49529 49.8372C7.40936 49.9635 7.29454 50.0342 7.15083 50.0493C7.01892 50.0622 6.89684 50.0304 6.78459 49.954C6.67235 49.8777 6.59913 49.7816 6.56493 49.666C6.52849 49.5386 6.54987 49.394 6.62907 49.2324C6.78914 48.9821 6.97167 48.7214 7.17665 48.4504C7.38163 48.1793 7.60288 47.9296 7.84041 47.7012C8.07569 47.461 8.32359 47.2551 8.58411 47.0834C8.84463 46.9117 9.11524 46.7931 9.39593 46.7275C9.8063 46.6373 10.1425 46.6711 10.4046 46.8289C10.6645 46.975 10.8471 47.1968 10.9525 47.4943ZM9.62407 51.6862C9.47754 51.7507 9.32707 51.8587 9.17265 52.0102C9.02777 52.1477 8.90029 52.3124 8.79021 52.5043C8.68966 52.6822 8.62308 52.8781 8.59045 53.092C8.56736 53.2918 8.60322 53.4804 8.69803 53.6578C8.73505 53.7241 8.79229 53.7682 8.86975 53.7901C8.95899 53.8098 9.04853 53.7989 9.13836 53.7573C9.41009 53.6446 9.70709 53.4721 10.0294 53.2398C10.3612 52.9935 10.6142 52.75 10.7883 52.5092C10.7748 52.4385 10.7227 52.3568 10.6318 52.2642C10.5386 52.1597 10.4348 52.0634 10.3203 51.9752C10.2036 51.8753 10.0784 51.7952 9.94486 51.7351C9.82307 51.6728 9.71614 51.6565 9.62407 51.6862ZM17.3337 48.3516C17.2601 48.4144 17.1633 48.4512 17.0431 48.4618C16.9208 48.4606 16.806 48.403 16.6988 48.2891C16.4631 48.0773 16.2097 47.9973 15.9386 48.0488C15.691 48.0959 15.4782 48.1974 15.3002 48.3534C15.1318 48.4954 14.9889 48.6752 14.8715 48.893C14.7636 49.0967 14.6838 49.3195 14.6321 49.5614C14.5804 49.8034 14.5581 50.0397 14.5653 50.2704C14.5848 50.6942 14.7217 51.0285 14.9759 51.2734C15.2301 51.5182 15.5694 51.6003 15.9938 51.5196C16.3379 51.4664 16.7087 51.3287 17.1062 51.1065C17.5133 50.8704 17.883 50.5985 18.2154 50.291C18.367 50.1889 18.5124 50.1185 18.6517 50.0798C18.7909 50.0411 18.9222 50.0895 19.0457 50.2248C19.1994 50.391 19.2069 50.5911 19.0682 50.8252C18.9272 51.0474 18.7239 51.2632 18.4584 51.4724C18.195 51.6935 17.9106 51.9003 17.6052 52.0927C17.3093 52.2711 17.0019 52.4212 16.683 52.5429C16.3619 52.6528 16.0318 52.7155 15.6928 52.7311C15.3655 52.7445 15.0436 52.6896 14.7271 52.5666C14.2208 52.3452 13.8667 51.9606 13.6648 51.4127C13.463 50.8647 13.3933 50.2733 13.4558 49.6385C13.484 49.4011 13.5416 49.158 13.6287 48.9094C13.7135 48.649 13.8264 48.4076 13.9674 48.1854C14.1202 47.9609 14.2962 47.7625 14.4955 47.5903C14.6926 47.4062 14.9223 47.2648 15.1845 47.1661C15.6072 47.0125 16.0347 46.9801 16.4669 47.0689C16.8968 47.146 17.217 47.3844 17.4273 47.7841C17.4688 47.8739 17.4879 47.9741 17.4845 48.0847C17.4788 48.1835 17.4286 48.2725 17.3337 48.3516ZM20.2858 44.3824C20.3396 44.6653 20.3942 44.9847 20.4496 45.3406C20.5169 45.6943 20.5864 46.0597 20.6581 46.437C20.7416 46.812 20.8214 47.1999 20.8976 47.6007C20.9856 47.9993 21.0703 48.3802 21.1515 48.7434C21.2246 48.4852 21.3224 48.2284 21.4448 47.9731C21.565 47.7059 21.7085 47.4649 21.8753 47.2499C22.0539 47.0328 22.2451 46.8498 22.4489 46.7012C22.6645 46.5502 22.9079 46.449 23.179 46.3975C23.4738 46.3414 23.7511 46.3864 24.0109 46.5325C24.2825 46.6763 24.5311 46.8916 24.7567 47.1785C24.9918 47.4514 25.2053 47.7712 25.3971 48.1378C25.5867 48.4926 25.755 48.8637 25.9019 49.2511C26.0584 49.6245 26.1891 49.9905 26.2939 50.3492C26.3965 50.6962 26.4843 50.9971 26.5572 51.2519C26.593 51.4406 26.575 51.6028 26.5031 51.7386C26.4312 51.8744 26.3304 51.9547 26.2007 51.9793C26.1064 51.9972 25.9773 51.9607 25.8135 51.8697C25.6591 51.7647 25.5357 51.6294 25.4431 51.4637C25.3809 51.329 25.3063 51.1294 25.2194 50.865C25.1324 50.6006 25.0363 50.3196 24.9308 50.022C24.8232 49.7127 24.7037 49.4056 24.5725 49.1008C24.4412 48.7959 24.299 48.5298 24.1458 48.3024C24.0022 48.061 23.8462 47.883 23.6779 47.7684C23.5095 47.6538 23.3344 47.6322 23.1525 47.7034C22.869 47.8184 22.6488 48.074 22.4921 48.4702C22.3471 48.8642 22.2347 49.3009 22.1548 49.7803C22.0867 50.2574 22.0434 50.7359 22.0247 51.2158C22.0178 51.6935 22.0176 52.0783 22.0243 52.3702C22.0175 52.5914 21.9806 52.7511 21.9138 52.8493C21.8565 52.9335 21.7807 52.9845 21.6864 53.0025C21.5921 53.0204 21.4947 52.99 21.3943 52.9114C21.3056 52.8306 21.2136 52.732 21.1182 52.6158C21.0323 52.4855 20.9524 52.3541 20.8784 52.2216C20.8021 52.0773 20.7479 51.9533 20.716 51.8494C20.536 51.224 20.3734 50.6259 20.2282 50.0549C20.0808 49.4722 19.9393 48.8884 19.8036 48.3034C19.6798 47.7162 19.5596 47.1161 19.443 46.5031C19.3243 45.8783 19.2094 45.21 19.0985 44.4982C18.9864 43.9087 19.1482 43.6031 19.5838 43.5814C19.7298 43.5781 19.8737 43.6606 20.0157 43.8291C20.1554 43.9857 20.2454 44.1702 20.2858 44.3824ZM29.4411 43.2831C29.4399 43.4055 29.3698 43.486 29.2305 43.5247C29.0913 43.5633 28.9745 43.5917 28.8802 43.6096C28.5877 43.6774 28.2868 43.7651 27.9775 43.8728C27.68 43.9782 27.3692 44.1106 27.0453 44.2699C26.9128 44.344 26.7561 44.3554 26.5754 44.3043C26.3947 44.2531 26.2631 44.1071 26.1807 43.8663C26.1627 43.772 26.1835 43.6886 26.2431 43.6162C26.3026 43.5439 26.375 43.4751 26.4604 43.41C26.6002 43.3102 26.7717 43.2165 26.9749 43.129C27.1759 43.0297 27.3803 42.9481 27.588 42.8842C27.8075 42.818 28.0186 42.7718 28.2212 42.7455C28.4216 42.7074 28.59 42.6937 28.7265 42.7044C28.9263 42.7275 29.0904 42.7879 29.219 42.8856C29.3593 42.9811 29.4333 43.1136 29.4411 43.2831ZM30.1539 49.2489C30.2723 49.4219 30.3528 49.6203 30.3953 49.8443C30.4475 50.0543 30.4166 50.2128 30.3026 50.32C30.1577 50.4575 29.9797 50.4852 29.7687 50.4032C29.5577 50.3212 29.3859 50.1889 29.2535 50.0064C29.0768 49.7835 28.9194 49.5019 28.7815 49.1617C28.6413 48.8097 28.5198 48.4602 28.4172 48.1133C28.3146 47.7664 28.2283 47.4408 28.1582 47.1365C28.1 46.83 28.0563 46.6001 28.0271 46.4468C28.0075 46.2796 28.0256 46.1173 28.0812 45.9602C28.1368 45.803 28.2272 45.7003 28.3524 45.6521C28.5669 45.6235 28.7568 45.6913 28.9224 45.8552C29.0857 46.0074 29.1872 46.2202 29.227 46.4936C29.2673 46.7058 29.318 46.9404 29.3791 47.1975C29.4402 47.4547 29.5131 47.7095 29.5978 47.9622C29.6825 48.2148 29.7719 48.4604 29.8661 48.699C29.9581 48.9258 30.054 49.1091 30.1539 49.2489ZM35.6139 45.2793C35.2057 45.6379 34.7509 45.9442 34.2496 46.1983C33.746 46.4406 33.1877 46.6201 32.5746 46.7366C32.6767 47.1447 32.8573 47.4524 33.1166 47.6596C33.3736 47.8551 33.6657 47.9461 33.993 47.9327C34.1861 47.9205 34.3736 47.8787 34.5555 47.8075C34.7492 47.734 34.9218 47.6462 35.0734 47.5441C35.2346 47.428 35.3769 47.3093 35.5004 47.1881C35.624 47.0669 35.7298 46.949 35.818 46.8346C35.9062 46.7201 36.007 46.6398 36.1204 46.5938C36.2315 46.5361 36.3188 46.5134 36.3823 46.5257C36.5585 46.5533 36.6511 46.7189 36.6599 47.0226C36.543 47.4357 36.3335 47.8115 36.0314 48.1498C35.7271 48.4764 35.3635 48.7166 34.9408 48.8702C34.577 49.0127 34.1846 49.0689 33.7636 49.0391C33.3426 49.0092 32.9438 48.8712 32.5672 48.6252C32.2446 48.4056 31.9777 48.1265 31.7668 47.788C31.5558 47.4494 31.3957 47.089 31.2864 46.7067C31.1815 46.348 31.1449 45.9946 31.1764 45.6466C31.2198 45.2963 31.324 44.9772 31.4892 44.6893C31.6521 44.3896 31.877 44.127 32.1639 43.9014C32.4508 43.6759 32.8042 43.511 33.2241 43.4067C33.7243 43.275 34.202 43.2819 34.6572 43.4274C35.1124 43.5729 35.4606 43.8304 35.7019 44.1999C35.8388 44.4059 35.8993 44.596 35.8836 44.77C35.8796 44.9418 35.7897 45.1115 35.6139 45.2793ZM33.3518 44.4635C33.2384 44.5094 33.1165 44.5754 32.9863 44.6612C32.8678 44.7448 32.7586 44.845 32.6586 44.9617C32.5682 45.0644 32.4871 45.1836 32.4152 45.3194C32.3528 45.4412 32.3292 45.574 32.3443 45.7177C32.5447 45.6796 32.7594 45.6204 32.9885 45.5403C33.2293 45.4578 33.4573 45.3717 33.6723 45.282C33.8968 45.1782 34.0967 45.073 34.2719 44.9665C34.4589 44.8576 34.6093 44.7496 34.7233 44.6424C34.5864 44.4364 34.3838 44.3344 34.1155 44.3366C33.8567 44.3247 33.6021 44.367 33.3518 44.4635ZM43.063 41.5178C42.9349 41.872 42.8057 42.2203 42.6754 42.5626C42.545 42.905 42.4059 43.2979 42.2581 43.7413C42.1199 44.1707 41.9586 44.6716 41.7743 45.2441C41.59 45.8166 41.3798 46.5101 41.1438 47.3245C41.0831 47.5192 41.0157 47.6786 40.9415 47.8027C40.8674 47.9267 40.7655 48.001 40.6358 48.0257C40.459 48.0593 40.3085 48.0391 40.1845 47.9649C40.07 47.8767 39.9662 47.7804 39.8731 47.676C39.3608 47.1016 38.8409 46.4553 38.3135 45.7372C37.7861 45.019 37.3328 44.3051 36.9536 43.5955C36.9188 43.541 36.9065 43.4762 36.9166 43.401C36.9363 43.3117 36.9733 43.2497 37.0278 43.2149C37.1345 43.1336 37.2866 43.0985 37.4842 43.1098C37.6369 43.1419 37.7985 43.2211 37.9691 43.3474C38.1397 43.4738 38.282 43.6116 38.3959 43.761C38.498 43.9126 38.6164 44.0855 38.751 44.2798C38.8857 44.4741 39.0296 44.6849 39.1827 44.9123C39.3455 45.1257 39.5082 45.339 39.6709 45.5524C39.8336 45.7658 39.9918 45.9555 40.1456 46.1218C40.2787 45.73 40.4192 45.3124 40.567 44.869C40.7243 44.4116 40.8817 43.9541 41.039 43.4967C41.1941 43.0275 41.3526 42.5759 41.5144 42.1421C41.688 41.706 41.8635 41.3123 42.041 40.9609C42.0843 40.8672 42.1578 40.8043 42.2617 40.7724C42.3656 40.7404 42.4913 40.7593 42.6389 40.8289C42.9762 40.9969 43.1176 41.2265 43.063 41.5178ZM48.9627 42.7415C48.5545 43.1 48.0997 43.4064 47.5984 43.6605C47.0948 43.9028 46.5365 44.0822 45.9234 44.1988C46.0255 44.6069 46.2061 44.9146 46.4654 45.1218C46.7224 45.3172 47.0145 45.4083 47.3418 45.3949C47.5349 45.3826 47.7224 45.3409 47.9043 45.2697C48.098 45.1962 48.2706 45.1084 48.4222 45.0063C48.5834 44.8901 48.7257 44.7715 48.8492 44.6503C48.9728 44.5291 49.0786 44.4112 49.1668 44.2967C49.255 44.1823 49.3558 44.102 49.4692 44.056C49.5803 43.9982 49.6676 43.9755 49.731 43.9879C49.9073 44.0155 49.9999 44.1811 50.0087 44.4848C49.8918 44.8979 49.6823 45.2736 49.3802 45.612C49.0759 45.9386 48.7123 46.1787 48.2896 46.3324C47.9258 46.4749 47.5334 46.5311 47.1124 46.5012C46.6914 46.4713 46.2926 46.3334 45.916 46.0874C45.5933 45.8678 45.3265 45.5887 45.1156 45.2502C44.9046 44.9116 44.7445 44.5512 44.6352 44.1689C44.5303 43.8101 44.4937 43.4568 44.5252 43.1087C44.5686 42.7585 44.6728 42.4394 44.838 42.1515C45.0008 41.8518 45.2258 41.5892 45.5127 41.3636C45.7996 41.138 46.153 40.9731 46.5729 40.8689C47.0731 40.7371 47.5508 40.744 48.006 40.8896C48.4612 41.0351 48.8094 41.2926 49.0507 41.6621C49.1876 41.8681 49.2481 42.0582 49.2324 42.2322C49.2284 42.4039 49.1385 42.5737 48.9627 42.7415ZM46.7006 41.9256C46.5871 41.9716 46.4653 42.0375 46.3351 42.1234C46.2166 42.207 46.1074 42.3071 46.0074 42.4239C45.917 42.5266 45.8358 42.6458 45.7639 42.7816C45.7016 42.9034 45.678 43.0362 45.6931 43.1799C45.8935 43.1418 46.1082 43.0826 46.3373 43.0024C46.5781 42.92 46.806 42.8339 47.0211 42.7442C47.2456 42.6404 47.4455 42.5352 47.6207 42.4286C47.8076 42.3198 47.9581 42.2118 48.0721 42.1046C47.9352 41.8986 47.7326 41.7966 47.4643 41.7988C47.2055 41.7869 46.9509 41.8292 46.7006 41.9256ZM59.806 38.2065C59.9159 38.5276 60.0185 38.8745 60.1138 39.2473C60.2187 39.606 60.3128 39.9729 60.3963 40.3479C60.4916 40.7207 60.5729 41.0839 60.6401 41.4375C60.7074 41.7912 60.762 42.1106 60.804 42.3958C61.2306 42.5834 61.4982 42.7707 61.6071 42.9577C61.7277 43.1424 61.7731 43.317 61.7433 43.4815C61.7129 43.7071 61.6045 43.8438 61.4181 43.8914C61.2413 43.925 61.0227 43.8994 60.7623 43.8146C60.6196 43.9638 60.4557 44.1294 60.2703 44.3112C60.0828 44.4812 59.8835 44.6535 59.6723 44.828C59.459 44.9907 59.2434 45.1416 59.0255 45.2807C58.8077 45.4199 58.6019 45.5262 58.4082 45.5996C58.0422 45.7303 57.6869 45.7246 57.3423 45.5824C57.0094 45.438 56.7519 45.1755 56.5696 44.7949C56.4473 44.5372 56.3769 44.2635 56.3585 43.9739C56.3378 43.6724 56.3736 43.3786 56.4658 43.0923C56.5557 42.7943 56.6983 42.5167 56.8938 42.2597C57.101 42.0005 57.3585 41.7805 57.6661 41.5999C57.7419 41.5488 57.8483 41.498 57.9853 41.4476C58.1341 41.3948 58.2862 41.3598 58.4417 41.3425C58.6067 41.3111 58.7774 41.3092 58.9536 41.3368C59.1299 41.3643 59.3022 41.4354 59.4706 41.55C59.4325 41.3496 59.3851 41.1326 59.3285 40.899C59.2814 40.6515 59.2285 40.405 59.1696 40.1597C59.1108 39.9144 59.0494 39.6879 58.9854 39.4801C58.9311 39.2584 58.8775 39.0731 58.8248 38.9244C58.7676 38.752 58.6767 38.6594 58.5521 38.6464C58.437 38.6194 58.3026 38.6511 58.1487 38.7414C57.8837 38.8895 57.5884 39.135 57.2627 39.4779C56.937 39.8207 56.6324 40.1779 56.3488 40.5494C56.2628 40.6757 56.148 40.7464 56.0043 40.7615C55.8724 40.7743 55.7503 40.7426 55.6381 40.6662C55.5258 40.5898 55.4526 40.4938 55.4184 40.3782C55.382 40.2507 55.4033 40.1062 55.4825 39.9446C55.6426 39.6943 55.8251 39.4336 56.0301 39.1625C56.2351 38.8915 56.4564 38.6418 56.6939 38.4134C56.9292 38.1732 57.1771 37.9673 57.4376 37.7956C57.6981 37.6239 57.9687 37.5053 58.2494 37.4397C58.6598 37.3495 58.996 37.3833 59.2581 37.5411C59.5179 37.6871 59.7006 37.9089 59.806 38.2065ZM58.4775 42.3984C58.331 42.4629 58.1805 42.5709 58.0261 42.7224C57.8812 42.8598 57.7538 43.0246 57.6437 43.2165C57.5431 43.3944 57.4765 43.5903 57.4439 43.8041C57.4208 44.004 57.4567 44.1926 57.5515 44.37C57.5885 44.4363 57.6458 44.4803 57.7232 44.5023C57.8125 44.5219 57.902 44.511 57.9918 44.4695C58.2636 44.3568 58.5606 44.1843 58.8828 43.952C59.2147 43.7057 59.4677 43.4622 59.6417 43.2214C59.6283 43.1507 59.5761 43.069 59.4852 42.9763C59.3921 42.8719 59.2883 42.7756 59.1738 42.6874C59.0571 42.5874 58.9319 42.5074 58.7983 42.4473C58.6765 42.385 58.5696 42.3686 58.4775 42.3984ZM67.7229 36.8296C67.5948 37.1838 67.4656 37.532 67.3352 37.8744C67.2049 38.2168 67.0658 38.6097 66.918 39.0531C66.7798 39.4824 66.6185 39.9834 66.4342 40.5559C66.2499 41.1284 66.0397 41.8218 65.8036 42.6362C65.7429 42.831 65.6755 42.9904 65.6014 43.1144C65.5272 43.2385 65.4253 43.3128 65.2957 43.3375C65.1188 43.3711 64.9684 43.3508 64.8444 43.2767C64.7299 43.1885 64.6261 43.0922 64.5329 42.9878C64.0206 42.4133 63.5008 41.7671 62.9734 41.0489C62.446 40.3308 61.9927 39.6169 61.6134 38.9072C61.5786 38.8528 61.5663 38.7879 61.5765 38.7127C61.5961 38.6235 61.6332 38.5615 61.6877 38.5267C61.7943 38.4453 61.9465 38.4103 62.1441 38.4216C62.2967 38.4536 62.4584 38.5328 62.629 38.6592C62.7996 38.7856 62.9418 38.9234 63.0557 39.0728C63.1578 39.2244 63.2762 39.3973 63.4109 39.5916C63.5455 39.7858 63.6894 39.9967 63.8426 40.2241C64.0053 40.4374 64.168 40.6508 64.3307 40.8642C64.4935 41.0775 64.6517 41.2673 64.8054 41.4335C64.9386 41.0417 65.0791 40.6242 65.2269 40.1808C65.3842 39.7233 65.5415 39.2659 65.6989 38.8085C65.854 38.3392 66.0124 37.8877 66.1742 37.4538C66.3478 37.0177 66.5234 36.624 66.7009 36.2727C66.7442 36.179 66.8177 36.1161 66.9216 36.0842C67.0254 36.0522 67.1512 36.071 67.2988 36.1407C67.6361 36.3087 67.7774 36.5383 67.7229 36.8296ZM73.6226 38.0532C73.2144 38.4118 72.7596 38.7181 72.2582 38.9722C71.7546 39.2146 71.1963 39.394 70.5833 39.5105C70.6853 39.9187 70.866 40.2263 71.1252 40.4336C71.3822 40.629 71.6744 40.72 72.0017 40.7067C72.1948 40.6944 72.3823 40.6526 72.5642 40.5814C72.7578 40.508 72.9305 40.4202 73.0821 40.3181C73.2432 40.2019 73.3856 40.0832 73.5091 39.962C73.6326 39.8408 73.7385 39.723 73.8267 39.6085C73.9148 39.494 74.0156 39.4138 74.129 39.3678C74.2402 39.31 74.3275 39.2873 74.3909 39.2997C74.5672 39.3272 74.6597 39.4929 74.6686 39.7966C74.5517 40.2097 74.3422 40.5854 74.0401 40.9238C73.7357 41.2504 73.3722 41.4905 72.9494 41.6442C72.5856 41.7866 72.1932 41.8429 71.7722 41.813C71.3513 41.7831 70.9525 41.6452 70.5759 41.3992C70.2532 41.1796 69.9864 40.9005 69.7754 40.5619C69.5645 40.2234 69.4044 39.8629 69.295 39.4806C69.1902 39.1219 69.1535 38.7685 69.1851 38.4205C69.2284 38.0702 69.3327 37.7512 69.4978 37.4633C69.6607 37.1636 69.8856 36.9009 70.1725 36.6754C70.4595 36.4498 70.8129 36.2849 71.2328 36.1806C71.733 36.0489 72.2107 36.0558 72.6659 36.2013C73.1211 36.3469 73.4693 36.6044 73.7105 36.9738C73.8474 37.1799 73.908 37.3699 73.8922 37.5439C73.8882 37.7157 73.7984 37.8855 73.6226 38.0532ZM71.3604 37.2374C71.247 37.2834 71.1252 37.3493 70.9949 37.4351C70.8764 37.5187 70.7672 37.6189 70.6673 37.7356C70.5769 37.8383 70.4957 37.9576 70.4238 38.0934C70.3615 38.2152 70.3378 38.3479 70.3529 38.4916C70.5534 38.4535 70.7681 38.3944 70.9971 38.3142C71.238 38.2318 71.4659 38.1457 71.6809 38.0559C71.9055 37.9522 72.1054 37.847 72.2805 37.7404C72.4675 37.6316 72.618 37.5236 72.732 37.4164C72.5951 37.2103 72.3925 37.1084 72.1242 37.1105C71.8654 37.0986 71.6108 37.1409 71.3604 37.2374ZM80.4602 34.7378C80.2705 34.8961 80.07 35.0624 79.8589 35.2369C79.6595 35.4092 79.4588 35.6062 79.2566 35.8278C79.064 36.0354 78.884 36.2773 78.7167 36.5534C78.5588 36.8155 78.4277 37.1214 78.3231 37.4711C78.1725 37.9639 78.1008 38.4539 78.1079 38.9411C78.1128 39.4166 78.146 39.8806 78.2076 40.333C78.248 40.5452 78.2364 40.7734 78.1729 41.0176C78.1189 41.2477 78.0035 41.3796 77.8267 41.4132C77.6027 41.4558 77.3986 41.3785 77.2146 41.1814C77.0401 40.9703 76.9091 40.7631 76.8216 40.5599C76.4621 39.761 76.1401 38.9671 75.8558 38.1784C75.5692 37.3778 75.3015 36.5798 75.0525 35.7843C75.0211 35.6192 75.0481 35.5041 75.1335 35.4391C75.2306 35.3717 75.3451 35.3316 75.4771 35.3188C75.6208 35.3037 75.7631 35.3133 75.9039 35.3475C76.0448 35.3818 76.1394 35.4616 76.1876 35.5868C76.3177 36.014 76.464 36.4626 76.6267 36.9325C76.7871 37.3906 76.9351 37.7838 77.0708 38.1123C77.0418 37.7025 77.0975 37.2888 77.238 36.8712C77.3785 36.4536 77.5728 36.0624 77.8211 35.6976C78.0811 35.3306 78.3854 35.004 78.7341 34.7179C79.0946 34.4295 79.4744 34.2107 79.8736 34.0615C80.0459 34.0043 80.1933 33.9763 80.3157 33.9775C80.4381 33.9786 80.5284 34.0042 80.5868 34.0542C80.6451 34.1042 80.669 34.1973 80.6583 34.3337C80.6593 34.4679 80.5933 34.6026 80.4602 34.7378ZM85.8646 33.2523C85.9745 33.5734 86.0772 33.9204 86.1724 34.2931C86.2773 34.6519 86.3715 35.0187 86.455 35.3937C86.5503 35.7665 86.6315 36.1297 86.6988 36.4834C86.766 36.837 86.8206 37.1565 86.8626 37.4416C87.2892 37.6293 87.5569 37.8166 87.6657 38.0035C87.7863 38.1883 87.8317 38.3628 87.8019 38.5273C87.7715 38.753 87.6632 38.8896 87.4768 38.9372C87.3 38.9709 87.0813 38.9452 86.8209 38.8604C86.6783 39.0097 86.5143 39.1752 86.329 39.357C86.1414 39.527 85.9421 39.6993 85.731 39.8738C85.5176 40.0365 85.302 40.1874 85.0842 40.3266C84.8663 40.4657 84.6606 40.572 84.4669 40.6455C84.1008 40.7761 83.7455 40.7704 83.4009 40.6283C83.0681 40.4839 82.8105 40.2214 82.6282 39.8407C82.5059 39.583 82.4356 39.3093 82.4171 39.0197C82.3965 38.7182 82.4322 38.4244 82.5244 38.1381C82.6143 37.8401 82.757 37.5626 82.9524 37.3056C83.1596 37.0463 83.4171 36.8263 83.7248 36.6457C83.8006 36.5946 83.907 36.5439 84.0439 36.4934C84.1927 36.4407 84.3448 36.4057 84.5003 36.3883C84.6654 36.3569 84.836 36.355 85.0123 36.3826C85.1885 36.4102 85.3608 36.4812 85.5292 36.5958C85.4911 36.3954 85.4437 36.1784 85.3871 35.9449C85.3401 35.6973 85.2871 35.4509 85.2282 35.2055C85.1694 34.9602 85.108 34.7337 85.0441 34.526C84.9897 34.3042 84.9362 34.119 84.8835 33.9702C84.8263 33.7979 84.7354 33.7052 84.6107 33.6922C84.4957 33.6653 84.3612 33.6969 84.2074 33.7873C83.9424 33.9354 83.647 34.1808 83.3213 34.5237C82.9956 34.8666 82.691 35.2237 82.4074 35.5953C82.3215 35.7215 82.2066 35.7922 82.0629 35.8073C81.931 35.8202 81.8089 35.7884 81.6967 35.712C81.5845 35.6357 81.5112 35.5396 81.477 35.424C81.4406 35.2966 81.462 35.152 81.5412 34.9904C81.7012 34.7401 81.8838 34.4794 82.0888 34.2084C82.2937 33.9373 82.515 33.6876 82.7525 33.4592C82.9878 33.219 83.2357 33.0131 83.4962 32.8414C83.7567 32.6698 84.0273 32.5511 84.308 32.4855C84.7184 32.3953 85.0546 32.4291 85.3167 32.5869C85.5766 32.733 85.7592 32.9548 85.8646 33.2523ZM84.5362 37.4442C84.3896 37.5087 84.2392 37.6167 84.0848 37.7682C83.9399 37.9057 83.8124 38.0704 83.7023 38.2623C83.6018 38.4402 83.5352 38.6361 83.5026 38.85C83.4795 39.0498 83.5153 39.2384 83.6101 39.4158C83.6472 39.4821 83.7044 39.5262 83.7819 39.5481C83.8711 39.5678 83.9606 39.5569 84.0505 39.5154C84.3222 39.4026 84.6192 39.2301 84.9415 38.9978C85.2733 38.7515 85.5263 38.508 85.7004 38.2672C85.6869 38.1965 85.6348 38.1148 85.5439 38.0222C85.4507 37.9177 85.3469 37.8214 85.2324 37.7332C85.1157 37.6333 84.9905 37.5532 84.857 37.4931C84.7352 37.4308 84.6282 37.4145 84.5362 37.4442ZM91.3331 33.935C91.4521 34.0467 91.5719 34.195 91.6925 34.3797C91.8227 34.5504 91.9304 34.7314 92.0156 34.9229C92.1469 35.2277 92.2896 35.5609 92.4439 35.9225C92.6077 36.27 92.7689 36.6363 92.9276 37.0215C93.0982 37.4044 93.258 37.7954 93.4072 38.1946C93.5681 38.5915 93.714 38.973 93.8446 39.339C94.014 39.8443 94.0668 40.3472 94.0032 40.8479C93.9537 41.3582 93.7938 41.8344 93.5236 42.2766C93.2535 42.7189 92.8862 43.1002 92.4219 43.4205C91.9576 43.7409 91.4093 43.9734 90.7772 44.118C90.6335 44.1331 90.4727 44.0904 90.2948 43.9898C90.1191 43.9011 90.019 43.7919 89.9943 43.6622C89.9579 43.5348 89.9966 43.4174 90.1106 43.3103C90.2387 43.2126 90.3712 43.1386 90.5081 43.0881C90.7512 43.0175 90.9946 42.9162 91.2383 42.7844C91.496 42.6621 91.7292 42.5078 91.9381 42.3216C92.147 42.1353 92.3267 41.924 92.4772 41.6877C92.6395 41.4492 92.748 41.1843 92.8025 40.893C92.8447 40.6651 92.8367 40.3979 92.7784 40.0914C92.7179 39.7731 92.6349 39.4652 92.5295 39.1676C92.4358 38.8678 92.3279 38.5891 92.2056 38.3314C92.0929 38.0597 91.9995 37.8575 91.9254 37.725C91.8586 37.8233 91.7693 37.9318 91.6575 38.0508C91.5576 38.1675 91.4388 38.2817 91.3013 38.3934C91.1637 38.505 91.0051 38.6024 90.8254 38.6854C90.6575 38.7662 90.4782 38.8186 90.2873 38.8427C90.0847 38.869 89.8826 38.8341 89.6811 38.738C89.4914 38.6397 89.3127 38.5027 89.1449 38.327C88.9749 38.1394 88.8228 37.9179 88.6888 37.6625C88.5665 37.4048 88.4773 37.1285 88.4213 36.8338C88.3104 36.122 88.3684 35.4636 88.5954 34.8585C88.832 34.2395 89.2925 33.7061 89.9769 33.2584C90.0336 33.2354 90.108 33.209 90.2 33.1793C90.3039 33.1473 90.41 33.1272 90.5183 33.1188C90.6244 33.0986 90.7269 33.0914 90.8257 33.097C90.9363 33.1004 91.0314 33.119 91.1111 33.1527C91.2587 33.2223 91.3493 33.3456 91.3829 33.5224C91.4166 33.6992 91.3999 33.8368 91.3331 33.935ZM89.5656 36.7812C89.5903 36.9109 89.6301 37.056 89.685 37.2165C89.7377 37.3653 89.8356 37.4627 89.9788 37.5088C90.1359 37.5644 90.3091 37.5437 90.4983 37.4467C90.6993 37.3474 90.8748 37.2102 91.0247 37.0351C91.1651 36.8741 91.2443 36.7124 91.2623 36.5502C91.2899 36.374 91.2484 36.1559 91.1379 35.8959C91.0274 35.636 90.9088 35.3654 90.782 35.0841C90.6553 34.8028 90.5577 34.5466 90.4893 34.3153C90.3613 34.4129 90.2271 34.5422 90.0867 34.7033C89.9581 34.8621 89.848 35.054 89.7564 35.2791C89.6626 35.4924 89.5909 35.7259 89.5415 35.9796C89.5038 36.231 89.5118 36.4982 89.5656 36.7812ZM98.5242 33.319C98.116 33.6776 97.6612 33.9839 97.1599 34.238C96.6563 34.4804 96.0979 34.6598 95.4849 34.7763C95.5869 35.1845 95.7676 35.4921 96.0269 35.6994C96.2839 35.8948 96.576 35.9858 96.9033 35.9725C97.0964 35.9602 97.2839 35.9184 97.4658 35.8472C97.6595 35.7738 97.8321 35.686 97.9837 35.5839C98.1449 35.4677 98.2872 35.349 98.4107 35.2278C98.5343 35.1066 98.6401 34.9888 98.7283 34.8743C98.8165 34.7598 98.9172 34.6796 99.0307 34.6336C99.1418 34.5758 99.2291 34.5531 99.2925 34.5655C99.4688 34.593 99.5614 34.7587 99.5702 35.0624C99.4533 35.4755 99.2438 35.8512 98.9417 36.1896C98.6373 36.5162 98.2738 36.7563 97.8511 36.91C97.4873 37.0524 97.0949 37.1087 96.6739 37.0788C96.2529 37.0489 95.8541 36.911 95.4775 36.665C95.1548 36.4454 94.888 36.1663 94.6771 35.8277C94.4661 35.4892 94.306 35.1287 94.1967 34.7464C94.0918 34.3877 94.0552 34.0343 94.0867 33.6863C94.1301 33.336 94.2343 33.017 94.3994 32.7291C94.5623 32.4294 94.7872 32.1667 95.0742 31.9412C95.3611 31.7156 95.7145 31.5507 96.1344 31.4464C96.6346 31.3147 97.1123 31.3216 97.5675 31.4671C98.0227 31.6127 98.3709 31.8702 98.6122 32.2396C98.7491 32.4457 98.8096 32.6357 98.7938 32.8097C98.7899 32.9815 98.7 33.1513 98.5242 33.319ZM96.262 32.5032C96.1486 32.5492 96.0268 32.6151 95.8965 32.7009C95.7781 32.7845 95.6689 32.8847 95.5689 33.0014C95.4785 33.1041 95.3973 33.2234 95.3254 33.3592C95.2631 33.481 95.2395 33.6137 95.2546 33.7574C95.455 33.7193 95.6697 33.6602 95.8988 33.58C96.1396 33.4976 96.3675 33.4115 96.5826 33.3217C96.8071 33.218 97.007 33.1128 97.1822 33.0062C97.3691 32.8974 97.5196 32.7894 97.6336 32.6822C97.4967 32.4761 97.2941 32.3742 97.0258 32.3763C96.767 32.3644 96.5124 32.4067 96.262 32.5032Z" fill="#79DCF3"/>
<path d="M51.7806 51.6263C51.7064 51.3227 51.8923 51.0156 52.1959 50.9411C52.4994 50.8668 52.8064 51.0529 52.8811 51.3564C54.1923 56.6974 58.2767 60.8205 62.4707 63.8774C64.5603 65.4005 66.6583 66.6449 68.4168 67.634C70.1453 68.6063 71.6141 69.3668 72.3501 69.8757C73.1114 70.4023 73.6724 70.7856 74.0879 71.0636L72.634 66.2916C72.5431 65.9926 72.7115 65.6767 73.0104 65.5854C73.3095 65.4944 73.6263 65.6628 73.7175 65.9619L75.3746 71.3971C75.3772 71.4057 75.377 71.415 75.3792 71.4235C75.5158 71.4992 75.6217 71.6284 75.6587 71.7926C75.6869 71.9187 75.6691 72.0437 75.6188 72.1526C75.6323 72.2016 75.6422 72.2526 75.6417 72.3062C75.6384 72.6189 75.3822 72.8698 75.0695 72.8667C75.0499 72.8665 74.9895 72.8664 74.9134 72.8505C74.8436 72.8359 74.7802 72.8125 74.7226 72.787C74.6499 72.7548 74.5627 72.7081 74.4526 72.6436L70.1935 73.5999C69.8884 73.6683 69.5848 73.4761 69.5162 73.171C69.4479 72.8659 69.6401 72.5623 69.9451 72.4937L73.1274 71.7803C72.7503 71.525 72.2835 71.2063 71.7057 70.8067C71.0267 70.3372 69.6655 69.6357 67.8608 68.6206C66.0856 67.6221 63.9451 66.353 61.8041 64.7925C57.5367 61.6821 53.1877 57.358 51.7806 51.6263Z" fill="#79DCF3"/>
<path d="M285.664 130.909C286.017 130.573 285.756 131.842 286.125 131.607C286.493 131.373 286.781 130.676 287.074 130.773C287.368 130.871 287.881 130.341 287.937 130.599C287.992 130.857 288.309 129.997 288.463 130.151C288.616 130.305 288.788 130.171 289.079 129.86C289.369 129.549 290.043 129.214 290.138 129.52C290.233 129.827 290.687 129.192 290.883 129.027C290.945 128.975 291.002 128.909 291.052 128.842C291.073 128.814 291.098 128.758 291.117 128.703C291.117 128.703 291.117 128.703 291.117 128.703C291.141 128.635 291.156 128.569 291.144 128.563C291.085 128.533 291.014 128.441 290.972 128.216C290.892 127.795 290.687 128.308 290.445 128.126C290.203 127.943 290.173 127.502 289.683 127.872C289.192 128.241 289.554 126.975 288.758 127.791C287.963 128.606 288.376 127.276 287.9 127.188C287.424 127.099 286.484 127.95 286.181 127.943C285.878 127.936 285.496 127.852 284.974 128.105C284.451 128.358 284.039 128.006 283.421 128.406C282.802 128.805 281.943 129.323 281.518 129.645C281.092 129.967 280.99 130.04 280.728 129.93C280.577 129.867 280.293 129.997 279.958 130.377C279.79 130.569 279.73 130.806 279.797 130.904C279.896 131.046 280.066 130.912 280.041 131.2C279.993 131.777 279.981 131.996 280.31 131.611C280.639 131.226 280.456 132.008 280.608 131.896C280.76 131.784 280.923 131.314 281.406 131.576C281.888 131.837 282.19 131.874 282.391 131.923C282.591 131.972 283.217 131.483 283.541 131.568C283.866 131.653 284.678 131.391 284.902 131.581C285.126 131.772 285.311 131.245 285.664 130.909Z" fill="#79DCF3"/>
<path d="M265.302 115.453C265.125 115.249 266.89 114.698 266.892 114.406C266.893 114.113 266.07 114.238 266.526 113.81C266.983 113.381 266.659 113.112 267.129 112.867C267.599 112.622 266.545 112.822 266.949 112.527C267.352 112.233 267.314 112.113 267.113 111.969C266.912 111.824 267.064 111.225 267.652 110.897C268.24 110.57 267.687 110.447 267.624 110.318C267.604 110.278 267.557 110.253 267.5 110.238C267.476 110.232 267.411 110.24 267.343 110.254C267.343 110.254 267.343 110.254 267.343 110.254C267.258 110.271 267.169 110.297 267.146 110.316C267.039 110.409 266.819 110.559 266.414 110.767C265.659 111.153 266.272 111.053 265.731 111.477C265.191 111.901 264.454 112.24 264.545 112.59C264.635 112.94 262.977 113.365 263.47 113.784C263.963 114.204 262.255 114.608 261.625 115.255C260.996 115.903 261.4 116.475 261.078 116.853C260.756 117.232 260.232 117.759 260.103 118.228C259.974 118.698 258.989 119.447 258.997 119.934C259.004 120.422 258.955 121.124 259.036 121.427C259.116 121.73 259.13 121.805 258.685 122.203C258.43 122.432 258.348 122.692 258.615 122.844C258.749 122.92 259.068 122.831 259.294 122.68C259.623 122.46 259.581 122.344 260.019 122.176C260.892 121.84 261.232 121.704 260.951 121.563C260.671 121.423 261.736 121.111 261.713 121.001C261.689 120.89 261.102 121.012 262.015 120.238C262.927 119.464 263.296 119.067 263.579 118.787C263.862 118.507 263.719 118.072 264.187 117.614C264.655 117.156 265.066 116.335 265.6 115.929C266.134 115.523 265.479 115.656 265.302 115.453Z" fill="#79DCF3"/>
<path d="M213.096 115.863C213.473 116.309 212.158 115.941 212.434 116.402C212.709 116.864 213.447 117.244 213.378 117.601C213.308 117.958 213.899 118.609 213.642 118.668C213.386 118.726 214.292 119.148 214.151 119.331C214.01 119.513 214.164 119.73 214.509 120.099C214.854 120.467 215.264 121.309 214.962 121.414C214.66 121.519 215.351 122.1 215.539 122.348C215.597 122.426 215.67 122.498 215.743 122.562C215.774 122.589 215.834 122.622 215.892 122.647C215.892 122.647 215.892 122.647 215.892 122.647C215.963 122.679 216.031 122.7 216.036 122.686C216.061 122.615 216.147 122.531 216.372 122.488C216.791 122.406 216.249 122.135 216.41 121.844C216.571 121.553 217.016 121.533 216.591 120.916C216.165 120.3 217.488 120.792 216.579 119.784C215.67 118.775 217.063 119.333 217.105 118.751C217.147 118.17 216.186 116.983 216.163 116.61C216.139 116.238 216.186 115.772 215.875 115.121C215.565 114.469 215.881 113.976 215.412 113.201C214.943 112.425 214.331 111.351 213.96 110.815C213.59 110.28 213.505 110.152 213.59 109.834C213.639 109.651 213.478 109.297 213.058 108.871C212.846 108.657 212.599 108.574 212.506 108.653C212.371 108.77 212.525 108.983 212.23 108.942C211.639 108.861 211.415 108.837 211.839 109.256C212.264 109.675 211.451 109.421 211.58 109.612C211.709 109.803 212.204 110.022 211.987 110.605C211.77 111.188 211.763 111.557 211.734 111.802C211.705 112.046 212.265 112.833 212.211 113.229C212.158 113.625 212.506 114.633 212.336 114.901C212.165 115.169 212.72 115.417 213.096 115.863Z" fill="#79DCF3"/>
<path d="M239.585 114.876C239.392 114.672 240.419 114.674 240.318 114.444C240.217 114.214 239.692 114.109 239.857 113.885C240.023 113.66 239.706 113.369 239.945 113.291C240.183 113.214 239.526 113.112 239.702 112.98C239.877 112.848 239.809 112.743 239.62 112.581C239.431 112.418 239.326 111.983 239.618 111.87C239.91 111.758 239.486 111.525 239.397 111.408C239.369 111.371 239.328 111.34 239.283 111.314C239.265 111.303 239.223 111.294 239.181 111.288C239.181 111.288 239.181 111.288 239.181 111.288C239.128 111.281 239.075 111.279 239.067 111.289C239.025 111.335 238.926 111.399 238.718 111.463C238.332 111.581 238.72 111.653 238.495 111.854C238.27 112.054 237.879 112.14 238.064 112.438C238.249 112.735 237.252 112.661 237.738 113.112C238.225 113.564 237.187 113.462 236.979 113.816C236.77 114.171 237.248 114.72 237.158 114.939C237.068 115.157 236.89 115.443 236.965 115.781C237.04 116.118 236.621 116.465 236.796 116.85C236.972 117.236 237.183 117.776 237.344 118.034C237.505 118.292 237.541 118.355 237.373 118.559C237.276 118.676 237.311 118.861 237.548 119.045C237.667 119.138 237.856 119.147 237.959 119.084C238.11 118.992 238.041 118.89 238.284 118.866C238.77 118.817 238.957 118.793 238.714 118.613C238.471 118.434 239.098 118.451 239.043 118.358C238.989 118.265 238.626 118.217 238.986 117.833C239.346 117.448 239.462 117.226 239.559 117.076C239.657 116.925 239.406 116.547 239.57 116.302C239.733 116.057 239.731 115.512 239.957 115.324C240.184 115.136 239.779 115.08 239.585 114.876Z" fill="#79DCF3"/>
<path d="M182.238 118.744C181.841 118.703 182.249 117.821 181.847 117.675C181.445 117.529 181.073 117.874 180.784 117.504C180.496 117.133 179.912 117.11 179.885 116.827C179.857 116.543 179.437 117.005 179.298 116.719C179.159 116.434 178.968 116.387 178.637 116.384C178.306 116.382 177.58 116.03 177.518 115.665C177.456 115.299 176.922 115.428 176.702 115.386C176.634 115.373 176.568 115.377 176.51 115.389C176.485 115.394 176.454 115.42 176.428 115.45C176.428 115.45 176.428 115.45 176.428 115.45C176.396 115.488 176.373 115.532 176.385 115.549C176.441 115.632 176.503 115.783 176.521 116.026C176.555 116.478 176.822 116.217 177.049 116.615C177.275 117.012 177.256 117.434 177.798 117.578C178.339 117.721 177.829 118.503 178.731 118.543C179.634 118.582 179.064 119.371 179.54 119.91C180.015 120.449 181.069 120.596 181.378 120.895C181.686 121.194 182.066 121.638 182.627 121.916C183.189 122.194 183.569 122.906 184.246 123.147C184.922 123.387 185.855 123.754 186.326 123.877C186.796 124 186.908 124.033 187.164 124.385C187.31 124.587 187.615 124.744 187.999 124.728C188.192 124.72 188.28 124.566 188.222 124.413C188.137 124.19 187.949 124.146 188.006 123.912C188.121 123.445 188.158 123.26 187.779 123.286C187.4 123.313 187.675 122.791 187.507 122.744C187.339 122.697 187.12 122.959 186.657 122.26C186.194 121.56 185.89 121.236 185.691 120.999C185.492 120.761 184.799 120.594 184.478 120.204C184.156 119.815 183.298 119.265 183.091 118.879C182.884 118.493 182.635 118.784 182.238 118.744Z" fill="#79DCF3"/>
<path d="M271.856 151.836C272.244 151.949 271.514 152.902 271.868 153.137C272.223 153.372 272.723 153.033 272.883 153.509C273.041 153.984 273.625 154.108 273.55 154.44C273.476 154.773 274.068 154.307 274.106 154.66C274.144 155.014 274.32 155.098 274.655 155.156C274.989 155.212 275.598 155.738 275.529 156.171C275.461 156.604 276.048 156.542 276.255 156.627C276.32 156.653 276.388 156.66 276.451 156.655C276.478 156.654 276.519 156.628 276.556 156.597C276.556 156.597 276.556 156.597 276.556 156.597C276.602 156.559 276.641 156.512 276.635 156.49C276.608 156.385 276.6 156.2 276.669 155.916C276.797 155.387 276.433 155.646 276.346 155.148C276.259 154.652 276.43 154.166 275.934 153.911C275.437 153.657 276.235 152.835 275.335 152.642C274.435 152.449 275.296 151.628 275.007 150.927C274.72 150.225 273.704 149.883 273.499 149.487C273.295 149.09 273.069 148.515 272.6 148.101C272.132 147.688 272.003 146.802 271.403 146.412C271.012 146.159 270.525 145.82 270.118 145.561C269.901 145.421 269.707 145.304 269.558 145.229C269.125 145.008 269.025 144.955 268.891 144.505C268.814 144.248 268.561 144.014 268.163 143.973C268.064 143.963 267.973 144 267.925 144.075C267.865 144.135 267.826 144.215 267.829 144.307C267.835 144.575 268.01 144.656 267.869 144.918C267.587 145.443 267.482 145.648 267.875 145.678C268.27 145.71 267.802 146.267 267.956 146.35C268.097 146.425 268.371 146.204 268.586 146.845C268.605 146.903 268.624 146.97 268.644 147.047C268.862 147.933 269.052 148.356 269.169 148.663C269.285 148.971 269.926 149.277 270.113 149.78C270.299 150.285 270.97 151.06 271.041 151.541C271.111 152.021 271.469 151.726 271.856 151.836Z" fill="#79DCF3"/>
<path d="M177.569 149.802C177.491 150.118 175.348 149.801 175.015 150.121C174.683 150.442 175.532 150.734 174.655 150.966C173.777 151.198 173.751 151.662 173.069 151.686C172.386 151.71 173.52 152.04 172.839 152.153C172.159 152.265 172.055 152.417 172.065 152.68C172.075 152.943 171.265 153.522 170.388 153.574C169.511 153.626 169.848 154.05 169.756 154.224C169.728 154.279 169.74 154.331 169.772 154.377C169.786 154.397 169.85 154.422 169.925 154.442C169.925 154.442 169.925 154.442 169.925 154.442C170.017 154.467 170.124 154.485 170.165 154.475C170.362 154.43 170.722 154.38 171.305 154.364C172.393 154.333 171.752 154.123 172.697 153.94C173.643 153.757 174.66 153.769 174.979 153.338C175.297 152.907 177.205 153.307 177.256 152.589C177.307 151.872 179.235 152.319 180.509 151.937C181.784 151.555 182.084 150.717 182.79 150.47C183.495 150.222 184.543 149.917 185.186 149.469C185.828 149.022 187.524 148.714 188.07 148.175C188.616 147.636 189.452 146.892 189.726 146.517C190 146.143 190.073 146.053 190.907 145.848C191.386 145.73 191.751 145.487 191.693 145.182C191.663 145.029 191.288 144.96 190.924 145.007C190.391 145.076 190.295 145.226 189.729 145.182C188.597 145.095 188.15 145.067 188.233 145.367C188.315 145.668 187.046 145.454 186.94 145.588C186.835 145.721 187.478 145.893 185.817 146.266C184.155 146.639 183.389 146.883 182.828 147.043C182.267 147.202 181.897 147.754 180.976 148.013C180.054 148.271 178.771 148.957 177.852 149.124C176.933 149.291 177.647 149.486 177.569 149.802Z" fill="#79DCF3"/>
<path d="M211.538 151.122C211.655 151.48 210.479 151.237 210.477 151.615C210.475 151.992 211.023 152.275 210.718 152.581C210.413 152.888 210.627 153.41 210.313 153.473C210 153.536 210.701 153.846 210.432 154.008C210.163 154.171 210.188 154.347 210.321 154.641C210.454 154.935 210.351 155.628 209.959 155.733C209.566 155.838 209.934 156.295 209.975 156.496C209.988 156.558 210.02 156.616 210.057 156.666C210.073 156.687 210.117 156.712 210.162 156.731C210.162 156.731 210.162 156.731 210.162 156.731C210.218 156.754 210.278 156.768 210.293 156.755C210.364 156.694 210.511 156.619 210.781 156.57C211.285 156.478 210.877 156.277 211.238 156.021C211.599 155.766 212.09 155.725 212.031 155.225C211.972 154.724 213.076 155.071 212.75 154.264C212.424 153.457 213.561 153.856 213.982 153.36C214.402 152.864 214.136 151.908 214.351 151.593C214.567 151.279 214.917 150.881 215.004 150.345C215.092 149.808 215.749 149.373 215.746 148.74C215.743 148.106 215.778 147.227 215.726 146.793C215.673 146.358 215.664 146.254 215.961 145.979C216.132 145.822 216.187 145.53 216.01 145.191C215.921 145.02 215.709 144.963 215.559 145.035C215.338 145.141 215.366 145.314 215.075 145.295C214.493 145.257 214.266 145.249 214.452 145.582C214.638 145.915 213.929 145.742 213.944 145.897C213.959 146.053 214.35 146.212 213.74 146.718C213.131 147.225 212.885 147.539 212.695 147.748C212.506 147.957 212.6 148.595 212.287 148.934C211.974 149.272 211.697 150.11 211.341 150.346C210.985 150.582 211.42 150.763 211.538 151.122Z" fill="#79DCF3"/>
<path d="M242.512 152.887C242.774 152.985 241.718 153.622 241.887 153.814C242.057 154.01 242.625 153.8 242.523 154.163C242.421 154.53 242.845 154.661 242.633 154.907C242.421 155.157 243.124 154.832 243.002 155.098C242.882 155.366 242.999 155.439 243.265 155.479C243.527 155.525 243.867 155.876 243.668 156.202C243.465 156.535 244.024 156.427 244.188 156.456C244.239 156.466 244.3 156.461 244.359 156.448C244.384 156.443 244.429 156.418 244.472 156.389C244.472 156.389 244.472 156.389 244.472 156.389C244.525 156.354 244.574 156.314 244.575 156.299C244.58 156.227 244.626 156.096 244.776 155.883C245.061 155.49 244.649 155.723 244.747 155.378C244.849 155.031 245.189 154.688 244.871 154.538C244.557 154.372 245.587 153.794 244.936 153.658C244.29 153.497 245.387 152.948 245.5 152.433C245.615 151.911 244.959 151.559 244.963 151.245C244.967 151.122 244.977 150.978 244.972 150.826C244.969 150.609 244.939 150.379 244.806 150.193C244.59 149.89 244.863 149.242 244.526 148.957C244.189 148.671 243.75 148.249 243.48 148.088C243.21 147.927 243.148 147.886 243.23 147.558C243.277 147.369 243.164 147.199 242.849 147.167C242.691 147.151 242.498 147.27 242.421 147.406C242.309 147.605 242.421 147.664 242.188 147.855C241.723 148.237 241.545 148.389 241.864 148.412C242.183 148.435 241.548 148.843 241.642 148.903C241.736 148.963 242.119 148.767 241.921 149.414C241.722 150.061 241.699 150.372 241.665 150.597C241.631 150.821 242.04 151.046 241.979 151.414C241.938 151.662 242.029 152 242.048 152.303C242.055 152.434 242.04 152.561 241.986 152.669C241.82 152.996 242.251 152.794 242.512 152.887Z" fill="#79DCF3"/>
</svg>
