<svg width="286" height="180" viewBox="0 0 286 180" fill="none" xmlns="http://www.w3.org/2000/svg">
<path d="M72.3 61.9732C77.88 61.9732 82.59 63.2332 86.43 65.7532C90.27 68.2132 93.18 71.7832 95.16 76.4632C97.14 81.1432 98.13 86.8132 98.13 93.4732C98.13 100.553 96.9 106.523 94.44 111.383C92.04 116.243 88.68 119.903 84.36 122.363C80.04 124.823 75.03 126.053 69.33 126.053C66.51 126.053 63.81 125.783 61.23 125.243C58.71 124.703 56.43 123.833 54.39 122.633L57 117.413C58.62 118.493 60.48 119.273 62.58 119.753C64.74 120.173 66.96 120.383 69.24 120.383C76.02 120.383 81.42 118.223 85.44 113.903C89.52 109.583 91.56 103.133 91.56 94.5532C91.56 93.1732 91.47 91.5232 91.29 89.6032C91.17 87.6832 90.84 85.7632 90.3 83.8432L92.55 85.5532C91.95 88.6732 90.66 91.3432 88.68 93.5632C86.76 95.7232 84.36 97.3732 81.48 98.5132C78.66 99.6532 75.51 100.223 72.03 100.223C67.89 100.223 64.2 99.4432 60.96 97.8832C57.78 96.3232 55.29 94.1332 53.49 91.3132C51.69 88.4932 50.79 85.1632 50.79 81.3232C50.79 77.3632 51.72 73.9432 53.58 71.0632C55.44 68.1832 57.99 65.9632 61.23 64.4032C64.53 62.7832 68.22 61.9732 72.3 61.9732ZM72.57 67.4632C69.57 67.4632 66.9 68.0332 64.56 69.1732C62.28 70.2532 60.48 71.8132 59.16 73.8532C57.84 75.8932 57.18 78.3232 57.18 81.1432C57.18 85.2832 58.59 88.5832 61.41 91.0432C64.29 93.5032 68.16 94.7332 73.02 94.7332C76.26 94.7332 79.08 94.1332 81.48 92.9332C83.94 91.7332 85.83 90.0832 87.15 87.9832C88.53 85.8832 89.22 83.5432 89.22 80.9632C89.22 78.6232 88.59 76.4332 87.33 74.3932C86.07 72.3532 84.21 70.7032 81.75 69.4432C79.29 68.1232 76.23 67.4632 72.57 67.4632ZM132.634 126.053C127.774 126.053 123.454 124.793 119.674 122.273C115.894 119.693 112.924 116.033 110.764 111.293C108.604 106.493 107.524 100.733 107.524 94.0132C107.524 87.2932 108.604 81.5632 110.764 76.8232C112.924 72.0232 115.894 68.3632 119.674 65.8432C123.454 63.2632 127.774 61.9732 132.634 61.9732C137.494 61.9732 141.814 63.2632 145.594 65.8432C149.374 68.3632 152.344 72.0232 154.504 76.8232C156.724 81.5632 157.834 87.2932 157.834 94.0132C157.834 100.733 156.724 106.493 154.504 111.293C152.344 116.033 149.374 119.693 145.594 122.273C141.814 124.793 137.494 126.053 132.634 126.053ZM132.634 120.113C136.354 120.113 139.594 119.123 142.354 117.143C145.114 115.103 147.274 112.163 148.834 108.323C150.394 104.423 151.174 99.6532 151.174 94.0132C151.174 88.3732 150.394 83.6332 148.834 79.7932C147.274 75.8932 145.114 72.9532 142.354 70.9732C139.594 68.9332 136.354 67.9132 132.634 67.9132C129.034 67.9132 125.824 68.9332 123.004 70.9732C120.184 72.9532 117.994 75.8932 116.434 79.7932C114.874 83.6332 114.094 88.3732 114.094 94.0132C114.094 99.6532 114.874 104.423 116.434 108.323C117.994 112.163 120.184 115.103 123.004 117.143C125.824 119.123 129.034 120.113 132.634 120.113ZM175.574 125.513L218.594 62.5132H223.904L180.884 125.513H175.574ZM180.434 96.2632C177.614 96.2632 175.124 95.5732 172.964 94.1932C170.804 92.7532 169.124 90.7432 167.924 88.1632C166.784 85.5832 166.214 82.5832 166.214 79.1632C166.214 75.7432 166.784 72.7432 167.924 70.1632C169.124 67.5832 170.804 65.6032 172.964 64.2232C175.124 62.7832 177.614 62.0632 180.434 62.0632C183.254 62.0632 185.714 62.7832 187.814 64.2232C189.974 65.6032 191.654 67.5832 192.854 70.1632C194.054 72.7432 194.654 75.7432 194.654 79.1632C194.654 82.5832 194.054 85.5832 192.854 88.1632C191.654 90.7432 189.974 92.7532 187.814 94.1932C185.714 95.5732 183.254 96.2632 180.434 96.2632ZM180.434 92.2132C183.374 92.2132 185.714 91.0732 187.454 88.7932C189.254 86.4532 190.154 83.2432 190.154 79.1632C190.154 75.0832 189.254 71.9032 187.454 69.6232C185.714 67.2832 183.374 66.1132 180.434 66.1132C177.434 66.1132 175.064 67.2832 173.324 69.6232C171.584 71.9032 170.714 75.0832 170.714 79.1632C170.714 83.2432 171.584 86.4532 173.324 88.7932C175.064 91.0732 177.434 92.2132 180.434 92.2132ZM219.044 125.963C216.284 125.963 213.824 125.273 211.664 123.893C209.504 122.453 207.824 120.443 206.624 117.863C205.424 115.283 204.824 112.283 204.824 108.863C204.824 105.443 205.424 102.443 206.624 99.8632C207.824 97.2832 209.504 95.3032 211.664 93.9232C213.824 92.4832 216.284 91.7632 219.044 91.7632C221.924 91.7632 224.414 92.4832 226.514 93.9232C228.674 95.3032 230.324 97.2832 231.464 99.8632C232.664 102.443 233.264 105.443 233.264 108.863C233.264 112.283 232.664 115.283 231.464 117.863C230.324 120.443 228.674 122.453 226.514 123.893C224.414 125.273 221.924 125.963 219.044 125.963ZM219.044 121.913C221.984 121.913 224.324 120.773 226.064 118.493C227.864 116.153 228.764 112.943 228.764 108.863C228.764 104.783 227.864 101.603 226.064 99.3232C224.324 96.9832 221.984 95.8132 219.044 95.8132C216.104 95.8132 213.734 96.9832 211.934 99.3232C210.194 101.603 209.324 104.783 209.324 108.863C209.324 112.943 210.194 116.153 211.934 118.493C213.734 120.773 216.104 121.913 219.044 121.913Z" fill="white"/>
<path d="M3.24 152.759H9.9V153.893H3.24V152.759ZM3.384 158.573H10.962V159.725H2.052V147.125H10.692V148.277H3.384V158.573ZM18.647 150.185C19.415 150.185 20.087 150.335 20.663 150.635C21.251 150.923 21.707 151.367 22.031 151.967C22.367 152.567 22.535 153.323 22.535 154.235V159.725H21.257V154.361C21.257 153.365 21.005 152.615 20.501 152.111C20.009 151.595 19.313 151.337 18.413 151.337C17.741 151.337 17.153 151.475 16.649 151.751C16.157 152.015 15.773 152.405 15.497 152.921C15.233 153.425 15.101 154.037 15.101 154.757V159.725H13.823V150.275H15.047V152.867L14.849 152.381C15.149 151.697 15.629 151.163 16.289 150.779C16.949 150.383 17.735 150.185 18.647 150.185ZM28.9751 159.815C28.0871 159.815 27.4031 159.575 26.9231 159.095C26.4431 158.615 26.2031 157.937 26.2031 157.061V148.187H27.4811V156.989C27.4811 157.541 27.6191 157.967 27.8951 158.267C28.1831 158.567 28.5911 158.717 29.1191 158.717C29.6831 158.717 30.1511 158.555 30.5231 158.231L30.9731 159.149C30.7211 159.377 30.4151 159.545 30.0551 159.653C29.7071 159.761 29.3471 159.815 28.9751 159.815ZM24.5111 151.337V150.275H30.3611V151.337H24.5111ZM36.9796 159.815C35.9956 159.815 35.1316 159.611 34.3876 159.203C33.6436 158.783 33.0616 158.213 32.6416 157.493C32.2216 156.761 32.0116 155.927 32.0116 154.991C32.0116 154.055 32.2096 153.227 32.6056 152.507C33.0136 151.787 33.5656 151.223 34.2616 150.815C34.9696 150.395 35.7616 150.185 36.6376 150.185C37.5256 150.185 38.3116 150.389 38.9956 150.797C39.6916 151.193 40.2376 151.757 40.6336 152.489C41.0296 153.209 41.2276 154.043 41.2276 154.991C41.2276 155.051 41.2216 155.117 41.2096 155.189C41.2096 155.249 41.2096 155.315 41.2096 155.387H32.9836V154.433H40.5256L40.0216 154.811C40.0216 154.127 39.8716 153.521 39.5716 152.993C39.2836 152.453 38.8876 152.033 38.3836 151.733C37.8796 151.433 37.2976 151.283 36.6376 151.283C35.9896 151.283 35.4076 151.433 34.8916 151.733C34.3756 152.033 33.9736 152.453 33.6856 152.993C33.3976 153.533 33.2536 154.151 33.2536 154.847V155.045C33.2536 155.765 33.4096 156.401 33.7216 156.953C34.0456 157.493 34.4896 157.919 35.0536 158.231C35.6296 158.531 36.2836 158.681 37.0156 158.681C37.5916 158.681 38.1256 158.579 38.6176 158.375C39.1216 158.171 39.5536 157.859 39.9136 157.439L40.6336 158.267C40.2136 158.771 39.6856 159.155 39.0496 159.419C38.4256 159.683 37.7356 159.815 36.9796 159.815ZM43.8289 159.725V150.275H45.0529V152.849L44.9269 152.399C45.1909 151.679 45.6349 151.133 46.2589 150.761C46.8829 150.377 47.6569 150.185 48.5809 150.185V151.427C48.5329 151.427 48.4849 151.427 48.4369 151.427C48.3889 151.415 48.3409 151.409 48.2929 151.409C47.2969 151.409 46.5169 151.715 45.9529 152.327C45.3889 152.927 45.1069 153.785 45.1069 154.901V159.725H43.8289ZM55.7909 159.815C54.9749 159.815 54.2369 159.629 53.5769 159.257C52.9169 158.873 52.3889 158.327 51.9929 157.619C51.6089 156.899 51.4169 156.023 51.4169 154.991C51.4169 153.959 51.6089 153.089 51.9929 152.381C52.3769 151.661 52.8989 151.115 53.5589 150.743C54.2189 150.371 54.9629 150.185 55.7909 150.185C56.6909 150.185 57.4949 150.389 58.2029 150.797C58.9229 151.193 59.4869 151.757 59.8949 152.489C60.3029 153.209 60.5069 154.043 60.5069 154.991C60.5069 155.951 60.3029 156.791 59.8949 157.511C59.4869 158.231 58.9229 158.795 58.2029 159.203C57.4949 159.611 56.6909 159.815 55.7909 159.815ZM50.9129 163.217V150.275H52.1369V153.119L52.0109 155.009L52.1909 156.917V163.217H50.9129ZM55.7009 158.681C56.3729 158.681 56.9729 158.531 57.5009 158.231C58.0289 157.919 58.4489 157.487 58.7609 156.935C59.0729 156.371 59.2289 155.723 59.2289 154.991C59.2289 154.259 59.0729 153.617 58.7609 153.065C58.4489 152.513 58.0289 152.081 57.5009 151.769C56.9729 151.457 56.3729 151.301 55.7009 151.301C55.0289 151.301 54.4229 151.457 53.8829 151.769C53.3549 152.081 52.9349 152.513 52.6229 153.065C52.3229 153.617 52.1729 154.259 52.1729 154.991C52.1729 155.723 52.3229 156.371 52.6229 156.935C52.9349 157.487 53.3549 157.919 53.8829 158.231C54.4229 158.531 55.0289 158.681 55.7009 158.681ZM63.1121 159.725V150.275H64.3361V152.849L64.2101 152.399C64.4741 151.679 64.9181 151.133 65.5421 150.761C66.1661 150.377 66.9401 150.185 67.8641 150.185V151.427C67.8161 151.427 67.7681 151.427 67.7201 151.427C67.6721 151.415 67.6241 151.409 67.5761 151.409C66.5801 151.409 65.8001 151.715 65.2361 152.327C64.6721 152.927 64.3901 153.785 64.3901 154.901V159.725H63.1121ZM70.1961 159.725V150.275H71.4741V159.725H70.1961ZM70.8441 148.187C70.5801 148.187 70.3581 148.097 70.1781 147.917C69.9981 147.737 69.9081 147.521 69.9081 147.269C69.9081 147.017 69.9981 146.807 70.1781 146.639C70.3581 146.459 70.5801 146.369 70.8441 146.369C71.1081 146.369 71.3301 146.453 71.5101 146.621C71.6901 146.789 71.7801 146.999 71.7801 147.251C71.7801 147.515 71.6901 147.737 71.5101 147.917C71.3421 148.097 71.1201 148.187 70.8441 148.187ZM77.568 159.815C76.788 159.815 76.05 159.707 75.354 159.491C74.658 159.263 74.112 158.981 73.716 158.645L74.292 157.637C74.676 157.925 75.168 158.177 75.768 158.393C76.368 158.597 76.998 158.699 77.658 158.699C78.558 158.699 79.206 158.561 79.602 158.285C79.998 157.997 80.196 157.619 80.196 157.151C80.196 156.803 80.082 156.533 79.854 156.341C79.638 156.137 79.35 155.987 78.99 155.891C78.63 155.783 78.228 155.693 77.784 155.621C77.34 155.549 76.896 155.465 76.452 155.369C76.02 155.273 75.624 155.135 75.264 154.955C74.904 154.763 74.61 154.505 74.382 154.181C74.166 153.857 74.058 153.425 74.058 152.885C74.058 152.369 74.202 151.907 74.49 151.499C74.778 151.091 75.198 150.773 75.75 150.545C76.314 150.305 76.998 150.185 77.802 150.185C78.414 150.185 79.026 150.269 79.638 150.437C80.25 150.593 80.754 150.803 81.15 151.067L80.592 152.093C80.172 151.805 79.722 151.601 79.242 151.481C78.762 151.349 78.282 151.283 77.802 151.283C76.95 151.283 76.32 151.433 75.912 151.733C75.516 152.021 75.318 152.393 75.318 152.849C75.318 153.209 75.426 153.491 75.642 153.695C75.87 153.899 76.164 154.061 76.524 154.181C76.896 154.289 77.298 154.379 77.73 154.451C78.174 154.523 78.612 154.613 79.044 154.721C79.488 154.817 79.89 154.955 80.25 155.135C80.622 155.303 80.916 155.549 81.132 155.873C81.36 156.185 81.474 156.599 81.474 157.115C81.474 157.667 81.318 158.147 81.006 158.555C80.706 158.951 80.262 159.263 79.674 159.491C79.098 159.707 78.396 159.815 77.568 159.815ZM87.8331 159.815C86.8491 159.815 85.9851 159.611 85.2411 159.203C84.4971 158.783 83.9151 158.213 83.4951 157.493C83.0751 156.761 82.8651 155.927 82.8651 154.991C82.8651 154.055 83.0631 153.227 83.4591 152.507C83.8671 151.787 84.4191 151.223 85.1151 150.815C85.8231 150.395 86.6151 150.185 87.4911 150.185C88.3791 150.185 89.1651 150.389 89.8491 150.797C90.5451 151.193 91.0911 151.757 91.4871 152.489C91.8831 153.209 92.0811 154.043 92.0811 154.991C92.0811 155.051 92.0751 155.117 92.0631 155.189C92.0631 155.249 92.0631 155.315 92.0631 155.387H83.8371V154.433H91.3791L90.8751 154.811C90.8751 154.127 90.7251 153.521 90.4251 152.993C90.1371 152.453 89.7411 152.033 89.2371 151.733C88.7331 151.433 88.1511 151.283 87.4911 151.283C86.8431 151.283 86.2611 151.433 85.7451 151.733C85.2291 152.033 84.8271 152.453 84.5391 152.993C84.2511 153.533 84.1071 154.151 84.1071 154.847V155.045C84.1071 155.765 84.2631 156.401 84.5751 156.953C84.8991 157.493 85.3431 157.919 85.9071 158.231C86.4831 158.531 87.1371 158.681 87.8691 158.681C88.4451 158.681 88.9791 158.579 89.4711 158.375C89.9751 158.171 90.4071 157.859 90.7671 157.439L91.4871 158.267C91.0671 158.771 90.5391 159.155 89.9031 159.419C89.2791 159.683 88.5891 159.815 87.8331 159.815ZM99.6633 159.725V147.125H104.793C106.137 147.125 107.313 147.395 108.321 147.935C109.341 148.463 110.133 149.201 110.697 150.149C111.261 151.097 111.543 152.189 111.543 153.425C111.543 154.661 111.261 155.753 110.697 156.701C110.133 157.649 109.341 158.393 108.321 158.933C107.313 159.461 106.137 159.725 104.793 159.725H99.6633ZM100.995 158.573H104.721C105.837 158.573 106.803 158.357 107.619 157.925C108.447 157.481 109.089 156.875 109.545 156.107C110.001 155.327 110.229 154.433 110.229 153.425C110.229 152.405 110.001 151.511 109.545 150.743C109.089 149.975 108.447 149.375 107.619 148.943C106.803 148.499 105.837 148.277 104.721 148.277H100.995V158.573ZM120.186 159.725V157.637L120.132 157.295V153.803C120.132 152.999 119.904 152.381 119.448 151.949C119.004 151.517 118.338 151.301 117.45 151.301C116.838 151.301 116.256 151.403 115.704 151.607C115.152 151.811 114.684 152.081 114.3 152.417L113.724 151.463C114.204 151.055 114.78 150.743 115.452 150.527C116.124 150.299 116.832 150.185 117.576 150.185C118.8 150.185 119.742 150.491 120.402 151.103C121.074 151.703 121.41 152.621 121.41 153.857V159.725H120.186ZM116.928 159.815C116.22 159.815 115.602 159.701 115.074 159.473C114.558 159.233 114.162 158.909 113.886 158.501C113.61 158.081 113.472 157.601 113.472 157.061C113.472 156.569 113.586 156.125 113.814 155.729C114.054 155.321 114.438 154.997 114.966 154.757C115.506 154.505 116.226 154.379 117.126 154.379H120.384V155.333H117.162C116.25 155.333 115.614 155.495 115.254 155.819C114.906 156.143 114.732 156.545 114.732 157.025C114.732 157.565 114.942 157.997 115.362 158.321C115.782 158.645 116.37 158.807 117.126 158.807C117.846 158.807 118.464 158.645 118.98 158.321C119.508 157.985 119.892 157.505 120.132 156.881L120.42 157.763C120.18 158.387 119.76 158.885 119.16 159.257C118.572 159.629 117.828 159.815 116.928 159.815ZM127.87 159.815C126.982 159.815 126.298 159.575 125.818 159.095C125.338 158.615 125.098 157.937 125.098 157.061V148.187H126.376V156.989C126.376 157.541 126.514 157.967 126.79 158.267C127.078 158.567 127.486 158.717 128.014 158.717C128.578 158.717 129.046 158.555 129.418 158.231L129.868 159.149C129.616 159.377 129.31 159.545 128.95 159.653C128.602 159.761 128.242 159.815 127.87 159.815ZM123.406 151.337V150.275H129.256V151.337H123.406ZM138.116 159.725V157.637L138.062 157.295V153.803C138.062 152.999 137.834 152.381 137.378 151.949C136.934 151.517 136.268 151.301 135.38 151.301C134.768 151.301 134.186 151.403 133.634 151.607C133.082 151.811 132.614 152.081 132.23 152.417L131.654 151.463C132.134 151.055 132.71 150.743 133.382 150.527C134.054 150.299 134.762 150.185 135.506 150.185C136.73 150.185 137.672 150.491 138.332 151.103C139.004 151.703 139.34 152.621 139.34 153.857V159.725H138.116ZM134.858 159.815C134.15 159.815 133.532 159.701 133.004 159.473C132.488 159.233 132.092 158.909 131.816 158.501C131.54 158.081 131.402 157.601 131.402 157.061C131.402 156.569 131.516 156.125 131.744 155.729C131.984 155.321 132.368 154.997 132.896 154.757C133.436 154.505 134.156 154.379 135.056 154.379H138.314V155.333H135.092C134.18 155.333 133.544 155.495 133.184 155.819C132.836 156.143 132.662 156.545 132.662 157.025C132.662 157.565 132.872 157.997 133.292 158.321C133.712 158.645 134.3 158.807 135.056 158.807C135.776 158.807 136.394 158.645 136.91 158.321C137.438 157.985 137.822 157.505 138.062 156.881L138.35 157.763C138.11 158.387 137.69 158.885 137.09 159.257C136.502 159.629 135.758 159.815 134.858 159.815ZM147.522 159.725V150.275H148.8V159.725H147.522ZM148.17 148.187C147.906 148.187 147.684 148.097 147.504 147.917C147.324 147.737 147.234 147.521 147.234 147.269C147.234 147.017 147.324 146.807 147.504 146.639C147.684 146.459 147.906 146.369 148.17 146.369C148.434 146.369 148.656 146.453 148.836 146.621C149.016 146.789 149.106 146.999 149.106 147.251C149.106 147.515 149.016 147.737 148.836 147.917C148.668 148.097 148.446 148.187 148.17 148.187ZM154.894 159.815C154.114 159.815 153.376 159.707 152.68 159.491C151.984 159.263 151.438 158.981 151.042 158.645L151.618 157.637C152.002 157.925 152.494 158.177 153.094 158.393C153.694 158.597 154.324 158.699 154.984 158.699C155.884 158.699 156.532 158.561 156.928 158.285C157.324 157.997 157.522 157.619 157.522 157.151C157.522 156.803 157.408 156.533 157.18 156.341C156.964 156.137 156.676 155.987 156.316 155.891C155.956 155.783 155.554 155.693 155.11 155.621C154.666 155.549 154.222 155.465 153.778 155.369C153.346 155.273 152.95 155.135 152.59 154.955C152.23 154.763 151.936 154.505 151.708 154.181C151.492 153.857 151.384 153.425 151.384 152.885C151.384 152.369 151.528 151.907 151.816 151.499C152.104 151.091 152.524 150.773 153.076 150.545C153.64 150.305 154.324 150.185 155.128 150.185C155.74 150.185 156.352 150.269 156.964 150.437C157.576 150.593 158.08 150.803 158.476 151.067L157.918 152.093C157.498 151.805 157.048 151.601 156.568 151.481C156.088 151.349 155.608 151.283 155.128 151.283C154.276 151.283 153.646 151.433 153.238 151.733C152.842 152.021 152.644 152.393 152.644 152.849C152.644 153.209 152.752 153.491 152.968 153.695C153.196 153.899 153.49 154.061 153.85 154.181C154.222 154.289 154.624 154.379 155.056 154.451C155.5 154.523 155.938 154.613 156.37 154.721C156.814 154.817 157.216 154.955 157.576 155.135C157.948 155.303 158.242 155.549 158.458 155.873C158.686 156.185 158.8 156.599 158.8 157.115C158.8 157.667 158.644 158.147 158.332 158.555C158.032 158.951 157.588 159.263 157 159.491C156.424 159.707 155.722 159.815 154.894 159.815ZM171.202 159.833C169.594 159.833 168.328 159.371 167.404 158.447C166.48 157.523 166.018 156.155 166.018 154.343V147.125H167.35V154.289C167.35 155.777 167.686 156.875 168.358 157.583C169.03 158.291 169.978 158.645 171.202 158.645C172.438 158.645 173.392 158.291 174.064 157.583C174.736 156.875 175.072 155.777 175.072 154.289V147.125H176.368V154.343C176.368 156.155 175.906 157.523 174.982 158.447C174.07 159.371 172.81 159.833 171.202 159.833ZM184.936 150.185C185.704 150.185 186.376 150.335 186.952 150.635C187.54 150.923 187.996 151.367 188.32 151.967C188.656 152.567 188.824 153.323 188.824 154.235V159.725H187.546V154.361C187.546 153.365 187.294 152.615 186.79 152.111C186.298 151.595 185.602 151.337 184.702 151.337C184.03 151.337 183.442 151.475 182.938 151.751C182.446 152.015 182.062 152.405 181.786 152.921C181.522 153.425 181.39 154.037 181.39 154.757V159.725H180.112V150.275H181.336V152.867L181.138 152.381C181.438 151.697 181.918 151.163 182.578 150.779C183.238 150.383 184.024 150.185 184.936 150.185ZM194.814 159.815C194.034 159.815 193.296 159.707 192.6 159.491C191.904 159.263 191.358 158.981 190.962 158.645L191.538 157.637C191.922 157.925 192.414 158.177 193.014 158.393C193.614 158.597 194.244 158.699 194.904 158.699C195.804 158.699 196.452 158.561 196.848 158.285C197.244 157.997 197.442 157.619 197.442 157.151C197.442 156.803 197.328 156.533 197.1 156.341C196.884 156.137 196.596 155.987 196.236 155.891C195.876 155.783 195.474 155.693 195.03 155.621C194.586 155.549 194.142 155.465 193.698 155.369C193.266 155.273 192.87 155.135 192.51 154.955C192.15 154.763 191.856 154.505 191.628 154.181C191.412 153.857 191.304 153.425 191.304 152.885C191.304 152.369 191.448 151.907 191.736 151.499C192.024 151.091 192.444 150.773 192.996 150.545C193.56 150.305 194.244 150.185 195.048 150.185C195.66 150.185 196.272 150.269 196.884 150.437C197.496 150.593 198 150.803 198.396 151.067L197.838 152.093C197.418 151.805 196.968 151.601 196.488 151.481C196.008 151.349 195.528 151.283 195.048 151.283C194.196 151.283 193.566 151.433 193.158 151.733C192.762 152.021 192.564 152.393 192.564 152.849C192.564 153.209 192.672 153.491 192.888 153.695C193.116 153.899 193.41 154.061 193.77 154.181C194.142 154.289 194.544 154.379 194.976 154.451C195.42 154.523 195.858 154.613 196.29 154.721C196.734 154.817 197.136 154.955 197.496 155.135C197.868 155.303 198.162 155.549 198.378 155.873C198.606 156.185 198.72 156.599 198.72 157.115C198.72 157.667 198.564 158.147 198.252 158.555C197.952 158.951 197.508 159.263 196.92 159.491C196.344 159.707 195.642 159.815 194.814 159.815ZM204.053 159.815C203.165 159.815 202.481 159.575 202.001 159.095C201.521 158.615 201.281 157.937 201.281 157.061V148.187H202.559V156.989C202.559 157.541 202.697 157.967 202.973 158.267C203.261 158.567 203.669 158.717 204.197 158.717C204.761 158.717 205.229 158.555 205.601 158.231L206.051 159.149C205.799 159.377 205.493 159.545 205.133 159.653C204.785 159.761 204.425 159.815 204.053 159.815ZM199.589 151.337V150.275H205.439V151.337H199.589ZM208.378 159.725V150.275H209.602V152.849L209.476 152.399C209.74 151.679 210.184 151.133 210.808 150.761C211.432 150.377 212.206 150.185 213.13 150.185V151.427C213.082 151.427 213.034 151.427 212.986 151.427C212.938 151.415 212.89 151.409 212.842 151.409C211.846 151.409 211.066 151.715 210.502 152.327C209.938 152.927 209.656 153.785 209.656 154.901V159.725H208.378ZM219.508 159.815C218.704 159.815 218.002 159.665 217.402 159.365C216.802 159.065 216.334 158.615 215.998 158.015C215.674 157.415 215.512 156.665 215.512 155.765V150.275H216.79V155.621C216.79 156.629 217.036 157.391 217.528 157.907C218.032 158.411 218.734 158.663 219.634 158.663C220.294 158.663 220.864 158.531 221.344 158.267C221.836 157.991 222.208 157.595 222.46 157.079C222.724 156.563 222.856 155.945 222.856 155.225V150.275H224.134V159.725H222.91V157.133L223.108 157.601C222.808 158.297 222.34 158.843 221.704 159.239C221.08 159.623 220.348 159.815 219.508 159.815ZM231.62 159.815C230.684 159.815 229.844 159.611 229.1 159.203C228.368 158.783 227.792 158.213 227.372 157.493C226.952 156.761 226.742 155.927 226.742 154.991C226.742 154.043 226.952 153.209 227.372 152.489C227.792 151.769 228.368 151.205 229.1 150.797C229.844 150.389 230.684 150.185 231.62 150.185C232.424 150.185 233.15 150.341 233.798 150.653C234.446 150.965 234.956 151.433 235.328 152.057L234.374 152.705C234.05 152.225 233.648 151.871 233.168 151.643C232.688 151.415 232.166 151.301 231.602 151.301C230.93 151.301 230.324 151.457 229.784 151.769C229.244 152.069 228.818 152.495 228.506 153.047C228.194 153.599 228.038 154.247 228.038 154.991C228.038 155.735 228.194 156.383 228.506 156.935C228.818 157.487 229.244 157.919 229.784 158.231C230.324 158.531 230.93 158.681 231.602 158.681C232.166 158.681 232.688 158.567 233.168 158.339C233.648 158.111 234.05 157.763 234.374 157.295L235.328 157.943C234.956 158.555 234.446 159.023 233.798 159.347C233.15 159.659 232.424 159.815 231.62 159.815ZM240.932 159.815C240.044 159.815 239.36 159.575 238.88 159.095C238.4 158.615 238.16 157.937 238.16 157.061V148.187H239.438V156.989C239.438 157.541 239.576 157.967 239.852 158.267C240.14 158.567 240.548 158.717 241.076 158.717C241.64 158.717 242.108 158.555 242.48 158.231L242.93 159.149C242.678 159.377 242.372 159.545 242.012 159.653C241.664 159.761 241.304 159.815 240.932 159.815ZM236.468 151.337V150.275H242.318V151.337H236.468ZM249.163 159.815C248.359 159.815 247.657 159.665 247.057 159.365C246.457 159.065 245.989 158.615 245.653 158.015C245.329 157.415 245.167 156.665 245.167 155.765V150.275H246.445V155.621C246.445 156.629 246.691 157.391 247.183 157.907C247.687 158.411 248.389 158.663 249.289 158.663C249.949 158.663 250.519 158.531 250.999 158.267C251.491 157.991 251.863 157.595 252.115 157.079C252.379 156.563 252.511 155.945 252.511 155.225V150.275H253.789V159.725H252.565V157.133L252.763 157.601C252.463 158.297 251.995 158.843 251.359 159.239C250.735 159.623 250.003 159.815 249.163 159.815ZM257.35 159.725V150.275H258.574V152.849L258.448 152.399C258.712 151.679 259.156 151.133 259.78 150.761C260.404 150.377 261.178 150.185 262.102 150.185V151.427C262.054 151.427 262.006 151.427 261.958 151.427C261.91 151.415 261.862 151.409 261.814 151.409C260.818 151.409 260.038 151.715 259.474 152.327C258.91 152.927 258.628 153.785 258.628 154.901V159.725H257.35ZM268.36 159.815C267.376 159.815 266.512 159.611 265.768 159.203C265.024 158.783 264.442 158.213 264.022 157.493C263.602 156.761 263.392 155.927 263.392 154.991C263.392 154.055 263.59 153.227 263.986 152.507C264.394 151.787 264.946 151.223 265.642 150.815C266.35 150.395 267.142 150.185 268.018 150.185C268.906 150.185 269.692 150.389 270.376 150.797C271.072 151.193 271.618 151.757 272.014 152.489C272.41 153.209 272.608 154.043 272.608 154.991C272.608 155.051 272.602 155.117 272.59 155.189C272.59 155.249 272.59 155.315 272.59 155.387H264.364V154.433H271.906L271.402 154.811C271.402 154.127 271.252 153.521 270.952 152.993C270.664 152.453 270.268 152.033 269.764 151.733C269.26 151.433 268.678 151.283 268.018 151.283C267.37 151.283 266.788 151.433 266.272 151.733C265.756 152.033 265.354 152.453 265.066 152.993C264.778 153.533 264.634 154.151 264.634 154.847V155.045C264.634 155.765 264.79 156.401 265.102 156.953C265.426 157.493 265.87 157.919 266.434 158.231C267.01 158.531 267.664 158.681 268.396 158.681C268.972 158.681 269.506 158.579 269.998 158.375C270.502 158.171 270.934 157.859 271.294 157.439L272.014 158.267C271.594 158.771 271.066 159.155 270.43 159.419C269.806 159.683 269.116 159.815 268.36 159.815ZM278.972 159.815C278.072 159.815 277.262 159.611 276.542 159.203C275.834 158.795 275.276 158.231 274.868 157.511C274.46 156.779 274.256 155.939 274.256 154.991C274.256 154.031 274.46 153.191 274.868 152.471C275.276 151.751 275.834 151.193 276.542 150.797C277.262 150.389 278.072 150.185 278.972 150.185C279.8 150.185 280.538 150.371 281.186 150.743C281.846 151.115 282.368 151.661 282.752 152.381C283.148 153.089 283.346 153.959 283.346 154.991C283.346 156.011 283.154 156.881 282.77 157.601C282.386 158.321 281.864 158.873 281.204 159.257C280.556 159.629 279.812 159.815 278.972 159.815ZM279.062 158.681C279.734 158.681 280.334 158.531 280.862 158.231C281.402 157.919 281.822 157.487 282.122 156.935C282.434 156.371 282.59 155.723 282.59 154.991C282.59 154.247 282.434 153.599 282.122 153.047C281.822 152.495 281.402 152.069 280.862 151.769C280.334 151.457 279.734 151.301 279.062 151.301C278.402 151.301 277.808 151.457 277.28 151.769C276.752 152.069 276.332 152.495 276.02 153.047C275.708 153.599 275.552 154.247 275.552 154.991C275.552 155.723 275.708 156.371 276.02 156.935C276.332 157.487 276.752 157.919 277.28 158.231C277.808 158.531 278.402 158.681 279.062 158.681ZM282.626 159.725V156.881L282.752 154.973L282.572 153.065V146.369H283.85V159.725H282.626Z" fill="white"/>
<path d="M12.99 177.08V171.83H13.7V177.08H12.99ZM13.35 170.67C13.2033 170.67 13.08 170.62 12.98 170.52C12.88 170.42 12.83 170.3 12.83 170.16C12.83 170.02 12.88 169.903 12.98 169.81C13.08 169.71 13.2033 169.66 13.35 169.66C13.4967 169.66 13.62 169.706 13.72 169.8C13.82 169.893 13.87 170.01 13.87 170.15C13.87 170.296 13.82 170.42 13.72 170.52C13.6267 170.62 13.5033 170.67 13.35 170.67ZM18.3555 171.78C18.7822 171.78 19.1555 171.863 19.4755 172.03C19.8022 172.19 20.0555 172.436 20.2355 172.77C20.4222 173.103 20.5155 173.523 20.5155 174.03V177.08H19.8055V174.1C19.8055 173.546 19.6655 173.13 19.3855 172.85C19.1122 172.563 18.7255 172.42 18.2255 172.42C17.8522 172.42 17.5255 172.496 17.2455 172.65C16.9722 172.796 16.7589 173.013 16.6055 173.3C16.4589 173.58 16.3855 173.92 16.3855 174.32V177.08H15.6755V171.83H16.3555V173.27L16.2455 173C16.4122 172.62 16.6789 172.323 17.0455 172.11C17.4122 171.89 17.8489 171.78 18.3555 171.78ZM24.6134 177.13C24.0934 177.13 23.6267 177.016 23.2134 176.79C22.8067 176.556 22.4867 176.24 22.2534 175.84C22.02 175.433 21.9034 174.97 21.9034 174.45C21.9034 173.923 22.02 173.46 22.2534 173.06C22.4867 172.66 22.8067 172.346 23.2134 172.12C23.6267 171.893 24.0934 171.78 24.6134 171.78C25.06 171.78 25.4634 171.866 25.8234 172.04C26.1834 172.213 26.4667 172.473 26.6734 172.82L26.1434 173.18C25.9634 172.913 25.74 172.716 25.4734 172.59C25.2067 172.463 24.9167 172.4 24.6034 172.4C24.23 172.4 23.8934 172.486 23.5934 172.66C23.2934 172.826 23.0567 173.063 22.8834 173.37C22.71 173.676 22.6234 174.036 22.6234 174.45C22.6234 174.863 22.71 175.223 22.8834 175.53C23.0567 175.836 23.2934 176.076 23.5934 176.25C23.8934 176.416 24.23 176.5 24.6034 176.5C24.9167 176.5 25.2067 176.436 25.4734 176.31C25.74 176.183 25.9634 175.99 26.1434 175.73L26.6734 176.09C26.4667 176.43 26.1834 176.69 25.8234 176.87C25.4634 177.043 25.06 177.13 24.6134 177.13ZM28.0681 177.08V171.83H28.7481V173.26L28.6781 173.01C28.8248 172.61 29.0715 172.306 29.4181 172.1C29.7648 171.886 30.1948 171.78 30.7081 171.78V172.47C30.6815 172.47 30.6548 172.47 30.6281 172.47C30.6015 172.463 30.5748 172.46 30.5481 172.46C29.9948 172.46 29.5615 172.63 29.2481 172.97C28.9348 173.303 28.7781 173.78 28.7781 174.4V177.08H28.0681ZM34.1848 177.13C33.6382 177.13 33.1582 177.016 32.7448 176.79C32.3315 176.556 32.0082 176.24 31.7748 175.84C31.5415 175.433 31.4248 174.97 31.4248 174.45C31.4248 173.93 31.5348 173.47 31.7548 173.07C31.9815 172.67 32.2882 172.356 32.6748 172.13C33.0682 171.896 33.5082 171.78 33.9948 171.78C34.4882 171.78 34.9248 171.893 35.3048 172.12C35.6915 172.34 35.9948 172.653 36.2148 173.06C36.4348 173.46 36.5448 173.923 36.5448 174.45C36.5448 174.483 36.5415 174.52 36.5348 174.56C36.5348 174.593 36.5348 174.63 36.5348 174.67H31.9648V174.14H36.1548L35.8748 174.35C35.8748 173.97 35.7915 173.633 35.6248 173.34C35.4648 173.04 35.2448 172.806 34.9648 172.64C34.6848 172.473 34.3615 172.39 33.9948 172.39C33.6348 172.39 33.3115 172.473 33.0248 172.64C32.7382 172.806 32.5148 173.04 32.3548 173.34C32.1948 173.64 32.1148 173.983 32.1148 174.37V174.48C32.1148 174.88 32.2015 175.233 32.3748 175.54C32.5548 175.84 32.8015 176.076 33.1148 176.25C33.4348 176.416 33.7982 176.5 34.2048 176.5C34.5248 176.5 34.8215 176.443 35.0948 176.33C35.3748 176.216 35.6148 176.043 35.8148 175.81L36.2148 176.27C35.9815 176.55 35.6882 176.763 35.3348 176.91C34.9882 177.056 34.6048 177.13 34.1848 177.13ZM40.08 177.13C39.58 177.13 39.13 177.016 38.73 176.79C38.3367 176.563 38.0267 176.25 37.8 175.85C37.5733 175.443 37.46 174.976 37.46 174.45C37.46 173.916 37.5733 173.45 37.8 173.05C38.0267 172.65 38.3367 172.34 38.73 172.12C39.13 171.893 39.58 171.78 40.08 171.78C40.54 171.78 40.95 171.883 41.31 172.09C41.6767 172.296 41.9667 172.6 42.18 173C42.4 173.393 42.51 173.876 42.51 174.45C42.51 175.016 42.4033 175.5 42.19 175.9C41.9767 176.3 41.6867 176.606 41.32 176.82C40.96 177.026 40.5467 177.13 40.08 177.13ZM40.13 176.5C40.5033 176.5 40.8367 176.416 41.13 176.25C41.43 176.076 41.6633 175.836 41.83 175.53C42.0033 175.216 42.09 174.856 42.09 174.45C42.09 174.036 42.0033 173.676 41.83 173.37C41.6633 173.063 41.43 172.826 41.13 172.66C40.8367 172.486 40.5033 172.4 40.13 172.4C39.7633 172.4 39.4333 172.486 39.14 172.66C38.8467 172.826 38.6133 173.063 38.44 173.37C38.2667 173.676 38.18 174.036 38.18 174.45C38.18 174.856 38.2667 175.216 38.44 175.53C38.6133 175.836 38.8467 176.076 39.14 176.25C39.4333 176.416 39.7633 176.5 40.13 176.5ZM42.11 177.08V175.5L42.18 174.44L42.08 173.38V169.66H42.79V177.08H42.11ZM44.7673 177.08V171.83H45.4773V177.08H44.7673ZM45.1273 170.67C44.9807 170.67 44.8573 170.62 44.7573 170.52C44.6573 170.42 44.6073 170.3 44.6073 170.16C44.6073 170.02 44.6573 169.903 44.7573 169.81C44.8573 169.71 44.9807 169.66 45.1273 169.66C45.274 169.66 45.3973 169.706 45.4973 169.8C45.5973 169.893 45.6473 170.01 45.6473 170.15C45.6473 170.296 45.5973 170.42 45.4973 170.52C45.404 170.62 45.2807 170.67 45.1273 170.67ZM50.1629 177.13C49.7029 177.13 49.2896 177.026 48.9229 176.82C48.5562 176.606 48.2662 176.3 48.0529 175.9C47.8396 175.5 47.7329 175.016 47.7329 174.45C47.7329 173.876 47.8396 173.393 48.0529 173C48.2729 172.6 48.5662 172.296 48.9329 172.09C49.2996 171.883 49.7096 171.78 50.1629 171.78C50.6629 171.78 51.1096 171.893 51.5029 172.12C51.9029 172.34 52.2162 172.65 52.4429 173.05C52.6696 173.45 52.7829 173.916 52.7829 174.45C52.7829 174.976 52.6696 175.443 52.4429 175.85C52.2162 176.25 51.9029 176.563 51.5029 176.79C51.1096 177.016 50.6629 177.13 50.1629 177.13ZM47.4529 177.08V169.66H48.1629V173.38L48.0629 174.44L48.1329 175.5V177.08H47.4529ZM50.1129 176.5C50.4862 176.5 50.8196 176.416 51.1129 176.25C51.4062 176.076 51.6396 175.836 51.8129 175.53C51.9862 175.216 52.0729 174.856 52.0729 174.45C52.0729 174.036 51.9862 173.676 51.8129 173.37C51.6396 173.063 51.4062 172.826 51.1129 172.66C50.8196 172.486 50.4862 172.4 50.1129 172.4C49.7396 172.4 49.4029 172.486 49.1029 172.66C48.8096 172.826 48.5762 173.063 48.4029 173.37C48.2362 173.676 48.1529 174.036 48.1529 174.45C48.1529 174.856 48.2362 175.216 48.4029 175.53C48.5762 175.836 48.8096 176.076 49.1029 176.25C49.4029 176.416 49.7396 176.5 50.1129 176.5ZM54.2302 177.08V169.66H54.9402V177.08H54.2302ZM56.9558 179.07C56.7091 179.07 56.4724 179.03 56.2458 178.95C56.0258 178.87 55.8358 178.75 55.6758 178.59L56.0058 178.06C56.1391 178.186 56.2824 178.283 56.4358 178.35C56.5958 178.423 56.7724 178.46 56.9658 178.46C57.1991 178.46 57.3991 178.393 57.5658 178.26C57.7391 178.133 57.9024 177.906 58.0558 177.58L58.3958 176.81L58.4758 176.7L60.6358 171.83H61.3358L58.7058 177.71C58.5591 178.05 58.3958 178.32 58.2158 178.52C58.0424 178.72 57.8524 178.86 57.6458 178.94C57.4391 179.026 57.2091 179.07 56.9558 179.07ZM58.3558 177.23L55.9358 171.83H56.6758L58.8158 176.65L58.3558 177.23ZM67.0429 177.13C66.5429 177.13 66.0929 177.016 65.6929 176.79C65.2996 176.563 64.9896 176.25 64.7629 175.85C64.5362 175.443 64.4229 174.976 64.4229 174.45C64.4229 173.916 64.5362 173.45 64.7629 173.05C64.9896 172.65 65.2996 172.34 65.6929 172.12C66.0929 171.893 66.5429 171.78 67.0429 171.78C67.5029 171.78 67.9129 171.883 68.2729 172.09C68.6396 172.296 68.9296 172.6 69.1429 173C69.3629 173.393 69.4729 173.876 69.4729 174.45C69.4729 175.016 69.3662 175.5 69.1529 175.9C68.9396 176.3 68.6496 176.606 68.2829 176.82C67.9229 177.026 67.5096 177.13 67.0429 177.13ZM67.0929 176.5C67.4662 176.5 67.7996 176.416 68.0929 176.25C68.3929 176.076 68.6262 175.836 68.7929 175.53C68.9662 175.216 69.0529 174.856 69.0529 174.45C69.0529 174.036 68.9662 173.676 68.7929 173.37C68.6262 173.063 68.3929 172.826 68.0929 172.66C67.7996 172.486 67.4662 172.4 67.0929 172.4C66.7262 172.4 66.3962 172.486 66.1029 172.66C65.8096 172.826 65.5762 173.063 65.4029 173.37C65.2296 173.676 65.1429 174.036 65.1429 174.45C65.1429 174.856 65.2296 175.216 65.4029 175.53C65.5762 175.836 65.8096 176.076 66.1029 176.25C66.3962 176.416 66.7262 176.5 67.0929 176.5ZM69.0729 177.08V175.5L69.1429 174.44L69.0429 173.38V169.66H69.7529V177.08H69.0729ZM71.7302 177.08V171.83H72.4402V177.08H71.7302ZM72.0902 170.67C71.9436 170.67 71.8202 170.62 71.7202 170.52C71.6202 170.42 71.5702 170.3 71.5702 170.16C71.5702 170.02 71.6202 169.903 71.7202 169.81C71.8202 169.71 71.9436 169.66 72.0902 169.66C72.2369 169.66 72.3602 169.706 72.4602 169.8C72.5602 169.893 72.6102 170.01 72.6102 170.15C72.6102 170.296 72.5602 170.42 72.4602 170.52C72.3669 170.62 72.2436 170.67 72.0902 170.67ZM74.5358 177.08V171.17C74.5358 170.703 74.6724 170.326 74.9458 170.04C75.2191 169.753 75.6124 169.61 76.1258 169.61C76.3258 169.61 76.5191 169.636 76.7058 169.69C76.8924 169.743 77.0491 169.826 77.1758 169.94L76.9358 170.47C76.8358 170.383 76.7191 170.32 76.5858 170.28C76.4524 170.233 76.3091 170.21 76.1558 170.21C75.8558 170.21 75.6258 170.293 75.4658 170.46C75.3058 170.626 75.2258 170.873 75.2258 171.2V172L75.2458 172.33V177.08H74.5358ZM73.5958 172.42V171.83H76.8458V172.42H73.5958ZM77.9245 177.08V171.17C77.9245 170.703 78.0611 170.326 78.3345 170.04C78.6078 169.753 79.0011 169.61 79.5145 169.61C79.7145 169.61 79.9078 169.636 80.0945 169.69C80.2811 169.743 80.4378 169.826 80.5645 169.94L80.3245 170.47C80.2245 170.383 80.1078 170.32 79.9745 170.28C79.8411 170.233 79.6978 170.21 79.5445 170.21C79.2445 170.21 79.0145 170.293 78.8545 170.46C78.6945 170.626 78.6145 170.873 78.6145 171.2V172L78.6345 172.33V177.08H77.9245ZM76.9845 172.42V171.83H80.2345V172.42H76.9845ZM81.1945 177.08V171.83H81.9045V177.08H81.1945ZM81.5545 170.67C81.4078 170.67 81.2845 170.62 81.1845 170.52C81.0845 170.42 81.0345 170.3 81.0345 170.16C81.0345 170.02 81.0845 169.903 81.1845 169.81C81.2845 169.71 81.4078 169.66 81.5545 169.66C81.7011 169.66 81.8245 169.706 81.9245 169.8C82.0245 169.893 82.0745 170.01 82.0745 170.15C82.0745 170.296 82.0245 170.42 81.9245 170.52C81.8311 170.62 81.7078 170.67 81.5545 170.67ZM86.0782 177.13C85.5582 177.13 85.0915 177.016 84.6782 176.79C84.2715 176.556 83.9515 176.24 83.7182 175.84C83.4849 175.433 83.3682 174.97 83.3682 174.45C83.3682 173.923 83.4849 173.46 83.7182 173.06C83.9515 172.66 84.2715 172.346 84.6782 172.12C85.0915 171.893 85.5582 171.78 86.0782 171.78C86.5249 171.78 86.9282 171.866 87.2882 172.04C87.6482 172.213 87.9315 172.473 88.1382 172.82L87.6082 173.18C87.4282 172.913 87.2049 172.716 86.9382 172.59C86.6715 172.463 86.3815 172.4 86.0682 172.4C85.6949 172.4 85.3582 172.486 85.0582 172.66C84.7582 172.826 84.5215 173.063 84.3482 173.37C84.1749 173.676 84.0882 174.036 84.0882 174.45C84.0882 174.863 84.1749 175.223 84.3482 175.53C84.5215 175.836 84.7582 176.076 85.0582 176.25C85.3582 176.416 85.6949 176.5 86.0682 176.5C86.3815 176.5 86.6715 176.436 86.9382 176.31C87.2049 176.183 87.4282 175.99 87.6082 175.73L88.1382 176.09C87.9315 176.43 87.6482 176.69 87.2882 176.87C86.9282 177.043 86.5249 177.13 86.0782 177.13ZM91.703 177.13C91.2563 177.13 90.8663 177.046 90.533 176.88C90.1996 176.713 89.9396 176.463 89.753 176.13C89.573 175.796 89.483 175.38 89.483 174.88V171.83H90.193V174.8C90.193 175.36 90.3296 175.783 90.603 176.07C90.883 176.35 91.273 176.49 91.773 176.49C92.1396 176.49 92.4563 176.416 92.723 176.27C92.9963 176.116 93.203 175.896 93.343 175.61C93.4896 175.323 93.563 174.98 93.563 174.58V171.83H94.273V177.08H93.593V175.64L93.703 175.9C93.5363 176.286 93.2763 176.59 92.923 176.81C92.5763 177.023 92.1696 177.13 91.703 177.13ZM96.2517 177.08V169.66H96.9617V177.08H96.2517ZM100.617 177.13C100.123 177.13 99.7435 176.996 99.4768 176.73C99.2101 176.463 99.0768 176.086 99.0768 175.6V170.67H99.7868V175.56C99.7868 175.866 99.8635 176.103 100.017 176.27C100.177 176.436 100.403 176.52 100.697 176.52C101.01 176.52 101.27 176.43 101.477 176.25L101.727 176.76C101.587 176.886 101.417 176.98 101.217 177.04C101.023 177.1 100.823 177.13 100.617 177.13ZM98.1368 172.42V171.83H101.387V172.42H98.1368ZM107.296 177.13C106.803 177.13 106.423 176.996 106.156 176.73C105.89 176.463 105.756 176.086 105.756 175.6V170.67H106.466V175.56C106.466 175.866 106.543 176.103 106.696 176.27C106.856 176.436 107.083 176.52 107.376 176.52C107.69 176.52 107.95 176.43 108.156 176.25L108.406 176.76C108.266 176.886 108.096 176.98 107.896 177.04C107.703 177.1 107.503 177.13 107.296 177.13ZM104.816 172.42V171.83H108.066V172.42H104.816ZM111.653 177.13C111.147 177.13 110.69 177.016 110.283 176.79C109.883 176.556 109.567 176.24 109.333 175.84C109.1 175.433 108.983 174.97 108.983 174.45C108.983 173.923 109.1 173.46 109.333 173.06C109.567 172.66 109.883 172.346 110.283 172.12C110.683 171.893 111.14 171.78 111.653 171.78C112.173 171.78 112.633 171.893 113.033 172.12C113.44 172.346 113.757 172.66 113.983 173.06C114.217 173.46 114.333 173.923 114.333 174.45C114.333 174.97 114.217 175.433 113.983 175.84C113.757 176.24 113.44 176.556 113.033 176.79C112.627 177.016 112.167 177.13 111.653 177.13ZM111.653 176.5C112.033 176.5 112.37 176.416 112.663 176.25C112.957 176.076 113.187 175.836 113.353 175.53C113.527 175.216 113.613 174.856 113.613 174.45C113.613 174.036 113.527 173.676 113.353 173.37C113.187 173.063 112.957 172.826 112.663 172.66C112.37 172.486 112.037 172.4 111.663 172.4C111.29 172.4 110.957 172.486 110.663 172.66C110.37 172.826 110.137 173.063 109.963 173.37C109.79 173.676 109.703 174.036 109.703 174.45C109.703 174.856 109.79 175.216 109.963 175.53C110.137 175.836 110.37 176.076 110.663 176.25C110.957 176.416 111.287 176.5 111.653 176.5ZM121.69 177.08V175.92L121.66 175.73V173.79C121.66 173.343 121.533 173 121.28 172.76C121.033 172.52 120.663 172.4 120.17 172.4C119.83 172.4 119.507 172.456 119.2 172.57C118.893 172.683 118.633 172.833 118.42 173.02L118.1 172.49C118.367 172.263 118.687 172.09 119.06 171.97C119.433 171.843 119.827 171.78 120.24 171.78C120.92 171.78 121.443 171.95 121.81 172.29C122.183 172.623 122.37 173.133 122.37 173.82V177.08H121.69ZM119.88 177.13C119.487 177.13 119.143 177.066 118.85 176.94C118.563 176.806 118.343 176.626 118.19 176.4C118.037 176.166 117.96 175.9 117.96 175.6C117.96 175.326 118.023 175.08 118.15 174.86C118.283 174.633 118.497 174.453 118.79 174.32C119.09 174.18 119.49 174.11 119.99 174.11H121.8V174.64H120.01C119.503 174.64 119.15 174.73 118.95 174.91C118.757 175.09 118.66 175.313 118.66 175.58C118.66 175.88 118.777 176.12 119.01 176.3C119.243 176.48 119.57 176.57 119.99 176.57C120.39 176.57 120.733 176.48 121.02 176.3C121.313 176.113 121.527 175.846 121.66 175.5L121.82 175.99C121.687 176.336 121.453 176.613 121.12 176.82C120.793 177.026 120.38 177.13 119.88 177.13ZM126.979 171.78C127.405 171.78 127.779 171.863 128.099 172.03C128.425 172.19 128.679 172.436 128.859 172.77C129.045 173.103 129.139 173.523 129.139 174.03V177.08H128.429V174.1C128.429 173.546 128.289 173.13 128.009 172.85C127.735 172.563 127.349 172.42 126.849 172.42C126.475 172.42 126.149 172.496 125.869 172.65C125.595 172.796 125.382 173.013 125.229 173.3C125.082 173.58 125.009 173.92 125.009 174.32V177.08H124.299V171.83H124.979V173.27L124.869 173C125.035 172.62 125.302 172.323 125.669 172.11C126.035 171.89 126.472 171.78 126.979 171.78ZM134.346 177.08V175.92L134.316 175.73V173.79C134.316 173.343 134.19 173 133.936 172.76C133.69 172.52 133.32 172.4 132.826 172.4C132.486 172.4 132.163 172.456 131.856 172.57C131.55 172.683 131.29 172.833 131.076 173.02L130.756 172.49C131.023 172.263 131.343 172.09 131.716 171.97C132.09 171.843 132.483 171.78 132.896 171.78C133.576 171.78 134.1 171.95 134.466 172.29C134.84 172.623 135.026 173.133 135.026 173.82V177.08H134.346ZM132.536 177.13C132.143 177.13 131.8 177.066 131.506 176.94C131.22 176.806 131 176.626 130.846 176.4C130.693 176.166 130.616 175.9 130.616 175.6C130.616 175.326 130.68 175.08 130.806 174.86C130.94 174.633 131.153 174.453 131.446 174.32C131.746 174.18 132.146 174.11 132.646 174.11H134.456V174.64H132.666C132.16 174.64 131.806 174.73 131.606 174.91C131.413 175.09 131.316 175.313 131.316 175.58C131.316 175.88 131.433 176.12 131.666 176.3C131.9 176.48 132.226 176.57 132.646 176.57C133.046 176.57 133.39 176.48 133.676 176.3C133.97 176.113 134.183 175.846 134.316 175.5L134.476 175.99C134.343 176.336 134.11 176.613 133.776 176.82C133.45 177.026 133.036 177.13 132.536 177.13ZM136.955 177.08V169.66H137.665V177.08H136.955ZM139.68 179.07C139.434 179.07 139.197 179.03 138.97 178.95C138.75 178.87 138.56 178.75 138.4 178.59L138.73 178.06C138.864 178.186 139.007 178.283 139.16 178.35C139.32 178.423 139.497 178.46 139.69 178.46C139.924 178.46 140.124 178.393 140.29 178.26C140.464 178.133 140.627 177.906 140.78 177.58L141.12 176.81L141.2 176.7L143.36 171.83H144.06L141.43 177.71C141.284 178.05 141.12 178.32 140.94 178.52C140.767 178.72 140.577 178.86 140.37 178.94C140.164 179.026 139.934 179.07 139.68 179.07ZM141.08 177.23L138.66 171.83H139.4L141.54 176.65L141.08 177.23ZM144.393 177.08V176.61L147.893 172.18L148.043 172.42H144.453V171.83H148.603V172.29L145.113 176.73L144.933 176.49H148.673V177.08H144.393ZM152.212 177.13C151.666 177.13 151.186 177.016 150.772 176.79C150.359 176.556 150.036 176.24 149.802 175.84C149.569 175.433 149.452 174.97 149.452 174.45C149.452 173.93 149.562 173.47 149.782 173.07C150.009 172.67 150.316 172.356 150.702 172.13C151.096 171.896 151.536 171.78 152.022 171.78C152.516 171.78 152.952 171.893 153.332 172.12C153.719 172.34 154.022 172.653 154.242 173.06C154.462 173.46 154.572 173.923 154.572 174.45C154.572 174.483 154.569 174.52 154.562 174.56C154.562 174.593 154.562 174.63 154.562 174.67H149.992V174.14H154.182L153.902 174.35C153.902 173.97 153.819 173.633 153.652 173.34C153.492 173.04 153.272 172.806 152.992 172.64C152.712 172.473 152.389 172.39 152.022 172.39C151.662 172.39 151.339 172.473 151.052 172.64C150.766 172.806 150.542 173.04 150.382 173.34C150.222 173.64 150.142 173.983 150.142 174.37V174.48C150.142 174.88 150.229 175.233 150.402 175.54C150.582 175.84 150.829 176.076 151.142 176.25C151.462 176.416 151.826 176.5 152.232 176.5C152.552 176.5 152.849 176.443 153.122 176.33C153.402 176.216 153.642 176.043 153.842 175.81L154.242 176.27C154.009 176.55 153.716 176.763 153.362 176.91C153.016 177.056 152.632 177.13 152.212 177.13ZM161.925 177.08V175.92L161.895 175.73V173.79C161.895 173.343 161.768 173 161.515 172.76C161.268 172.52 160.898 172.4 160.405 172.4C160.065 172.4 159.741 172.456 159.435 172.57C159.128 172.683 158.868 172.833 158.655 173.02L158.335 172.49C158.601 172.263 158.921 172.09 159.295 171.97C159.668 171.843 160.061 171.78 160.475 171.78C161.155 171.78 161.678 171.95 162.045 172.29C162.418 172.623 162.605 173.133 162.605 173.82V177.08H161.925ZM160.115 177.13C159.721 177.13 159.378 177.066 159.085 176.94C158.798 176.806 158.578 176.626 158.425 176.4C158.271 176.166 158.195 175.9 158.195 175.6C158.195 175.326 158.258 175.08 158.385 174.86C158.518 174.633 158.731 174.453 159.025 174.32C159.325 174.18 159.725 174.11 160.225 174.11H162.035V174.64H160.245C159.738 174.64 159.385 174.73 159.185 174.91C158.991 175.09 158.895 175.313 158.895 175.58C158.895 175.88 159.011 176.12 159.245 176.3C159.478 176.48 159.805 176.57 160.225 176.57C160.625 176.57 160.968 176.48 161.255 176.3C161.548 176.113 161.761 175.846 161.895 175.5L162.055 175.99C161.921 176.336 161.688 176.613 161.355 176.82C161.028 177.026 160.615 177.13 160.115 177.13ZM167.213 171.78C167.64 171.78 168.013 171.863 168.333 172.03C168.66 172.19 168.913 172.436 169.093 172.77C169.28 173.103 169.373 173.523 169.373 174.03V177.08H168.663V174.1C168.663 173.546 168.523 173.13 168.243 172.85C167.97 172.563 167.583 172.42 167.083 172.42C166.71 172.42 166.383 172.496 166.103 172.65C165.83 172.796 165.616 173.013 165.463 173.3C165.316 173.58 165.243 173.92 165.243 174.32V177.08H164.533V171.83H165.213V173.27L165.103 173C165.27 172.62 165.536 172.323 165.903 172.11C166.27 171.89 166.706 171.78 167.213 171.78ZM173.381 177.13C172.881 177.13 172.431 177.016 172.031 176.79C171.637 176.563 171.327 176.25 171.101 175.85C170.874 175.443 170.761 174.976 170.761 174.45C170.761 173.916 170.874 173.45 171.101 173.05C171.327 172.65 171.637 172.34 172.031 172.12C172.431 171.893 172.881 171.78 173.381 171.78C173.841 171.78 174.251 171.883 174.611 172.09C174.977 172.296 175.267 172.6 175.481 173C175.701 173.393 175.811 173.876 175.811 174.45C175.811 175.016 175.704 175.5 175.491 175.9C175.277 176.3 174.987 176.606 174.621 176.82C174.261 177.026 173.847 177.13 173.381 177.13ZM173.431 176.5C173.804 176.5 174.137 176.416 174.431 176.25C174.731 176.076 174.964 175.836 175.131 175.53C175.304 175.216 175.391 174.856 175.391 174.45C175.391 174.036 175.304 173.676 175.131 173.37C174.964 173.063 174.731 172.826 174.431 172.66C174.137 172.486 173.804 172.4 173.431 172.4C173.064 172.4 172.734 172.486 172.441 172.66C172.147 172.826 171.914 173.063 171.741 173.37C171.567 173.676 171.481 174.036 171.481 174.45C171.481 174.856 171.567 175.216 171.741 175.53C171.914 175.836 172.147 176.076 172.441 176.25C172.734 176.416 173.064 176.5 173.431 176.5ZM175.411 177.08V175.5L175.481 174.44L175.381 173.38V169.66H176.091V177.08H175.411ZM182.915 177.13C182.369 177.13 181.889 177.016 181.475 176.79C181.062 176.556 180.739 176.24 180.505 175.84C180.272 175.433 180.155 174.97 180.155 174.45C180.155 173.93 180.265 173.47 180.485 173.07C180.712 172.67 181.019 172.356 181.405 172.13C181.799 171.896 182.239 171.78 182.725 171.78C183.219 171.78 183.655 171.893 184.035 172.12C184.422 172.34 184.725 172.653 184.945 173.06C185.165 173.46 185.275 173.923 185.275 174.45C185.275 174.483 185.272 174.52 185.265 174.56C185.265 174.593 185.265 174.63 185.265 174.67H180.695V174.14H184.885L184.605 174.35C184.605 173.97 184.522 173.633 184.355 173.34C184.195 173.04 183.975 172.806 183.695 172.64C183.415 172.473 183.092 172.39 182.725 172.39C182.365 172.39 182.042 172.473 181.755 172.64C181.469 172.806 181.245 173.04 181.085 173.34C180.925 173.64 180.845 173.983 180.845 174.37V174.48C180.845 174.88 180.932 175.233 181.105 175.54C181.285 175.84 181.532 176.076 181.845 176.25C182.165 176.416 182.529 176.5 182.935 176.5C183.255 176.5 183.552 176.443 183.825 176.33C184.105 176.216 184.345 176.043 184.545 175.81L184.945 176.27C184.712 176.55 184.419 176.763 184.065 176.91C183.719 177.056 183.335 177.13 182.915 177.13ZM185.774 177.08L187.994 174.2L187.984 174.55L185.874 171.83H186.674L188.404 174.08L188.104 174.07L189.834 171.83H190.614L188.484 174.58L188.494 174.2L190.734 177.08H189.924L188.094 174.68L188.374 174.72L186.574 177.08H185.774ZM193.576 177.13C193.082 177.13 192.702 176.996 192.436 176.73C192.169 176.463 192.036 176.086 192.036 175.6V170.67H192.746V175.56C192.746 175.866 192.822 176.103 192.976 176.27C193.136 176.436 193.362 176.52 193.656 176.52C193.969 176.52 194.229 176.43 194.436 176.25L194.686 176.76C194.546 176.886 194.376 176.98 194.176 177.04C193.982 177.1 193.782 177.13 193.576 177.13ZM191.096 172.42V171.83H194.346V172.42H191.096ZM195.978 177.08V171.83H196.658V173.26L196.588 173.01C196.735 172.61 196.982 172.306 197.328 172.1C197.675 171.886 198.105 171.78 198.618 171.78V172.47C198.592 172.47 198.565 172.47 198.538 172.47C198.512 172.463 198.485 172.46 198.458 172.46C197.905 172.46 197.472 172.63 197.158 172.97C196.845 173.303 196.688 173.78 196.688 174.4V177.08H195.978ZM202.813 177.08V175.92L202.783 175.73V173.79C202.783 173.343 202.657 173 202.403 172.76C202.157 172.52 201.787 172.4 201.293 172.4C200.953 172.4 200.63 172.456 200.323 172.57C200.017 172.683 199.757 172.833 199.543 173.02L199.223 172.49C199.49 172.263 199.81 172.09 200.183 171.97C200.557 171.843 200.95 171.78 201.363 171.78C202.043 171.78 202.567 171.95 202.933 172.29C203.307 172.623 203.493 173.133 203.493 173.82V177.08H202.813ZM201.003 177.13C200.61 177.13 200.267 177.066 199.973 176.94C199.687 176.806 199.467 176.626 199.313 176.4C199.16 176.166 199.083 175.9 199.083 175.6C199.083 175.326 199.147 175.08 199.273 174.86C199.407 174.633 199.62 174.453 199.913 174.32C200.213 174.18 200.613 174.11 201.113 174.11H202.923V174.64H201.133C200.627 174.64 200.273 174.73 200.073 174.91C199.88 175.09 199.783 175.313 199.783 175.58C199.783 175.88 199.9 176.12 200.133 176.3C200.367 176.48 200.693 176.57 201.113 176.57C201.513 176.57 201.857 176.48 202.143 176.3C202.437 176.113 202.65 175.846 202.783 175.5L202.943 175.99C202.81 176.336 202.577 176.613 202.243 176.82C201.917 177.026 201.503 177.13 201.003 177.13ZM207.602 177.13C207.082 177.13 206.615 177.016 206.202 176.79C205.795 176.556 205.475 176.24 205.242 175.84C205.008 175.433 204.892 174.97 204.892 174.45C204.892 173.923 205.008 173.46 205.242 173.06C205.475 172.66 205.795 172.346 206.202 172.12C206.615 171.893 207.082 171.78 207.602 171.78C208.048 171.78 208.452 171.866 208.812 172.04C209.172 172.213 209.455 172.473 209.662 172.82L209.132 173.18C208.952 172.913 208.728 172.716 208.462 172.59C208.195 172.463 207.905 172.4 207.592 172.4C207.218 172.4 206.882 172.486 206.582 172.66C206.282 172.826 206.045 173.063 205.872 173.37C205.698 173.676 205.612 174.036 205.612 174.45C205.612 174.863 205.698 175.223 205.872 175.53C206.045 175.836 206.282 176.076 206.582 176.25C206.882 176.416 207.218 176.5 207.592 176.5C207.905 176.5 208.195 176.436 208.462 176.31C208.728 176.183 208.952 175.99 209.132 175.73L209.662 176.09C209.455 176.43 209.172 176.69 208.812 176.87C208.452 177.043 208.048 177.13 207.602 177.13ZM212.775 177.13C212.282 177.13 211.902 176.996 211.635 176.73C211.368 176.463 211.235 176.086 211.235 175.6V170.67H211.945V175.56C211.945 175.866 212.022 176.103 212.175 176.27C212.335 176.436 212.562 176.52 212.855 176.52C213.168 176.52 213.428 176.43 213.635 176.25L213.885 176.76C213.745 176.886 213.575 176.98 213.375 177.04C213.182 177.1 212.982 177.13 212.775 177.13ZM210.295 172.42V171.83H213.545V172.42H210.295ZM219.145 177.08L216.815 171.83H217.555L219.695 176.7H219.345L221.515 171.83H222.215L219.875 177.08H219.145ZM226.348 177.08V175.92L226.318 175.73V173.79C226.318 173.343 226.192 173 225.938 172.76C225.692 172.52 225.322 172.4 224.828 172.4C224.488 172.4 224.165 172.456 223.858 172.57C223.552 172.683 223.292 172.833 223.078 173.02L222.758 172.49C223.025 172.263 223.345 172.09 223.718 171.97C224.092 171.843 224.485 171.78 224.898 171.78C225.578 171.78 226.102 171.95 226.468 172.29C226.842 172.623 227.028 173.133 227.028 173.82V177.08H226.348ZM224.538 177.13C224.145 177.13 223.802 177.066 223.508 176.94C223.222 176.806 223.002 176.626 222.848 176.4C222.695 176.166 222.618 175.9 222.618 175.6C222.618 175.326 222.682 175.08 222.808 174.86C222.942 174.633 223.155 174.453 223.448 174.32C223.748 174.18 224.148 174.11 224.648 174.11H226.458V174.64H224.668C224.162 174.64 223.808 174.73 223.608 174.91C223.415 175.09 223.318 175.313 223.318 175.58C223.318 175.88 223.435 176.12 223.668 176.3C223.902 176.48 224.228 176.57 224.648 176.57C225.048 176.57 225.392 176.48 225.678 176.3C225.972 176.113 226.185 175.846 226.318 175.5L226.478 175.99C226.345 176.336 226.112 176.613 225.778 176.82C225.452 177.026 225.038 177.13 224.538 177.13ZM228.957 177.08V169.66H229.667V177.08H228.957ZM233.812 177.13C233.366 177.13 232.976 177.046 232.642 176.88C232.309 176.713 232.049 176.463 231.862 176.13C231.682 175.796 231.592 175.38 231.592 174.88V171.83H232.302V174.8C232.302 175.36 232.439 175.783 232.712 176.07C232.992 176.35 233.382 176.49 233.882 176.49C234.249 176.49 234.566 176.416 234.832 176.27C235.106 176.116 235.312 175.896 235.452 175.61C235.599 175.323 235.672 174.98 235.672 174.58V171.83H236.382V177.08H235.702V175.64L235.812 175.9C235.646 176.286 235.386 176.59 235.032 176.81C234.686 177.023 234.279 177.13 233.812 177.13ZM240.591 177.13C240.044 177.13 239.564 177.016 239.151 176.79C238.738 176.556 238.414 176.24 238.181 175.84C237.948 175.433 237.831 174.97 237.831 174.45C237.831 173.93 237.941 173.47 238.161 173.07C238.388 172.67 238.694 172.356 239.081 172.13C239.474 171.896 239.914 171.78 240.401 171.78C240.894 171.78 241.331 171.893 241.711 172.12C242.098 172.34 242.401 172.653 242.621 173.06C242.841 173.46 242.951 173.923 242.951 174.45C242.951 174.483 242.948 174.52 242.941 174.56C242.941 174.593 242.941 174.63 242.941 174.67H238.371V174.14H242.561L242.281 174.35C242.281 173.97 242.198 173.633 242.031 173.34C241.871 173.04 241.651 172.806 241.371 172.64C241.091 172.473 240.768 172.39 240.401 172.39C240.041 172.39 239.718 172.473 239.431 172.64C239.144 172.806 238.921 173.04 238.761 173.34C238.601 173.64 238.521 173.983 238.521 174.37V174.48C238.521 174.88 238.608 175.233 238.781 175.54C238.961 175.84 239.208 176.076 239.521 176.25C239.841 176.416 240.204 176.5 240.611 176.5C240.931 176.5 241.228 176.443 241.501 176.33C241.781 176.216 242.021 176.043 242.221 175.81L242.621 176.27C242.388 176.55 242.094 176.763 241.741 176.91C241.394 177.056 241.011 177.13 240.591 177.13ZM247.133 177.08V171.17C247.133 170.703 247.27 170.326 247.543 170.04C247.817 169.753 248.21 169.61 248.723 169.61C248.923 169.61 249.117 169.636 249.303 169.69C249.49 169.743 249.647 169.826 249.773 169.94L249.533 170.47C249.433 170.383 249.317 170.32 249.183 170.28C249.05 170.233 248.907 170.21 248.753 170.21C248.453 170.21 248.223 170.293 248.063 170.46C247.903 170.626 247.823 170.873 247.823 171.2V172L247.843 172.33V177.08H247.133ZM246.193 172.42V171.83H249.443V172.42H246.193ZM250.402 177.08V171.83H251.082V173.26L251.012 173.01C251.159 172.61 251.405 172.306 251.752 172.1C252.099 171.886 252.529 171.78 253.042 171.78V172.47C253.015 172.47 252.989 172.47 252.962 172.47C252.935 172.463 252.909 172.46 252.882 172.46C252.329 172.46 251.895 172.63 251.582 172.97C251.269 173.303 251.112 173.78 251.112 174.4V177.08H250.402ZM256.429 177.13C255.922 177.13 255.465 177.016 255.059 176.79C254.659 176.556 254.342 176.24 254.109 175.84C253.875 175.433 253.759 174.97 253.759 174.45C253.759 173.923 253.875 173.46 254.109 173.06C254.342 172.66 254.659 172.346 255.059 172.12C255.459 171.893 255.915 171.78 256.429 171.78C256.949 171.78 257.409 171.893 257.809 172.12C258.215 172.346 258.532 172.66 258.759 173.06C258.992 173.46 259.109 173.923 259.109 174.45C259.109 174.97 258.992 175.433 258.759 175.84C258.532 176.24 258.215 176.556 257.809 176.79C257.402 177.016 256.942 177.13 256.429 177.13ZM256.429 176.5C256.809 176.5 257.145 176.416 257.439 176.25C257.732 176.076 257.962 175.836 258.129 175.53C258.302 175.216 258.389 174.856 258.389 174.45C258.389 174.036 258.302 173.676 258.129 173.37C257.962 173.063 257.732 172.826 257.439 172.66C257.145 172.486 256.812 172.4 256.439 172.4C256.065 172.4 255.732 172.486 255.439 172.66C255.145 172.826 254.912 173.063 254.739 173.37C254.565 173.676 254.479 174.036 254.479 174.45C254.479 174.856 254.565 175.216 254.739 175.53C254.912 175.836 255.145 176.076 255.439 176.25C255.732 176.416 256.062 176.5 256.429 176.5ZM267.118 171.78C267.545 171.78 267.915 171.863 268.228 172.03C268.548 172.19 268.795 172.436 268.968 172.77C269.148 173.103 269.238 173.523 269.238 174.03V177.08H268.528V174.1C268.528 173.546 268.395 173.13 268.128 172.85C267.868 172.563 267.498 172.42 267.018 172.42C266.658 172.42 266.345 172.496 266.078 172.65C265.818 172.796 265.615 173.013 265.468 173.3C265.328 173.58 265.258 173.92 265.258 174.32V177.08H264.548V174.1C264.548 173.546 264.415 173.13 264.148 172.85C263.882 172.563 263.508 172.42 263.028 172.42C262.675 172.42 262.365 172.496 262.098 172.65C261.832 172.796 261.625 173.013 261.478 173.3C261.338 173.58 261.268 173.92 261.268 174.32V177.08H260.558V171.83H261.238V173.25L261.128 173C261.288 172.62 261.545 172.323 261.898 172.11C262.258 171.89 262.682 171.78 263.168 171.78C263.682 171.78 264.118 171.91 264.478 172.17C264.838 172.423 265.072 172.806 265.178 173.32L264.898 173.21C265.052 172.783 265.322 172.44 265.708 172.18C266.102 171.913 266.572 171.78 267.118 171.78ZM271.234 177.13C271.087 177.13 270.96 177.076 270.854 176.97C270.754 176.863 270.704 176.733 270.704 176.58C270.704 176.42 270.754 176.29 270.854 176.19C270.96 176.09 271.087 176.04 271.234 176.04C271.38 176.04 271.504 176.09 271.604 176.19C271.71 176.29 271.764 176.42 271.764 176.58C271.764 176.733 271.71 176.863 271.604 176.97C271.504 177.076 271.38 177.13 271.234 177.13Z" fill="white"/>
<path d="M26.2216 64.0811C26.101 63.5482 24.9953 65.0342 24.733 64.6021C24.4707 64.17 24.8684 63.2816 24.3267 63.2416C23.785 63.2015 23.6568 62.3816 23.2742 62.6303C22.8915 62.8791 23.4364 61.8021 23.0331 61.8916C22.6297 61.981 22.5352 61.7525 22.4761 61.2772C22.417 60.8018 21.8277 60.1101 21.3305 60.3918C20.8333 60.6735 20.9156 59.7707 20.8224 59.4968C20.7934 59.4115 20.7874 59.3126 20.7936 59.2163C20.7963 59.1755 20.826 59.103 20.862 59.035C20.8621 59.0349 20.8621 59.0349 20.8621 59.0348C20.9071 58.9501 20.9618 58.8725 20.9866 58.8719C21.1066 58.869 21.3175 58.8052 21.6436 58.5847C22.2518 58.1734 21.9493 58.8239 22.5164 58.7477C23.0835 58.6714 23.6425 58.214 23.9243 58.851C24.206 59.488 25.1617 57.9548 25.3656 59.2192C25.5696 60.4835 26.5247 58.8566 27.3224 58.9961C28.12 59.1355 28.4913 60.5097 28.9418 60.651C29.3922 60.7924 30.0458 60.8906 30.5105 61.4187C30.9753 61.9468 31.9871 61.7728 32.4208 62.5053C32.8544 63.2377 33.4989 64.2141 33.7419 64.7682C33.985 65.3224 34.0474 65.4514 34.5584 65.4626C34.8521 65.4691 35.1132 65.7484 35.1556 66.3201C35.177 66.6079 34.9869 66.8919 34.774 66.9631C34.4627 67.0672 34.3731 66.8398 34.071 67.1605C33.4673 67.8014 33.2272 68.0428 33.199 67.4684C33.1708 66.894 32.5221 67.8212 32.4313 67.6267C32.3404 67.4321 32.6534 66.8483 31.6443 66.8907C30.6351 66.9331 30.152 66.8242 29.803 66.7778C29.454 66.7313 29.1146 65.9005 28.5421 65.8317C27.9697 65.7629 27.0927 65.0824 26.5441 65.1759C25.9955 65.2694 26.3422 64.614 26.2216 64.0811Z" fill="#79DCF3"/>
<path d="M42.4971 24.8784C42.4619 24.0081 40.5798 24.4246 40.3253 23.4895C40.0708 22.5544 40.8343 21.9381 40.1002 21.1301C39.3661 20.3222 39.3907 19.0629 38.8044 18.8573C38.218 18.6517 39.2298 17.9922 38.654 17.5477C38.0782 17.1031 38.0043 16.6703 38.0395 15.9615C38.0746 15.2527 37.4345 13.5195 36.6828 13.1976C35.9311 12.8756 36.265 11.8007 36.204 11.3098C36.185 11.1569 36.201 11.0182 36.2331 10.9001C36.2467 10.85 36.3053 10.7958 36.3714 10.7565C36.3715 10.7565 36.3715 10.7565 36.3716 10.7564C36.454 10.7075 36.5483 10.6815 36.5824 10.7152C36.7479 10.8787 37.0531 11.0887 37.555 11.2528C38.4908 11.5588 37.9162 11.9943 38.7137 12.6844C39.5112 13.3746 40.3908 13.5513 40.6219 14.7834C40.8529 16.0156 42.5405 15.3276 42.5112 17.2781C42.482 19.2285 44.1917 18.4163 45.253 19.7121C46.3144 21.008 46.488 23.3365 47.0721 24.1508C47.6561 24.965 48.5297 26.0057 49.0387 27.3495C49.5476 28.6934 50.9798 29.8747 51.3961 31.4446C51.8125 33.0143 52.4586 35.1995 52.6568 36.2686C52.855 37.3377 52.9092 37.5948 53.6081 38.3219C54.0099 38.7399 54.3002 39.472 54.2186 40.2846C54.1775 40.6935 53.8469 40.8028 53.5371 40.5998C53.0841 40.3029 53.0167 39.8783 52.5234 39.8798C51.5375 39.8827 51.1486 39.866 51.2505 39.0698C51.3524 38.2737 50.2346 38.5911 50.1574 38.2081C50.0803 37.8251 50.653 37.4919 49.2567 36.1409C47.8604 34.7899 47.2236 33.9728 46.7557 33.4251C46.2877 32.8773 46.0249 31.3092 45.2556 30.4205C44.4863 29.5318 43.4485 27.4124 42.6721 26.7707C41.8958 26.1291 42.5323 25.7487 42.4971 24.8784Z" fill="#79DCF3"/>
<path d="M175.527 23.9264C174.836 24.7182 176.343 26.0056 175.735 27.0465C175.126 28.0874 174.147 27.9563 173.94 29.3069C173.733 30.6574 172.685 31.7369 172.88 32.4312C173.075 33.1254 171.907 32.8143 171.9 33.7082C171.892 34.6021 171.583 35.0453 170.98 35.6342C170.378 36.2231 169.354 38.3002 169.556 39.2413C169.757 40.1824 168.669 40.8292 168.305 41.312C168.191 41.4623 168.068 41.5696 167.951 41.6447C167.901 41.6765 167.821 41.6725 167.748 41.6488C167.747 41.6488 167.747 41.6488 167.747 41.6488C167.656 41.6193 167.577 41.5592 167.583 41.4999C167.614 41.2117 167.597 40.7603 167.421 40.1764C167.092 39.0877 167.805 39.2111 167.876 37.9079C167.948 36.6047 167.548 35.6784 168.414 34.3983C169.281 33.1182 167.672 32.2389 169.289 30.5592C170.905 28.8796 169.18 28.0895 169.585 26.0252C169.989 23.9609 171.79 21.7726 172.096 20.5482C172.401 19.3238 172.713 17.6473 173.499 16.0257C174.285 14.4042 174.366 12.1145 175.395 10.3767C176.424 8.63883 177.814 6.16128 178.568 5.05259C179.321 3.94395 179.498 3.67163 179.661 2.42256C179.755 1.70458 180.175 0.809717 180.892 0.170877C181.253 -0.150627 181.547 0.0439195 181.573 0.493262C181.61 1.15034 181.304 1.58071 181.611 2.01234C182.224 2.87488 182.451 3.23065 181.735 3.83738C181.02 4.4441 181.973 5.14741 181.707 5.54998C181.44 5.95255 180.812 5.74134 180.57 8.14776C180.328 10.5542 180.053 11.8274 179.894 12.7169C179.735 13.6065 178.612 15.2081 178.361 16.6602C178.109 18.1123 177.015 20.876 176.97 22.1183C176.925 23.3605 176.219 23.1346 175.527 23.9264Z" fill="#79DCF3"/>
<path d="M89.7552 24.6336C90.1839 24.3812 88.3677 24.0642 88.6445 23.743C88.9213 23.4218 89.8938 23.4249 89.6967 23.0288C89.4997 22.6328 90.184 22.2849 89.795 22.092C89.4059 21.8991 90.6118 21.9473 90.3575 21.6897C90.1033 21.4322 90.2686 21.2937 90.6719 21.1028C91.0752 20.9119 91.4454 20.2778 90.9774 20.0141C90.5093 19.7505 91.3589 19.5257 91.5659 19.3738C91.6303 19.3265 91.7169 19.2913 91.8064 19.2655C91.8443 19.2546 91.9226 19.2529 91.9995 19.2571C91.9995 19.2571 91.9996 19.2571 91.9996 19.2571C92.0953 19.2624 92.1889 19.2768 92.2001 19.2942C92.2544 19.3782 92.4027 19.5075 92.742 19.6693C93.3747 19.9709 92.6578 19.9607 92.9707 20.3383C93.2836 20.7159 93.9368 20.9683 93.4835 21.3675C93.0303 21.7666 94.8245 21.9626 93.7719 22.5033C92.7193 23.0441 94.5979 23.2103 94.8155 23.8187C95.033 24.4272 93.9534 25.1208 94.0198 25.4841C94.0863 25.8473 94.279 26.3408 94.0027 26.8354C93.7265 27.33 94.319 27.9918 93.845 28.5285C93.3711 29.0651 92.7678 29.8275 92.3727 30.1733C91.9775 30.5191 91.888 30.6037 92.0978 30.969C92.2184 31.179 92.0789 31.4514 91.5815 31.6607C91.3312 31.766 90.9932 31.7205 90.8373 31.5921C90.6094 31.4043 90.7759 31.2696 90.3566 31.1562C89.5187 30.9298 89.1976 30.8354 89.7036 30.6354C90.2095 30.4354 89.0939 30.2668 89.2303 30.1415C89.3667 30.0162 90.028 30.0547 89.5554 29.3536C89.0827 28.6524 88.9729 28.2762 88.8646 28.0146C88.7563 27.7529 89.3596 27.2522 89.1752 26.8253C88.9908 26.3985 89.2271 25.5643 88.9066 25.2052C88.5861 24.8461 89.3265 24.886 89.7552 24.6336Z" fill="#79DCF3"/>
<path d="M134.799 21.6069C135.263 21.1762 133.487 20.5895 133.815 20.0319C134.143 19.4772 135.117 19.5118 134.986 18.8208C134.855 18.1281 135.603 17.5551 135.248 17.2075C134.893 16.8588 136.093 16.9931 135.886 16.5399C135.679 16.0865 135.87 15.8557 136.311 15.5482C136.751 15.2401 137.244 14.1757 136.827 13.7013C136.409 13.2264 137.304 12.887 137.541 12.6386C137.615 12.5613 137.709 12.5056 137.804 12.4663C137.844 12.4496 137.922 12.4508 137.999 12.462C137.999 12.462 137.999 12.462 137.999 12.462C138.094 12.476 138.185 12.5056 138.192 12.5358C138.23 12.6821 138.353 12.9105 138.662 13.2043C139.236 13.7518 138.52 13.6971 138.76 14.357C139.001 15.0168 139.606 15.4784 139.077 16.1348C138.549 16.7929 140.31 17.2063 139.16 18.0757C138.012 18.9504 139.866 19.3068 139.99 20.332C140.114 21.3557 138.943 22.4932 138.97 23.1056C138.979 23.3192 139.003 23.5595 139.016 23.8163C139.041 24.2923 139.031 24.8275 138.828 25.3685C138.514 26.2054 139.073 27.3002 138.581 28.2224C138.086 29.1452 137.475 30.4743 137.081 31.0906C136.786 31.5478 136.662 31.7548 136.708 32.0793C136.724 32.1927 136.759 32.3135 136.813 32.4687C136.938 32.8164 136.799 33.2942 136.323 33.6758C136.202 33.7647 136.072 33.8092 135.945 33.8614C135.802 33.8901 135.656 33.7505 135.575 33.6513C135.332 33.3265 135.498 33.0869 135.075 32.9192C134.232 32.5898 133.909 32.4438 134.413 32.0635C134.431 32.0499 134.446 32.0364 134.46 32.023C134.84 31.6689 133.804 31.4577 133.936 31.238C134.073 31.0087 134.731 31.0372 134.265 29.8459C133.801 28.651 133.707 27.9953 133.609 27.5406C133.511 27.0865 134.141 26.1874 133.988 25.4464C133.88 24.9248 133.999 24.0482 133.99 23.352C133.986 23.0543 133.957 22.7899 133.874 22.6002C133.597 21.9665 134.335 22.0408 134.799 21.6069Z" fill="#79DCF3"/>
<path d="M186.952 67.4279C187.603 67.4876 186.908 65.7474 187.565 65.6162C188.221 65.4851 188.841 66.238 189.304 65.6612C189.768 65.0844 190.726 65.2388 190.763 64.732C190.8 64.225 191.503 65.2063 191.724 64.734C191.944 64.2617 192.256 64.2406 192.8 64.3467C193.343 64.4528 194.526 64.0579 194.618 63.4142C194.71 62.7705 195.59 63.1844 195.95 63.181C196.062 63.1799 196.17 63.2088 196.266 63.2502C196.306 63.2677 196.359 63.3262 196.402 63.39C196.402 63.39 196.402 63.3901 196.402 63.3901C196.456 63.4695 196.495 63.5572 196.476 63.5844C196.386 63.7164 196.288 63.9694 196.265 64.4046C196.223 65.2159 195.777 64.6523 195.416 65.2986C195.054 65.9449 195.098 66.7192 194.212 66.798C193.327 66.8768 194.188 68.4701 192.706 68.2388C191.224 68.0076 192.184 69.634 191.417 70.4545C190.651 71.2749 188.924 71.1869 188.425 71.6278C187.927 72.0686 187.316 72.7467 186.401 73.0643C185.487 73.3819 184.882 74.5486 183.778 74.759C182.674 74.9694 181.151 75.3223 180.382 75.3886C179.613 75.455 179.43 75.4768 179.02 76.0304C178.785 76.3486 178.29 76.5333 177.658 76.3744C177.341 76.2944 177.191 75.985 177.282 75.7271C177.416 75.35 177.723 75.3339 177.623 74.889C177.421 74.0001 177.356 73.6514 177.979 73.8269C178.602 74.0023 178.136 72.9615 178.41 72.9322C178.685 72.9029 179.052 73.454 179.793 72.3375C180.534 71.2209 181.023 70.7327 181.343 70.3685C181.664 70.0043 182.797 69.9321 183.314 69.332C183.832 68.732 185.226 68.0192 185.555 67.3869C185.884 66.7546 186.3 67.3682 186.952 67.4279Z" fill="#79DCF3"/>
<path d="M185.883 100.751C186.165 101.197 186.611 99.4031 186.981 99.702C187.351 100.001 187.309 100.973 187.786 100.803C188.263 100.633 188.648 101.342 188.892 100.966C189.135 100.59 189.031 101.792 189.346 101.556C189.661 101.319 189.819 101.494 190.029 101.911C190.239 102.327 190.976 102.741 191.307 102.291C191.637 101.841 191.87 102.706 192.042 102.923C192.095 102.991 192.134 103.08 192.161 103.171C192.172 103.21 192.171 103.288 192.163 103.365C192.163 103.365 192.163 103.365 192.163 103.365C192.153 103.46 192.132 103.553 192.111 103.563C192.01 103.612 191.851 103.751 191.646 104.079C191.264 104.691 191.304 103.975 190.845 104.262C190.385 104.549 190.06 105.184 189.605 104.704C189.15 104.223 188.848 106.003 188.249 104.914C187.649 103.824 187.379 105.691 186.65 105.867C185.921 106.042 185.141 104.915 184.708 104.957C184.275 104.998 183.683 105.157 183.108 104.847C182.533 104.536 181.726 105.083 181.109 104.573C180.492 104.062 179.613 103.406 179.218 102.987C178.824 102.568 178.728 102.473 178.287 102.658C178.033 102.764 177.716 102.606 177.488 102.094C177.373 101.836 177.44 101.502 177.598 101.355C177.829 101.14 177.982 101.315 178.133 100.904C178.434 100.082 178.558 99.7672 178.776 100.287C178.993 100.806 179.236 99.7027 179.379 99.8476C179.522 99.9926 179.451 100.651 180.3 100.227C181.149 99.8025 181.599 99.7186 181.913 99.6283C182.227 99.5379 182.796 100.176 183.309 100.021C183.822 99.8656 184.801 100.159 185.239 99.8634C185.677 99.5677 185.6 100.305 185.883 100.751Z" fill="#79DCF3"/>
<path d="M27.8222 107.76C27.2265 107.542 27.5264 109.387 26.8899 109.352C26.2544 109.316 25.8283 108.439 25.2816 108.88C24.7373 109.32 23.875 108.937 23.7408 109.414C23.6049 109.893 23.1468 108.776 22.8484 109.176C22.5478 109.577 22.255 109.519 21.7703 109.284C21.2868 109.048 20.1088 109.136 19.8943 109.733C19.6807 110.33 18.9443 109.715 18.6099 109.63C18.5057 109.603 18.4109 109.549 18.33 109.485C18.2958 109.459 18.2583 109.389 18.231 109.317C18.231 109.317 18.231 109.317 18.231 109.317C18.197 109.228 18.1786 109.134 18.2013 109.112C18.3118 109.007 18.4529 108.788 18.561 108.375C18.7634 107.605 19.0638 108.257 19.5295 107.724C19.9943 107.191 20.109 106.435 20.9476 106.578C21.7865 106.72 21.3049 104.975 22.6358 105.562C23.9663 106.15 23.4012 104.348 24.2775 103.748C25.1535 103.148 26.742 103.657 27.2933 103.356C27.8441 103.055 28.549 102.553 29.4629 102.473C30.3755 102.393 31.171 101.421 32.2423 101.49C32.9449 101.537 33.8365 101.568 34.5623 101.623C34.944 101.649 35.2776 101.683 35.5263 101.727C36.2571 101.854 36.4264 101.88 36.9236 101.45C37.2094 101.204 37.7093 101.148 38.2717 101.47C38.4132 101.548 38.5182 101.689 38.4758 101.827C38.525 101.96 38.5322 102.083 38.463 102.193C38.2706 102.511 37.9809 102.45 37.9826 102.901C37.9841 103.806 37.9796 104.155 37.4377 103.83C36.8934 103.505 37.1195 104.62 36.858 104.58C36.6198 104.544 36.4135 104.023 35.6848 104.603C35.6157 104.659 35.54 104.726 35.4561 104.807C34.5417 105.697 33.9935 106.044 33.6219 106.315C33.2508 106.587 32.1846 106.375 31.5831 106.825C30.98 107.275 29.5447 107.616 29.1117 108.143C28.6802 108.67 28.4128 107.979 27.8222 107.76Z" fill="#79DCF3"/>
<path d="M47.7823 146.346C47.2523 146.588 48.8599 147.521 48.4449 147.9C48.03 148.28 47.0926 148.015 47.1007 148.627C47.1088 149.238 46.2881 149.546 46.575 149.922C46.8619 150.299 45.7199 149.908 45.8469 150.339C45.9739 150.771 45.7506 150.922 45.2735 151.083C44.7963 151.245 44.1473 152.04 44.4779 152.538C44.8085 153.035 43.8849 153.125 43.6153 153.284C43.5313 153.333 43.4315 153.36 43.3333 153.372C43.2916 153.377 43.2154 153.359 43.1431 153.332C43.143 153.332 43.143 153.332 43.1429 153.332C43.0529 153.299 42.9692 153.254 42.9664 153.226C42.9526 153.093 42.869 152.871 42.6158 152.552C42.1437 151.957 42.8311 152.163 42.7027 151.546C42.5743 150.93 42.0599 150.399 42.681 149.957C43.3021 149.515 41.6602 148.758 42.9251 148.277C44.1898 147.795 42.4528 147.058 42.5226 146.141C42.5924 145.224 43.9536 144.534 44.0566 144.004C44.1595 143.474 44.2004 142.726 44.6946 142.102C45.1888 141.478 44.9212 140.385 45.6255 139.755C46.3299 139.124 47.2629 138.21 47.8034 137.828C48.3439 137.446 48.4692 137.35 48.4347 136.779C48.4148 136.45 48.6748 136.103 49.2512 135.941C49.5413 135.859 49.8466 136.014 49.938 136.237C50.0717 136.563 49.849 136.708 50.2016 136.981C50.9064 137.525 51.1729 137.744 50.5925 137.891C50.0122 138.037 51.0115 138.574 50.8222 138.714C50.6329 138.855 50.0122 138.623 50.146 139.739C50.2798 140.855 50.2128 141.415 50.197 141.814C50.1813 142.212 49.3686 142.757 49.3503 143.409C49.3319 144.06 48.7202 145.174 48.8644 145.767C49.0087 146.36 48.3123 146.105 47.7823 146.346Z" fill="#79DCF3"/>
<path d="M184.194 135.258C184.643 135.992 186.068 134.697 186.737 135.378C187.407 136.059 187.044 136.971 188.067 137.304C189.089 137.637 189.674 138.736 190.279 138.623C190.884 138.509 190.328 139.581 191.039 139.679C191.75 139.777 192.022 140.114 192.333 140.743C192.644 141.373 194.03 142.551 194.834 142.456C195.638 142.36 195.867 143.454 196.156 143.848C196.246 143.971 196.299 144.098 196.328 144.216C196.34 144.266 196.316 144.342 196.278 144.409C196.278 144.409 196.278 144.409 196.278 144.409C196.23 144.492 196.161 144.561 196.116 144.549C195.894 144.49 195.529 144.461 195.017 144.568C194.062 144.769 194.349 144.108 193.328 143.908C192.308 143.708 191.463 143.992 190.671 143.043C189.878 142.094 188.753 143.526 187.839 141.828C186.926 140.129 185.841 141.68 184.301 141.088C182.762 140.496 181.491 138.572 180.595 138.159C179.699 137.746 178.444 137.281 177.358 136.374C176.272 135.466 174.467 135.158 173.353 134.009C172.238 132.86 170.628 131.294 169.943 130.47C169.257 129.645 169.087 129.45 168.134 129.169C167.586 129.008 166.983 128.52 166.662 127.778C166.501 127.404 166.734 127.146 167.099 127.167C167.633 127.198 167.895 127.532 168.32 127.285C169.17 126.793 169.514 126.614 169.809 127.352C170.104 128.09 170.916 127.261 171.167 127.553C171.418 127.846 171.084 128.418 172.939 128.891C174.795 129.364 175.738 129.753 176.405 129.994C177.073 130.234 178.054 131.458 179.146 131.843C180.238 132.228 182.154 133.542 183.132 133.711C184.111 133.879 183.745 134.524 184.194 135.258Z" fill="#79DCF3"/>
<path d="M145.614 154.341C145.327 154.999 147.213 155.079 147.105 155.831C146.997 156.583 146.068 156.885 146.448 157.642C146.828 158.398 146.344 159.334 146.809 159.61C147.274 159.886 146.1 160.168 146.468 160.62C146.835 161.072 146.745 161.411 146.452 161.934C146.16 162.457 146.115 163.885 146.689 164.282C147.264 164.679 146.562 165.413 146.439 165.793C146.4 165.911 146.335 166.012 146.262 166.093C146.231 166.128 146.157 166.156 146.082 166.172C146.082 166.172 146.082 166.172 146.082 166.172C145.988 166.192 145.891 166.191 145.872 166.159C145.78 166.002 145.575 165.782 145.173 165.555C144.423 165.132 145.112 164.926 144.63 164.244C144.149 163.562 143.403 163.247 143.642 162.278C143.88 161.309 142.074 161.473 142.816 160.021C143.557 158.568 141.685 158.82 141.182 157.631C140.679 156.442 141.372 154.665 141.133 153.935C140.893 153.205 140.47 152.245 140.493 151.135C140.517 150.024 139.63 148.843 139.822 147.583C140.014 146.323 140.219 144.555 140.428 143.715C140.637 142.874 140.682 142.671 140.304 141.982C140.087 141.586 140.088 140.978 140.461 140.388C140.649 140.09 140.993 140.077 141.204 140.293C141.513 140.61 141.42 140.941 141.875 141.042C142.784 141.245 143.136 141.338 142.75 141.912C142.365 142.486 143.511 142.481 143.441 142.784C143.372 143.086 142.723 143.216 143.514 144.516C144.305 145.817 144.592 146.56 144.822 147.067C145.053 147.573 144.72 148.8 145.103 149.625C145.486 150.449 145.666 152.249 146.146 152.89C146.626 153.531 145.9 153.683 145.614 154.341Z" fill="#79DCF3"/>
<path d="M96.6666 157.518C96.4109 157.878 96.8896 158.23 97.2891 158.617C97.586 158.946 97.8363 159.277 97.6858 159.672C97.3195 160.582 96.3621 160.546 96.3306 161.651C96.2783 162.831 95.0944 163.658 95.1944 164.228C95.2821 164.843 94.2345 164.227 94.1665 164.823C94.1125 165.406 93.8692 165.52 93.3336 165.746C92.7786 165.94 92.0444 167.281 92.4407 167.904C92.8184 168.489 91.9089 168.981 91.6705 169.326C91.5958 169.435 91.5016 169.52 91.4065 169.585C91.3661 169.612 91.287 169.619 91.2104 169.611C91.2104 169.611 91.2103 169.611 91.2103 169.611C91.1149 169.601 91.0235 169.569 91.0157 169.527C90.9787 169.318 90.8529 169.042 90.557 168.638C90.0084 167.911 90.7183 167.941 90.5757 167.005C90.4547 166.067 89.9811 165.234 90.8904 164.31C91.7607 163.516 90.5845 162.196 91.964 161.841C93.35 161.312 91.5812 160.556 91.4924 159.547C91.4596 159.163 91.5627 158.754 91.7077 158.301C91.9923 157.345 92.468 156.424 92.4352 155.874C92.3859 155.038 92.2095 153.915 92.4925 152.743C92.7762 151.568 92.1794 150.097 92.641 148.798C93.1041 147.498 93.6764 145.645 94.0548 144.787C94.4336 143.929 94.5186 143.719 94.2905 142.891C94.1594 142.415 94.2843 141.76 94.7698 141.206C95.0142 140.927 95.3541 140.991 95.5166 141.271C95.7542 141.682 95.595 142.019 96.0196 142.231C96.8683 142.654 97.1939 142.835 96.6986 143.368C96.2034 143.902 97.3257 144.156 97.1954 144.468C97.0645 144.78 96.4041 144.77 96.9043 146.361C97.4033 147.952 97.5199 148.83 97.6332 149.435C97.7465 150.042 97.1477 151.291 97.3281 152.281C97.5116 153.272 97.2499 155.27 97.5513 156.094C97.8543 156.92 97.1131 156.888 96.6666 157.518Z" fill="#79DCF3"/>
</svg>
