<svg width="313" height="131" viewBox="0 0 313 131" fill="none" xmlns="http://www.w3.org/2000/svg">
<path d="M24.4696 87L7.45961 57.3V53.34H9.43961C12.6196 53.34 15.2896 53.04 17.4496 52.44C19.6696 51.84 21.4096 50.85 22.6696 49.47C23.9296 48.09 24.6796 46.2 24.9196 43.8H7.45961V38.04H24.8296C24.4096 35.82 23.5696 34.02 22.3096 32.64C21.0496 31.2 19.3396 30.15 17.1796 29.49C15.0796 28.83 12.4996 28.5 9.43961 28.5H7.45961V22.74H44.7196V28.5H27.7096C29.0896 29.64 30.2296 30.99 31.1296 32.55C32.0296 34.11 32.5996 35.94 32.8396 38.04H44.7196V43.8H33.0196C32.5996 48.18 30.9196 51.6 27.9796 54.06C25.0996 56.46 21.2596 57.99 16.4596 58.65L33.6496 87H24.4696ZM55.3635 87V82.41L81.5535 56.76C83.9535 54.42 85.7535 52.38 86.9535 50.64C88.1535 48.84 88.9635 47.16 89.3835 45.6C89.8035 44.04 90.0135 42.57 90.0135 41.19C90.0135 37.53 88.7535 34.65 86.2335 32.55C83.7735 30.45 80.1135 29.4 75.2535 29.4C71.5335 29.4 68.2335 29.97 65.3535 31.11C62.5335 32.25 60.1035 34.02 58.0635 36.42L53.4735 32.46C55.9335 29.58 59.0835 27.36 62.9235 25.8C66.7635 24.24 71.0535 23.46 75.7935 23.46C80.0535 23.46 83.7435 24.15 86.8635 25.53C89.9835 26.85 92.3835 28.8 94.0635 31.38C95.8035 33.96 96.6735 36.99 96.6735 40.47C96.6735 42.51 96.3735 44.52 95.7735 46.5C95.2335 48.48 94.2135 50.58 92.7135 52.8C91.2735 54.96 89.1435 57.42 86.3235 60.18L62.2935 83.76L60.4935 81.24H99.5535V87H55.3635ZM133.34 87.54C127.76 87.54 123.05 86.31 119.21 83.85C115.37 81.33 112.46 77.73 110.48 73.05C108.5 68.31 107.51 62.64 107.51 56.04C107.51 48.9 108.71 42.93 111.11 38.13C113.57 33.27 116.96 29.61 121.28 27.15C125.6 24.69 130.61 23.46 136.31 23.46C139.13 23.46 141.83 23.73 144.41 24.27C146.99 24.81 149.27 25.68 151.25 26.88L148.64 32.1C147.02 31.02 145.16 30.27 143.06 29.85C140.96 29.37 138.74 29.13 136.4 29.13C129.62 29.13 124.19 31.29 120.11 35.61C116.09 39.93 114.08 46.38 114.08 54.96C114.08 56.28 114.14 57.93 114.26 59.91C114.44 61.83 114.8 63.75 115.34 65.67L113.09 63.96C113.75 60.84 115.04 58.2 116.96 56.04C118.88 53.82 121.28 52.14 124.16 51C127.04 49.86 130.19 49.29 133.61 49.29C137.81 49.29 141.5 50.07 144.68 51.63C147.86 53.19 150.35 55.38 152.15 58.2C153.95 61.02 154.85 64.35 154.85 68.19C154.85 72.09 153.92 75.51 152.06 78.45C150.2 81.33 147.62 83.58 144.32 85.2C141.08 86.76 137.42 87.54 133.34 87.54ZM133.07 82.05C136.07 82.05 138.71 81.51 140.99 80.43C143.33 79.29 145.16 77.7 146.48 75.66C147.8 73.56 148.46 71.13 148.46 68.37C148.46 64.23 147.02 60.93 144.14 58.47C141.32 56.01 137.48 54.78 132.62 54.78C129.38 54.78 126.56 55.38 124.16 56.58C121.76 57.78 119.87 59.43 118.49 61.53C117.11 63.57 116.42 65.91 116.42 68.55C116.42 70.83 117.05 73.02 118.31 75.12C119.57 77.16 121.43 78.84 123.89 80.16C126.41 81.42 129.47 82.05 133.07 82.05ZM182.244 87.54C177.744 87.54 173.454 86.82 169.374 85.38C165.294 83.88 162.054 81.9 159.654 79.44L162.804 74.31C164.784 76.41 167.484 78.15 170.904 79.53C174.384 80.91 178.134 81.6 182.154 81.6C187.494 81.6 191.544 80.43 194.304 78.09C197.124 75.69 198.534 72.57 198.534 68.73C198.534 66.03 197.874 63.72 196.554 61.8C195.294 59.82 193.134 58.29 190.074 57.21C187.014 56.13 182.814 55.59 177.474 55.59H164.064L167.304 24H201.774V29.76H169.914L173.244 26.61L170.454 53.07L167.124 49.83H178.914C185.274 49.83 190.374 50.61 194.214 52.17C198.054 53.73 200.814 55.92 202.494 58.74C204.234 61.5 205.104 64.74 205.104 68.46C205.104 72 204.264 75.24 202.584 78.18C200.904 81.06 198.384 83.34 195.024 85.02C191.664 86.7 187.404 87.54 182.244 87.54Z" fill="white"/>
<path d="M216.049 87.9962C214.767 87.9962 213.779 87.6495 213.085 86.9562C212.392 86.2629 212.045 85.2835 212.045 84.0182V71.2002H213.891V83.9142C213.891 84.7115 214.091 85.3269 214.489 85.7602C214.905 86.1935 215.495 86.4102 216.257 86.4102C217.072 86.4102 217.748 86.1762 218.285 85.7082L218.935 87.0342C218.571 87.3635 218.129 87.6062 217.609 87.7622C217.107 87.9182 216.587 87.9962 216.049 87.9962ZM209.601 75.7502V74.2162H218.051V75.7502H209.601ZM222.296 87.8662V74.2162H224.064V77.9342L223.882 77.2842C224.263 76.2442 224.904 75.4555 225.806 74.9182C226.707 74.3635 227.825 74.0862 229.16 74.0862V75.8802C229.09 75.8802 229.021 75.8802 228.952 75.8802C228.882 75.8629 228.813 75.8542 228.744 75.8542C227.305 75.8542 226.178 76.2962 225.364 77.1802C224.549 78.0469 224.142 79.2862 224.142 80.8982V87.8662H222.296ZM232.528 87.8662V74.2162H234.374V87.8662H232.528ZM233.464 71.2002C233.083 71.2002 232.762 71.0702 232.502 70.8102C232.242 70.5502 232.112 70.2382 232.112 69.8742C232.112 69.5102 232.242 69.2069 232.502 68.9642C232.762 68.7042 233.083 68.5742 233.464 68.5742C233.845 68.5742 234.166 68.6955 234.426 68.9382C234.686 69.1809 234.816 69.4842 234.816 69.8482C234.816 70.2295 234.686 70.5502 234.426 70.8102C234.183 71.0702 233.863 71.2002 233.464 71.2002ZM239.511 87.8662V68.5742H241.357V87.8662H239.511ZM246.493 87.8662V68.5742H248.339V87.8662H246.493ZM253.475 87.8662V74.2162H255.321V87.8662H253.475ZM254.411 71.2002C254.03 71.2002 253.709 71.0702 253.449 70.8102C253.189 70.5502 253.059 70.2382 253.059 69.8742C253.059 69.5102 253.189 69.2069 253.449 68.9642C253.709 68.7042 254.03 68.5742 254.411 68.5742C254.793 68.5742 255.113 68.6955 255.373 68.9382C255.633 69.1809 255.763 69.4842 255.763 69.8482C255.763 70.2295 255.633 70.5502 255.373 70.8102C255.131 71.0702 254.81 71.2002 254.411 71.2002ZM266.022 87.9962C264.704 87.9962 263.517 87.7015 262.46 87.1122C261.42 86.5055 260.596 85.6822 259.99 84.6422C259.383 83.5849 259.08 82.3802 259.08 81.0282C259.08 79.6589 259.383 78.4542 259.99 77.4142C260.596 76.3742 261.42 75.5595 262.46 74.9702C263.5 74.3809 264.687 74.0862 266.022 74.0862C267.374 74.0862 268.57 74.3809 269.61 74.9702C270.667 75.5595 271.49 76.3742 272.08 77.4142C272.686 78.4542 272.99 79.6589 272.99 81.0282C272.99 82.3802 272.686 83.5849 272.08 84.6422C271.49 85.6822 270.667 86.5055 269.61 87.1122C268.552 87.7015 267.356 87.9962 266.022 87.9962ZM266.022 86.3582C267.01 86.3582 267.885 86.1415 268.648 85.7082C269.41 85.2575 270.008 84.6335 270.442 83.8362C270.892 83.0215 271.118 82.0855 271.118 81.0282C271.118 79.9535 270.892 79.0175 270.442 78.2202C270.008 77.4229 269.41 76.8075 268.648 76.3742C267.885 75.9235 267.018 75.6982 266.048 75.6982C265.077 75.6982 264.21 75.9235 263.448 76.3742C262.685 76.8075 262.078 77.4229 261.628 78.2202C261.177 79.0175 260.952 79.9535 260.952 81.0282C260.952 82.0855 261.177 83.0215 261.628 83.8362C262.078 84.6335 262.685 85.2575 263.448 85.7082C264.21 86.1415 265.068 86.3582 266.022 86.3582ZM283.727 74.0862C284.836 74.0862 285.807 74.3029 286.639 74.7362C287.488 75.1522 288.147 75.7935 288.615 76.6602C289.1 77.5269 289.343 78.6189 289.343 79.9362V87.8662H287.497V80.1182C287.497 78.6795 287.133 77.5962 286.405 76.8682C285.694 76.1229 284.689 75.7502 283.389 75.7502C282.418 75.7502 281.569 75.9495 280.841 76.3482C280.13 76.7295 279.575 77.2929 279.177 78.0382C278.795 78.7662 278.605 79.6502 278.605 80.6902V87.8662H276.759V74.2162H278.527V77.9602L278.241 77.2582C278.674 76.2702 279.367 75.4989 280.321 74.9442C281.274 74.3722 282.409 74.0862 283.727 74.0862Z" fill="white"/>
<path d="M61.1682 121.213V108.613H65.8842C66.9522 108.613 67.8702 108.787 68.6382 109.135C69.4062 109.471 69.9942 109.963 70.4022 110.611C70.8222 111.247 71.0322 112.021 71.0322 112.933C71.0322 113.821 70.8222 114.589 70.4022 115.237C69.9942 115.873 69.4062 116.365 68.6382 116.713C67.8702 117.061 66.9522 117.235 65.8842 117.235H61.9062L62.5002 116.605V121.213H61.1682ZM62.5002 116.713L61.9062 116.065H65.8482C67.1082 116.065 68.0622 115.795 68.7102 115.255C69.3702 114.703 69.7002 113.929 69.7002 112.933C69.7002 111.925 69.3702 111.145 68.7102 110.593C68.0622 110.041 67.1082 109.765 65.8482 109.765H61.9062L62.5002 109.135V116.713ZM77.4416 121.303C76.5296 121.303 75.7076 121.099 74.9756 120.691C74.2556 120.271 73.6856 119.701 73.2656 118.981C72.8456 118.249 72.6356 117.415 72.6356 116.479C72.6356 115.531 72.8456 114.697 73.2656 113.977C73.6856 113.257 74.2556 112.693 74.9756 112.285C75.6956 111.877 76.5176 111.673 77.4416 111.673C78.3776 111.673 79.2056 111.877 79.9256 112.285C80.6576 112.693 81.2276 113.257 81.6356 113.977C82.0556 114.697 82.2656 115.531 82.2656 116.479C82.2656 117.415 82.0556 118.249 81.6356 118.981C81.2276 119.701 80.6576 120.271 79.9256 120.691C79.1936 121.099 78.3656 121.303 77.4416 121.303ZM77.4416 120.169C78.1256 120.169 78.7316 120.019 79.2596 119.719C79.7876 119.407 80.2016 118.975 80.5016 118.423C80.8136 117.859 80.9696 117.211 80.9696 116.479C80.9696 115.735 80.8136 115.087 80.5016 114.535C80.2016 113.983 79.7876 113.557 79.2596 113.257C78.7316 112.945 78.1316 112.789 77.4596 112.789C76.7876 112.789 76.1876 112.945 75.6596 113.257C75.1316 113.557 74.7116 113.983 74.3996 114.535C74.0876 115.087 73.9316 115.735 73.9316 116.479C73.9316 117.211 74.0876 117.859 74.3996 118.423C74.7116 118.975 75.1316 119.407 75.6596 119.719C76.1876 120.019 76.7816 120.169 77.4416 120.169ZM88.7268 121.303C87.8148 121.303 86.9928 121.099 86.2608 120.691C85.5408 120.271 84.9708 119.701 84.5508 118.981C84.1308 118.249 83.9208 117.415 83.9208 116.479C83.9208 115.531 84.1308 114.697 84.5508 113.977C84.9708 113.257 85.5408 112.693 86.2608 112.285C86.9808 111.877 87.8028 111.673 88.7268 111.673C89.6628 111.673 90.4908 111.877 91.2108 112.285C91.9428 112.693 92.5128 113.257 92.9208 113.977C93.3408 114.697 93.5508 115.531 93.5508 116.479C93.5508 117.415 93.3408 118.249 92.9208 118.981C92.5128 119.701 91.9428 120.271 91.2108 120.691C90.4788 121.099 89.6508 121.303 88.7268 121.303ZM88.7268 120.169C89.4108 120.169 90.0168 120.019 90.5448 119.719C91.0728 119.407 91.4868 118.975 91.7868 118.423C92.0988 117.859 92.2548 117.211 92.2548 116.479C92.2548 115.735 92.0988 115.087 91.7868 114.535C91.4868 113.983 91.0728 113.557 90.5448 113.257C90.0168 112.945 89.4168 112.789 88.7448 112.789C88.0728 112.789 87.4728 112.945 86.9448 113.257C86.4168 113.557 85.9968 113.983 85.6848 114.535C85.3728 115.087 85.2168 115.735 85.2168 116.479C85.2168 117.211 85.3728 117.859 85.6848 118.423C85.9968 118.975 86.4168 119.407 86.9448 119.719C87.4728 120.019 88.0668 120.169 88.7268 120.169ZM96.1599 121.213V111.763H97.3839V114.337L97.2579 113.887C97.5219 113.167 97.9659 112.621 98.5899 112.249C99.2139 111.865 99.9879 111.673 100.912 111.673V112.915C100.864 112.915 100.816 112.915 100.768 112.915C100.72 112.903 100.672 112.897 100.624 112.897C99.6279 112.897 98.8479 113.203 98.2839 113.815C97.7199 114.415 97.4379 115.273 97.4379 116.389V121.213H96.1599ZM108.365 121.213V108.613H113.495C114.839 108.613 116.015 108.883 117.023 109.423C118.043 109.951 118.835 110.689 119.399 111.637C119.963 112.585 120.245 113.677 120.245 114.913C120.245 116.149 119.963 117.241 119.399 118.189C118.835 119.137 118.043 119.881 117.023 120.421C116.015 120.949 114.839 121.213 113.495 121.213H108.365ZM109.697 120.061H113.423C114.539 120.061 115.505 119.845 116.321 119.413C117.149 118.969 117.791 118.363 118.247 117.595C118.703 116.815 118.931 115.921 118.931 114.913C118.931 113.893 118.703 112.999 118.247 112.231C117.791 111.463 117.149 110.863 116.321 110.431C115.505 109.987 114.539 109.765 113.423 109.765H109.697V120.061ZM128.889 121.213V119.125L128.835 118.783V115.291C128.835 114.487 128.607 113.869 128.151 113.437C127.707 113.005 127.041 112.789 126.153 112.789C125.541 112.789 124.959 112.891 124.407 113.095C123.855 113.299 123.387 113.569 123.003 113.905L122.427 112.951C122.907 112.543 123.483 112.231 124.155 112.015C124.827 111.787 125.535 111.673 126.279 111.673C127.503 111.673 128.445 111.979 129.105 112.591C129.777 113.191 130.113 114.109 130.113 115.345V121.213H128.889ZM125.631 121.303C124.923 121.303 124.305 121.189 123.777 120.961C123.261 120.721 122.865 120.397 122.589 119.989C122.313 119.569 122.175 119.089 122.175 118.549C122.175 118.057 122.289 117.613 122.517 117.217C122.757 116.809 123.141 116.485 123.669 116.245C124.209 115.993 124.929 115.867 125.829 115.867H129.087V116.821H125.865C124.953 116.821 124.317 116.983 123.957 117.307C123.609 117.631 123.435 118.033 123.435 118.513C123.435 119.053 123.645 119.485 124.065 119.809C124.485 120.133 125.073 120.295 125.829 120.295C126.549 120.295 127.167 120.133 127.683 119.809C128.211 119.473 128.595 118.993 128.835 118.369L129.123 119.251C128.883 119.875 128.463 120.373 127.863 120.745C127.275 121.117 126.531 121.303 125.631 121.303ZM136.572 121.303C135.684 121.303 135 121.063 134.52 120.583C134.04 120.103 133.8 119.425 133.8 118.549V109.675H135.078V118.477C135.078 119.029 135.216 119.455 135.492 119.755C135.78 120.055 136.188 120.205 136.716 120.205C137.28 120.205 137.748 120.043 138.12 119.719L138.57 120.637C138.318 120.865 138.012 121.033 137.652 121.141C137.304 121.249 136.944 121.303 136.572 121.303ZM132.108 112.825V111.763H137.958V112.825H132.108ZM146.818 121.213V119.125L146.764 118.783V115.291C146.764 114.487 146.536 113.869 146.08 113.437C145.636 113.005 144.97 112.789 144.082 112.789C143.47 112.789 142.888 112.891 142.336 113.095C141.784 113.299 141.316 113.569 140.932 113.905L140.356 112.951C140.836 112.543 141.412 112.231 142.084 112.015C142.756 111.787 143.464 111.673 144.208 111.673C145.432 111.673 146.374 111.979 147.034 112.591C147.706 113.191 148.042 114.109 148.042 115.345V121.213H146.818ZM143.56 121.303C142.852 121.303 142.234 121.189 141.706 120.961C141.19 120.721 140.794 120.397 140.518 119.989C140.242 119.569 140.104 119.089 140.104 118.549C140.104 118.057 140.218 117.613 140.446 117.217C140.686 116.809 141.07 116.485 141.598 116.245C142.138 115.993 142.858 115.867 143.758 115.867H147.016V116.821H143.794C142.882 116.821 142.246 116.983 141.886 117.307C141.538 117.631 141.364 118.033 141.364 118.513C141.364 119.053 141.574 119.485 141.994 119.809C142.414 120.133 143.002 120.295 143.758 120.295C144.478 120.295 145.096 120.133 145.612 119.809C146.14 119.473 146.524 118.993 146.764 118.369L147.052 119.251C146.812 119.875 146.392 120.373 145.792 120.745C145.204 121.117 144.46 121.303 143.56 121.303ZM162.002 121.321C161.054 121.321 160.172 121.165 159.356 120.853C158.552 120.529 157.85 120.079 157.25 119.503C156.662 118.915 156.2 118.237 155.864 117.469C155.54 116.689 155.378 115.837 155.378 114.913C155.378 113.989 155.54 113.143 155.864 112.375C156.2 111.595 156.662 110.917 157.25 110.341C157.85 109.753 158.552 109.303 159.356 108.991C160.16 108.667 161.042 108.505 162.002 108.505C162.95 108.505 163.826 108.667 164.63 108.991C165.434 109.303 166.13 109.747 166.718 110.323C167.318 110.899 167.78 111.577 168.104 112.357C168.44 113.137 168.608 113.989 168.608 114.913C168.608 115.837 168.44 116.689 168.104 117.469C167.78 118.249 167.318 118.927 166.718 119.503C166.13 120.079 165.434 120.529 164.63 120.853C163.826 121.165 162.95 121.321 162.002 121.321ZM166.124 123.715C165.74 123.715 165.368 123.667 165.008 123.571C164.648 123.475 164.282 123.319 163.91 123.103C163.55 122.899 163.178 122.629 162.794 122.293C162.41 121.957 161.99 121.549 161.534 121.069L162.992 120.709C163.364 121.153 163.724 121.519 164.072 121.807C164.432 122.095 164.78 122.305 165.116 122.437C165.464 122.581 165.806 122.653 166.142 122.653C167.078 122.653 167.876 122.269 168.536 121.501L169.184 122.275C168.392 123.235 167.372 123.715 166.124 123.715ZM162.002 120.133C162.758 120.133 163.454 120.007 164.09 119.755C164.738 119.491 165.296 119.119 165.764 118.639C166.244 118.159 166.616 117.607 166.88 116.983C167.144 116.347 167.276 115.657 167.276 114.913C167.276 114.157 167.144 113.467 166.88 112.843C166.616 112.207 166.244 111.655 165.764 111.187C165.296 110.707 164.738 110.341 164.09 110.089C163.454 109.825 162.758 109.693 162.002 109.693C161.246 109.693 160.544 109.825 159.896 110.089C159.248 110.341 158.684 110.707 158.204 111.187C157.736 111.655 157.364 112.207 157.088 112.843C156.824 113.467 156.692 114.157 156.692 114.913C156.692 115.657 156.824 116.347 157.088 116.983C157.364 117.607 157.736 118.159 158.204 118.639C158.684 119.119 159.248 119.491 159.896 119.755C160.544 120.007 161.246 120.133 162.002 120.133ZM175.23 121.303C174.426 121.303 173.724 121.153 173.124 120.853C172.524 120.553 172.056 120.103 171.72 119.503C171.396 118.903 171.234 118.153 171.234 117.253V111.763H172.512V117.109C172.512 118.117 172.758 118.879 173.25 119.395C173.754 119.899 174.456 120.151 175.356 120.151C176.016 120.151 176.586 120.019 177.066 119.755C177.558 119.479 177.93 119.083 178.182 118.567C178.446 118.051 178.578 117.433 178.578 116.713V111.763H179.856V121.213H178.632V118.621L178.83 119.089C178.53 119.785 178.062 120.331 177.426 120.727C176.802 121.111 176.07 121.303 175.23 121.303ZM189.34 121.213V119.125L189.286 118.783V115.291C189.286 114.487 189.058 113.869 188.602 113.437C188.158 113.005 187.492 112.789 186.604 112.789C185.992 112.789 185.41 112.891 184.858 113.095C184.306 113.299 183.838 113.569 183.454 113.905L182.878 112.951C183.358 112.543 183.934 112.231 184.606 112.015C185.278 111.787 185.986 111.673 186.73 111.673C187.954 111.673 188.896 111.979 189.556 112.591C190.228 113.191 190.564 114.109 190.564 115.345V121.213H189.34ZM186.082 121.303C185.374 121.303 184.756 121.189 184.228 120.961C183.712 120.721 183.316 120.397 183.04 119.989C182.764 119.569 182.626 119.089 182.626 118.549C182.626 118.057 182.74 117.613 182.968 117.217C183.208 116.809 183.592 116.485 184.12 116.245C184.66 115.993 185.38 115.867 186.28 115.867H189.538V116.821H186.316C185.404 116.821 184.768 116.983 184.408 117.307C184.06 117.631 183.886 118.033 183.886 118.513C183.886 119.053 184.096 119.485 184.516 119.809C184.936 120.133 185.524 120.295 186.28 120.295C187 120.295 187.618 120.133 188.134 119.809C188.662 119.473 189.046 118.993 189.286 118.369L189.574 119.251C189.334 119.875 188.914 120.373 188.314 120.745C187.726 121.117 186.982 121.303 186.082 121.303ZM194.035 121.213V107.857H195.313V121.213H194.035ZM198.869 121.213V111.763H200.147V121.213H198.869ZM199.517 109.675C199.253 109.675 199.031 109.585 198.851 109.405C198.671 109.225 198.581 109.009 198.581 108.757C198.581 108.505 198.671 108.295 198.851 108.127C199.031 107.947 199.253 107.857 199.517 107.857C199.781 107.857 200.003 107.941 200.183 108.109C200.363 108.277 200.453 108.487 200.453 108.739C200.453 109.003 200.363 109.225 200.183 109.405C200.015 109.585 199.793 109.675 199.517 109.675ZM206.691 121.303C205.803 121.303 205.119 121.063 204.639 120.583C204.159 120.103 203.919 119.425 203.919 118.549V109.675H205.197V118.477C205.197 119.029 205.335 119.455 205.611 119.755C205.899 120.055 206.307 120.205 206.835 120.205C207.399 120.205 207.867 120.043 208.239 119.719L208.689 120.637C208.437 120.865 208.131 121.033 207.771 121.141C207.423 121.249 207.063 121.303 206.691 121.303ZM202.227 112.825V111.763H208.077V112.825H202.227ZM210.912 124.795C210.468 124.795 210.042 124.723 209.634 124.579C209.238 124.435 208.896 124.219 208.608 123.931L209.202 122.977C209.442 123.205 209.7 123.379 209.976 123.499C210.264 123.631 210.582 123.697 210.93 123.697C211.35 123.697 211.71 123.577 212.01 123.337C212.322 123.109 212.616 122.701 212.892 122.113L213.504 120.727L213.648 120.529L217.536 111.763H218.796L214.062 122.347C213.798 122.959 213.504 123.445 213.18 123.805C212.868 124.165 212.526 124.417 212.154 124.561C211.782 124.717 211.368 124.795 210.912 124.795ZM213.432 121.483L209.076 111.763H210.408L214.26 120.439L213.432 121.483Z" fill="white"/>
<path d="M227.312 31.1835C227.374 31.2295 227.416 31.299 227.44 31.392C227.473 31.4703 227.479 31.543 227.46 31.6101C227.435 31.7529 227.348 31.8249 227.2 31.8262C226.941 31.8312 226.679 31.8741 226.415 31.9549C226.151 32.0357 225.91 32.2094 225.694 32.476C225.478 32.7427 225.344 33.0873 225.293 33.5097C225.238 33.9205 225.263 34.3293 225.368 34.7359C225.47 35.1309 225.652 35.4495 225.913 35.6918C226.183 35.9195 226.485 36.0582 226.82 36.1078C227.027 36.141 227.248 36.1333 227.484 36.0848C227.719 36.0363 227.95 35.9704 228.176 35.887C228.411 35.789 228.637 35.6809 228.855 35.5627C229.069 35.4328 229.27 35.3002 229.458 35.1647C229.522 35.1235 229.587 35.1127 229.654 35.1325C229.733 35.1494 229.792 35.1838 229.83 35.2359C229.927 35.3719 229.937 35.5304 229.86 35.7115C229.76 35.8986 229.608 36.0803 229.406 36.2566C229.204 36.4329 228.972 36.592 228.711 36.7339C228.451 36.8757 228.177 36.9901 227.889 37.0769C227.599 37.152 227.317 37.1878 227.043 37.1843C226.659 37.1846 226.316 37.1306 226.016 37.0225C225.724 36.8998 225.466 36.7433 225.244 36.5531C225.018 36.3512 224.83 36.1272 224.679 35.8811C224.526 35.6233 224.406 35.3507 224.319 35.0633C224.115 34.3723 224.086 33.7103 224.232 33.0776C224.39 32.4417 224.702 31.9211 225.167 31.5156C225.511 31.2159 225.886 31.0381 226.293 30.9823C226.709 30.912 227.048 30.979 227.312 31.1835ZM233.78 29.8256C234.161 29.8631 234.501 29.9796 234.8 30.1751C235.11 30.3675 235.371 30.6098 235.583 30.902C235.792 31.1826 235.946 31.4899 236.045 31.8238C236.155 32.1547 236.201 32.4773 236.184 32.7918C236.14 33.1502 236.06 33.5117 235.944 33.8765C235.827 34.2413 235.673 34.5788 235.481 34.8889C235.288 35.199 235.049 35.4716 234.763 35.7069C234.476 35.9421 234.136 36.1108 233.741 36.213C233.265 36.3363 232.835 36.3297 232.453 36.1931C232.07 36.0566 231.741 35.8381 231.465 35.5377C231.189 35.2373 230.965 34.8739 230.792 34.4475C230.632 34.0181 230.529 33.5736 230.485 33.1141C230.447 32.7768 230.441 32.4436 230.468 32.1145C230.503 31.7708 230.577 31.4602 230.691 31.1827C230.802 30.8937 230.949 30.6451 231.13 30.4369C231.324 30.2257 231.565 30.0826 231.856 30.0074C232.018 29.9653 232.231 29.9475 232.493 29.9541C232.752 29.949 233.001 29.9775 233.24 30.0396C233.355 29.8611 233.535 29.7897 233.78 29.8256ZM233.447 31.269C233.298 31.2208 233.12 31.1553 232.912 31.0726C232.714 30.9753 232.55 30.9432 232.423 30.9763C232.283 31.0124 232.16 31.1123 232.054 31.2762C231.959 31.4371 231.882 31.6182 231.823 31.8195C231.772 32.0062 231.734 32.1957 231.71 32.388C231.685 32.5803 231.675 32.7317 231.679 32.8423C231.689 33.0256 231.72 33.2407 231.771 33.4876C231.823 33.7346 231.903 33.9741 232.013 34.206C232.119 34.4263 232.262 34.6187 232.441 34.7831C232.629 34.9329 232.867 35.0139 233.155 35.026C233.329 35.0304 233.521 34.9808 233.73 34.8772C233.936 34.762 234.125 34.6076 234.298 34.4141C234.483 34.2175 234.638 33.979 234.763 33.6986C234.901 33.4151 234.983 33.1088 235.009 32.7797C235.038 32.4128 234.948 32.0642 234.738 31.7342C234.538 31.3895 234.248 31.1794 233.869 31.104C233.803 31.1831 233.729 31.2332 233.647 31.2543C233.566 31.2753 233.499 31.2802 233.447 31.269ZM240.301 29.0673C240.245 28.9455 240.19 28.8295 240.137 28.7194C240.083 28.6092 240.006 28.5488 239.904 28.538C239.691 28.531 239.481 28.5793 239.272 28.6829C239.063 28.7865 238.879 28.9146 238.721 29.0673C238.559 29.2083 238.431 29.3593 238.336 29.5202C238.238 29.6694 238.195 29.792 238.208 29.888C238.218 30.0712 238.308 30.2277 238.478 30.3572C238.648 30.4868 238.876 30.6013 239.162 30.7008C239.632 30.8395 240.12 30.9795 240.628 31.1209C241.136 31.2622 241.575 31.4274 241.946 31.6164C242.317 31.8054 242.597 32.049 242.786 32.3472C242.984 32.6308 243.053 32.997 242.996 33.4457C242.949 33.7924 242.777 34.1096 242.48 34.3973C242.183 34.685 241.84 34.9411 241.452 35.1655C241.061 35.3783 240.662 35.5621 240.256 35.7168C239.847 35.8599 239.497 35.969 239.206 36.0442C239.137 36.0622 239.043 36.0615 238.927 36.0421C238.819 36.0081 238.709 35.9683 238.598 35.9226C238.499 35.8739 238.406 35.8238 238.318 35.7721C238.239 35.7058 238.192 35.6437 238.177 35.5856C238.122 35.3765 238.178 35.2072 238.343 35.0778C238.507 34.9483 238.689 34.8581 238.886 34.8069C239.165 34.7348 239.458 34.6465 239.766 34.5421C240.082 34.423 240.378 34.2969 240.653 34.1636C240.926 34.0187 241.164 33.864 241.37 33.6993C241.575 33.5346 241.703 33.3589 241.754 33.1722C241.799 33.0117 241.705 32.8626 241.471 32.7249C241.245 32.5725 240.955 32.4308 240.599 32.2999C240.254 32.1659 239.882 32.0453 239.482 31.938C239.094 31.8277 238.757 31.7229 238.471 31.6234C238.185 31.5239 237.926 31.3863 237.695 31.2107C237.461 31.0234 237.277 30.7674 237.143 30.4425C237.053 30.1435 237.042 29.8365 237.109 29.5216C237.176 29.2067 237.293 28.9161 237.46 28.6499C237.635 28.369 237.851 28.1271 238.109 27.9242C238.366 27.7212 238.64 27.5821 238.93 27.507C239.436 27.4009 239.884 27.4336 240.276 27.605C240.664 27.7647 240.951 28.0811 241.135 28.5539C241.177 28.7166 241.183 28.8577 241.152 28.9773C241.132 29.0939 241.062 29.1803 240.94 29.2366C240.783 29.302 240.645 29.3191 240.526 29.2881C240.415 29.2424 240.34 29.1688 240.301 29.0673ZM247.043 27.8987C247.261 27.8299 247.495 27.8251 247.746 27.8841C247.996 27.9432 248.153 28.0947 248.217 28.3386C248.244 28.5421 248.167 28.6985 247.985 28.8077C247.811 28.9023 247.666 28.9646 247.55 28.9947C247.317 29.0548 247.069 29.1253 246.805 29.206C246.541 29.2868 246.272 29.3749 245.999 29.4703C246.075 29.8597 246.145 30.2258 246.209 30.5687C246.285 30.9086 246.351 31.2137 246.409 31.4839C246.464 31.7425 246.512 31.9531 246.554 32.1157C246.596 32.2784 246.624 32.364 246.639 32.3726C246.883 32.26 247.136 32.1138 247.399 31.9341C247.671 31.7397 247.936 31.5411 248.193 31.3381C248.459 31.1205 248.714 30.906 248.956 30.6944C249.208 30.4682 249.445 30.2581 249.667 30.0642C249.768 29.976 249.868 29.9316 249.967 29.9307C250.078 29.9269 250.155 29.9626 250.2 30.038C250.256 30.1597 250.279 30.3211 250.269 30.522C250.259 30.7229 250.198 30.9184 250.086 31.1085C249.948 31.293 249.758 31.5158 249.516 31.7768C249.282 32.0233 249.023 32.2699 248.74 32.5167C248.457 32.7636 248.164 32.9945 247.86 33.2095C247.564 33.4098 247.292 33.5547 247.043 33.6441C246.668 33.7782 246.351 33.7488 246.09 33.5559C245.829 33.3631 245.639 33.0838 245.52 32.7181C245.4 32.3523 245.283 31.924 245.169 31.4331C245.066 30.9391 244.955 30.4161 244.837 29.8641C244.622 29.9445 244.413 30.0234 244.21 30.1007C244.016 30.1634 243.829 30.2305 243.649 30.3018C243.498 30.3409 243.32 30.3497 243.116 30.3281C242.924 30.3035 242.802 30.1924 242.751 29.9949C242.733 29.9252 242.738 29.8248 242.766 29.6936C242.794 29.5624 242.899 29.4422 243.082 29.333C243.537 29.1284 244.048 28.9218 244.614 28.7134C244.507 28.1584 244.411 27.6193 244.325 27.0961C244.239 26.5729 244.16 26.0977 244.086 25.6705C244.062 25.528 244.071 25.3955 244.114 25.2729C244.156 25.1504 244.218 25.0785 244.299 25.0575C244.494 24.9947 244.693 24.9989 244.898 25.07C245.111 25.1264 245.235 25.2244 245.271 25.3638C245.327 25.7708 245.396 26.2301 245.479 26.7416C245.574 27.2502 245.671 27.7704 245.771 28.3022C245.998 28.2188 246.215 28.15 246.425 28.0959C246.642 28.0272 246.848 27.9614 247.043 27.8987ZM253.319 25.6978C253.263 25.576 253.208 25.4601 253.155 25.3499C253.102 25.2397 253.024 25.1793 252.922 25.1685C252.709 25.1615 252.499 25.2098 252.29 25.3134C252.081 25.417 251.898 25.5451 251.739 25.6978C251.577 25.8388 251.449 25.9898 251.354 26.1507C251.256 26.2999 251.214 26.4225 251.226 26.5185C251.236 26.7017 251.326 26.8582 251.496 26.9877C251.666 27.1173 251.894 27.2318 252.18 27.3313C252.65 27.47 253.139 27.6101 253.646 27.7514C254.154 27.8927 254.593 28.0579 254.965 28.2469C255.336 28.4359 255.616 28.6795 255.804 28.9777C256.002 29.2613 256.072 29.6275 256.014 30.0762C255.968 30.4229 255.796 30.7401 255.498 31.0278C255.201 31.3155 254.858 31.5716 254.47 31.796C254.079 32.0088 253.68 32.1926 253.274 32.3473C252.865 32.4904 252.515 32.5995 252.225 32.6747C252.155 32.6927 252.062 32.692 251.945 32.6726C251.837 32.6386 251.728 32.5988 251.617 32.5531C251.517 32.5045 251.424 32.4543 251.336 32.4026C251.257 32.3363 251.21 32.2742 251.195 32.2161C251.141 32.007 251.196 31.8377 251.361 31.7083C251.526 31.5788 251.707 31.4886 251.904 31.4374C252.183 31.3653 252.476 31.277 252.784 31.1726C253.1 31.0535 253.396 30.9274 253.672 30.7941C253.944 30.6492 254.183 30.4945 254.388 30.3298C254.593 30.1651 254.721 29.9894 254.772 29.8027C254.817 29.6422 254.723 29.4931 254.489 29.3554C254.264 29.203 253.973 29.0613 253.617 28.9304C253.272 28.7964 252.9 28.6758 252.501 28.5685C252.112 28.4583 251.775 28.3534 251.489 28.2539C251.203 28.1544 250.945 28.0168 250.713 27.8412C250.479 27.6539 250.295 27.3979 250.161 27.073C250.071 26.774 250.06 26.467 250.127 26.1521C250.195 25.8372 250.311 25.5466 250.478 25.2804C250.653 24.9995 250.87 24.7576 251.127 24.5547C251.384 24.3517 251.658 24.2126 251.949 24.1375C252.454 24.0314 252.903 24.0641 253.294 24.2355C253.683 24.3952 253.969 24.7116 254.153 25.1844C254.195 25.3471 254.201 25.4882 254.17 25.6078C254.15 25.7244 254.08 25.8108 253.958 25.8671C253.801 25.9325 253.663 25.9496 253.544 25.9186C253.433 25.8729 253.358 25.7993 253.319 25.6978ZM264.886 21.3839C265.017 21.6972 265.142 22.0367 265.261 22.4024C265.389 22.7535 265.507 23.1134 265.615 23.4822C265.734 23.8479 265.839 24.2051 265.929 24.5536C266.02 24.9021 266.095 25.2172 266.156 25.4991C266.593 25.6584 266.873 25.8278 266.994 26.0073C267.126 26.1837 267.183 26.355 267.164 26.521C267.148 26.7482 267.049 26.8916 266.866 26.9513C266.692 26.9965 266.472 26.9852 266.207 26.9175C266.074 27.0758 265.921 27.2517 265.748 27.4452C265.572 27.6271 265.385 27.8121 265.185 28C264.983 28.1763 264.778 28.341 264.569 28.4941C264.361 28.6471 264.163 28.7667 263.974 28.8526C263.618 29.0069 263.263 29.0244 262.909 28.9051C262.568 28.7828 262.294 28.5377 262.087 28.1697C261.948 27.9206 261.86 27.6521 261.823 27.3643C261.782 27.0648 261.799 26.7693 261.872 26.4776C261.942 26.1743 262.067 25.8881 262.245 25.6188C262.435 25.3466 262.677 25.1102 262.972 24.9099C263.045 24.854 263.148 24.7964 263.281 24.7371C263.426 24.6747 263.575 24.6298 263.729 24.6024C263.892 24.5603 264.062 24.5472 264.24 24.5632C264.418 24.5792 264.594 24.6389 264.77 24.7422C264.719 24.5447 264.657 24.3313 264.585 24.1019C264.522 23.858 264.453 23.6155 264.379 23.3746C264.304 23.1336 264.228 22.9116 264.15 22.7085C264.082 22.4908 264.016 22.3094 263.954 22.1644C263.885 21.9962 263.789 21.9096 263.663 21.9049C263.547 21.8854 263.415 21.9258 263.267 22.026C263.012 22.1911 262.734 22.4554 262.431 22.8188C262.129 23.1822 261.848 23.5585 261.589 23.9478C261.512 24.0794 261.402 24.1574 261.259 24.1819C261.128 24.2034 261.005 24.1796 260.888 24.1108C260.771 24.0419 260.691 23.9509 260.65 23.8377C260.605 23.7129 260.617 23.5673 260.685 23.4008C260.829 23.1406 260.994 22.8685 261.181 22.5847C261.367 22.3008 261.572 22.0372 261.794 21.7937C262.013 21.5387 262.247 21.317 262.496 21.1287C262.744 20.9404 263.007 20.8043 263.283 20.7205C263.686 20.6037 264.024 20.6154 264.296 20.7558C264.565 20.8845 264.761 21.0939 264.886 21.3839ZM263.834 25.6537C263.692 25.7276 263.549 25.8452 263.405 26.0065C263.269 26.1531 263.153 26.3258 263.056 26.5245C262.967 26.7086 262.913 26.9085 262.895 27.124C262.885 27.3249 262.933 27.5108 263.039 27.6816C263.08 27.7453 263.14 27.7855 263.219 27.8024C263.309 27.8162 263.398 27.7994 263.485 27.7521C263.749 27.6219 264.034 27.4303 264.34 27.1775C264.655 26.91 264.892 26.6505 265.05 26.3989C265.032 26.3292 264.974 26.251 264.878 26.1645C264.778 26.0664 264.668 25.9771 264.548 25.8966C264.425 25.8045 264.295 25.7328 264.158 25.6815C264.032 25.6273 263.924 25.618 263.834 25.6537ZM268.088 21.299C268.167 21.4642 268.253 21.6527 268.345 21.8644C268.446 22.0615 268.55 22.2702 268.656 22.4905C268.76 22.6992 268.859 22.9152 268.954 23.1385C269.049 23.3619 269.135 23.5751 269.213 23.7782C269.274 23.44 269.342 23.0815 269.418 22.7025C269.493 22.3235 269.588 21.9705 269.701 21.6436C269.824 21.3021 269.965 21.0113 270.126 20.7713C270.299 20.5283 270.513 20.3737 270.769 20.3075C271.152 20.2083 271.508 20.265 271.835 20.4777C272.175 20.6874 272.486 20.9787 272.768 21.3519C273.059 21.7103 273.316 22.1026 273.537 22.5286C273.759 22.9546 273.95 23.3329 274.11 23.6633C274.261 23.959 274.182 24.2274 273.872 24.4686C273.731 24.592 273.612 24.6352 273.515 24.5982C273.419 24.5611 273.357 24.5151 273.331 24.46C273.237 24.3356 273.098 24.1112 272.915 23.7867C272.743 23.4593 272.553 23.1305 272.343 22.8005C272.146 22.4674 271.943 22.1853 271.734 21.9542C271.525 21.7231 271.337 21.6417 271.169 21.71C270.963 21.7758 270.817 21.9807 270.733 22.3248C270.657 22.6049 270.582 22.9155 270.509 23.2566C270.445 23.5831 270.384 23.9212 270.326 24.271C270.264 24.6091 270.205 24.9531 270.146 25.3028C270.097 25.6379 270.047 25.9483 269.997 26.234C269.937 26.3363 269.847 26.4215 269.728 26.4894C269.618 26.5427 269.493 26.5627 269.353 26.5493C269.228 26.5445 269.12 26.5105 269.03 26.4472C268.939 26.3839 268.883 26.3116 268.862 26.2303C268.523 25.3512 268.199 24.5549 267.89 23.8415C267.593 23.1251 267.257 22.4002 266.881 21.667C266.731 21.4208 266.659 21.2162 266.667 21.0532C266.683 20.8755 266.84 20.7665 267.14 20.7262C267.564 20.6907 267.88 20.8816 268.088 21.299ZM275.473 19.3874C275.553 19.5526 275.639 19.7411 275.731 19.9528C275.832 20.1499 275.935 20.3586 276.042 20.5789C276.145 20.7876 276.245 21.0036 276.34 21.2269C276.435 21.4503 276.521 21.6635 276.598 21.8666C276.659 21.5284 276.728 21.1699 276.803 20.7909C276.879 20.4119 276.973 20.0589 277.087 19.732C277.209 19.3905 277.351 19.0997 277.512 18.8597C277.684 18.6167 277.899 18.4621 278.154 18.396C278.538 18.2967 278.893 18.3535 279.221 18.5661C279.56 18.7758 279.871 19.0672 280.154 19.4403C280.445 19.7988 280.701 20.191 280.923 20.617C281.145 21.043 281.336 21.4213 281.496 21.7517C281.646 22.0474 281.567 22.3158 281.258 22.557C281.116 22.6804 280.997 22.7236 280.901 22.6866C280.805 22.6496 280.743 22.6035 280.716 22.5484C280.622 22.424 280.484 22.1996 280.3 21.8752C280.129 21.5477 279.938 21.2189 279.729 20.8889C279.531 20.5558 279.328 20.2737 279.12 20.0426C278.911 19.8115 278.723 19.7301 278.554 19.7984C278.348 19.8642 278.203 20.0691 278.118 20.4133C278.042 20.6933 277.968 21.0039 277.895 21.345C277.831 21.6715 277.769 22.0097 277.711 22.3594C277.65 22.6975 277.59 23.0415 277.532 23.3912C277.482 23.7263 277.433 24.0367 277.383 24.3224C277.322 24.4247 277.233 24.5099 277.114 24.5778C277.004 24.6311 276.879 24.6511 276.739 24.6377C276.614 24.6329 276.506 24.5989 276.415 24.5356C276.324 24.4723 276.268 24.4 276.247 24.3187C275.908 23.4396 275.584 22.6434 275.276 21.9299C274.979 21.2135 274.642 20.4886 274.267 19.7554C274.116 19.5092 274.045 19.3047 274.052 19.1416C274.068 18.9639 274.226 18.8549 274.525 18.8146C274.95 18.7791 275.266 18.97 275.473 19.3874ZM283.395 17.9691C283.407 18.3008 283.427 18.6673 283.457 19.0687C283.483 19.4585 283.524 19.8322 283.58 20.1897C283.647 20.5443 283.728 20.8579 283.823 21.1307C283.93 21.4005 284.057 21.5785 284.203 21.6646C284.41 21.6483 284.615 21.5083 284.819 21.2447C285.021 20.9694 285.203 20.6434 285.366 20.2666C285.529 19.8898 285.662 19.4958 285.766 19.0845C285.868 18.6616 285.923 18.3003 285.932 18.0004C285.942 17.849 285.946 17.6932 285.941 17.5332C285.937 17.3732 285.914 17.2118 285.872 17.0492C285.848 16.9562 285.883 16.8541 285.978 16.7427C286.082 16.6167 286.173 16.5373 286.251 16.5047C286.307 16.478 286.373 16.4731 286.452 16.4899C286.543 16.5037 286.626 16.538 286.702 16.5926C286.787 16.6327 286.864 16.6931 286.935 16.7741C287.014 16.8403 287.065 16.92 287.09 17.0129C287.203 17.3554 287.337 17.7297 287.492 18.1359C287.646 18.5421 287.807 18.9468 287.973 19.35C288.151 19.7502 288.326 20.1387 288.498 20.5157C288.67 20.8926 288.832 21.2289 288.982 21.5245C289.05 21.6433 289.053 21.7975 288.991 21.9872C288.928 22.1769 288.838 22.3057 288.719 22.3737C288.62 22.424 288.507 22.4409 288.379 22.4245C288.262 22.4051 288.157 22.3332 288.063 22.2088C287.962 22.0612 287.853 21.8788 287.735 21.6615C287.625 21.4295 287.514 21.1918 287.402 20.9482C287.298 20.6901 287.198 20.4493 287.103 20.226C287.005 19.9911 286.929 19.7938 286.876 19.6341C286.782 19.9929 286.656 20.3665 286.496 20.7549C286.345 21.1287 286.165 21.4853 285.955 21.8247C285.754 22.1494 285.522 22.4264 285.259 22.6556C285.005 22.8701 284.716 23.0006 284.393 23.0469C283.914 23.1091 283.447 22.7652 282.992 22.0151C282.815 21.7139 282.675 21.3658 282.573 20.9708C282.483 20.5728 282.411 20.1761 282.358 19.7807C282.314 19.3707 282.282 18.9824 282.261 18.6159C282.252 18.2463 282.248 17.9437 282.249 17.7079C282.248 17.6089 282.274 17.5156 282.326 17.4278C282.374 17.3285 282.448 17.2784 282.547 17.2776C282.73 17.2673 282.914 17.3313 283.099 17.4695C283.295 17.6046 283.394 17.7712 283.395 17.9691ZM293.067 14.09C293.197 14.4032 293.322 14.7427 293.442 15.1084C293.57 15.4596 293.688 15.8195 293.796 16.1882C293.915 16.554 294.02 16.9111 294.11 17.2596C294.2 17.6081 294.276 17.9233 294.336 18.2051C294.774 18.3645 295.054 18.5339 295.174 18.7133C295.307 18.8898 295.364 19.061 295.345 19.2271C295.329 19.4542 295.23 19.5977 295.047 19.6574C294.873 19.7025 294.653 19.6912 294.387 19.6236C294.255 19.7818 294.102 19.9577 293.929 20.1513C293.753 20.3332 293.565 20.5181 293.366 20.706C293.164 20.8823 292.958 21.047 292.75 21.2001C292.542 21.3532 292.343 21.4727 292.155 21.5587C291.798 21.713 291.443 21.7305 291.09 21.6111C290.749 21.4888 290.474 21.2437 290.268 20.8758C290.129 20.6266 290.041 20.3581 290.003 20.0703C289.963 19.7708 289.98 19.4753 290.053 19.1836C290.123 18.8804 290.247 18.5941 290.426 18.3248C290.615 18.0526 290.858 17.8163 291.153 17.6159C291.225 17.56 291.328 17.5024 291.462 17.4431C291.607 17.3808 291.756 17.3359 291.91 17.3084C292.073 17.2663 292.243 17.2533 292.421 17.2692C292.598 17.2852 292.775 17.3449 292.95 17.4482C292.899 17.2507 292.838 17.0373 292.766 16.808C292.703 16.564 292.634 16.3216 292.559 16.0806C292.484 15.8396 292.408 15.6176 292.331 15.4145C292.262 15.1968 292.197 15.0154 292.134 14.8704C292.066 14.7022 291.969 14.6157 291.844 14.6109C291.728 14.5915 291.595 14.6319 291.448 14.7321C291.193 14.8972 290.914 15.1614 290.612 15.5248C290.309 15.8882 290.029 16.2646 289.77 16.6538C289.692 16.7854 289.582 16.8635 289.44 16.8879C289.309 16.9094 289.185 16.8857 289.068 16.8168C288.951 16.7479 288.872 16.6569 288.83 16.5437C288.786 16.4189 288.798 16.2733 288.866 16.1069C289.009 15.8466 289.174 15.5746 289.361 15.2907C289.548 15.0068 289.753 14.7432 289.975 14.4998C290.194 14.2447 290.428 14.0231 290.676 13.8347C290.925 13.6464 291.187 13.5103 291.463 13.4266C291.867 13.3097 292.205 13.3214 292.476 13.4618C292.745 13.5906 292.942 13.7999 293.067 14.09ZM292.015 18.3597C291.873 18.4336 291.73 18.5512 291.586 18.7125C291.45 18.8592 291.334 19.0318 291.236 19.2306C291.148 19.4147 291.094 19.6145 291.075 19.83C291.065 20.0309 291.114 20.2168 291.22 20.3876C291.261 20.4513 291.321 20.4916 291.4 20.5084C291.49 20.5222 291.579 20.5055 291.666 20.4582C291.929 20.3279 292.215 20.1364 292.521 19.8835C292.836 19.616 293.072 19.3565 293.23 19.1049C293.212 19.0352 293.155 18.9571 293.058 18.8706C292.958 18.7724 292.849 18.6831 292.729 18.6026C292.606 18.5105 292.475 18.4388 292.338 18.3876C292.213 18.3333 292.105 18.324 292.015 18.3597ZM295.994 11.5101C296.38 12.7613 296.819 14.0485 297.31 15.3716C297.798 16.6831 298.283 17.9335 298.764 19.1229C298.931 19.625 298.86 19.9225 298.549 20.0153C298.479 20.0333 298.404 20.0281 298.322 19.9997C298.237 19.9596 298.155 19.9065 298.076 19.8402C297.997 19.7739 297.916 19.7018 297.834 19.6239C297.764 19.543 297.714 19.4692 297.684 19.4025C297.438 18.8341 297.188 18.2293 296.935 17.5882C296.683 16.947 296.436 16.3044 296.195 15.6603C295.962 15.0015 295.74 14.3587 295.528 13.7317C295.316 13.1048 295.135 12.5257 294.985 11.9943C294.937 11.7095 294.917 11.4666 294.927 11.2657C294.934 11.0532 295.032 10.9287 295.221 10.8922C295.421 10.8527 295.582 10.8979 295.702 11.0279C295.831 11.1432 295.929 11.304 295.994 11.5101ZM299.636 10.5675C300.022 11.8187 300.46 13.1059 300.952 14.429C301.44 15.7405 301.925 16.991 302.406 18.1803C302.573 18.6824 302.501 18.9799 302.191 19.0727C302.121 19.0907 302.045 19.0855 301.964 19.0571C301.879 19.0171 301.797 18.9639 301.718 18.8976C301.639 18.8313 301.558 18.7592 301.476 18.6813C301.405 18.6004 301.355 18.5266 301.326 18.4599C301.079 17.8915 300.83 17.2867 300.577 16.6456C300.324 16.0045 300.077 15.3618 299.836 14.7177C299.604 14.0589 299.382 13.4161 299.17 12.7892C298.958 12.1622 298.777 11.5831 298.627 11.0517C298.578 10.7669 298.559 10.524 298.569 10.3231C298.576 10.1106 298.674 9.98607 298.863 9.94958C299.063 9.91008 299.223 9.95532 299.344 10.0853C299.473 10.2006 299.57 10.3614 299.636 10.5675ZM307.906 11.2717C308.103 11.89 308.302 12.5141 308.502 13.1441C308.714 13.771 308.89 14.4011 309.029 15.0345C309.165 15.6562 309.257 16.2768 309.306 16.8963C309.366 17.5129 309.351 18.1242 309.26 18.7304C309.166 19.3249 308.982 19.9056 308.707 20.4725C308.444 21.0364 308.064 21.581 307.568 22.1061C307.49 22.1882 307.395 22.2501 307.281 22.2918C307.18 22.3305 307.074 22.3517 306.963 22.3555C306.856 22.371 306.755 22.366 306.662 22.3406C306.572 22.3268 306.506 22.288 306.464 22.2243C306.403 22.1288 306.39 22.0081 306.427 21.8623C306.463 21.7165 306.545 21.5528 306.671 21.3713C307.083 20.8556 307.408 20.3378 307.645 19.8177C307.882 19.2977 308.041 18.7608 308.121 18.2072C308.201 17.6535 308.194 17.0787 308.102 16.4828C308.018 15.8723 307.852 15.2276 307.601 14.5486C307.507 14.7589 307.391 14.9811 307.253 15.2151C307.116 15.4491 306.962 15.6686 306.792 15.8738C306.619 16.0673 306.435 16.2449 306.242 16.4066C306.045 16.5567 305.848 16.6573 305.65 16.7084C305.488 16.7505 305.316 16.7577 305.135 16.7301C304.955 16.7025 304.757 16.611 304.544 16.4556C304.295 16.2597 304.056 16.0303 303.826 15.7674C303.606 15.4898 303.406 15.2193 303.226 14.956C303.046 14.6926 302.891 14.4538 302.762 14.2395C302.643 14.0221 302.566 13.8685 302.531 13.7786C302.477 13.6684 302.449 13.5581 302.445 13.4475C302.441 13.3369 302.5 13.2535 302.622 13.1972C302.787 13.1172 302.953 13.0868 303.119 13.1058C303.285 13.1247 303.414 13.1906 303.505 13.3034C303.584 13.4191 303.699 13.6001 303.85 13.8462C304 14.0924 304.168 14.334 304.353 14.5712C304.536 14.7967 304.716 14.9916 304.895 15.156C305.086 15.3175 305.257 15.3786 305.408 15.3395C305.582 15.2944 305.763 15.1547 305.95 14.9203C306.149 14.6829 306.322 14.3962 306.471 14.0603C306.62 13.7243 306.726 13.3684 306.79 12.9924C306.862 12.6018 306.856 12.2438 306.772 11.9185C306.754 11.8488 306.744 11.7645 306.744 11.6655C306.743 11.5666 306.755 11.4704 306.781 11.3771C306.803 11.2721 306.836 11.1831 306.879 11.11C306.93 11.0222 306.99 10.9635 307.056 10.9339C307.236 10.8625 307.412 10.8727 307.585 10.9644C307.766 11.0415 307.873 11.1439 307.906 11.2717Z" fill="#79DCF3"/>
<path d="M61.2116 127.333C62.2506 127.257 63.5685 127.284 64.5926 127.338C64.9214 127.354 64.7659 127.463 64.977 127.479C65.3889 127.511 65.8227 127.451 66.2283 127.491C66.3692 127.505 66.1974 127.675 66.3456 127.685C67.1725 127.741 67.936 127.683 68.7436 127.702C72.7866 127.793 76.7857 127.776 80.8526 127.77C82.2366 127.767 83.8715 127.886 85.2373 127.792C85.3987 127.781 85.2995 127.637 85.33 127.625C85.8105 127.431 85.6555 127.729 85.9756 127.761C87.1939 127.88 88.3859 127.879 89.5839 127.813C89.6755 127.808 89.7664 127.802 89.8565 127.796C90.3602 127.762 89.8478 127.482 90.3611 127.634C90.3968 127.645 90.2709 127.802 90.4107 127.816C90.7267 127.847 91.3347 127.807 91.587 127.815C92.0702 127.83 92.1616 127.826 92.6127 127.819C93.2154 127.811 93.9467 127.873 94.6174 127.825C94.7605 127.814 94.5675 127.659 94.7958 127.627C95.0217 127.596 95.6441 127.597 95.8317 127.631C96.0301 127.664 95.9485 127.791 95.984 127.819C96.276 128.055 96.9564 127.707 97.0459 127.697C98.692 127.523 100.047 127.687 101.595 127.656C102.775 127.632 103.964 127.545 105.089 127.532C106.424 127.517 107.49 127.582 108.788 127.541C108.925 127.537 108.761 127.353 108.928 127.348C110.665 127.292 112.413 127.278 114.143 127.37C114.316 127.38 114.097 127.548 114.27 127.568C115.321 127.682 117.046 127.972 117.657 127.245C118.369 127.259 119.243 127.271 119.895 127.402C120.315 127.487 119.912 127.673 120.425 127.587C120.541 127.568 120.387 127.414 120.561 127.397C121.303 127.325 122.086 127.361 122.802 127.266C122.947 127.246 122.904 127.106 122.945 127.08C123.288 126.869 123.877 127.196 124.004 127.218C124.973 127.382 125.699 127.296 126.58 127.283C126.787 127.28 126.538 127.096 126.737 127.087C127.77 127.04 128.851 127.035 129.884 127.098C130.114 127.112 129.906 127.277 130.016 127.292C130.495 127.357 130.59 127.052 131.046 127.109C131.142 127.12 131.091 127.259 131.109 127.274C131.387 127.505 131.619 127.165 131.69 127.156C132.582 127.037 133.164 127.376 134.037 127.31C134.142 127.301 133.902 127.132 134.196 127.119C136.123 127.033 138.195 127.041 140.111 127.142C140.409 127.158 140.199 127.293 140.218 127.308C140.528 127.554 140.719 127.213 140.815 127.198C141.579 127.092 142.305 127.361 142.822 126.949C146.078 127.024 149.314 126.735 152.55 127.032C152.592 127.035 152.521 127.203 152.603 127.209C153.595 127.283 153.409 127.028 154.048 126.7C154.21 126.617 154.714 126.989 154.759 127.016C154.921 127.116 154.759 127.366 154.814 127.385C155.261 127.533 155.172 126.717 155.774 126.705C155.792 126.706 155.716 126.858 155.767 126.872C155.925 126.916 156.079 126.853 156.234 126.902C156.588 127.015 156.721 127.409 157.256 127.168C157.324 127.136 157.21 126.675 157.751 126.686C157.966 126.691 158.925 126.664 159.185 126.689C159.449 126.714 159.271 126.867 159.29 126.873C160.005 127.057 159.737 127.144 160.1 127.429C160.463 127.714 160.35 127.021 160.494 126.94C160.639 126.86 161.166 127.013 161.296 127.067C161.426 127.121 161.267 127.219 161.382 127.249C162.147 127.444 161.71 126.898 161.958 126.783C162.545 126.51 163.017 127.016 163.563 127.056C163.71 127.067 163.588 126.952 163.719 126.938C164.234 126.886 164.542 127.041 165.124 126.882C165.219 126.856 165.686 126.537 165.997 126.758C166.041 126.79 165.921 126.921 166.141 126.946C166.469 126.982 167.062 126.999 167.416 126.949C167.676 126.912 167.372 126.707 167.703 126.766C167.85 126.792 167.581 126.921 167.857 126.961C168.131 127 168.833 126.981 169.098 126.972C169.361 126.962 169.214 126.804 169.235 126.793C169.362 126.729 169.866 126.641 169.91 126.641C172.159 126.577 174.279 126.806 176.464 126.674C176.637 126.664 176.518 126.497 176.545 126.494C177.135 126.411 176.677 126.87 177.094 127.013C177.027 126.671 177.272 126.728 177.689 126.682C177.89 126.66 177.778 126.529 177.796 126.515C178.091 126.307 178.304 126.564 178.359 126.616C178.561 126.809 178.772 126.573 178.909 126.701C179.047 126.829 178.74 127.028 179.142 127.017C179.252 126.892 178.948 126.577 179.252 126.519C180.395 126.3 182.528 126.51 183.455 126.518C184.376 126.526 184.677 126.498 185.214 126.532C186.178 126.593 185.821 126.362 186.417 126.241C187.016 126.12 186.736 126.712 186.824 126.837C186.912 126.961 187.002 126.829 187.109 126.897C187.216 126.964 186.989 127.054 187.237 127.075C187.486 127.096 188.16 126.859 188.245 126.725C188.426 126.442 188.114 126.155 188.774 126.246C188.811 126.251 188.692 126.407 188.837 126.42C189.992 126.516 191.185 126.5 192.33 126.583C192.487 126.595 192.35 126.769 192.442 126.778C193.399 126.869 193.052 126.586 193.57 126.255C193.46 126.685 193.755 126.94 194.482 126.929C194.919 126.922 194.84 126.737 195.12 126.6C195.204 126.558 195.517 126.68 195.571 126.591C195.75 126.301 195.454 125.985 196.205 126.098C196.238 126.104 196.137 126.263 196.25 126.27C196.981 126.318 197.063 126.016 197.853 125.965C198.472 125.924 199.58 126.085 200.29 126.101C200.284 126.582 200.952 126.459 201.217 126.122C201.68 126.127 202.171 126.099 202.615 126.136C202.768 126.148 202.67 126.29 202.69 126.304C202.989 126.534 203.182 126.208 203.28 126.194C204.35 126.05 205.23 126.277 206.252 126.018C206.288 126.009 206.341 125.674 206.62 125.912C206.638 125.929 206.302 126.087 206.786 126.089C207.272 126.092 208.178 126.253 208.844 126.085C209.005 126.045 209.409 125.766 209.742 125.971C209.786 125.999 209.74 126.096 209.804 126.148C210.012 126.314 210.117 125.974 210.363 126.256C210.609 126.538 211.113 126.743 211.785 126.532C211.806 126.526 211.961 126.255 212.174 126.255C212.514 126.256 212.999 126.302 213.35 126.293C213.519 126.289 213.408 126.125 213.437 126.122C214.571 126.006 215.384 126.139 216.606 126.179C216.83 126.187 217.469 125.948 217.907 126.118C218.387 126.305 217.915 127.13 219.004 126.914C219.442 126.828 219.979 125.783 220.781 126.303C222.312 126.14 223.746 126.387 225.279 126.167C225.348 126.157 225.561 125.864 225.724 125.865C225.966 125.867 226.101 125.999 226.274 126.005C226.997 126.031 227.657 125.903 228.355 125.907C228.621 125.909 228.531 126.05 228.847 126.052C229.163 126.053 229.37 125.865 229.8 125.946C230.126 126.007 230.455 126.376 230.884 126.412C230.894 126.041 231.188 126.043 231.709 125.935C231.809 125.914 231.699 125.787 231.746 125.77C231.938 125.7 232.12 125.803 232.302 125.728C232.346 125.709 232.346 125.583 232.382 125.561C232.689 125.368 233.207 125.643 233.296 125.691C233.637 125.872 233.792 125.705 234.052 125.774C234.312 125.843 233.927 125.943 234.23 125.982C234.858 126.063 235.663 126.027 236.297 126.02C236.551 126.017 236.375 125.851 236.411 125.847C236.933 125.794 237.467 125.963 237.75 125.621C238.131 126.484 238.065 125.53 238.817 125.69C238.876 125.703 238.959 126.113 238.734 126.177C238.509 126.242 238.163 126.12 237.85 126.221C237.776 126.244 237.358 126.638 237.3 126.662C236.848 126.854 236.772 126.24 236.747 126.207C236.467 125.848 235.955 126.273 235.818 126.305C235.192 126.449 234.656 126.373 234.133 126.477C233.79 126.544 233.765 126.947 233.495 126.94C232.597 126.917 232.274 126.361 231.439 126.865C231.26 126.972 231.449 127.409 230.794 127.076C230.752 127.054 230.266 126.747 229.991 126.953C229.956 126.979 229.96 127.107 229.914 127.119C229.606 127.195 229.397 127.096 229.061 127.152C228.725 127.207 228.322 127.288 227.936 127.252C227.704 127.231 227.402 126.998 227.29 126.941C226.974 126.779 226.644 127.062 226.446 126.861C226.247 126.66 226.622 126.341 226.107 126.219C226.095 126.552 226.058 126.895 226.034 127.231C224.912 127.241 223.803 127.155 222.674 127.192C222.534 127.197 222.681 127.373 222.531 127.383C221.899 127.424 221.344 127.307 220.69 127.37C220.183 127.42 219.631 127.621 219.103 127.679C218.773 127.304 217.984 127.449 217.411 127.425C217.21 127.417 217.222 127.315 217.078 127.284C216.538 127.172 216.796 127.504 216.65 127.56C216.021 127.799 215.952 127.037 215.207 127.071C215.168 127.072 214.693 127.488 214.628 127.515C214.209 127.688 214.555 127.374 214.29 127.35C213.807 127.304 213.471 127.214 212.908 127.344C212.743 127.382 212.35 127.643 212.025 127.454C211.982 127.429 212.003 127.294 211.968 127.287C211.35 127.168 211.342 127.59 210.993 127.74C210.644 127.89 210.095 127.609 209.983 127.527C209.69 127.315 210.203 127.43 210.218 127.408C210.397 127.151 210.002 127.202 209.699 127.187C209.647 126.774 209.225 126.807 209.386 127.172C209.404 127.212 209.638 127.169 209.699 127.187C209.442 127.598 208.978 127.659 208.459 127.29C208.215 127.116 208.438 126.905 207.711 126.995C207.382 127.035 207.516 127.318 207.224 127.401C206.557 127.592 205.682 127.343 204.994 127.398C204.744 127.418 204.991 127.57 204.82 127.589C204.367 127.64 203.965 127.531 203.512 127.6C203.471 127.606 203.575 127.767 203.433 127.772C202.362 127.812 201.429 127.726 200.303 127.745C199.76 127.754 198.794 127.863 198.233 127.856C197.26 127.844 196.069 127.63 195.233 127.704C194.69 127.752 194.812 127.913 194.582 128.029C194.137 128.253 193.337 127.882 193.229 127.824C193.225 127.822 193.691 127.775 193.44 127.696C193.292 127.524 193.234 127.823 193.229 127.824C193.158 127.787 192.227 127.768 192.043 127.803C191.943 127.822 192.002 127.976 191.95 127.983C190.716 128.145 189.46 128.209 188.195 128.162C188.173 128.159 188.203 127.985 188.151 127.981C187.418 127.918 186.955 128.139 186.356 128.277C185.757 128.414 185.283 128.381 184.918 128.091C184.461 128.137 183.804 128.019 183.426 127.946C183.048 127.874 183.002 128.212 182.969 128.219C181.942 128.453 181.343 128.272 180.278 128.262C179.777 128.257 178.759 128.326 178.209 128.374C177.774 128.412 177.51 128.338 177.11 128.396C177.056 128.404 177.113 128.553 177.097 128.559C176.653 128.748 176.861 128.376 176.767 128.313C176.428 128.081 176.219 127.958 175.65 128.081C175.519 128.11 175.146 128.645 174.907 128.681C174.596 128.726 174.71 128.535 174.385 128.587C174.357 128.591 174.365 128.708 174.162 128.707C173.216 128.703 172.188 128.655 171.213 128.686C171.08 128.689 171.254 128.871 171.062 128.88C170.158 128.919 169.183 128.932 168.289 128.862C168.071 128.845 168.205 128.712 168.157 128.675C167.862 128.447 167.457 128.794 167.39 128.802C165.771 128.996 164.559 128.713 162.902 128.892C162.812 128.902 162.128 129.279 161.814 128.973C161.793 128.953 161.482 128.64 161.218 128.863C161.202 128.877 161.394 129.038 161.063 129.027C160.733 129.017 160.204 129.137 159.749 128.966C159.605 128.912 159.26 128.601 158.84 128.862C158.814 128.88 158.156 129.466 157.911 129.076C157.871 129.011 157.903 128.593 157.393 128.817C157.295 128.86 157.476 128.95 157.218 129.014C156.823 129.111 156.297 129.009 155.816 129.205C155.732 129.24 155.378 129.531 155.086 129.321C155.04 129.288 155.123 129.147 154.971 129.134C154.248 129.073 153.494 129.181 152.747 129.099C152.484 129.071 152.613 128.842 152.339 128.787C152.064 128.732 151.513 128.685 151.231 128.793C150.948 128.902 151.266 129.256 150.84 129.293C149.005 129.454 147.136 129.279 145.294 129.284C145.021 129.285 145.249 129.409 144.847 129.42C143.367 129.458 140.761 129.63 139.484 129.382C138.439 129.183 139.75 128.99 138.948 128.917C138.561 128.882 138.152 129.308 138.059 129.323C137.155 129.475 136.524 129.302 135.718 129.375C135.552 129.39 135.718 129.556 135.577 129.567C135.093 129.606 134.588 129.54 134.113 129.563C133.902 129.574 133.943 129.702 133.749 129.696C133.285 129.683 132.875 129.637 132.424 129.524C132.383 129.514 132.656 129.347 132.315 129.348C131.764 129.35 131.081 129.243 130.456 129.379C130.27 129.42 130.274 129.716 129.859 129.52C129.772 129.479 129.874 129.121 129.404 129.438C129.325 129.49 128.536 129.92 128.143 129.661C128.039 129.592 127.771 129.307 127.547 129.357C127.516 129.365 127.642 129.521 127.455 129.54C126.794 129.605 126.122 129.601 125.435 129.665C125.251 129.682 125.528 129.841 125.255 129.861C124.504 129.918 123.573 129.894 122.85 129.857C122.583 129.843 122.764 129.703 122.745 129.689C122.429 129.454 122.252 129.783 122.149 129.804C121.518 129.93 121.007 129.787 120.408 129.839C120.243 129.853 120.363 130.006 120.331 130.02C119.991 130.162 120.241 129.879 120.024 129.852C119.417 129.777 118.747 129.803 118.144 129.834C117.923 129.846 118.176 130.021 117.977 130.03C116.804 130.084 115.531 130.092 114.386 130.015C114.169 130 114.303 129.859 114.257 129.828C113.941 129.613 113.495 129.924 113.391 129.955C112.904 130.096 112.713 129.977 112.285 130.008C110.217 130.163 107.626 130.132 105.699 130.12C103.116 130.107 101.13 130.014 98.726 130.096C98.5679 130.101 98.731 130.282 98.5948 130.289C96.8413 130.368 95.1729 130.329 93.4406 130.416C93.3007 130.423 93.5057 130.594 93.2816 130.611C92.828 130.646 92.2349 130.648 91.7514 130.602C91.518 130.58 91.8272 130.424 91.5926 130.404C91.0467 130.359 90.4723 130.358 89.9326 130.397C89.7031 130.414 90.053 130.585 89.7549 130.593C89.7162 130.594 89.6777 130.596 89.6392 130.597C87.5471 130.656 85.5802 130.72 83.4954 130.535C83.3494 130.522 83.2138 130.161 82.9096 130.237C82.8886 130.338 82.8922 130.457 82.8844 130.565C79.8497 130.683 76.8442 130.618 73.8141 130.66C73.6813 130.661 73.9143 130.849 73.6579 130.854C72.2168 130.88 70.8138 130.962 69.3569 130.801C69.2089 130.785 69.2725 130.445 68.8364 130.505C68.753 130.516 68.1299 130.574 67.9574 130.651C67.9341 130.663 68.0596 130.818 67.8436 130.828C66.6507 130.876 65.3521 130.867 64.1511 130.796C63.9636 130.784 64.1645 130.612 64.022 130.602C63.0357 130.534 61.9523 130.685 61.0128 130.555C60.3797 130.467 60.6158 130.171 60.2674 129.893C60.2207 129.854 59.8338 129.859 59.8057 129.693C59.7386 129.276 59.9157 128.811 59.8255 128.368C59.8138 128.32 59.678 128.326 59.5658 128.316C59.5396 128.313 59.505 128.311 59.471 128.306C59.4561 128.304 59.4125 128.304 59.3711 128.306C59.3708 128.304 59.2762 128.314 59.168 128.352C59.1115 128.371 59.0432 128.4 58.9742 128.441C58.9894 128.427 58.7774 128.567 58.6876 128.696C58.5788 128.833 58.5167 128.994 58.4918 129.1C58.446 129.318 58.4634 129.338 58.4577 129.347C58.4561 129.35 58.4543 129.354 58.4527 129.342C58.4584 129.328 58.4218 129.268 58.5142 128.974C58.5623 128.832 58.6752 128.654 58.8057 128.539C58.9733 128.399 58.9612 128.424 59.0075 128.392C59.1582 128.306 59.2747 128.279 59.3415 128.261C59.3716 128.251 59.3929 128.244 59.4154 128.236C59.4964 128.208 59.5187 128.184 59.5674 128.152C59.6007 128.134 59.999 128.044 60.079 127.963C60.1468 127.907 60.0153 127.741 60.158 127.667C60.2786 127.594 60.4349 127.732 60.6571 127.645C60.8749 127.556 60.7738 127.366 61.2116 127.333ZM181.728 127.623C181.377 127.468 181.338 128.062 181.71 127.913C181.728 127.905 181.746 127.631 181.728 127.623ZM223.801 126.708C223.34 126.455 223.036 126.846 223.361 127.041C223.686 127.237 223.941 126.784 223.801 126.708ZM228.51 126.425C227.974 126.229 227.907 127.071 228.473 126.89C228.506 126.88 228.541 126.436 228.51 126.425ZM61.815 129.774C61.8059 129.767 61.5415 129.765 61.5295 129.773C61.3882 129.965 61.9351 129.967 61.815 129.774ZM233.183 126.126C233.015 126.015 232.54 126.156 232.749 126.293C232.917 126.404 233.392 126.263 233.183 126.126ZM163.583 127.345C163.577 127.336 163.374 127.332 163.379 127.382C163.396 127.543 163.678 127.492 163.583 127.345ZM241.134 125.961C239.958 125.952 239.232 125.272 240.514 125.325C240.746 125.335 240.019 125.556 240.315 125.613C240.857 125.716 241.207 125.273 241.762 125.496C241.863 125.537 241.202 125.963 241.132 125.962C241.133 125.961 241.134 125.961 241.134 125.961ZM181.514 126.915C181.507 126.907 181.228 126.905 181.222 126.913C181.074 127.104 181.636 127.108 181.514 126.915ZM151.804 127.209C151.788 127.192 151.14 127.189 151.119 127.205C150.787 127.52 152.098 127.526 151.804 127.209ZM200.301 126.114C200.603 125.919 200.968 125.889 201.216 126.122C200.912 126.116 200.607 126.12 200.301 126.114Z" fill="#79DCF3"/>
<path d="M222.604 41.0137C222.786 40.7601 223.141 40.7023 223.395 40.8848C223.648 41.0674 223.706 41.4219 223.523 41.6758C219.16 47.7436 215.307 53.3263 213.382 56.1719C212.864 56.9375 212.487 57.5027 212.214 57.9209L216.969 56.4189C217.267 56.325 217.584 56.4902 217.679 56.7881C217.773 57.0863 217.608 57.4047 217.31 57.499L211.892 59.2119C211.883 59.2145 211.874 59.2146 211.866 59.2168C211.792 59.3545 211.663 59.4623 211.499 59.501C211.374 59.5304 211.249 59.5138 211.14 59.4648C211.091 59.4789 211.039 59.4883 210.985 59.4883C210.673 59.4883 210.419 59.2347 210.419 58.9219C210.419 58.9019 210.419 58.8415 210.434 58.7656C210.448 58.6958 210.47 58.632 210.495 58.5742C210.526 58.5015 210.573 58.4147 210.636 58.3047L209.636 54.0547C209.564 53.7503 209.753 53.4448 210.058 53.373C210.362 53.3014 210.668 53.4905 210.739 53.7949L211.485 56.9697C211.737 56.5899 212.051 56.1193 212.444 55.5371C214.375 52.683 218.233 47.0908 222.604 41.0137Z" fill="#79DCF3"/>
</svg>
