<svg width="210" height="23" viewBox="0 0 210 23" fill="none" xmlns="http://www.w3.org/2000/svg">
<path d="M70.9199 11.1436C70.9199 18.8969 69.2258 22.6611 57.4902 22.6611H44.7021C32.2483 22.6611 31.498 19.6043 31.498 11.8193H39.8105C39.8105 14.213 40.447 15.6426 44.7021 15.6426H57.4902C61.7408 15.6426 62.6084 13.5056 62.6084 11.1436V7.02734H57.834V0.00878906H70.9199V11.1436ZM160.139 16.7529C161.408 16.7531 162.434 17.7809 162.434 19.043V20.2061C162.434 21.4726 161.403 22.496 160.139 22.4961H157.053C155.784 22.4959 154.759 21.4681 154.759 20.2061V19.043C154.759 17.7764 155.788 16.7532 157.053 16.7529H160.139ZM16.627 0.155273C22.0295 0.155273 27.1162 3.73019 27.1162 11.3213V11.3262C27.1161 18.9217 22.034 22.4922 16.627 22.4922H0V0.155273H16.627ZM83.6494 22.4922H75.3379V0.155273H83.6494V22.4922ZM108.656 13.332V0.155273H116.968V22.4922H106.095L96.4375 9.31543V22.4922H88.126V0.155273H98.999L108.656 13.332ZM141.975 13.332V0.155273H150.286V22.4922H139.414L129.756 9.31543V22.4922H121.444V0.155273H132.317L141.975 13.332ZM197.482 22.4922H188.339L186.804 18.4707H177.272L175.736 22.4922H166.594L175.867 0.155273H188.208L197.482 22.4922ZM209.629 22.4922H201.317V0.155273H209.629V22.4922ZM8.31152 15.4727H14.0664C15.8552 15.4727 18.7997 15.4729 18.7998 11.3262C18.7998 7.1792 15.8598 7.17871 14.0664 7.17871H8.31152V15.4727ZM179.449 12.7275H184.626L182.038 5.89844L179.449 12.7275ZM37.8896 0C39.4571 0 40.7266 1.26684 40.7266 2.83105V4.26465C40.7264 5.82871 39.457 7.0957 37.8896 7.0957H34.082C32.5147 7.0957 31.2453 5.82871 31.2451 4.26465V2.83105C31.2451 1.26684 32.5146 0 34.082 0H37.8896Z" fill="white"/>
</svg>
