<svg width="48" height="49" viewBox="0 0 48 49" fill="none" xmlns="http://www.w3.org/2000/svg">
<g filter="url(#filter0_d_1_392)">
<rect x="6.75309" y="0.00292969" width="40.7562" height="40.7562" rx="20.3781" transform="rotate(9.53342 6.75309 0.00292969)" fill="white"/>
</g>
<g clip-path="url(#clip0_1_392)">
<path d="M35.854 18.5788C36.5731 20.751 36.9868 23.0839 36.5816 25.505C35.394 32.6007 28.679 37.3901 21.5834 36.2025C14.4877 35.0149 9.6983 28.2999 10.8859 21.2043C12.0735 14.1086 18.7885 9.3192 25.8841 10.5068C28.3492 10.9194 30.6258 12.0759 32.3803 13.6069C32.3803 13.6069 35.0649 16.1949 35.854 18.5788Z" fill="#2ABCC8"/>
<path d="M36.5814 25.505C36.9866 23.0839 36.5729 20.751 35.8539 18.5789C35.0647 16.1949 32.3801 13.607 32.3801 13.607C30.6257 12.076 28.349 10.9194 25.884 10.5068L21.5832 36.2025C28.6789 37.3901 35.3938 32.6007 36.5814 25.505Z" fill="#2ABCC8"/>
<path d="M31.8151 20.901C32.1676 22.1618 32.2925 23.3684 32.0614 24.7486C31.2917 29.3473 26.9399 32.4513 22.3412 31.6816C17.7425 30.9119 14.6386 26.56 15.4083 21.9614C16.178 17.3627 20.5299 14.2587 25.1285 15.0284C26.5811 15.2715 27.7802 15.7905 28.8595 16.6433C28.8595 16.6434 31.1471 18.5117 31.8151 20.901Z" fill="#FFF4F4"/>
<path d="M32.061 24.7476C32.2921 23.3673 32.1672 22.1607 31.8147 20.8999C31.1467 18.5107 28.8591 16.6423 28.8591 16.6423C27.7797 15.7895 26.5806 15.2705 25.1281 15.0273L22.3408 31.6805C26.9394 32.4502 31.2914 29.3462 32.061 24.7476Z" fill="#FFF4F4"/>
<path d="M23.0774 27.2743C25.242 27.6366 27.2906 26.1755 27.6529 24.0108C28.0152 21.8461 26.5541 19.7976 24.3894 19.4353C22.2247 19.073 20.1762 20.5341 19.8139 22.6988C19.4516 24.8635 20.9127 26.912 23.0774 27.2743Z" fill="#2ABCC8"/>
<path d="M27.6533 24.0111C28.0156 21.8464 26.5545 19.7979 24.3898 19.4355L23.0778 27.2745C25.2424 27.6368 27.291 26.1757 27.6533 24.0111Z" fill="#2ABCC8"/>
<path d="M23.4009 24.372C23.1973 24.3379 23.0068 24.2259 22.8781 24.0441C22.6218 23.6822 22.7074 23.1811 23.0692 22.9247L34.4688 14.8505C34.8308 14.5942 35.332 14.6798 35.5883 15.0416C35.8446 15.4035 35.759 15.9048 35.3972 16.1611L23.9976 24.2353C23.8173 24.3629 23.6027 24.4058 23.4009 24.372Z" fill="#003481"/>
<path d="M35.6325 14.645L35.2597 12.4405C35.198 12.0759 34.776 11.9016 34.475 12.1163L29.6939 15.5265C29.5551 15.6254 29.4763 15.7881 29.4845 15.9583L29.6226 18.8267C29.6316 19.014 29.7444 19.1805 29.9149 19.2583L32.631 20.4974C32.7939 20.5717 32.984 20.5534 33.1298 20.4495L37.8415 17.0889C38.129 16.8838 38.1197 16.4535 37.8235 16.2612L35.8535 14.9815C35.736 14.9051 35.6558 14.7831 35.6325 14.645Z" fill="#1F5DD2"/>
<path d="M35.5886 15.0411C35.5836 15.034 35.5779 15.0278 35.5727 15.0209L22.8943 24.0638C23.0226 24.2333 23.2055 24.3387 23.4011 24.3715C23.6029 24.4052 23.8177 24.3624 23.9978 24.2348L35.3974 16.1606C35.7594 15.9042 35.845 15.4031 35.5886 15.0411Z" fill="#003481"/>
<path d="M37.8227 16.2629L35.8527 14.9832C35.8144 14.9583 35.7805 14.9281 35.7508 14.8945L29.7707 19.1597C29.8119 19.2005 29.8597 19.2352 29.9142 19.2601L32.6303 20.4992C32.7931 20.5735 32.9833 20.5552 33.129 20.4513L37.8408 17.0907C38.1283 16.8856 38.1189 16.4553 37.8227 16.2629Z" fill="#3F78E5"/>
</g>
<defs>
<filter id="filter0_d_1_392" x="2.61903" y="3.09375" width="44.5549" height="45.0279" filterUnits="userSpaceOnUse" color-interpolation-filters="sRGB">
<feFlood flood-opacity="0" result="BackgroundImageFix"/>
<feColorMatrix in="SourceAlpha" type="matrix" values="0 0 0 0 0 0 0 0 0 0 0 0 0 0 0 0 0 0 127 0" result="hardAlpha"/>
<feOffset dx="1.42173" dy="2.36955"/>
<feGaussianBlur stdDeviation="0.947818"/>
<feComposite in2="hardAlpha" operator="out"/>
<feColorMatrix type="matrix" values="0 0 0 0 0.575646 0 0 0 0 0.575646 0 0 0 0 0.575646 0 0 0 0.6 0"/>
<feBlend mode="normal" in2="BackgroundImageFix" result="effect1_dropShadow_1_392"/>
<feBlend mode="normal" in="SourceGraphic" in2="effect1_dropShadow_1_392" result="shape"/>
</filter>
<clipPath id="clip0_1_392">
<rect width="26.0531" height="26.0531" fill="white" transform="translate(13.0363 8.3584) rotate(9.50167)"/>
</clipPath>
</defs>
</svg>
