<svg width="32" height="32" viewBox="0 0 32 32" fill="none" xmlns="http://www.w3.org/2000/svg">
<circle cx="16" cy="16" r="16" fill="#131313"/>
<g clip-path="url(#clip0_1_481)">
<path d="M15.6662 9.28037L10.7105 14.2361C10.5815 14.3696 10.5101 14.5485 10.5117 14.7341C10.5134 14.9197 10.5878 15.0973 10.7191 15.2285C10.8503 15.3598 11.0279 15.4343 11.2135 15.4359C11.3992 15.4375 11.578 15.3661 11.7115 15.2372L15.4588 11.4899V21.5469C15.4588 21.7347 15.5334 21.9148 15.6661 22.0475C15.7989 22.1803 15.979 22.2549 16.1667 22.2549C16.3545 22.2549 16.5346 22.1803 16.6673 22.0475C16.8001 21.9148 16.8747 21.7347 16.8747 21.5469V11.4899L20.622 15.2372C20.6873 15.3048 20.7654 15.3587 20.8518 15.3958C20.9381 15.4329 21.031 15.4525 21.125 15.4533C21.219 15.4541 21.3123 15.4362 21.3993 15.4006C21.4863 15.365 21.5653 15.3124 21.6318 15.2459C21.6983 15.1795 21.7508 15.1004 21.7864 15.0134C21.822 14.9264 21.8399 14.8332 21.8391 14.7392C21.8383 14.6452 21.8188 14.5523 21.7817 14.4659C21.7446 14.3795 21.6906 14.3014 21.623 14.2361L16.6673 9.28037C16.5345 9.14764 16.3545 9.07309 16.1667 9.07309C15.979 9.07309 15.799 9.14764 15.6662 9.28037Z" fill="#CDCDCD"/>
</g>
<defs>
<clipPath id="clip0_1_481">
<rect width="13.2414" height="13.2414" fill="white" transform="matrix(0 -1 1 0 9.37891 22.0693)"/>
</clipPath>
</defs>
</svg>
