<svg width="42" height="42" viewBox="0 0 42 42" fill="none" xmlns="http://www.w3.org/2000/svg">
<mask id="path-1-inside-1_1_193" fill="white">
<path d="M16.0303 23.1377C16.7881 23.1385 17.5149 23.4407 18.0508 23.9766C18.5866 24.5124 18.8878 25.2393 18.8887 25.9971V34.9805C18.888 35.7384 18.5867 36.4651 18.0508 37.001C17.5149 37.5369 16.7882 37.8381 16.0303 37.8389H7.04688C6.28903 37.8381 5.56228 37.5368 5.02637 37.001C4.49045 36.4651 4.18822 35.7384 4.1875 34.9805V25.9971C4.18822 25.2393 4.48964 24.5125 5.02539 23.9766C5.56128 23.4407 6.28805 23.1385 7.0459 23.1377H16.0303ZM34.9863 22.8242C35.7442 22.8251 36.471 23.1272 37.0068 23.6631C37.5424 24.1988 37.8438 24.9251 37.8447 25.6826V33.5576C37.8556 33.627 37.8556 33.6982 37.8447 33.7676V34.9805C37.8439 35.7383 37.5427 36.4651 37.0068 37.001C36.471 37.5368 35.7442 37.838 34.9863 37.8389H25.6895C24.9316 37.8381 24.2049 37.5368 23.6689 37.001C23.133 36.4651 22.8318 35.7384 22.8311 34.9805V25.6826C22.8319 24.9249 23.1332 24.1989 23.6689 23.6631C24.2049 23.1272 24.9315 22.8249 25.6895 22.8242H34.9863ZM7.04688 24.499C6.64976 24.499 6.26811 24.6567 5.9873 24.9375C5.70651 25.2183 5.54883 25.6 5.54883 25.9971V34.9805C5.54883 35.1771 5.58784 35.372 5.66309 35.5537C5.73831 35.7352 5.84839 35.9001 5.9873 36.0391C6.12629 36.178 6.29108 36.289 6.47266 36.3643C6.65427 36.4395 6.84932 36.4775 7.0459 36.4775H16.0303C16.4274 36.4775 16.8081 36.3199 17.0889 36.0391C17.3697 35.7583 17.5273 35.3776 17.5273 34.9805V25.9971C17.5273 25.6 17.3697 25.2183 17.0889 24.9375C16.8081 24.6569 16.4272 24.499 16.0303 24.499H7.04688ZM29.8418 34.1182C29.7142 34.2456 29.5417 34.3173 29.3613 34.3174C29.1809 34.3174 29.0075 34.2458 28.8799 34.1182L26.5205 31.7588L24.1914 34.0879V34.9805C24.1915 35.3774 24.3501 35.7583 24.6309 36.0391C24.9116 36.3197 25.2925 36.4775 25.6895 36.4775H34.9863C35.3832 36.4768 35.7637 36.3181 36.0439 36.0371C36.324 35.7561 36.4808 35.3753 36.4805 34.9785V33.9229L33.2598 30.7012L29.8418 34.1182ZM12.1582 25.5176C12.2902 25.5438 12.4116 25.609 12.5068 25.7041L15.0479 28.2451C15.1127 28.3078 15.1646 28.383 15.2002 28.4658C15.2358 28.5488 15.2541 28.6382 15.2549 28.7285C15.2556 28.8188 15.2383 28.9086 15.2041 28.9922C15.1699 29.0757 15.1195 29.152 15.0557 29.2158C14.9918 29.2796 14.9156 29.3301 14.832 29.3643C14.7485 29.3984 14.6586 29.4158 14.5684 29.415C14.4781 29.4142 14.3886 29.395 14.3057 29.3594C14.2228 29.3237 14.1476 29.2719 14.085 29.207L12.7061 27.8281V33.0371C12.7059 33.0828 12.7016 33.129 12.6924 33.1738C12.6582 33.794 12.3881 34.3781 11.9375 34.8057C11.4869 35.2332 10.8897 35.472 10.2686 35.4736V35.4727C9.94564 35.4771 9.62481 35.4164 9.3252 35.2959C9.02582 35.1754 8.75323 34.9971 8.52344 34.7705C8.29366 34.5438 8.11093 34.2733 7.98633 33.9756C7.86172 33.6776 7.79688 33.3571 7.79688 33.0342C7.79692 32.7114 7.86177 32.3916 7.98633 32.0938C8.11093 31.7959 8.2936 31.5255 8.52344 31.2988C8.75328 31.0722 9.02571 30.8929 9.3252 30.7725C9.62477 30.652 9.94568 30.5923 10.2686 30.5967C10.6427 30.599 11.0113 30.6887 11.3447 30.8584V26.1855C11.3448 26.051 11.3853 25.9195 11.46 25.8076C11.5347 25.6958 11.6405 25.6082 11.7646 25.5566C11.889 25.5051 12.0262 25.4914 12.1582 25.5176ZM10.2686 31.958C9.98279 31.9584 9.70873 32.0722 9.50684 32.2744C9.30502 32.4766 9.19129 32.7504 9.19141 33.0361C9.19141 33.2491 9.25474 33.4577 9.37305 33.6348C9.49135 33.8117 9.65982 33.9498 9.85645 34.0312C10.0531 34.1126 10.2698 34.1333 10.4785 34.0918C10.6871 34.0503 10.8788 33.9482 11.0293 33.7979C11.1799 33.6473 11.2827 33.455 11.3242 33.2461C11.3657 33.0373 11.3442 32.8207 11.2627 32.624C11.1812 32.4274 11.0432 32.2589 10.8662 32.1406C10.6893 32.0225 10.4813 31.959 10.2686 31.959V31.958ZM25.6895 24.1855C25.2926 24.1857 24.9115 24.3434 24.6309 24.624C24.3503 24.9047 24.1925 25.2858 24.1924 25.6826V32.1611L26.04 30.3154C26.1677 30.1878 26.341 30.1162 26.5215 30.1162C26.7018 30.1163 26.8744 30.188 27.002 30.3154L29.3613 32.6748L32.7793 29.2578C32.9069 29.1302 33.0803 29.0586 33.2607 29.0586C33.4411 29.0587 33.6137 29.1304 33.7412 29.2578L36.4834 32V25.6826C36.4833 25.2857 36.3256 24.9047 36.0449 24.624C35.7642 24.3434 35.3833 24.1856 34.9863 24.1855H25.6895ZM35.0068 4.16016C35.7646 4.16093 36.4915 4.46228 37.0273 4.99805C37.5632 5.53386 37.8644 6.26078 37.8652 7.01855V16.3359C37.8644 17.0937 37.5631 17.8206 37.0273 18.3564C36.4915 18.8923 35.7646 19.1934 35.0068 19.1943H25.6895C24.9315 19.1936 24.2049 18.8924 23.6689 18.3564C23.1331 17.8205 22.8318 17.0938 22.8311 16.3359V7.01855C22.8317 6.26072 23.1331 5.53392 23.6689 4.99805C24.2049 4.46227 24.9316 4.16076 25.6895 4.16016H35.0068ZM16.0303 4.15918C16.7881 4.15998 17.5149 4.4622 18.0508 4.99805C18.5865 5.53393 18.888 6.26082 18.8887 7.01855V16.002C18.8878 16.7597 18.5865 17.4866 18.0508 18.0225C17.515 18.5583 16.788 18.8594 16.0303 18.8604H7.0459C6.28805 18.8596 5.56128 18.5583 5.02539 18.0225C4.48955 17.4866 4.18822 16.7598 4.1875 16.002V7.01855C4.1881 6.26074 4.48961 5.53397 5.02539 4.99805C5.56124 4.46211 6.28803 4.1599 7.0459 4.15918H16.0303ZM25.6895 5.52148C25.2924 5.52148 24.9117 5.67919 24.6309 5.95996C24.3501 6.24076 24.1914 6.62144 24.1914 7.01855V16.3359C24.1914 16.7331 24.3501 17.1147 24.6309 17.3955C24.9116 17.676 25.2925 17.834 25.6895 17.834H35.0068C35.4038 17.8339 35.7847 17.6761 36.0654 17.3955C36.3462 17.1147 36.5039 16.7331 36.5039 16.3359V7.01855C36.5039 6.62153 36.3461 6.24075 36.0654 5.95996C35.7847 5.67921 35.4039 5.52154 35.0068 5.52148H25.6895ZM7.0459 5.52051C6.64894 5.52055 6.26805 5.67835 5.9873 5.95898C5.7065 6.23979 5.54883 6.62144 5.54883 7.01855L5.54785 16.002C5.54785 16.1986 5.58686 16.3935 5.66211 16.5752C5.73736 16.7568 5.84828 16.9215 5.9873 17.0605C6.12632 17.1995 6.29103 17.3105 6.47266 17.3857C6.65427 17.4609 6.84933 17.499 7.0459 17.499H16.0303C16.4273 17.4989 16.8081 17.3413 17.0889 17.0605C17.3695 16.7798 17.5273 16.399 17.5273 16.002V7.01855C17.5273 6.62144 17.3697 6.23979 17.0889 5.95898C16.8082 5.67834 16.4272 5.52059 16.0303 5.52051H7.0459ZM14.9209 14.5635C15.1013 14.5635 15.2747 14.6352 15.4023 14.7627C15.5299 14.8903 15.6015 15.0637 15.6016 15.2441C15.6016 15.4246 15.53 15.598 15.4023 15.7256C15.2747 15.8532 15.1014 15.9248 14.9209 15.9248H8.15137C7.97109 15.9247 7.79841 15.853 7.6709 15.7256C7.54326 15.5979 7.47168 15.4246 7.47168 15.2441C7.47175 15.0637 7.54333 14.8903 7.6709 14.7627C7.79839 14.6354 7.97121 14.5636 8.15137 14.5635H14.9209ZM28.8613 8.41797C28.9806 8.41799 29.0979 8.44923 29.2012 8.50879L33.668 11.0869C33.7716 11.1466 33.8571 11.2334 33.917 11.3369C33.9767 11.4403 34.0087 11.5574 34.0088 11.6768C34.0088 11.7963 33.9768 11.914 33.917 12.0176C33.8572 12.121 33.7714 12.2069 33.668 12.2666L29.2012 14.8457C29.0978 14.9053 28.9806 14.9365 28.8613 14.9365C28.7418 14.9365 28.624 14.9055 28.5205 14.8457C28.417 14.7859 28.3312 14.6992 28.2715 14.5957C28.212 14.4923 28.1806 14.3752 28.1807 14.2559V9.09863C28.1807 8.97934 28.2119 8.86214 28.2715 8.75879C28.3311 8.65538 28.4172 8.56954 28.5205 8.50977C28.624 8.44998 28.7418 8.41799 28.8613 8.41797ZM29.542 13.0771L31.9658 11.6768L29.542 10.2773V13.0771ZM14.9209 11.0889C15.1013 11.0889 15.2747 11.1606 15.4023 11.2881C15.5299 11.4157 15.6015 11.5891 15.6016 11.7695C15.6016 11.95 15.53 12.1233 15.4023 12.251C15.2747 12.3786 15.1014 12.4502 14.9209 12.4502H8.15137C7.9711 12.4501 7.79841 12.3784 7.6709 12.251C7.54326 12.1233 7.47168 11.95 7.47168 11.7695C7.47174 11.5891 7.54331 11.4157 7.6709 11.2881C7.79839 11.1608 7.9712 11.089 8.15137 11.0889H14.9209ZM14.9209 7.61426C15.1014 7.61426 15.2747 7.68682 15.4023 7.81445C15.5298 7.94199 15.6015 8.11464 15.6016 8.29492C15.6016 8.4754 15.5299 8.64874 15.4023 8.77637C15.2747 8.904 15.1014 8.97559 14.9209 8.97559H8.15137C7.97108 8.97546 7.79842 8.90383 7.6709 8.77637C7.54326 8.64873 7.47168 8.47543 7.47168 8.29492C7.47176 8.11457 7.54338 7.94201 7.6709 7.81445C7.79842 7.68693 7.97103 7.61438 8.15137 7.61426H14.9209Z"/>
</mask>
<path d="M16.0303 23.1377C16.7881 23.1385 17.5149 23.4407 18.0508 23.9766C18.5866 24.5124 18.8878 25.2393 18.8887 25.9971V34.9805C18.888 35.7384 18.5867 36.4651 18.0508 37.001C17.5149 37.5369 16.7882 37.8381 16.0303 37.8389H7.04688C6.28903 37.8381 5.56228 37.5368 5.02637 37.001C4.49045 36.4651 4.18822 35.7384 4.1875 34.9805V25.9971C4.18822 25.2393 4.48964 24.5125 5.02539 23.9766C5.56128 23.4407 6.28805 23.1385 7.0459 23.1377H16.0303ZM34.9863 22.8242C35.7442 22.8251 36.471 23.1272 37.0068 23.6631C37.5424 24.1988 37.8438 24.9251 37.8447 25.6826V33.5576C37.8556 33.627 37.8556 33.6982 37.8447 33.7676V34.9805C37.8439 35.7383 37.5427 36.4651 37.0068 37.001C36.471 37.5368 35.7442 37.838 34.9863 37.8389H25.6895C24.9316 37.8381 24.2049 37.5368 23.6689 37.001C23.133 36.4651 22.8318 35.7384 22.8311 34.9805V25.6826C22.8319 24.9249 23.1332 24.1989 23.6689 23.6631C24.2049 23.1272 24.9315 22.8249 25.6895 22.8242H34.9863ZM7.04688 24.499C6.64976 24.499 6.26811 24.6567 5.9873 24.9375C5.70651 25.2183 5.54883 25.6 5.54883 25.9971V34.9805C5.54883 35.1771 5.58784 35.372 5.66309 35.5537C5.73831 35.7352 5.84839 35.9001 5.9873 36.0391C6.12629 36.178 6.29108 36.289 6.47266 36.3643C6.65427 36.4395 6.84932 36.4775 7.0459 36.4775H16.0303C16.4274 36.4775 16.8081 36.3199 17.0889 36.0391C17.3697 35.7583 17.5273 35.3776 17.5273 34.9805V25.9971C17.5273 25.6 17.3697 25.2183 17.0889 24.9375C16.8081 24.6569 16.4272 24.499 16.0303 24.499H7.04688ZM29.8418 34.1182C29.7142 34.2456 29.5417 34.3173 29.3613 34.3174C29.1809 34.3174 29.0075 34.2458 28.8799 34.1182L26.5205 31.7588L24.1914 34.0879V34.9805C24.1915 35.3774 24.3501 35.7583 24.6309 36.0391C24.9116 36.3197 25.2925 36.4775 25.6895 36.4775H34.9863C35.3832 36.4768 35.7637 36.3181 36.0439 36.0371C36.324 35.7561 36.4808 35.3753 36.4805 34.9785V33.9229L33.2598 30.7012L29.8418 34.1182ZM12.1582 25.5176C12.2902 25.5438 12.4116 25.609 12.5068 25.7041L15.0479 28.2451C15.1127 28.3078 15.1646 28.383 15.2002 28.4658C15.2358 28.5488 15.2541 28.6382 15.2549 28.7285C15.2556 28.8188 15.2383 28.9086 15.2041 28.9922C15.1699 29.0757 15.1195 29.152 15.0557 29.2158C14.9918 29.2796 14.9156 29.3301 14.832 29.3643C14.7485 29.3984 14.6586 29.4158 14.5684 29.415C14.4781 29.4142 14.3886 29.395 14.3057 29.3594C14.2228 29.3237 14.1476 29.2719 14.085 29.207L12.7061 27.8281V33.0371C12.7059 33.0828 12.7016 33.129 12.6924 33.1738C12.6582 33.794 12.3881 34.3781 11.9375 34.8057C11.4869 35.2332 10.8897 35.472 10.2686 35.4736V35.4727C9.94564 35.4771 9.62481 35.4164 9.3252 35.2959C9.02582 35.1754 8.75323 34.9971 8.52344 34.7705C8.29366 34.5438 8.11093 34.2733 7.98633 33.9756C7.86172 33.6776 7.79688 33.3571 7.79688 33.0342C7.79692 32.7114 7.86177 32.3916 7.98633 32.0938C8.11093 31.7959 8.2936 31.5255 8.52344 31.2988C8.75328 31.0722 9.02571 30.8929 9.3252 30.7725C9.62477 30.652 9.94568 30.5923 10.2686 30.5967C10.6427 30.599 11.0113 30.6887 11.3447 30.8584V26.1855C11.3448 26.051 11.3853 25.9195 11.46 25.8076C11.5347 25.6958 11.6405 25.6082 11.7646 25.5566C11.889 25.5051 12.0262 25.4914 12.1582 25.5176ZM10.2686 31.958C9.98279 31.9584 9.70873 32.0722 9.50684 32.2744C9.30502 32.4766 9.19129 32.7504 9.19141 33.0361C9.19141 33.2491 9.25474 33.4577 9.37305 33.6348C9.49135 33.8117 9.65982 33.9498 9.85645 34.0312C10.0531 34.1126 10.2698 34.1333 10.4785 34.0918C10.6871 34.0503 10.8788 33.9482 11.0293 33.7979C11.1799 33.6473 11.2827 33.455 11.3242 33.2461C11.3657 33.0373 11.3442 32.8207 11.2627 32.624C11.1812 32.4274 11.0432 32.2589 10.8662 32.1406C10.6893 32.0225 10.4813 31.959 10.2686 31.959V31.958ZM25.6895 24.1855C25.2926 24.1857 24.9115 24.3434 24.6309 24.624C24.3503 24.9047 24.1925 25.2858 24.1924 25.6826V32.1611L26.04 30.3154C26.1677 30.1878 26.341 30.1162 26.5215 30.1162C26.7018 30.1163 26.8744 30.188 27.002 30.3154L29.3613 32.6748L32.7793 29.2578C32.9069 29.1302 33.0803 29.0586 33.2607 29.0586C33.4411 29.0587 33.6137 29.1304 33.7412 29.2578L36.4834 32V25.6826C36.4833 25.2857 36.3256 24.9047 36.0449 24.624C35.7642 24.3434 35.3833 24.1856 34.9863 24.1855H25.6895ZM35.0068 4.16016C35.7646 4.16093 36.4915 4.46228 37.0273 4.99805C37.5632 5.53386 37.8644 6.26078 37.8652 7.01855V16.3359C37.8644 17.0937 37.5631 17.8206 37.0273 18.3564C36.4915 18.8923 35.7646 19.1934 35.0068 19.1943H25.6895C24.9315 19.1936 24.2049 18.8924 23.6689 18.3564C23.1331 17.8205 22.8318 17.0938 22.8311 16.3359V7.01855C22.8317 6.26072 23.1331 5.53392 23.6689 4.99805C24.2049 4.46227 24.9316 4.16076 25.6895 4.16016H35.0068ZM16.0303 4.15918C16.7881 4.15998 17.5149 4.4622 18.0508 4.99805C18.5865 5.53393 18.888 6.26082 18.8887 7.01855V16.002C18.8878 16.7597 18.5865 17.4866 18.0508 18.0225C17.515 18.5583 16.788 18.8594 16.0303 18.8604H7.0459C6.28805 18.8596 5.56128 18.5583 5.02539 18.0225C4.48955 17.4866 4.18822 16.7598 4.1875 16.002V7.01855C4.1881 6.26074 4.48961 5.53397 5.02539 4.99805C5.56124 4.46211 6.28803 4.1599 7.0459 4.15918H16.0303ZM25.6895 5.52148C25.2924 5.52148 24.9117 5.67919 24.6309 5.95996C24.3501 6.24076 24.1914 6.62144 24.1914 7.01855V16.3359C24.1914 16.7331 24.3501 17.1147 24.6309 17.3955C24.9116 17.676 25.2925 17.834 25.6895 17.834H35.0068C35.4038 17.8339 35.7847 17.6761 36.0654 17.3955C36.3462 17.1147 36.5039 16.7331 36.5039 16.3359V7.01855C36.5039 6.62153 36.3461 6.24075 36.0654 5.95996C35.7847 5.67921 35.4039 5.52154 35.0068 5.52148H25.6895ZM7.0459 5.52051C6.64894 5.52055 6.26805 5.67835 5.9873 5.95898C5.7065 6.23979 5.54883 6.62144 5.54883 7.01855L5.54785 16.002C5.54785 16.1986 5.58686 16.3935 5.66211 16.5752C5.73736 16.7568 5.84828 16.9215 5.9873 17.0605C6.12632 17.1995 6.29103 17.3105 6.47266 17.3857C6.65427 17.4609 6.84933 17.499 7.0459 17.499H16.0303C16.4273 17.4989 16.8081 17.3413 17.0889 17.0605C17.3695 16.7798 17.5273 16.399 17.5273 16.002V7.01855C17.5273 6.62144 17.3697 6.23979 17.0889 5.95898C16.8082 5.67834 16.4272 5.52059 16.0303 5.52051H7.0459ZM14.9209 14.5635C15.1013 14.5635 15.2747 14.6352 15.4023 14.7627C15.5299 14.8903 15.6015 15.0637 15.6016 15.2441C15.6016 15.4246 15.53 15.598 15.4023 15.7256C15.2747 15.8532 15.1014 15.9248 14.9209 15.9248H8.15137C7.97109 15.9247 7.79841 15.853 7.6709 15.7256C7.54326 15.5979 7.47168 15.4246 7.47168 15.2441C7.47175 15.0637 7.54333 14.8903 7.6709 14.7627C7.79839 14.6354 7.97121 14.5636 8.15137 14.5635H14.9209ZM28.8613 8.41797C28.9806 8.41799 29.0979 8.44923 29.2012 8.50879L33.668 11.0869C33.7716 11.1466 33.8571 11.2334 33.917 11.3369C33.9767 11.4403 34.0087 11.5574 34.0088 11.6768C34.0088 11.7963 33.9768 11.914 33.917 12.0176C33.8572 12.121 33.7714 12.2069 33.668 12.2666L29.2012 14.8457C29.0978 14.9053 28.9806 14.9365 28.8613 14.9365C28.7418 14.9365 28.624 14.9055 28.5205 14.8457C28.417 14.7859 28.3312 14.6992 28.2715 14.5957C28.212 14.4923 28.1806 14.3752 28.1807 14.2559V9.09863C28.1807 8.97934 28.2119 8.86214 28.2715 8.75879C28.3311 8.65538 28.4172 8.56954 28.5205 8.50977C28.624 8.44998 28.7418 8.41799 28.8613 8.41797ZM29.542 13.0771L31.9658 11.6768L29.542 10.2773V13.0771ZM14.9209 11.0889C15.1013 11.0889 15.2747 11.1606 15.4023 11.2881C15.5299 11.4157 15.6015 11.5891 15.6016 11.7695C15.6016 11.95 15.53 12.1233 15.4023 12.251C15.2747 12.3786 15.1014 12.4502 14.9209 12.4502H8.15137C7.9711 12.4501 7.79841 12.3784 7.6709 12.251C7.54326 12.1233 7.47168 11.95 7.47168 11.7695C7.47174 11.5891 7.54331 11.4157 7.6709 11.2881C7.79839 11.1608 7.9712 11.089 8.15137 11.0889H14.9209ZM14.9209 7.61426C15.1014 7.61426 15.2747 7.68682 15.4023 7.81445C15.5298 7.94199 15.6015 8.11464 15.6016 8.29492C15.6016 8.4754 15.5299 8.64874 15.4023 8.77637C15.2747 8.904 15.1014 8.97559 14.9209 8.97559H8.15137C7.97108 8.97546 7.79842 8.90383 7.6709 8.77637C7.54326 8.64873 7.47168 8.47543 7.47168 8.29492C7.47176 8.11457 7.54338 7.94201 7.6709 7.81445C7.79842 7.68693 7.97103 7.61438 8.15137 7.61426H14.9209Z" fill="url(#paint0_linear_1_193)"/>
<path d="M16.0303 23.1377L16.0304 23.0386H16.0303V23.1377ZM18.0508 23.9766L18.1208 23.9065L18.1208 23.9065L18.0508 23.9766ZM18.8887 25.9971H18.9877V25.997L18.8887 25.9971ZM18.8887 34.9805L18.9877 34.9806V34.9805H18.8887ZM18.0508 37.001L18.1208 37.071L18.0508 37.001ZM16.0303 37.8389V37.9379H16.0304L16.0303 37.8389ZM7.04688 37.8389L7.04678 37.9379H7.04688V37.8389ZM5.02637 37.001L4.95632 37.071L4.95633 37.071L5.02637 37.001ZM4.1875 34.9805H4.08844L4.08844 34.9806L4.1875 34.9805ZM4.1875 25.9971L4.08844 25.997V25.9971H4.1875ZM5.02539 23.9766L4.95535 23.9065L4.95534 23.9065L5.02539 23.9766ZM7.0459 23.1377V23.0386H7.0458L7.0459 23.1377ZM34.9863 22.8242L34.9864 22.7252H34.9863V22.8242ZM37.0068 23.6631L37.0769 23.5931L37.0769 23.593L37.0068 23.6631ZM37.8447 25.6826H37.9438V25.6825L37.8447 25.6826ZM37.8447 33.5576H37.7457V33.5653L37.7469 33.573L37.8447 33.5576ZM37.8447 33.7676L37.7469 33.7523L37.7457 33.7599V33.7676H37.8447ZM37.8447 34.9805L37.9438 34.9806V34.9805H37.8447ZM37.0068 37.001L37.0769 37.071V37.071L37.0068 37.001ZM34.9863 37.8389V37.9379H34.9864L34.9863 37.8389ZM25.6895 37.8389L25.6894 37.9379H25.6895V37.8389ZM23.6689 37.001L23.5989 37.071H23.5989L23.6689 37.001ZM22.8311 34.9805H22.732V34.9806L22.8311 34.9805ZM22.8311 25.6826L22.732 25.6825V25.6826H22.8311ZM23.6689 23.6631L23.5989 23.593L23.5989 23.593L23.6689 23.6631ZM25.6895 22.8242V22.7252H25.6894L25.6895 22.8242ZM7.04688 24.499V24.5981V24.499ZM5.9873 24.9375L5.91726 24.8675H5.91726L5.9873 24.9375ZM5.54883 34.9805H5.44977H5.54883ZM5.66309 35.5537L5.57157 35.5916L5.57158 35.5916L5.66309 35.5537ZM5.9873 36.0391L5.91725 36.1091L5.91726 36.1091L5.9873 36.0391ZM6.47266 36.3643L6.43473 36.4558L6.43475 36.4558L6.47266 36.3643ZM7.0459 36.4775L7.04589 36.5766H7.0459V36.4775ZM17.0889 36.0391L17.1589 36.1091H17.1589L17.0889 36.0391ZM17.5273 34.9805H17.4283H17.5273ZM17.5273 25.9971H17.4283H17.5273ZM17.0889 24.9375L17.1589 24.8675L17.1589 24.8674L17.0889 24.9375ZM16.0303 24.499V24.5981V24.499ZM29.8418 34.1182L29.9118 34.1882L29.9118 34.1882L29.8418 34.1182ZM29.3613 34.3174V34.4164H29.3614L29.3613 34.3174ZM28.8799 34.1182L28.8098 34.1882L28.8099 34.1882L28.8799 34.1182ZM26.5205 31.7588L26.5906 31.6887L26.5205 31.6187L26.4505 31.6887L26.5205 31.7588ZM24.1914 34.0879L24.1214 34.0178L24.0924 34.0469V34.0879H24.1914ZM24.1914 34.9805H24.0924V34.9805L24.1914 34.9805ZM24.6309 36.0391L24.5608 36.1091L24.5608 36.1091L24.6309 36.0391ZM34.9863 36.4775V36.5766H34.9865L34.9863 36.4775ZM36.0439 36.0371L36.1141 36.1071L36.1141 36.107L36.0439 36.0371ZM36.4805 34.9785H36.3814V34.9786L36.4805 34.9785ZM36.4805 33.9229H36.5795V33.8818L36.5505 33.8528L36.4805 33.9229ZM33.2598 30.7012L33.3298 30.6311L33.2598 30.5611L33.1897 30.6311L33.2598 30.7012ZM12.1582 25.5176L12.1775 25.4204H12.1775L12.1582 25.5176ZM12.5068 25.7041L12.5769 25.6341L12.5768 25.634L12.5068 25.7041ZM15.0479 28.2451L14.9778 28.3152L14.979 28.3163L15.0479 28.2451ZM15.2002 28.4658L15.2912 28.4268L15.2912 28.4267L15.2002 28.4658ZM15.2549 28.7285L15.3539 28.7277L15.3539 28.7277L15.2549 28.7285ZM15.2041 28.9922L15.2958 29.0297L15.2958 29.0297L15.2041 28.9922ZM15.0557 29.2158L15.1257 29.2859L15.1257 29.2859L15.0557 29.2158ZM14.832 29.3643L14.8695 29.456L14.8695 29.4559L14.832 29.3643ZM14.5684 29.415L14.5674 29.5141H14.5675L14.5684 29.415ZM14.3057 29.3594L14.2665 29.4504L14.2666 29.4504L14.3057 29.3594ZM14.085 29.207L14.1562 29.1382L14.155 29.137L14.085 29.207ZM12.7061 27.8281L12.7761 27.7581L12.607 27.589V27.8281H12.7061ZM12.7061 33.0371L12.8051 33.0374V33.0371H12.7061ZM12.6924 33.1738L12.5954 33.1539L12.5939 33.1611L12.5935 33.1684L12.6924 33.1738ZM11.9375 34.8057L12.0057 34.8775L12.0057 34.8775L11.9375 34.8057ZM10.2686 35.4736H10.1695V35.573L10.2688 35.5727L10.2686 35.4736ZM10.2686 35.4727H10.3676V35.3722L10.2672 35.3736L10.2686 35.4727ZM9.3252 35.2959L9.28822 35.3878L9.28823 35.3878L9.3252 35.2959ZM8.52344 34.7705L8.45387 34.841L8.45389 34.841L8.52344 34.7705ZM7.98633 33.9756L7.89494 34.0138L7.89495 34.0138L7.98633 33.9756ZM7.79688 33.0342L7.69782 33.0342V33.0342H7.79688ZM7.98633 32.0938L7.89495 32.0555L7.89494 32.0555L7.98633 32.0938ZM8.52344 31.2988L8.45389 31.2283L8.45387 31.2283L8.52344 31.2988ZM9.3252 30.7725L9.28823 30.6806L9.28823 30.6806L9.3252 30.7725ZM10.2686 30.5967L10.2672 30.6957L10.2679 30.6957L10.2686 30.5967ZM11.3447 30.8584L11.2998 30.9467L11.4438 31.02V30.8584H11.3447ZM11.3447 26.1855L11.2457 26.1855V26.1855H11.3447ZM11.46 25.8076L11.3776 25.7526L11.3776 25.7526L11.46 25.8076ZM11.7646 25.5566L11.7267 25.4651L11.7267 25.4652L11.7646 25.5566ZM10.2686 31.958H10.3676V31.8588L10.2684 31.859L10.2686 31.958ZM9.50684 32.2744L9.43673 32.2044L9.43672 32.2044L9.50684 32.2744ZM9.19141 33.0361H9.29046V33.0361L9.19141 33.0361ZM9.37305 33.6348L9.29068 33.6898L9.2907 33.6898L9.37305 33.6348ZM9.85645 34.0312L9.81854 34.1228L9.81857 34.1228L9.85645 34.0312ZM10.4785 34.0918L10.4978 34.1889L10.4979 34.1889L10.4785 34.0918ZM11.0293 33.7979L11.0993 33.8679L11.0993 33.8679L11.0293 33.7979ZM11.3242 33.2461L11.4214 33.2654L11.4214 33.2654L11.3242 33.2461ZM11.2627 32.624L11.3542 32.5861L11.3542 32.5861L11.2627 32.624ZM10.8662 32.1406L10.9212 32.0583L10.9212 32.0582L10.8662 32.1406ZM10.2686 31.959H10.1695V32.058L10.2685 32.058L10.2686 31.959ZM25.6895 24.1855V24.0865H25.6894L25.6895 24.1855ZM24.6309 24.624L24.5608 24.554L24.5608 24.554L24.6309 24.624ZM24.1924 25.6826L24.0933 25.6826V25.6826H24.1924ZM24.1924 32.1611H24.0933V32.4001L24.2624 32.2312L24.1924 32.1611ZM26.04 30.3154L26.11 30.3855L26.1101 30.3855L26.04 30.3154ZM26.5215 30.1162L26.5215 30.0172H26.5215V30.1162ZM27.002 30.3154L27.072 30.2454L27.072 30.2454L27.002 30.3154ZM29.3613 32.6748L29.2913 32.7448L29.3613 32.8149L29.4314 32.7449L29.3613 32.6748ZM32.7793 29.2578L32.7093 29.1878L32.7093 29.1878L32.7793 29.2578ZM33.2607 29.0586L33.2608 28.9595H33.2607V29.0586ZM33.7412 29.2578L33.8113 29.1878L33.8112 29.1877L33.7412 29.2578ZM36.4834 32L36.4134 32.07L36.5825 32.2391V32H36.4834ZM36.4834 25.6826H36.5825V25.6826L36.4834 25.6826ZM36.0449 24.624L36.115 24.554L36.115 24.554L36.0449 24.624ZM34.9863 24.1855L34.9863 24.0865H34.9863V24.1855ZM35.0068 4.16016L35.0069 4.0611H35.0068V4.16016ZM37.0273 4.99805L37.0974 4.928L37.0974 4.928L37.0273 4.99805ZM37.8652 7.01855H37.9643V7.01844L37.8652 7.01855ZM37.8652 16.3359L37.9643 16.336V16.3359H37.8652ZM37.0273 18.3564L37.0974 18.4265L37.0974 18.4265L37.0273 18.3564ZM35.0068 19.1943V19.2934H35.007L35.0068 19.1943ZM25.6895 19.1943L25.6894 19.2934H25.6895V19.1943ZM23.6689 18.3564L23.5989 18.4265L23.5989 18.4265L23.6689 18.3564ZM22.8311 16.3359H22.732V16.336L22.8311 16.3359ZM22.8311 7.01855L22.732 7.01847V7.01855H22.8311ZM23.6689 4.99805L23.5989 4.92799L23.5989 4.928L23.6689 4.99805ZM25.6895 4.16016V4.0611L25.6894 4.0611L25.6895 4.16016ZM16.0303 4.15918L16.0304 4.06012H16.0303V4.15918ZM18.0508 4.99805L18.1208 4.92802L18.1208 4.928L18.0508 4.99805ZM18.8887 7.01855H18.9877V7.01846L18.8887 7.01855ZM18.8887 16.002L18.9877 16.0021V16.002H18.8887ZM18.0508 18.0225L18.1208 18.0925L18.1208 18.0925L18.0508 18.0225ZM16.0303 18.8604V18.9594H16.0304L16.0303 18.8604ZM7.0459 18.8604L7.0458 18.9594H7.0459V18.8604ZM5.02539 18.0225L4.95534 18.0925L4.95535 18.0925L5.02539 18.0225ZM4.1875 16.002H4.08844L4.08844 16.002L4.1875 16.002ZM4.1875 7.01855L4.08844 7.01848V7.01855H4.1875ZM5.02539 4.99805L4.95534 4.92801L4.95534 4.92801L5.02539 4.99805ZM7.0459 4.15918V4.06012L7.0458 4.06012L7.0459 4.15918ZM25.6895 5.52148V5.42243V5.52148ZM24.6309 5.95996L24.5608 5.88991L24.5608 5.88992L24.6309 5.95996ZM24.1914 7.01855H24.2905H24.1914ZM24.1914 16.3359H24.2905H24.1914ZM24.6309 17.3955L24.5608 17.4656L24.5608 17.4656L24.6309 17.3955ZM25.6895 17.834V17.7349V17.834ZM35.0068 17.834V17.933H35.0068L35.0068 17.834ZM36.0654 17.3955L36.1355 17.4656L36.1355 17.4656L36.0654 17.3955ZM36.5039 16.3359H36.603H36.5039ZM36.0654 5.95996L36.1355 5.88993L36.1355 5.88992L36.0654 5.95996ZM35.0068 5.52148L35.0068 5.42243H35.0068V5.52148ZM7.0459 5.52051V5.42145H7.04589L7.0459 5.52051ZM5.9873 5.95898L5.91728 5.88893L5.91726 5.88894L5.9873 5.95898ZM5.54883 7.01855L5.64788 7.01857V7.01855H5.54883ZM5.54785 16.002L5.44879 16.0019V16.002H5.54785ZM5.66211 16.5752L5.57059 16.6131L5.57059 16.6131L5.66211 16.5752ZM5.9873 17.0605L5.91726 17.1306L5.91727 17.1306L5.9873 17.0605ZM6.47266 17.3857L6.43475 17.4773L6.43476 17.4773L6.47266 17.3857ZM16.0303 17.499V17.5981H16.0303L16.0303 17.499ZM17.0889 17.0605L17.1589 17.1306L17.1589 17.1306L17.0889 17.0605ZM17.5273 16.002H17.4283H17.5273ZM17.5273 7.01855H17.4283H17.5273ZM17.0889 5.95898L17.1589 5.88894L17.1589 5.88893L17.0889 5.95898ZM16.0303 5.52051L16.0303 5.42145H16.0303V5.52051ZM15.4023 14.7627L15.4724 14.6927L15.4724 14.6926L15.4023 14.7627ZM15.6016 15.2441H15.7006V15.2441L15.6016 15.2441ZM15.4023 15.7256L15.4724 15.7956L15.4724 15.7956L15.4023 15.7256ZM8.15137 15.9248L8.1513 16.0239H8.15137V15.9248ZM7.6709 15.7256L7.60085 15.7956L7.60087 15.7956L7.6709 15.7256ZM7.47168 15.2441L7.37262 15.2441V15.2441H7.47168ZM7.6709 14.7627L7.60091 14.6926L7.60085 14.6927L7.6709 14.7627ZM8.15137 14.5635V14.4644H8.1513L8.15137 14.5635ZM28.8613 8.41797L28.8613 8.31891H28.8613L28.8613 8.41797ZM29.2012 8.50879L29.2507 8.423L29.2506 8.42297L29.2012 8.50879ZM33.668 11.0869L33.6185 11.1727L33.6185 11.1728L33.668 11.0869ZM33.917 11.3369L34.0028 11.2874L34.0027 11.2873L33.917 11.3369ZM34.0088 11.6768H34.1078V11.6767L34.0088 11.6768ZM33.917 12.0176L34.0027 12.0672L34.0028 12.0671L33.917 12.0176ZM33.668 12.2666L33.6185 12.1808L33.6184 12.1808L33.668 12.2666ZM29.2012 14.8457L29.2507 14.9315L29.2507 14.9315L29.2012 14.8457ZM28.8613 14.9365L28.8613 15.0356H28.8613L28.8613 14.9365ZM28.5205 14.8457L28.4709 14.9315L28.471 14.9315L28.5205 14.8457ZM28.2715 14.5957L28.1856 14.6451L28.1857 14.6452L28.2715 14.5957ZM28.1807 14.2559L28.2797 14.2559V14.2559H28.1807ZM28.1807 9.09863H28.2797V9.09863L28.1807 9.09863ZM28.2715 8.75879L28.1857 8.7093L28.1857 8.70933L28.2715 8.75879ZM28.5205 8.50977L28.471 8.424L28.4709 8.42402L28.5205 8.50977ZM29.542 13.0771H29.4429V13.2488L29.5915 13.1629L29.542 13.0771ZM31.9658 11.6768L32.0154 11.7625L32.1639 11.6767L32.0153 11.591L31.9658 11.6768ZM29.542 10.2773L29.5915 10.1916L29.4429 10.1058V10.2773H29.542ZM15.4023 11.2881L15.4724 11.218L15.4724 11.218L15.4023 11.2881ZM15.6016 11.7695H15.7006V11.7695L15.6016 11.7695ZM15.4023 12.251L15.4724 12.321L15.4724 12.321L15.4023 12.251ZM14.9209 12.4502V12.5493V12.4502ZM8.15137 12.4502L8.1513 12.5493H8.15137V12.4502ZM7.6709 12.251L7.60085 12.321L7.60088 12.321L7.6709 12.251ZM7.47168 11.7695L7.37262 11.7695V11.7695H7.47168ZM7.6709 11.2881L7.60091 11.218L7.60085 11.218L7.6709 11.2881ZM8.15137 11.0889V10.9898H8.1513L8.15137 11.0889ZM15.4023 7.81445L15.4724 7.74444L15.4724 7.74441L15.4023 7.81445ZM15.6016 8.29492H15.7006V8.29488L15.6016 8.29492ZM15.4023 8.77637L15.4724 8.84641L15.4724 8.8464L15.4023 8.77637ZM8.15137 8.97559L8.1513 9.07464H8.15137V8.97559ZM7.6709 8.77637L7.60085 8.84641L7.60087 8.84643L7.6709 8.77637ZM7.47168 8.29492L7.37262 8.29488V8.29492H7.47168ZM7.6709 7.81445L7.60085 7.74441L7.60084 7.74442L7.6709 7.81445ZM8.15137 7.61426V7.5152L8.1513 7.5152L8.15137 7.61426ZM16.0303 23.1377L16.0302 23.2368C16.7617 23.2376 17.4634 23.5292 17.9807 24.0466L18.0508 23.9766L18.1208 23.9065C17.5664 23.3521 16.8145 23.0395 16.0304 23.0386L16.0303 23.1377ZM18.0508 23.9766L17.9807 24.0466C18.498 24.5639 18.7888 25.2656 18.7896 25.9972L18.8887 25.9971L18.9877 25.997C18.9869 25.2129 18.6752 24.461 18.1208 23.9065L18.0508 23.9766ZM18.8887 25.9971H18.7896V34.9805H18.8887H18.9877V25.9971H18.8887ZM18.8887 34.9805L18.7896 34.9804C18.7889 35.7121 18.4981 36.4136 17.9807 36.9309L18.0508 37.001L18.1208 37.071C18.6753 36.5165 18.987 35.7647 18.9877 34.9806L18.8887 34.9805ZM18.0508 37.001L17.9807 36.9309C17.4634 37.4483 16.7619 37.7391 16.0302 37.7398L16.0303 37.8389L16.0304 37.9379C16.8145 37.9372 17.5663 37.6255 18.1208 37.071L18.0508 37.001ZM16.0303 37.8389V37.7398H7.04688V37.8389V37.9379H16.0303V37.8389ZM7.04688 37.8389L7.04697 37.7398C6.31535 37.7391 5.61376 37.4482 5.09641 36.9309L5.02637 37.001L4.95633 37.071C5.51079 37.6254 6.2627 37.9372 7.04678 37.9379L7.04688 37.8389ZM5.02637 37.001L5.09641 36.9309C4.57899 36.4135 4.28725 35.712 4.28656 34.9804L4.1875 34.9805L4.08844 34.9806C4.08919 35.7648 4.4019 36.5166 4.95632 37.071L5.02637 37.001ZM4.1875 34.9805H4.28656V25.9971H4.1875H4.08844V34.9805H4.1875ZM4.1875 25.9971L4.28656 25.9972C4.28725 25.2656 4.57824 24.5639 5.09544 24.0466L5.02539 23.9766L4.95534 23.9065C4.40104 24.461 4.08919 25.213 4.08844 25.997L4.1875 25.9971ZM5.02539 23.9766L5.09543 24.0466C5.61282 23.5292 6.31445 23.2375 7.046 23.2368L7.0459 23.1377L7.0458 23.0386C6.26164 23.0394 5.50974 23.3521 4.95535 23.9065L5.02539 23.9766ZM7.0459 23.1377V23.2368H16.0303V23.1377V23.0386H7.0459V23.1377ZM34.9863 22.8242L34.9862 22.9233C35.7178 22.9241 36.4194 23.2158 36.9368 23.7331L37.0068 23.6631L37.0769 23.593C36.5225 23.0387 35.7705 22.7261 34.9864 22.7252L34.9863 22.8242ZM37.0068 23.6631L36.9368 23.7331C37.4538 24.2503 37.7447 24.9514 37.7457 25.6827L37.8447 25.6826L37.9438 25.6825C37.9428 24.8987 37.631 24.1473 37.0769 23.5931L37.0068 23.6631ZM37.8447 25.6826H37.7457V33.5576H37.8447H37.9438V25.6826H37.8447ZM37.8447 33.5576L37.7469 33.573C37.7562 33.6322 37.7561 33.693 37.7469 33.7523L37.8447 33.7676L37.9426 33.7829C37.955 33.7034 37.9551 33.6219 37.9426 33.5423L37.8447 33.5576ZM37.8447 33.7676H37.7457V34.9805H37.8447H37.9438V33.7676H37.8447ZM37.8447 34.9805L37.7457 34.9804C37.7449 35.712 37.4541 36.4136 36.9368 36.9309L37.0068 37.001L37.0769 37.071C37.6313 36.5166 37.9429 35.7646 37.9438 34.9806L37.8447 34.9805ZM37.0068 37.001L36.9368 36.9309C36.4195 37.4482 35.7178 37.739 34.9862 37.7398L34.9863 37.8389L34.9864 37.9379C35.7705 37.937 36.5224 37.6255 37.0769 37.071L37.0068 37.001ZM34.9863 37.8389V37.7398H25.6895V37.8389V37.9379H34.9863V37.8389ZM25.6895 37.8389L25.6895 37.7398C24.9579 37.7391 24.2563 37.4482 23.739 36.9309L23.6689 37.001L23.5989 37.071C24.1534 37.6255 24.9053 37.9372 25.6894 37.9379L25.6895 37.8389ZM23.6689 37.001L23.739 36.9309C23.2216 36.4136 22.9308 35.7121 22.9301 34.9804L22.8311 34.9805L22.732 34.9806C22.7327 35.7647 23.0444 36.5165 23.5989 37.071L23.6689 37.001ZM22.8311 34.9805H22.9301V25.6826H22.8311H22.732V34.9805H22.8311ZM22.8311 25.6826L22.9301 25.6827C22.9309 24.9513 23.2218 24.2504 23.739 23.7331L23.6689 23.6631L23.5989 23.593C23.0446 24.1474 22.7329 24.8986 22.732 25.6825L22.8311 25.6826ZM23.6689 23.6631L23.739 23.7331C24.2564 23.2157 24.958 22.924 25.6895 22.9233L25.6895 22.8242L25.6894 22.7252C24.9051 22.7259 24.1533 23.0386 23.5989 23.593L23.6689 23.6631ZM25.6895 22.8242V22.9233H34.9863V22.8242V22.7252H25.6895V22.8242ZM7.04688 24.499V24.4C6.62356 24.4 6.21669 24.568 5.91726 24.8675L5.9873 24.9375L6.05735 25.0075C6.31952 24.7454 6.67596 24.5981 7.04688 24.5981V24.499ZM5.9873 24.9375L5.91726 24.8675C5.61784 25.1669 5.44977 25.5738 5.44977 25.9971H5.54883H5.64788C5.64788 25.6262 5.79518 25.2697 6.05735 25.0075L5.9873 24.9375ZM5.54883 25.9971H5.44977V34.9805H5.54883H5.64788V25.9971H5.54883ZM5.54883 34.9805H5.44977C5.44977 35.1902 5.49137 35.398 5.57157 35.5916L5.66309 35.5537L5.7546 35.5158C5.6843 35.3461 5.64788 35.164 5.64788 34.9805H5.54883ZM5.66309 35.5537L5.57158 35.5916C5.65176 35.7851 5.76913 35.9609 5.91725 36.1091L5.9873 36.0391L6.05736 35.969C5.92765 35.8393 5.82485 35.6853 5.7546 35.5158L5.66309 35.5537ZM5.9873 36.0391L5.91726 36.1091C6.06527 36.2571 6.24092 36.3755 6.43473 36.4558L6.47266 36.3643L6.51058 36.2727C6.34123 36.2026 6.18731 36.099 6.05735 35.969L5.9873 36.0391ZM6.47266 36.3643L6.43475 36.4558C6.62862 36.5361 6.83656 36.5766 7.04589 36.5766L7.0459 36.4775L7.04591 36.3785C6.86207 36.3785 6.67993 36.3429 6.51056 36.2727L6.47266 36.3643ZM7.0459 36.4775V36.5766H16.0303V36.4775V36.3785H7.0459V36.4775ZM16.0303 36.4775V36.5766C16.4537 36.5766 16.8595 36.4085 17.1589 36.1091L17.0889 36.0391L17.0188 35.969C16.7566 36.2312 16.4011 36.3785 16.0303 36.3785V36.4775ZM17.0889 36.0391L17.1589 36.1091C17.4583 35.8097 17.6264 35.4039 17.6264 34.9805H17.5273H17.4283C17.4283 35.3513 17.281 35.7068 17.0188 35.969L17.0889 36.0391ZM17.5273 34.9805H17.6264V25.9971H17.5273H17.4283V34.9805H17.5273ZM17.5273 25.9971H17.6264C17.6264 25.5738 17.4583 25.1669 17.1589 24.8675L17.0889 24.9375L17.0188 25.0075C17.281 25.2697 17.4283 25.6262 17.4283 25.9971H17.5273ZM17.0889 24.9375L17.1589 24.8674C16.8596 24.5683 16.4535 24.4 16.0303 24.4V24.499V24.5981C16.4009 24.5981 16.7566 24.7455 17.0188 25.0076L17.0889 24.9375ZM16.0303 24.499V24.4H7.04688V24.499V24.5981H16.0303V24.499ZM29.8418 34.1182L29.7718 34.0481C29.6627 34.1571 29.5153 34.2183 29.3613 34.2183L29.3613 34.3174L29.3614 34.4164C29.568 34.4164 29.7657 34.3342 29.9118 34.1882L29.8418 34.1182ZM29.3613 34.3174V34.2183C29.2071 34.2183 29.0589 34.1571 28.9499 34.0481L28.8799 34.1182L28.8099 34.1882C28.9561 34.3344 29.1547 34.4164 29.3613 34.4164V34.3174ZM28.8799 34.1182L28.9499 34.0481L26.5906 31.6887L26.5205 31.7588L26.4505 31.8288L28.8098 34.1882L28.8799 34.1182ZM26.5205 31.7588L26.4505 31.6887L24.1214 34.0178L24.1914 34.0879L24.2614 34.1579L26.5906 31.8288L26.5205 31.7588ZM24.1914 34.0879H24.0924V34.9805H24.1914H24.2905V34.0879H24.1914ZM24.1914 34.9805L24.0924 34.9805C24.0925 35.4039 24.2616 35.8099 24.5608 36.1091L24.6309 36.0391L24.7009 35.969C24.4387 35.7068 24.2906 35.351 24.2905 34.9804L24.1914 34.9805ZM24.6309 36.0391L24.5608 36.1091C24.8602 36.4083 25.2662 36.5766 25.6895 36.5766V36.4775V36.3785C25.3188 36.3785 24.9631 36.2311 24.7009 35.969L24.6309 36.0391ZM25.6895 36.4775V36.5766H34.9863V36.4775V36.3785H25.6895V36.4775ZM34.9863 36.4775L34.9865 36.5766C35.4097 36.5758 35.8154 36.4066 36.1141 36.1071L36.0439 36.0371L35.9738 35.9672C35.7121 36.2296 35.3567 36.3778 34.9861 36.3785L34.9863 36.4775ZM36.0439 36.0371L36.1141 36.107C36.4128 35.8074 36.5799 35.4014 36.5795 34.9784L36.4805 34.9785L36.3814 34.9786C36.3817 35.3492 36.2353 35.7048 35.9738 35.9672L36.0439 36.0371ZM36.4805 34.9785H36.5795V33.9229H36.4805H36.3814V34.9785H36.4805ZM36.4805 33.9229L36.5505 33.8528L33.3298 30.6311L33.2598 30.7012L33.1897 30.7712L36.4104 33.9929L36.4805 33.9229ZM33.2598 30.7012L33.1897 30.6311L29.7718 34.0481L29.8418 34.1182L29.9118 34.1882L33.3298 30.7712L33.2598 30.7012ZM12.1582 25.5176L12.1389 25.6147C12.2515 25.6371 12.3554 25.6928 12.4368 25.7742L12.5068 25.7041L12.5768 25.634C12.4679 25.5252 12.3288 25.4505 12.1775 25.4204L12.1582 25.5176ZM12.5068 25.7041L12.4368 25.7741L14.9778 28.3152L15.0479 28.2451L15.1179 28.1751L12.5769 25.6341L12.5068 25.7041ZM15.0479 28.2451L14.979 28.3163C15.0344 28.3699 15.0788 28.4342 15.1092 28.5049L15.2002 28.4658L15.2912 28.4267C15.2504 28.3317 15.1909 28.2457 15.1167 28.1739L15.0479 28.2451ZM15.2002 28.4658L15.1092 28.5049C15.1394 28.5755 15.1552 28.6519 15.1558 28.7294L15.2549 28.7285L15.3539 28.7277C15.353 28.6246 15.3322 28.5221 15.2912 28.4268L15.2002 28.4658ZM15.2549 28.7285L15.1558 28.7294C15.1565 28.8065 15.1417 28.8832 15.1124 28.9547L15.2041 28.9922L15.2958 29.0297C15.3349 28.934 15.3548 28.8312 15.3539 28.7277L15.2549 28.7285ZM15.2041 28.9922L15.1124 28.9546C15.0831 29.0262 15.04 29.0914 14.9856 29.1458L15.0557 29.2158L15.1257 29.2859C15.199 29.2126 15.2567 29.1252 15.2958 29.0297L15.2041 28.9922ZM15.0557 29.2158L14.9857 29.1457C14.9312 29.2001 14.866 29.2433 14.7945 29.2726L14.832 29.3643L14.8695 29.4559C14.9651 29.4168 15.0524 29.359 15.1257 29.2859L15.0557 29.2158ZM14.832 29.3643L14.7946 29.2726C14.723 29.3018 14.6462 29.3167 14.5692 29.316L14.5684 29.415L14.5675 29.5141C14.671 29.515 14.7739 29.495 14.8695 29.456L14.832 29.3643ZM14.5684 29.415L14.5693 29.316C14.4924 29.3153 14.4159 29.2989 14.3448 29.2684L14.3057 29.3594L14.2666 29.4504C14.3613 29.4911 14.4638 29.5131 14.5674 29.5141L14.5684 29.415ZM14.3057 29.3594L14.3448 29.2684C14.2739 29.2379 14.2097 29.1936 14.1562 29.1382L14.085 29.207L14.0137 29.2758C14.0856 29.3503 14.1716 29.4095 14.2665 29.4504L14.3057 29.3594ZM14.085 29.207L14.155 29.137L12.7761 27.7581L12.7061 27.8281L12.636 27.8982L14.0149 29.2771L14.085 29.207ZM12.7061 27.8281H12.607V33.0371H12.7061H12.8051V27.8281H12.7061ZM12.7061 33.0371L12.607 33.0368C12.6069 33.0766 12.6031 33.1162 12.5954 33.1539L12.6924 33.1738L12.7894 33.1938C12.8001 33.1419 12.805 33.0891 12.8051 33.0374L12.7061 33.0371ZM12.6924 33.1738L12.5935 33.1684C12.5607 33.7634 12.3016 34.3237 11.8693 34.7338L11.9375 34.8057L12.0057 34.8775C12.4746 34.4325 12.7557 33.8247 12.7913 33.1793L12.6924 33.1738ZM11.9375 34.8057L11.8693 34.7338C11.4371 35.1439 10.8642 35.373 10.2683 35.3746L10.2686 35.4736L10.2688 35.5727C10.9152 35.5709 11.5367 35.3225 12.0057 34.8775L11.9375 34.8057ZM10.2686 35.4736H10.3676V35.4727H10.2686H10.1695V35.4736H10.2686ZM10.2686 35.4727L10.2672 35.3736C9.95757 35.3778 9.64976 35.3197 9.36216 35.204L9.3252 35.2959L9.28823 35.3878C9.59986 35.5132 9.9337 35.5763 10.2699 35.5717L10.2686 35.4727ZM9.3252 35.2959L9.36217 35.204C9.07489 35.0884 8.81339 34.9173 8.59298 34.7L8.52344 34.7705L8.45389 34.841C8.69307 35.0769 8.97674 35.2625 9.28822 35.3878L9.3252 35.2959ZM8.52344 34.7705L8.593 34.7C8.37257 34.4825 8.19725 34.223 8.07771 33.9373L7.98633 33.9756L7.89495 34.0138C8.02461 34.3237 8.21475 34.6051 8.45387 34.841L8.52344 34.7705ZM7.98633 33.9756L8.07771 33.9374C7.95813 33.6514 7.89593 33.3439 7.89593 33.0342H7.79688H7.69782C7.69782 33.3704 7.76532 33.7039 7.89494 34.0138L7.98633 33.9756ZM7.79688 33.0342L7.89593 33.0342C7.89598 32.7246 7.95817 32.4178 8.07771 32.132L7.98633 32.0938L7.89494 32.0555C7.76538 32.3653 7.69787 32.6981 7.69782 33.0342L7.79688 33.0342ZM7.98633 32.0938L8.07771 32.132C8.19725 31.8463 8.37251 31.5869 8.593 31.3693L8.52344 31.2988L8.45387 31.2283C8.2147 31.4642 8.02461 31.7456 7.89495 32.0555L7.98633 32.0938ZM8.52344 31.2988L8.59299 31.3694C8.81357 31.1518 9.07495 30.9799 9.36216 30.8644L9.3252 30.7725L9.28823 30.6806C8.97648 30.806 8.693 30.9925 8.45389 31.2283L8.52344 31.2988ZM9.3252 30.7725L9.36216 30.8644C9.64953 30.7488 9.95742 30.6915 10.2672 30.6957L10.2686 30.5967L10.2699 30.4976C9.93395 30.493 9.60001 30.5552 9.28823 30.6806L9.3252 30.7725ZM10.2686 30.5967L10.2679 30.6957C10.6267 30.6979 10.98 30.7839 11.2998 30.9467L11.3447 30.8584L11.3897 30.7701C11.0425 30.5934 10.6588 30.5 10.2692 30.4976L10.2686 30.5967ZM11.3447 30.8584H11.4438V26.1855H11.3447H11.2457V30.8584H11.3447ZM11.3447 26.1855L11.4438 26.1856C11.4438 26.0709 11.4783 25.9585 11.5423 25.8626L11.46 25.8076L11.3776 25.7526C11.2922 25.8805 11.2457 26.0311 11.2457 26.1855L11.3447 26.1855ZM11.46 25.8076L11.5423 25.8626C11.6063 25.7669 11.6968 25.6921 11.8026 25.6481L11.7646 25.5566L11.7267 25.4652C11.5842 25.5243 11.463 25.6248 11.3776 25.7526L11.46 25.8076ZM11.7646 25.5566L11.8026 25.6481C11.9089 25.6041 12.0262 25.5924 12.1389 25.6147L12.1582 25.5176L12.1775 25.4204C12.0262 25.3904 11.869 25.4061 11.7267 25.4651L11.7646 25.5566ZM10.2686 31.958L10.2684 31.859C9.95642 31.8593 9.65719 31.9836 9.43673 32.2044L9.50684 32.2744L9.57694 32.3444C9.76028 32.1608 10.0092 32.0574 10.2687 32.0571L10.2686 31.958ZM9.50684 32.2744L9.43672 32.2044C9.21646 32.4252 9.09222 32.7241 9.09235 33.0362L9.19141 33.0361L9.29046 33.0361C9.29035 32.7768 9.39359 32.5281 9.57695 32.3444L9.50684 32.2744ZM9.19141 33.0361H9.09235C9.09235 33.2687 9.1615 33.4965 9.29068 33.6898L9.37305 33.6348L9.45541 33.5797C9.34798 33.4189 9.29046 33.2295 9.29046 33.0361H9.19141ZM9.37305 33.6348L9.2907 33.6898C9.4199 33.883 9.60384 34.0338 9.81854 34.1228L9.85645 34.0312L9.89435 33.9397C9.71579 33.8658 9.56279 33.7403 9.45539 33.5797L9.37305 33.6348ZM9.85645 34.0312L9.81857 34.1228C10.0335 34.2117 10.2701 34.2343 10.4978 34.1889L10.4785 34.0918L10.4592 33.9946C10.2694 34.0324 10.0727 34.0135 9.89433 33.9397L9.85645 34.0312ZM10.4785 34.0918L10.4979 34.1889C10.7256 34.1436 10.9349 34.0322 11.0993 33.8679L11.0293 33.7979L10.9593 33.7278C10.8227 33.8642 10.6487 33.9569 10.4592 33.9946L10.4785 34.0918ZM11.0293 33.7979L11.0993 33.8679C11.2638 33.7035 11.376 33.4935 11.4214 33.2654L11.3242 33.2461L11.2271 33.2268C11.1893 33.4164 11.096 33.5911 10.9593 33.7278L11.0293 33.7979ZM11.3242 33.2461L11.4214 33.2654C11.4667 33.0373 11.4432 32.8009 11.3542 32.5861L11.2627 32.624L11.1712 32.6619C11.2452 32.8406 11.2648 33.0372 11.2271 33.2268L11.3242 33.2461ZM11.2627 32.624L11.3542 32.5861C11.2652 32.3714 11.1146 32.1875 10.9212 32.0583L10.8662 32.1406L10.8112 32.223C10.9718 32.3303 11.0972 32.4833 11.1712 32.6619L11.2627 32.624ZM10.8662 32.1406L10.9212 32.0582C10.7281 31.9293 10.501 31.86 10.2686 31.8599L10.2686 31.959L10.2685 32.058C10.4616 32.0581 10.6505 32.1157 10.8112 32.223L10.8662 32.1406ZM10.2686 31.959H10.3676V31.958H10.2686H10.1695V31.959H10.2686ZM25.6895 24.1855L25.6894 24.0865C25.2663 24.0866 24.8601 24.2548 24.5608 24.554L24.6309 24.624L24.7009 24.6941C24.963 24.4321 25.3188 24.2847 25.6895 24.2846L25.6895 24.1855ZM24.6309 24.624L24.5608 24.554C24.2616 24.8532 24.0935 25.2595 24.0933 25.6826L24.1924 25.6826L24.2914 25.6826C24.2916 25.312 24.4389 24.9562 24.7009 24.6941L24.6309 24.624ZM24.1924 25.6826H24.0933V32.1611H24.1924H24.2914V25.6826H24.1924ZM24.1924 32.1611L24.2624 32.2312L26.11 30.3855L26.04 30.3154L25.97 30.2453L24.1224 32.0911L24.1924 32.1611ZM26.04 30.3154L26.1101 30.3855C26.2191 30.2765 26.3672 30.2153 26.5215 30.2153V30.1162V30.0172C26.3148 30.0172 26.1163 30.0992 25.97 30.2454L26.04 30.3154ZM26.5215 30.1162L26.5214 30.2153C26.6754 30.2153 26.8229 30.2766 26.9319 30.3855L27.002 30.3154L27.072 30.2454C26.9259 30.0994 26.7281 30.0173 26.5215 30.0172L26.5215 30.1162ZM27.002 30.3154L26.9319 30.3855L29.2913 32.7448L29.3613 32.6748L29.4314 32.6048L27.072 30.2454L27.002 30.3154ZM29.3613 32.6748L29.4314 32.7449L32.8493 29.3279L32.7793 29.2578L32.7093 29.1878L29.2913 32.6048L29.3613 32.6748ZM32.7793 29.2578L32.8493 29.3279C32.9583 29.2189 33.1065 29.1576 33.2607 29.1576V29.0586V28.9595C33.0541 28.9595 32.8555 29.0416 32.7093 29.1878L32.7793 29.2578ZM33.2607 29.0586L33.2607 29.1576C33.4147 29.1577 33.5622 29.2189 33.6712 29.3279L33.7412 29.2578L33.8112 29.1877C33.6652 29.0418 33.4674 28.9596 33.2608 28.9595L33.2607 29.0586ZM33.7412 29.2578L33.6712 29.3279L36.4134 32.07L36.4834 32L36.5534 31.93L33.8113 29.1878L33.7412 29.2578ZM36.4834 32H36.5825V25.6826H36.4834H36.3843V32H36.4834ZM36.4834 25.6826L36.5825 25.6826C36.5823 25.2594 36.4142 24.8533 36.115 24.554L36.0449 24.624L35.9749 24.6941C36.237 24.9562 36.3842 25.3119 36.3843 25.6826L36.4834 25.6826ZM36.0449 24.624L36.115 24.554C35.8156 24.2547 35.4096 24.0865 34.9863 24.0865L34.9863 24.1855L34.9863 24.2846C35.357 24.2846 35.7127 24.432 35.9749 24.6941L36.0449 24.624ZM34.9863 24.1855V24.0865H25.6895V24.1855V24.2846H34.9863V24.1855ZM35.0068 4.16016L35.0067 4.25921C35.7383 4.25996 36.44 4.55088 36.9573 5.0681L37.0273 4.99805L37.0974 4.928C36.543 4.37367 35.7909 4.0619 35.0069 4.0611L35.0068 4.16016ZM37.0273 4.99805L36.9573 5.06809C37.4746 5.58533 37.7654 6.28709 37.7662 7.01866L37.8652 7.01855L37.9643 7.01844C37.9634 6.23447 37.6518 5.48239 37.0974 4.928L37.0273 4.99805ZM37.8652 7.01855H37.7662V16.3359H37.8652H37.9643V7.01855H37.8652ZM37.8652 16.3359L37.7662 16.3358C37.7654 17.0674 37.4745 17.7691 36.9573 18.2864L37.0273 18.3564L37.0974 18.4265C37.6517 17.8721 37.9634 17.12 37.9643 16.336L37.8652 16.3359ZM37.0273 18.3564L36.9573 18.2864C36.44 18.8037 35.7383 19.0944 35.0067 19.0953L35.0068 19.1943L35.007 19.2934C35.7909 19.2925 36.543 18.9809 37.0974 18.4265L37.0273 18.3564ZM35.0068 19.1943V19.0953H25.6895V19.1943V19.2934H35.0068V19.1943ZM25.6895 19.1943L25.6895 19.0953C24.9579 19.0946 24.2563 18.8038 23.739 18.2864L23.6689 18.3564L23.5989 18.4265C24.1534 18.981 24.9052 19.2926 25.6894 19.2934L25.6895 19.1943ZM23.6689 18.3564L23.739 18.2864C23.2217 17.769 22.9308 17.0675 22.9301 16.3358L22.8311 16.3359L22.732 16.336C22.7327 17.1201 23.0444 17.872 23.5989 18.4265L23.6689 18.3564ZM22.8311 16.3359H22.9301V7.01855H22.8311H22.732V16.3359H22.8311ZM22.8311 7.01855L22.9301 7.01864C22.9308 6.28704 23.2217 5.5854 23.739 5.06809L23.6689 4.99805L23.5989 4.928C23.0445 5.48244 22.7327 6.2344 22.732 7.01847L22.8311 7.01855ZM23.6689 4.99805L23.739 5.0681C24.2564 4.55087 24.958 4.25979 25.6895 4.25921L25.6895 4.16016L25.6894 4.0611C24.9053 4.06172 24.1534 4.37368 23.5989 4.92799L23.6689 4.99805ZM25.6895 4.16016V4.25921H35.0068V4.16016V4.0611H25.6895V4.16016ZM16.0303 4.15918L16.0302 4.25824C16.7617 4.25901 17.4634 4.55075 17.9807 5.06809L18.0508 4.99805L18.1208 4.928C17.5665 4.37365 16.8145 4.06095 16.0304 4.06012L16.0303 4.15918ZM18.0508 4.99805L17.9807 5.06808C18.4979 5.58542 18.7889 6.28715 18.7896 7.01865L18.8887 7.01855L18.9877 7.01846C18.987 6.23448 18.6751 5.48245 18.1208 4.92802L18.0508 4.99805ZM18.8887 7.01855H18.7896V16.002H18.8887H18.9877V7.01855H18.8887ZM18.8887 16.002L18.7896 16.0018C18.7888 16.7334 18.4979 17.4351 17.9807 17.9524L18.0508 18.0225L18.1208 18.0925C18.6752 17.5381 18.9869 16.786 18.9877 16.0021L18.8887 16.002ZM18.0508 18.0225L17.9807 17.9524C17.4635 18.4697 16.7617 18.7604 16.0302 18.7613L16.0303 18.8604L16.0304 18.9594C16.8143 18.9585 17.5664 18.6469 18.1208 18.0925L18.0508 18.0225ZM16.0303 18.8604V18.7613H7.0459V18.8604V18.9594H16.0303V18.8604ZM7.0459 18.8604L7.046 18.7613C6.31436 18.7606 5.61275 18.4697 5.09543 17.9524L5.02539 18.0225L4.95535 18.0925C5.5098 18.647 6.26173 18.9586 7.0458 18.9594L7.0459 18.8604ZM5.02539 18.0225L5.09544 17.9524C4.57816 17.4351 4.28725 16.7335 4.28656 16.0019L4.1875 16.002L4.08844 16.002C4.08919 16.7861 4.40095 17.538 4.95534 18.0925L5.02539 18.0225ZM4.1875 16.002H4.28656V7.01855H4.1875H4.08844V16.002H4.1875ZM4.1875 7.01855L4.28656 7.01863C4.28714 6.28708 4.57821 5.58546 5.09544 5.06808L5.02539 4.99805L4.95534 4.92801C4.40102 5.48248 4.08906 6.23441 4.08844 7.01848L4.1875 7.01855ZM5.02539 4.99805L5.09544 5.06808C5.61278 4.55066 6.31444 4.25893 7.04599 4.25824L7.0459 4.15918L7.0458 4.06012C6.26163 4.06087 5.5097 4.37356 4.95534 4.92801L5.02539 4.99805ZM7.0459 4.15918V4.25824H16.0303V4.15918V4.06012H7.0459V4.15918ZM25.6895 5.52148V5.42243C25.2661 5.42243 24.8602 5.59057 24.5608 5.88991L24.6309 5.95996L24.7009 6.03001C24.9631 5.76781 25.3186 5.62054 25.6895 5.62054V5.52148ZM24.6309 5.95996L24.5608 5.88992C24.2616 6.18918 24.0924 6.59501 24.0924 7.01855H24.1914H24.2905C24.2905 6.64788 24.4386 6.29235 24.7009 6.03L24.6309 5.95996ZM24.1914 7.01855H24.0924V16.3359H24.1914H24.2905V7.01855H24.1914ZM24.1914 16.3359H24.0924C24.0924 16.7594 24.2615 17.1662 24.5608 17.4656L24.6309 17.3955L24.7009 17.3255C24.4386 17.0632 24.2905 16.7067 24.2905 16.3359H24.1914ZM24.6309 17.3955L24.5608 17.4656C24.8601 17.7646 25.2662 17.933 25.6895 17.933V17.834V17.7349C25.3188 17.7349 24.9631 17.5874 24.7009 17.3254L24.6309 17.3955ZM25.6895 17.834V17.933H35.0068V17.834V17.7349H25.6895V17.834ZM35.0068 17.834L35.0068 17.933C35.4301 17.933 35.8362 17.7647 36.1355 17.4656L36.0654 17.3955L35.9954 17.3254C35.7332 17.5875 35.3775 17.7349 35.0068 17.7349L35.0068 17.834ZM36.0654 17.3955L36.1355 17.4656C36.4349 17.1661 36.603 16.7593 36.603 16.3359H36.5039H36.4049C36.4049 16.7069 36.2576 17.0633 35.9954 17.3255L36.0654 17.3955ZM36.5039 16.3359H36.603V7.01855H36.5039H36.4049V16.3359H36.5039ZM36.5039 7.01855H36.603C36.603 6.59524 36.4347 6.18928 36.1355 5.88993L36.0654 5.95996L35.9954 6.02999C36.2575 6.29221 36.4049 6.64781 36.4049 7.01855H36.5039ZM36.0654 5.95996L36.1355 5.88992C35.8361 5.59058 35.4301 5.42249 35.0068 5.42243L35.0068 5.52148L35.0068 5.62054C35.3776 5.62059 35.7332 5.76784 35.9954 6.03L36.0654 5.95996ZM35.0068 5.52148V5.42243H25.6895V5.52148V5.62054H35.0068V5.52148ZM7.0459 5.52051L7.04589 5.42145C6.62266 5.42149 6.21659 5.58974 5.91728 5.88893L5.9873 5.95898L6.05733 6.02904C6.31951 5.76697 6.67522 5.6196 7.04591 5.61956L7.0459 5.52051ZM5.9873 5.95898L5.91726 5.88894C5.61783 6.18837 5.44977 6.59524 5.44977 7.01855H5.54883H5.64788C5.64788 6.64764 5.79517 6.2912 6.05735 6.02903L5.9873 5.95898ZM5.54883 7.01855L5.44977 7.01854L5.44879 16.0019L5.54785 16.002L5.64691 16.002L5.64788 7.01857L5.54883 7.01855ZM5.54785 16.002H5.44879C5.44879 16.2117 5.4904 16.4195 5.57059 16.6131L5.66211 16.5752L5.75363 16.5373C5.68333 16.3676 5.64691 16.1855 5.64691 16.002H5.54785ZM5.66211 16.5752L5.57059 16.6131C5.65092 16.807 5.76922 16.9825 5.91726 17.1306L5.9873 17.0605L6.05735 16.9905C5.92734 16.8605 5.8238 16.7067 5.75362 16.5373L5.66211 16.5752ZM5.9873 17.0605L5.91727 17.1306C6.0653 17.2786 6.24087 17.3969 6.43475 17.4773L6.47266 17.3857L6.51056 17.2942C6.3412 17.2241 6.18735 17.1205 6.05734 16.9905L5.9873 17.0605ZM6.47266 17.3857L6.43476 17.4773C6.62861 17.5575 6.83656 17.5981 7.0459 17.5981V17.499V17.4C6.86209 17.4 6.67993 17.3644 6.51055 17.2942L6.47266 17.3857ZM7.0459 17.499V17.5981H16.0303V17.499V17.4H7.0459V17.499ZM16.0303 17.499L16.0303 17.5981C16.4535 17.598 16.8596 17.4299 17.1589 17.1306L17.0889 17.0605L17.0188 16.9905C16.7567 17.2526 16.401 17.3999 16.0303 17.4L16.0303 17.499ZM17.0889 17.0605L17.1589 17.1306C17.4581 16.8312 17.6264 16.4253 17.6264 16.002H17.5273H17.4283C17.4283 16.3727 17.2809 16.7283 17.0188 16.9905L17.0889 17.0605ZM17.5273 16.002H17.6264V7.01855H17.5273H17.4283V16.002H17.5273ZM17.5273 7.01855H17.6264C17.6264 6.59524 17.4583 6.18837 17.1589 5.88894L17.0889 5.95898L17.0188 6.02903C17.281 6.2912 17.4283 6.64764 17.4283 7.01855H17.5273ZM17.0889 5.95898L17.1589 5.88893C16.8596 5.58971 16.4535 5.42154 16.0303 5.42145L16.0303 5.52051L16.0303 5.61956C16.4009 5.61964 16.7567 5.76696 17.0188 6.02904L17.0889 5.95898ZM16.0303 5.52051V5.42145H7.0459V5.52051V5.61956H16.0303V5.52051ZM14.9209 14.5635V14.6625C15.0751 14.6625 15.2233 14.7239 15.3323 14.8328L15.4023 14.7627L15.4724 14.6926C15.3261 14.5465 15.1275 14.4644 14.9209 14.4644V14.5635ZM15.4023 14.7627L15.3323 14.8327C15.4412 14.9417 15.5024 15.0899 15.5025 15.2442L15.6016 15.2441L15.7006 15.2441C15.7005 15.0376 15.6186 14.8389 15.4724 14.6927L15.4023 14.7627ZM15.6016 15.2441H15.5025C15.5025 15.3984 15.4413 15.5465 15.3323 15.6555L15.4023 15.7256L15.4724 15.7956C15.6186 15.6494 15.7006 15.4508 15.7006 15.2441H15.6016ZM15.4023 15.7256L15.3323 15.6555C15.2233 15.7645 15.0752 15.8257 14.9209 15.8257V15.9248V16.0239C15.1276 16.0239 15.3261 15.9419 15.4724 15.7956L15.4023 15.7256ZM14.9209 15.9248V15.8257H8.15137V15.9248V16.0239H14.9209V15.9248ZM8.15137 15.9248L8.15144 15.8257C7.99742 15.8256 7.8499 15.7644 7.74092 15.6555L7.6709 15.7256L7.60087 15.7956C7.74693 15.9416 7.94475 16.0237 8.1513 16.0239L8.15137 15.9248ZM7.6709 15.7256L7.74094 15.6555C7.63193 15.5465 7.57074 15.3985 7.57074 15.2441H7.47168H7.37262C7.37262 15.4508 7.45459 15.6494 7.60085 15.7956L7.6709 15.7256ZM7.47168 15.2441L7.57074 15.2442C7.5708 15.0899 7.63202 14.9417 7.74094 14.8327L7.6709 14.7627L7.60085 14.6927C7.45463 14.8389 7.37271 15.0376 7.37262 15.2441L7.47168 15.2441ZM7.6709 14.7627L7.74089 14.8328C7.84988 14.724 7.99759 14.6626 8.15144 14.6625L8.15137 14.5635L8.1513 14.4644C7.94484 14.4646 7.74689 14.5468 7.60091 14.6926L7.6709 14.7627ZM8.15137 14.5635V14.6625H14.9209V14.5635V14.4644H8.15137V14.5635ZM28.8613 8.41797L28.8613 8.51703C28.9633 8.51705 29.0635 8.54376 29.1517 8.59461L29.2012 8.50879L29.2506 8.42297C29.1322 8.3547 28.9979 8.31894 28.8613 8.31891L28.8613 8.41797ZM29.2012 8.50879L29.1517 8.59458L33.6185 11.1727L33.668 11.0869L33.7175 11.0011L29.2507 8.423L29.2012 8.50879ZM33.668 11.0869L33.6185 11.1728C33.7066 11.2235 33.7798 11.2975 33.8312 11.3865L33.917 11.3369L34.0027 11.2873C33.9345 11.1693 33.8366 11.0697 33.7174 11.0011L33.668 11.0869ZM33.917 11.3369L33.8312 11.3865C33.8824 11.4751 33.9097 11.5751 33.9097 11.6768L34.0088 11.6768L34.1078 11.6767C34.1078 11.5396 34.071 11.4055 34.0028 11.2874L33.917 11.3369ZM34.0088 11.6768H33.9097C33.9097 11.7787 33.8825 11.8794 33.8312 11.968L33.917 12.0176L34.0028 12.0671C34.0712 11.9487 34.1078 11.814 34.1078 11.6768H34.0088ZM33.917 12.0176L33.8312 11.968C33.7801 12.0564 33.7068 12.1299 33.6185 12.1808L33.668 12.2666L33.7175 12.3524C33.8361 12.284 33.9343 12.1855 34.0027 12.0672L33.917 12.0176ZM33.668 12.2666L33.6184 12.1808L29.1516 14.7599L29.2012 14.8457L29.2507 14.9315L33.7175 12.3524L33.668 12.2666ZM29.2012 14.8457L29.1517 14.7599C29.0635 14.8108 28.9634 14.8374 28.8613 14.8375L28.8613 14.9365L28.8613 15.0356C28.9979 15.0356 29.1322 14.9998 29.2507 14.9315L29.2012 14.8457ZM28.8613 14.9365L28.8613 14.8375C28.7589 14.8375 28.6582 14.8109 28.5701 14.7599L28.5205 14.8457L28.471 14.9315C28.5898 15.0001 28.7247 15.0356 28.8613 15.0356L28.8613 14.9365ZM28.5205 14.8457L28.5701 14.7599C28.4819 14.709 28.4085 14.6349 28.3573 14.5462L28.2715 14.5957L28.1857 14.6452C28.2539 14.7635 28.3522 14.8628 28.4709 14.9315L28.5205 14.8457ZM28.2715 14.5957L28.3573 14.5463C28.3064 14.4579 28.2797 14.3578 28.2797 14.2559L28.1807 14.2559L28.0816 14.2558C28.0815 14.3925 28.1175 14.5267 28.1856 14.6451L28.2715 14.5957ZM28.1807 14.2559H28.2797V9.09863H28.1807H28.0816V14.2559H28.1807ZM28.1807 9.09863L28.2797 9.09863C28.2797 8.99665 28.3064 8.89652 28.3573 8.80825L28.2715 8.75879L28.1857 8.70933C28.1174 8.82777 28.0816 8.96204 28.0816 9.09863L28.1807 9.09863ZM28.2715 8.75879L28.3573 8.80828C28.4082 8.72003 28.4817 8.64666 28.5701 8.59551L28.5205 8.50977L28.4709 8.42402C28.3527 8.49243 28.2541 8.59072 28.1857 8.7093L28.2715 8.75879ZM28.5205 8.50977L28.5701 8.59554C28.6587 8.54434 28.7594 8.51704 28.8613 8.51703L28.8613 8.41797L28.8613 8.31891C28.7242 8.31893 28.5893 8.35562 28.471 8.424L28.5205 8.50977ZM29.542 13.0771L29.5915 13.1629L32.0154 11.7625L31.9658 11.6768L31.9163 11.591L29.4924 12.9914L29.542 13.0771ZM31.9658 11.6768L32.0153 11.591L29.5915 10.1916L29.542 10.2773L29.4925 10.3631L31.9163 11.7625L31.9658 11.6768ZM29.542 10.2773H29.4429V13.0771H29.542H29.641V10.2773H29.542ZM14.9209 11.0889V11.1879C15.0751 11.1879 15.2233 11.2492 15.3323 11.3582L15.4023 11.2881L15.4724 11.218C15.3261 11.0719 15.1275 10.9898 14.9209 10.9898V11.0889ZM15.4023 11.2881L15.3323 11.3581C15.4412 11.4671 15.5025 11.6153 15.5025 11.7696L15.6016 11.7695L15.7006 11.7695C15.7006 11.5629 15.6186 11.3643 15.4724 11.218L15.4023 11.2881ZM15.6016 11.7695H15.5025C15.5025 11.9238 15.4413 12.0719 15.3323 12.1809L15.4023 12.251L15.4724 12.321C15.6186 12.1748 15.7006 11.9762 15.7006 11.7695H15.6016ZM15.4023 12.251L15.3323 12.1809C15.2233 12.2899 15.0752 12.3511 14.9209 12.3511V12.4502V12.5493C15.1276 12.5493 15.3261 12.4673 15.4724 12.321L15.4023 12.251ZM14.9209 12.4502V12.3511H8.15137V12.4502V12.5493H14.9209V12.4502ZM8.15137 12.4502L8.15144 12.3511C7.99744 12.351 7.8499 12.2898 7.74092 12.1809L7.6709 12.251L7.60088 12.321C7.74692 12.467 7.94476 12.5491 8.1513 12.5493L8.15137 12.4502ZM7.6709 12.251L7.74094 12.1809C7.63193 12.0719 7.57074 11.9238 7.57074 11.7695H7.47168H7.37262C7.37262 11.9762 7.45459 12.1748 7.60085 12.321L7.6709 12.251ZM7.47168 11.7695L7.57074 11.7696C7.57079 11.6153 7.632 11.4671 7.74094 11.3581L7.6709 11.2881L7.60085 11.218C7.45462 11.3643 7.37269 11.5629 7.37262 11.7695L7.47168 11.7695ZM7.6709 11.2881L7.74089 11.3582C7.84988 11.2494 7.99757 11.188 8.15144 11.1879L8.15137 11.0889L8.1513 10.9898C7.94483 10.99 7.7469 11.0722 7.60091 11.218L7.6709 11.2881ZM8.15137 11.0889V11.1879H14.9209V11.0889V10.9898H8.15137V11.0889ZM14.9209 7.61426V7.71331C15.0748 7.71331 15.223 7.77523 15.3323 7.8845L15.4023 7.81445L15.4724 7.74441C15.3264 7.5984 15.128 7.5152 14.9209 7.5152V7.61426ZM15.4023 7.81445L15.3323 7.88446C15.4412 7.9935 15.5024 8.14101 15.5025 8.29497L15.6016 8.29492L15.7006 8.29488C15.7005 8.08828 15.6183 7.89049 15.4724 7.74444L15.4023 7.81445ZM15.6016 8.29492H15.5025C15.5025 8.44919 15.4413 8.59732 15.3323 8.70633L15.4023 8.77637L15.4724 8.8464C15.6186 8.70015 15.7006 8.5016 15.7006 8.29492H15.6016ZM15.4023 8.77637L15.3323 8.70632C15.2233 8.81533 15.0752 8.87653 14.9209 8.87653V8.97559V9.07464C15.1276 9.07464 15.3261 8.99268 15.4724 8.84641L15.4023 8.77637ZM14.9209 8.97559V8.87653H8.15137V8.97559V9.07464H14.9209V8.97559ZM8.15137 8.97559L8.15144 8.87653C7.99741 8.87642 7.8499 8.81524 7.74093 8.70631L7.6709 8.77637L7.60087 8.84643C7.74693 8.99243 7.94474 9.0745 8.1513 9.07464L8.15137 8.97559ZM7.6709 8.77637L7.74094 8.70632C7.63193 8.59732 7.57074 8.44923 7.57074 8.29492H7.47168H7.37262C7.37262 8.50162 7.45459 8.70014 7.60085 8.84641L7.6709 8.77637ZM7.47168 8.29492L7.57074 8.29497C7.57081 8.1409 7.63197 7.99351 7.74095 7.88449L7.6709 7.81445L7.60084 7.74442C7.4548 7.89051 7.37272 8.08823 7.37262 8.29488L7.47168 8.29492ZM7.6709 7.81445L7.74094 7.8845C7.85017 7.77527 7.99771 7.71342 8.15144 7.71331L8.15137 7.61426L8.1513 7.5152C7.94435 7.51534 7.74668 7.59858 7.60085 7.74441L7.6709 7.81445ZM8.15137 7.61426V7.71331H14.9209V7.61426V7.5152H8.15137V7.61426Z" fill="#1D1D1D" mask="url(#path-1-inside-1_1_193)"/>
<defs>
<linearGradient id="paint0_linear_1_193" x1="21.0264" y1="4.15918" x2="21.0264" y2="37.8389" gradientUnits="userSpaceOnUse">
<stop stop-color="#79DCF3"/>
<stop offset="1" stop-color="#0053F1"/>
</linearGradient>
</defs>
</svg>
