<svg width="45" height="46" viewBox="0 0 45 46" fill="none" xmlns="http://www.w3.org/2000/svg">
<g filter="url(#filter0_d_1_470)">
<rect x="0.474609" width="40.7788" height="40.7788" rx="20.3894" fill="white"/>
</g>
<g style="mix-blend-mode:multiply">
<path d="M14.3174 18.0739C14.3174 17.3193 14.4358 16.5942 14.6553 15.9111C11.22 16.3279 8.55664 19.2527 8.55664 22.8014C8.55664 26.6362 11.6639 29.7434 15.4987 29.7434C18.5147 29.7434 21.0795 27.8199 22.0388 25.1343C21.8316 25.1516 21.622 25.1639 21.4075 25.1639C17.4913 25.1639 14.3174 21.9901 14.3174 18.0739Z" fill="#013EE6"/>
</g>
<path d="M33.3475 22.5483C33.2316 19.4805 31.0812 16.8911 28.2131 16.1143C28.3956 16.7456 28.4967 17.409 28.4967 18.0995C28.4967 21.3424 26.3192 24.0748 23.3475 24.9182C22.5386 27.7296 20.1243 29.769 17.0195 29.769H26.4055C30.3315 29.769 33.498 26.5113 33.3475 22.5508V22.5483Z" fill="#2E5CE6"/>
<g style="mix-blend-mode:multiply">
<path d="M21.5607 17.8434C22.8998 16.5339 24.7691 15.7596 26.8159 15.8755C27.3018 15.9026 27.7728 15.9815 28.2265 16.1048C27.3683 13.1554 24.6458 11 21.4201 11C18.1945 11 15.5829 13.0691 14.668 15.9273C14.9442 15.8927 15.2253 15.8755 15.5114 15.8755C19.3461 15.8755 22.4534 18.9827 22.4534 22.8175C22.4534 23.6363 22.3104 24.4229 22.049 25.1504C22.5003 25.111 22.9368 25.0296 23.3585 24.9088C23.5484 24.2479 23.6495 23.5425 23.6495 22.8126C23.6495 20.8668 22.848 19.106 21.5582 17.8459L21.5607 17.8434Z" fill="#3DE7FF"/>
</g>
<path d="M15.5074 15.8662C15.2214 15.8662 14.9402 15.8859 14.664 15.918C14.447 16.6011 14.3262 17.3261 14.3262 18.0808C14.3262 21.9969 17.5 25.1708 21.4162 25.1708C21.6283 25.1708 21.8379 25.1584 22.0475 25.1412C22.3089 24.4112 22.4519 23.627 22.4519 22.8083C22.4519 18.9735 19.3447 15.8662 15.5099 15.8662H15.5074Z" fill="#003FFF"/>
<path d="M28.5061 18.0966C28.5061 17.4061 28.405 16.7428 28.2225 16.1114C27.7687 15.9881 27.2977 15.9092 26.8119 15.8821C24.765 15.7686 22.8982 16.5405 21.5566 17.85C22.8464 19.1127 23.6479 20.871 23.6479 22.8167C23.6479 23.5467 23.5468 24.252 23.3569 24.9129C26.3285 24.0695 28.5061 21.3371 28.5061 18.0942V18.0966Z" fill="#0054FF"/>
<defs>
<filter id="filter0_d_1_470" x="0.000437737" y="0" width="44.5727" height="45.0459" filterUnits="userSpaceOnUse" color-interpolation-filters="sRGB">
<feFlood flood-opacity="0" result="BackgroundImageFix"/>
<feColorMatrix in="SourceAlpha" type="matrix" values="0 0 0 0 0 0 0 0 0 0 0 0 0 0 0 0 0 0 127 0" result="hardAlpha"/>
<feOffset dx="1.42251" dy="2.37086"/>
<feGaussianBlur stdDeviation="0.948343"/>
<feComposite in2="hardAlpha" operator="out"/>
<feColorMatrix type="matrix" values="0 0 0 0 0.575646 0 0 0 0 0.575646 0 0 0 0 0.575646 0 0 0 0.6 0"/>
<feBlend mode="normal" in2="BackgroundImageFix" result="effect1_dropShadow_1_470"/>
<feBlend mode="normal" in="SourceGraphic" in2="effect1_dropShadow_1_470" result="shape"/>
</filter>
</defs>
</svg>
