<svg width="42" height="42" viewBox="0 0 42 42" fill="none" xmlns="http://www.w3.org/2000/svg">
<path d="M19.0469 3.44824H20.6816C20.8386 3.44824 20.9896 3.51111 21.1006 3.62207C21.2114 3.73294 21.2733 3.8833 21.2734 4.04004V7.16406H30.666C32.4121 7.16505 34.0866 7.85915 35.3213 9.09375C36.4788 10.2513 37.1616 11.7956 37.2432 13.4229L37.251 13.75V18.2344C37.2483 19.563 37.0806 20.8865 36.752 22.1738C36.7317 22.2511 36.6957 22.3237 36.6465 22.3867C36.5971 22.45 36.5353 22.5025 36.4648 22.541C36.3941 22.5795 36.3156 22.6032 36.2354 22.6104C36.1552 22.6175 36.0744 22.6083 35.998 22.583L35.9961 22.582L34.4355 22.0732C34.2937 22.027 34.1746 21.9285 34.1025 21.7979C34.0305 21.6671 34.0111 21.5138 34.0479 21.3691V21.3662C34.3009 20.3417 34.4302 19.2906 34.4326 18.2354V13.749C34.4325 12.7502 34.0354 11.7922 33.3291 11.0859C32.6227 10.3797 31.6649 9.98243 30.666 9.98242H9.06348C8.06446 9.98242 7.10582 10.3795 6.39941 11.0859C5.69315 11.7922 5.29601 12.7502 5.2959 13.749V17.9404C5.2959 21.6849 6.78394 25.2761 9.43164 27.9238C12.0794 30.5716 15.6705 32.0596 19.415 32.0596H20.6816C20.8386 32.0596 20.9896 32.1215 21.1006 32.2324C21.2116 32.3434 21.2734 32.4944 21.2734 32.6514V34.2861C21.2734 34.4429 21.2114 34.5932 21.1006 34.7041C20.9896 34.8151 20.8386 34.8779 20.6816 34.8779H19.415C14.9231 34.8779 10.6148 33.0933 7.43848 29.917C4.26224 26.7407 2.47754 22.4323 2.47754 17.9404V13.75C2.47846 12.0037 3.17342 10.3285 4.4082 9.09375C5.64295 7.85922 7.31742 7.16498 9.06348 7.16406H18.4551V4.04004C18.4552 3.88323 18.518 3.73295 18.6289 3.62207C18.7398 3.5112 18.8901 3.4483 19.0469 3.44824Z" fill="url(#paint0_linear_1_207)" stroke="#1D1D1D" stroke-width="0.897371"/>
<path d="M13.9199 16.7139C15.3757 16.7139 16.5557 17.8938 16.5557 19.3496C16.5556 20.8054 15.3757 21.9853 13.9199 21.9854C12.4641 21.9854 11.2842 20.8054 11.2842 19.3496C11.2842 17.8938 12.4641 16.7139 13.9199 16.7139Z" fill="url(#paint1_linear_1_207)" stroke="#1D1D1D" stroke-width="0.673028"/>
<path d="M25.8086 16.7139C27.2644 16.7139 28.4443 17.8938 28.4443 19.3496C28.4443 20.8054 27.2643 21.9853 25.8086 21.9854C24.3528 21.9854 23.1729 20.8054 23.1729 19.3496C23.1729 17.8938 24.3528 16.7139 25.8086 16.7139Z" fill="url(#paint2_linear_1_207)" stroke="#1D1D1D" stroke-width="0.673028"/>
<path d="M33.4727 27.042C33.7325 27.6991 34.1244 28.2963 34.624 28.7959C35.1237 29.2956 35.7208 29.6874 36.3779 29.9473H36.3789L39.4834 31.1699L36.3789 32.3945H36.3779C35.7208 32.6544 35.1237 33.0462 34.624 33.5459C34.1867 33.9832 33.8321 34.4952 33.5762 35.0566L33.4727 35.2998L32.248 38.3848L31.0244 35.3008H31.0254C30.7661 34.643 30.374 34.0449 29.874 33.5449C29.3742 33.0452 28.7767 32.6538 28.1191 32.3945H28.1201L25.0342 31.1699L28.1182 29.9463L28.1191 29.9473C28.7769 29.688 29.3741 29.2958 29.874 28.7959C30.374 28.296 30.7661 27.6988 31.0254 27.041L31.0244 27.04L32.248 23.9561L33.4727 27.042Z" fill="url(#paint3_linear_1_207)" stroke="#1D1D1D" stroke-width="0.964067"/>
<defs>
<linearGradient id="paint0_linear_1_207" x1="19.8645" y1="3" x2="19.8645" y2="35.3264" gradientUnits="userSpaceOnUse">
<stop stop-color="#79DCF3"/>
<stop offset="1" stop-color="#0053F1"/>
</linearGradient>
<linearGradient id="paint1_linear_1_207" x1="13.9198" y1="16.377" x2="13.9198" y2="22.322" gradientUnits="userSpaceOnUse">
<stop stop-color="#79DCF3"/>
<stop offset="1" stop-color="#0053F1"/>
</linearGradient>
<linearGradient id="paint2_linear_1_207" x1="25.8085" y1="16.377" x2="25.8085" y2="22.322" gradientUnits="userSpaceOnUse">
<stop stop-color="#79DCF3"/>
<stop offset="1" stop-color="#0053F1"/>
</linearGradient>
<linearGradient id="paint3_linear_1_207" x1="32.26" y1="23.2852" x2="32.26" y2="39.0563" gradientUnits="userSpaceOnUse">
<stop stop-color="#79DCF3"/>
<stop offset="1" stop-color="#0053F1"/>
</linearGradient>
</defs>
</svg>
