<svg width="42" height="42" viewBox="0 0 42 42" fill="none" xmlns="http://www.w3.org/2000/svg">
<g clip-path="url(#clip0_1_187)">
<path d="M12.4688 26.9062H8.53125C8.3572 26.9062 8.19028 26.9754 8.06721 27.0985C7.94414 27.2215 7.875 27.3885 7.875 27.5625V29.7432L5.00653 30.8903C4.88465 30.939 4.78017 31.0232 4.70659 31.1318C4.63301 31.2405 4.5937 31.3688 4.59375 31.5V35.6291C2.43928 36.3759 1.96875 37.3531 1.96875 38.0625C1.96875 40.217 6.26062 41.3438 10.5 41.3438C14.7394 41.3438 19.0312 40.217 19.0312 38.0625C19.0312 37.3531 18.5607 36.3759 16.4062 35.6291V33.2456L26.7573 26.8984C28.5046 27.4409 30.3269 27.7028 32.1562 27.6741C36.0695 27.6741 40.0312 26.6241 40.0312 24.6094C40.0312 23.9433 39.5975 23.0304 37.6248 22.3355V18.5948C37.6247 18.4637 37.5853 18.3356 37.5118 18.2271C37.4382 18.1185 37.3338 18.0345 37.212 17.9858L34.6172 16.9463V14.9842C34.6172 14.8101 34.548 14.6432 34.425 14.5201C34.3019 14.397 34.135 14.3279 33.9609 14.3279H30.3516C30.1775 14.3279 30.0106 14.397 29.8875 14.5201C29.7645 14.6432 29.6953 14.8101 29.6953 14.9842V16.9463L27.1031 17.9845C26.9813 18.0332 26.8769 18.1172 26.8034 18.2257C26.7298 18.3343 26.6904 18.4624 26.6903 18.5935V19.0043L15.7073 16.357C15.7347 16.2275 15.749 16.0956 15.75 15.9633C15.75 14.7755 14.6902 13.7675 12.9609 13.2523V11.9438L28.2594 8.59688C29.3609 9.47741 30.7482 9.9213 32.1562 9.84375C34.7747 9.84375 36.75 8.673 36.75 7.12031C36.75 6.14972 35.9435 5.29463 34.6172 4.81294V1.3125C34.6172 1.13845 34.548 0.971532 34.425 0.848461C34.3019 0.72539 34.135 0.65625 33.9609 0.65625H30.3516C30.1775 0.65625 30.0106 0.72539 29.8875 0.848461C29.7645 0.971532 29.6953 1.13845 29.6953 1.3125V4.81294C28.369 5.29463 27.5625 6.14972 27.5625 7.12031C27.5626 7.21459 27.5701 7.30872 27.5848 7.40184L12.9609 10.603V8.53125C12.9609 8.3572 12.8918 8.19028 12.7687 8.06721C12.6457 7.94414 12.4787 7.875 12.3047 7.875H8.69531C8.52126 7.875 8.35434 7.94414 8.23127 8.06721C8.1082 8.19028 8.03906 8.3572 8.03906 8.53125V13.2563C6.30984 13.7708 5.25 14.7788 5.25 15.9666C5.25 17.7135 7.50684 19.0312 10.5 19.0312C12.4878 19.0312 14.1455 18.4485 15.0386 17.5462L26.6877 20.3549V22.3355C24.715 23.0304 24.2812 23.9433 24.2812 24.6094C24.3067 24.9467 24.4175 25.272 24.6033 25.5548C24.789 25.8375 25.0436 26.0684 25.3431 26.2257L16.4062 31.7061V31.5C16.4063 31.3688 16.367 31.2405 16.2934 31.1318C16.2198 31.0232 16.1153 30.939 15.9935 30.8903L13.125 29.7432V27.5625C13.125 27.3885 13.0559 27.2215 12.9328 27.0985C12.8097 26.9754 12.6428 26.9062 12.4688 26.9062ZM31.0078 1.96875H33.3047V6.2475H31.0078V1.96875ZM29.6953 6.24094V6.90375C29.6953 7.0778 29.7645 7.24472 29.8875 7.36779C30.0106 7.49086 30.1775 7.56 30.3516 7.56H33.9609C34.135 7.56 34.3019 7.49086 34.425 7.36779C34.548 7.24472 34.6172 7.0778 34.6172 6.90375V6.24094C35.154 6.5205 35.4375 6.85847 35.4375 7.12031C35.4375 7.69584 34.1591 8.53125 32.1562 8.53125C30.1534 8.53125 28.875 7.69584 28.875 7.12031C28.875 6.85847 29.1585 6.5205 29.6953 6.24094ZM9.35156 9.1875H11.6484V15.3123H9.35156V9.1875ZM10.5 17.7188C8.24644 17.7188 6.5625 16.7934 6.5625 15.9666C6.5625 15.4855 7.15312 14.9822 8.03906 14.639V15.9685C8.03906 16.1426 8.1082 16.3095 8.23127 16.4326C8.35434 16.5556 8.52126 16.6248 8.69531 16.6248H12.3047C12.4787 16.6248 12.6457 16.5556 12.7687 16.4326C12.8918 16.3095 12.9609 16.1426 12.9609 15.9685V14.639C13.8469 14.9789 14.4375 15.4875 14.4375 15.9666C14.4375 16.7934 12.7536 17.7188 10.5 17.7188ZM34.6172 18.3599L36.3123 19.0378V23.9531H34.6172V18.3599ZM31.0078 15.6404H33.3047V23.9531H31.0078V15.6404ZM28.0002 19.0378L29.6953 18.3599V23.9531H28.0002V19.0378ZM26.6877 23.7464V24.6094C26.6877 24.7834 26.7569 24.9503 26.8799 25.0734C27.003 25.1965 27.1699 25.2656 27.344 25.2656H36.9685C37.1426 25.2656 37.3095 25.1965 37.4326 25.0734C37.5556 24.9503 37.6248 24.7834 37.6248 24.6094V23.7464C38.4051 24.0883 38.7188 24.4342 38.7188 24.6094C38.7188 25.2269 36.225 26.3616 32.1562 26.3616C28.0875 26.3616 25.5938 25.2269 25.5938 24.6094C25.5938 24.4342 25.9074 24.0883 26.6877 23.7464ZM9.1875 28.2188H11.8125V37.4062H9.1875V28.2188ZM5.90625 31.9443L7.875 31.1568V37.4062H5.90625V31.9443ZM16.4062 38.0625V37.0368C17.4129 37.4561 17.7188 37.8715 17.7188 38.0625C17.7188 38.7306 15.1705 40.0312 10.5 40.0312C5.82947 40.0312 3.28125 38.7306 3.28125 38.0625C3.28125 37.8715 3.58706 37.4561 4.59375 37.0368V38.0625C4.59375 38.2365 4.66289 38.4035 4.78596 38.5265C4.90903 38.6496 5.07595 38.7188 5.25 38.7188H15.75C15.924 38.7188 16.091 38.6496 16.214 38.5265C16.3371 38.4035 16.4062 38.2365 16.4062 38.0625ZM15.0938 31.9443V37.4062H13.125V31.1568L15.0938 31.9443Z" fill="url(#paint0_linear_1_187)" stroke="#131313" stroke-width="0.328125"/>
</g>
<defs>
<linearGradient id="paint0_linear_1_187" x1="21" y1="0.65625" x2="21" y2="41.3438" gradientUnits="userSpaceOnUse">
<stop stop-color="#79DCF3"/>
<stop offset="1" stop-color="#0053F1"/>
</linearGradient>
<clipPath id="clip0_1_187">
<rect width="42" height="42" fill="white"/>
</clipPath>
</defs>
</svg>
