<svg width="42" height="42" viewBox="0 0 42 42" fill="none" xmlns="http://www.w3.org/2000/svg">
<g clip-path="url(#clip0_1_214)">
<path d="M21 0.672852C21.3533 0.672852 21.6396 0.959241 21.6396 1.3125V3.87891C30.5797 4.20914 37.7909 11.4203 38.1211 20.3604H40.6875C41.0408 20.3604 41.3271 20.6467 41.3271 21C41.3271 21.3533 41.0408 21.6396 40.6875 21.6396H38.1211C37.7909 30.5805 30.5797 37.7907 21.6396 38.1201V40.6875C21.6396 41.0408 21.3533 41.3271 21 41.3271C20.6467 41.3271 20.3604 41.0408 20.3604 40.6875V38.1201C11.4203 37.7899 4.20914 30.5797 3.87891 21.6396H1.3125C0.959241 21.6396 0.672852 21.3533 0.672852 21C0.672852 20.6467 0.959241 20.3604 1.3125 20.3604H3.87891C4.20914 11.4203 11.4203 4.20914 20.3604 3.87891V1.3125C20.3604 0.959241 20.6467 0.672852 21 0.672852ZM21.6396 6.14648C21.6396 6.49974 21.3533 6.78613 21 6.78613C20.6467 6.78613 20.3604 6.49974 20.3604 6.14648V5.1582C12.1262 5.48652 5.48751 12.1262 5.15918 20.3604H6.14648C6.49974 20.3604 6.78613 20.6467 6.78613 21C6.78613 21.3533 6.49974 21.6396 6.14648 21.6396H5.15918C5.48751 29.8738 12.1262 36.5125 20.3604 36.8408V35.8535C20.3604 35.5003 20.6467 35.2139 21 35.2139C21.3533 35.2139 21.6396 35.5003 21.6396 35.8535V36.8408C29.8738 36.5125 36.5125 29.8738 36.8408 21.6396H35.8535C35.5003 21.6396 35.2139 21.3533 35.2139 21C35.2139 20.6467 35.5003 20.3604 35.8535 20.3604H36.8408C36.5125 12.1262 29.8738 5.48652 21.6396 5.1582V6.14648Z" fill="url(#paint0_linear_1_214)" stroke="url(#paint1_linear_1_214)" stroke-width="0.459375"/>
<path d="M20.7637 19.9346C21.9271 19.9523 23.05 20.3897 23.9258 21.165H23.9268C23.9965 21.2271 24.0642 21.291 24.1299 21.3564C24.9152 20.5052 26.0194 20 27.1875 19.9824H27.2021C28.2125 19.9976 29.1886 20.3773 29.9492 21.0508C30.6559 21.6765 31.1345 22.5159 31.3135 23.4316L31.3457 23.6152V23.6162C31.4256 24.1647 31.1989 24.6823 30.7412 24.9951C29.7022 25.7047 28.1786 26.0215 27.1973 26.0215C26.661 26.0215 25.7792 25.9093 24.9141 25.6094C24.8962 25.6228 24.8787 25.6373 24.8594 25.6504L24.8604 25.6514C23.6599 26.471 21.8947 26.8379 20.7578 26.8379C19.6208 26.8378 17.8556 26.471 16.6553 25.6514V25.6504C16.6359 25.6373 16.6187 25.622 16.6006 25.6084C15.736 25.908 14.8554 26.0214 14.3193 26.0215C13.3374 26.0215 11.8138 25.7039 10.7754 24.9951C10.3179 24.6824 10.0903 24.165 10.1709 23.6162C10.3156 22.6288 10.8107 21.7181 11.5645 21.0508C12.3251 20.3774 13.3003 19.9976 14.3105 19.9824H14.3252C15.493 19.9999 16.5965 20.505 17.3818 21.3564C17.448 21.2906 17.517 21.2272 17.5869 21.165C18.4627 20.3897 19.5856 19.9523 20.749 19.9346H20.7637ZM20.7549 20.9229C18.8648 20.9555 17.2326 22.39 16.958 24.2617C16.9236 24.4963 17.0139 24.7019 17.21 24.8359C18.2942 25.5764 19.9266 25.8506 20.7559 25.8506C21.5852 25.8505 23.2173 25.5762 24.3008 24.8359C24.4969 24.7019 24.5871 24.4963 24.5527 24.2617C24.2781 22.3895 22.6449 20.9548 20.7549 20.9229ZM14.3174 20.9697C12.739 20.9968 11.3757 22.1957 11.1465 23.7588C11.121 23.9313 11.1859 24.0811 11.3301 24.1797C12.2409 24.8019 13.6178 25.0342 14.3174 25.0342C14.714 25.0341 15.3554 24.9575 16.0176 24.7598C15.9635 24.5561 15.9499 24.3393 15.9824 24.1182C16.0869 23.4043 16.3518 22.727 16.748 22.1309C16.1418 21.4144 15.2561 20.9862 14.3174 20.9697ZM27.1934 20.9697C26.2547 20.9864 25.3688 21.4146 24.7627 22.1309C25.1589 22.7269 25.4248 23.4035 25.5293 24.1172C25.5618 24.3379 25.5473 24.555 25.4932 24.7588C26.1557 24.9568 26.7976 25.0332 27.1943 25.0332C27.8933 25.0332 29.2708 24.8018 30.1816 24.1797C30.3253 24.0815 30.3901 23.9324 30.3652 23.7588L30.3096 23.4697C29.9651 22.0502 28.673 20.9952 27.1934 20.9697ZM14.3164 15.4883C15.5421 15.4883 16.5381 16.4852 16.5381 17.7109C16.5379 18.9365 15.542 19.9326 14.3164 19.9326C13.0915 19.9326 12.0949 18.9365 12.0947 17.7109C12.0947 16.4852 13.0907 15.4883 14.3164 15.4883ZM27.1943 15.4883C28.42 15.4883 29.417 16.4852 29.417 17.7109C29.4168 18.9365 28.4199 19.9326 27.1943 19.9326C25.9689 19.9324 24.9728 18.9364 24.9727 17.7109C24.9727 16.4854 25.9688 15.4885 27.1943 15.4883ZM20.7559 14.6719C22.1446 14.672 23.2733 15.8007 23.2734 17.1895C23.2734 18.5784 22.144 19.7078 20.7559 19.708C19.3675 19.708 18.2373 18.5785 18.2373 17.1895C18.2375 15.8006 19.367 14.6719 20.7559 14.6719ZM14.3164 16.4756C13.6358 16.4756 13.082 17.0303 13.082 17.7109C13.0822 18.3914 13.6359 18.9453 14.3164 18.9453C14.9969 18.9453 15.5506 18.3914 15.5508 17.7109C15.5508 17.0303 14.997 16.4756 14.3164 16.4756ZM27.1943 16.4756C26.5139 16.4758 25.96 17.0305 25.96 17.7109C25.9601 18.3913 26.514 18.9451 27.1943 18.9453C27.8748 18.9453 28.4295 18.3914 28.4297 17.7109C28.4297 17.0303 27.8749 16.4756 27.1943 16.4756ZM20.7559 15.6592C19.9121 15.6592 19.2248 16.3457 19.2246 17.1895C19.2246 18.0333 19.912 18.7207 20.7559 18.7207C21.5996 18.7205 22.2861 18.0332 22.2861 17.1895C22.286 16.3458 21.5995 15.6593 20.7559 15.6592Z" fill="url(#paint2_linear_1_214)" stroke="url(#paint3_linear_1_214)" stroke-width="0.354426"/>
</g>
<defs>
<linearGradient id="paint0_linear_1_214" x1="21" y1="0.902344" x2="21" y2="41.0977" gradientUnits="userSpaceOnUse">
<stop stop-color="#79DCF3"/>
<stop offset="1" stop-color="#0053F1"/>
</linearGradient>
<linearGradient id="paint1_linear_1_214" x1="21" y1="0.902344" x2="21" y2="41.0977" gradientUnits="userSpaceOnUse">
<stop stop-color="#79DCF3"/>
<stop offset="1" stop-color="#0053F1"/>
</linearGradient>
<linearGradient id="paint2_linear_1_214" x1="20.7552" y1="5.24829" x2="20.7552" y2="36.2605" gradientUnits="userSpaceOnUse">
<stop stop-color="#79DCF3"/>
<stop offset="1" stop-color="#0053F1"/>
</linearGradient>
<linearGradient id="paint3_linear_1_214" x1="20.7552" y1="5.24829" x2="20.7552" y2="36.2605" gradientUnits="userSpaceOnUse">
<stop stop-color="#79DCF3"/>
<stop offset="1" stop-color="#0053F1"/>
</linearGradient>
<clipPath id="clip0_1_214">
<rect width="42" height="42" fill="white"/>
</clipPath>
</defs>
</svg>
