<svg width="50" height="50" viewBox="0 0 50 50" fill="none" xmlns="http://www.w3.org/2000/svg">
<g filter="url(#filter0_d_1_441)">
<rect x="0.0234375" y="9.85942" width="40.7562" height="40.7562" rx="20.3781" transform="rotate(-13.9682 0.0234375 9.85942)" fill="white"/>
</g>
<g clip-path="url(#clip0_1_441)">
<path d="M28.7967 32.7748C28.7479 32.7255 28.6873 32.6895 28.6206 32.6702C28.554 32.6509 28.4835 32.649 28.4159 32.6646L24.4494 33.5803C24.3818 33.5959 24.3193 33.6286 24.2678 33.6751C24.2164 33.7217 24.1777 33.7806 24.1554 33.8464C24.1331 33.9121 24.128 33.9824 24.1406 34.0507C24.1532 34.1189 24.183 34.1828 24.2272 34.2363L25.3867 35.6397C25.4349 35.698 25.4983 35.7417 25.5699 35.766C25.6416 35.7902 25.7185 35.7941 25.7922 35.7771L28.172 35.2276C28.2457 35.2106 28.3132 35.1735 28.3669 35.1203C28.4206 35.0671 28.4585 35 28.4762 34.9265L28.9032 33.1568C28.9195 33.0893 28.9182 33.0188 28.8995 32.9519C28.8809 32.8851 28.8455 32.8241 28.7967 32.7748Z" fill="#BDBDBD"/>
<path d="M24.9672 35.132L28.6307 34.2861L28.9032 33.1568C28.9195 33.0893 28.9183 33.0188 28.8996 32.9519C28.881 32.8851 28.8456 32.8241 28.7968 32.7748C28.7479 32.7255 28.6873 32.6895 28.6207 32.6702C28.554 32.6509 28.4835 32.649 28.4159 32.6646L24.4494 33.5803C24.3818 33.5959 24.3193 33.6286 24.2678 33.6751C24.2164 33.7217 24.1777 33.7806 24.1554 33.8464C24.1331 33.9121 24.128 33.9824 24.1406 34.0507C24.1532 34.1189 24.183 34.1828 24.2272 34.2363L24.9672 35.132Z" fill="#9E9E9E"/>
<path d="M29.9088 21.0395C30.2608 22.5578 30.0159 24.1535 29.2248 25.4964C28.6836 26.4002 28.4009 27.4351 28.4074 28.4885C28.4103 28.8486 28.4525 29.2073 28.5332 29.5582L28.5671 29.705C28.591 29.8101 28.5724 29.9205 28.5152 30.012C28.4581 30.1035 28.367 30.1686 28.262 30.1932L23.5022 31.2921C23.3971 31.316 23.2867 31.2974 23.1952 31.2402C23.1037 31.1831 23.0386 31.092 23.014 30.987L22.9801 30.8402C22.8995 30.4897 22.7829 30.1484 22.6322 29.8218C22.1872 28.8792 21.4875 28.0798 20.6121 27.514C19.2783 26.6398 18.3398 25.2781 17.9973 23.7205C17.6549 22.1629 17.9359 20.5332 18.78 19.1801C19.6242 17.8271 20.9645 16.8582 22.514 16.481C24.0635 16.1037 25.6992 16.3481 27.0708 17.1617C27.784 17.5794 28.4039 18.1391 28.8921 18.8062C29.3802 19.4732 29.7263 20.2333 29.9088 21.0395Z" fill="#FFC929"/>
<path d="M24.6929 31.0174C24.5877 31.0417 24.4771 31.0232 24.3856 30.966C24.294 30.9087 24.2289 30.8175 24.2046 30.7123L23.3166 26.8659L21.2703 24.9369C21.2308 24.9004 21.199 24.8564 21.1766 24.8075C21.1543 24.7586 21.1418 24.7057 21.14 24.652C21.1381 24.5983 21.147 24.5447 21.166 24.4944C21.1849 24.4441 21.2137 24.398 21.2506 24.3589C21.2875 24.3198 21.3317 24.2883 21.3808 24.2664C21.4299 24.2445 21.4829 24.2325 21.5367 24.2312C21.5904 24.2298 21.6439 24.2391 21.694 24.2586C21.7442 24.278 21.79 24.3072 21.8287 24.3445L23.9648 26.3581C24.0232 26.4132 24.0641 26.4844 24.0822 26.5627L24.9979 30.5292C25.0222 30.6344 25.0037 30.7449 24.9465 30.8364C24.8893 30.928 24.798 30.9931 24.6929 31.0174Z" fill="white"/>
<path d="M27.0716 30.4679C26.9664 30.4922 26.8559 30.4737 26.7643 30.4165C26.6728 30.3593 26.6077 30.2681 26.5834 30.1629L25.6677 26.1964C25.6496 26.1181 25.6551 26.0362 25.6835 25.961L26.7206 23.2148C26.7595 23.1148 26.8363 23.0341 26.9343 22.9904C27.0323 22.9467 27.1436 22.9434 27.244 22.9813C27.3444 23.0192 27.4257 23.0953 27.4704 23.1929C27.515 23.2905 27.5193 23.4017 27.4823 23.5025L26.4887 26.1333L27.3767 29.9797C27.401 30.0849 27.3825 30.1954 27.3253 30.287C27.268 30.3786 27.1768 30.4436 27.0716 30.4679Z" fill="white"/>
<path d="M28.4751 29.3081L22.922 30.5901C22.703 30.6407 22.5664 30.8593 22.617 31.0783L23.3495 34.2515C23.4001 34.4706 23.6187 34.6071 23.8378 34.5566L29.3908 33.2745C29.6099 33.224 29.7465 33.0054 29.6959 32.7863L28.9633 29.6132C28.9127 29.3941 28.6941 29.2575 28.4751 29.3081Z" fill="#E0E0E0"/>
<path d="M22.709 31.4747L29.0553 30.0095L29.2385 30.8028L22.8921 32.2679L22.709 31.4747Z" fill="#BDBDBD"/>
<path d="M27.9275 32.3593C27.9515 32.4645 27.9328 32.5749 27.8757 32.6664C27.8185 32.7578 27.7275 32.823 27.6224 32.8476L23.2593 33.8549L23.0762 33.0616L27.4393 32.0543C27.5445 32.0303 27.6548 32.0489 27.7463 32.1061C27.8378 32.1633 27.9029 32.2543 27.9275 32.3593Z" fill="#BDBDBD"/>
<path d="M22.4031 15.6692C22.2979 15.6935 22.1874 15.675 22.0958 15.6178C22.0043 15.5606 21.9392 15.4693 21.9149 15.3641L21.5486 13.7775C21.5243 13.6723 21.5428 13.5618 21.6 13.4703C21.6572 13.3787 21.7485 13.3136 21.8537 13.2893C21.9589 13.265 22.0694 13.2835 22.161 13.3408C22.2525 13.398 22.3176 13.4892 22.3419 13.5944L22.7082 15.181C22.7325 15.2862 22.714 15.3967 22.6568 15.4883C22.5996 15.5798 22.5083 15.6449 22.4031 15.6692Z" fill="#FFC929"/>
<path d="M17.8368 18.9266C17.7848 18.9387 17.7308 18.9404 17.6781 18.9315C17.6253 18.9227 17.5749 18.9035 17.5295 18.8751L15.4582 17.5808C15.4119 17.5529 15.3716 17.5162 15.3396 17.4726C15.3076 17.429 15.2847 17.3794 15.2721 17.3269C15.2595 17.2743 15.2574 17.2198 15.2661 17.1664C15.2748 17.1131 15.294 17.062 15.3227 17.0162C15.3513 16.9703 15.3888 16.9306 15.433 16.8994C15.4771 16.8682 15.527 16.8461 15.5798 16.8344C15.6326 16.8227 15.6871 16.8217 15.7403 16.8313C15.7935 16.8409 15.8443 16.861 15.8896 16.8904L17.961 18.1847C18.0292 18.2274 18.0833 18.2894 18.1164 18.3628C18.1495 18.4362 18.16 18.5177 18.1467 18.5971C18.1334 18.6765 18.0969 18.7502 18.0418 18.8089C17.9866 18.8675 17.9153 18.9085 17.8368 18.9266Z" fill="#FFC929"/>
<path d="M18.8753 31.0942C18.7968 31.1123 18.7148 31.1067 18.6395 31.0782C18.5643 31.0497 18.4991 30.9995 18.4524 30.9339C18.4056 30.8684 18.3794 30.7905 18.3769 30.71C18.3745 30.6295 18.3959 30.5502 18.4385 30.4819L19.7328 28.4105C19.7608 28.3645 19.7977 28.3244 19.8412 28.2927C19.8848 28.261 19.9343 28.2383 19.9867 28.2258C20.0391 28.2133 20.0935 28.2114 20.1467 28.2201C20.1999 28.2289 20.2508 28.2481 20.2965 28.2766C20.3422 28.3052 20.3818 28.3425 20.4129 28.3865C20.4441 28.4305 20.4662 28.4802 20.478 28.5328C20.4898 28.5854 20.491 28.6398 20.4816 28.6929C20.4722 28.7459 20.4524 28.7966 20.4232 28.8419L19.1289 30.9133C19.1006 30.9586 19.0637 30.998 19.0201 31.029C18.9766 31.0601 18.9274 31.0823 18.8753 31.0942Z" fill="#FFC929"/>
<path d="M27.9342 16.5956C27.8558 16.6137 27.7737 16.6081 27.6984 16.5796C27.6232 16.551 27.558 16.5008 27.5113 16.4353C27.4645 16.3697 27.4383 16.2918 27.4358 16.2113C27.4334 16.1308 27.4548 16.0515 27.4975 15.9832L28.7918 13.9118C28.8197 13.8655 28.8565 13.8252 28.9001 13.7932C28.9436 13.7613 28.9932 13.7383 29.0457 13.7257C29.0983 13.7131 29.1528 13.7111 29.2062 13.7198C29.2595 13.7284 29.3106 13.7477 29.3565 13.7763C29.4023 13.805 29.442 13.8424 29.4732 13.8866C29.5044 13.9307 29.5265 13.9806 29.5382 14.0334C29.5499 14.0862 29.5509 14.1408 29.5413 14.194C29.5317 14.2471 29.5116 14.2979 29.4822 14.3432L28.1879 16.4146C28.1596 16.46 28.1226 16.4993 28.0791 16.5304C28.0356 16.5614 27.9863 16.5836 27.9342 16.5956Z" fill="#FFC929"/>
<path d="M32.3372 27.9861C32.2851 27.9982 32.2311 27.9999 32.1784 27.991C32.1257 27.9822 32.0752 27.963 32.0299 27.9346L29.9585 26.6403C29.9125 26.6124 29.8724 26.5755 29.8407 26.5319C29.809 26.4884 29.7863 26.4389 29.7738 26.3865C29.7613 26.3341 29.7594 26.2797 29.7682 26.2265C29.7769 26.1733 29.7961 26.1224 29.8246 26.0767C29.8532 26.031 29.8905 25.9914 29.9345 25.9603C29.9785 25.9291 30.0282 25.907 30.0808 25.8952C30.1334 25.8834 30.1878 25.8822 30.2409 25.8916C30.2939 25.901 30.3446 25.9208 30.3899 25.95L32.4613 27.2443C32.5295 27.287 32.5836 27.3489 32.6167 27.4223C32.6497 27.4957 32.6603 27.5773 32.647 27.6567C32.6337 27.7361 32.5972 27.8097 32.542 27.8684C32.4869 27.927 32.4156 27.968 32.3372 27.9861Z" fill="#FFC929"/>
<path d="M16.9125 24.4575L15.3259 24.8238C15.2207 24.8481 15.1102 24.8296 15.0186 24.7724C14.927 24.7152 14.862 24.624 14.8377 24.5188C14.8134 24.4136 14.8319 24.303 14.8891 24.2115C14.9463 24.1199 15.0375 24.0548 15.1427 24.0305L16.7293 23.6642C16.8345 23.64 16.9451 23.6585 17.0366 23.7157C17.1282 23.7729 17.1933 23.8641 17.2175 23.9693C17.2418 24.0745 17.2233 24.1851 17.1661 24.2766C17.1089 24.3682 17.0177 24.4333 16.9125 24.4575Z" fill="#FFC929"/>
<path d="M32.7777 20.7945L31.1911 21.1607C31.0859 21.185 30.9754 21.1665 30.8838 21.1093C30.7923 21.0521 30.7272 20.9609 30.7029 20.8557C30.6786 20.7505 30.6971 20.6399 30.7543 20.5484C30.8115 20.4568 30.9028 20.3917 31.008 20.3675L32.5946 20.0012C32.6998 19.9769 32.8103 19.9954 32.9019 20.0526C32.9934 20.1098 33.0585 20.201 33.0828 20.3062C33.1071 20.4114 33.0886 20.522 33.0314 20.6135C32.9741 20.7051 32.8829 20.7702 32.7777 20.7945Z" fill="#FFC929"/>
</g>
<defs>
<filter id="filter0_d_1_441" x="3.86203" y="4.33305" width="44.5569" height="45.0308" filterUnits="userSpaceOnUse" color-interpolation-filters="sRGB">
<feFlood flood-opacity="0" result="BackgroundImageFix"/>
<feColorMatrix in="SourceAlpha" type="matrix" values="0 0 0 0 0 0 0 0 0 0 0 0 0 0 0 0 0 0 127 0" result="hardAlpha"/>
<feOffset dx="1.42173" dy="2.36955"/>
<feGaussianBlur stdDeviation="0.947818"/>
<feComposite in2="hardAlpha" operator="out"/>
<feColorMatrix type="matrix" values="0 0 0 0 0.575646 0 0 0 0 0.575646 0 0 0 0 0.575646 0 0 0 0.6 0"/>
<feBlend mode="normal" in2="BackgroundImageFix" result="effect1_dropShadow_1_441"/>
<feBlend mode="normal" in="SourceGraphic" in2="effect1_dropShadow_1_441" result="shape"/>
</filter>
<clipPath id="clip0_1_441">
<rect width="26.0531" height="26.0531" fill="white" transform="translate(8.79492 14.6338) rotate(-13)"/>
</clipPath>
</defs>
</svg>
