<svg width="53" height="53" viewBox="0 0 53 53" fill="none" xmlns="http://www.w3.org/2000/svg">
<g filter="url(#filter0_d_1_386)">
<rect x="13.9686" y="0.0078125" width="40.7562" height="40.7562" rx="20.3781" transform="rotate(20.0318 13.9686 0.0078125)" fill="white"/>
</g>
<g clip-path="url(#clip0_1_386)">
<path d="M28.5261 28.606C28.589 28.4331 28.5374 28.2419 28.4019 28.1273L26.4268 26.4201C24.6315 24.8717 23.633 22.569 23.6782 20.1008L23.7288 17.3875C23.7311 17.2018 23.6166 17.0296 23.4396 16.9652C23.2626 16.9008 23.0658 16.955 22.9467 17.1028L21.2413 19.2138C19.6895 21.1337 17.4403 22.2543 15.0739 22.288L12.4634 22.3262C12.2804 22.3295 12.1221 22.4443 12.0606 22.6131C11.9992 22.7819 12.0493 22.9772 12.1848 23.0918L14.1599 24.799C15.9552 26.3474 16.9537 28.6501 16.9085 31.1183L16.8579 33.8316C16.8556 34.0173 16.9701 34.1895 17.1471 34.2539C17.3241 34.3183 17.5209 34.2641 17.64 34.1163L19.3453 32.0053C20.8972 30.0854 23.1464 28.9648 25.5128 28.9311L28.1233 28.8929C28.3063 28.8896 28.4646 28.7748 28.5261 28.606Z" fill="#FFC929"/>
<path d="M29.0335 20.3712L30.0807 21.2465C30.9858 22.0002 31.5016 23.1063 31.4972 24.284L31.4945 25.6489C31.4922 25.8346 31.6097 25.9985 31.7826 26.0615C31.9554 26.1244 32.1508 26.0743 32.2684 25.9306L33.1437 24.8833C33.8973 23.9782 35.0034 23.4625 36.1812 23.4669L37.5461 23.4696C37.7317 23.4719 37.8957 23.3544 37.9586 23.1815C38.0215 23.0086 37.9714 22.8133 37.8278 22.6957L36.7805 21.8204C35.8754 21.0667 35.3596 19.9607 35.3641 18.7829L35.3667 17.418C35.369 17.2324 35.2515 17.0684 35.0787 17.0055C34.9058 16.9425 34.7104 16.9926 34.5928 17.1363L33.7175 18.1836C32.9639 19.0887 31.8578 19.6045 30.68 19.6L29.3151 19.5974C29.1295 19.5951 28.9655 19.7125 28.9026 19.8854C28.8397 20.0583 28.8898 20.2537 29.0335 20.3712Z" fill="#F18537"/>
<path d="M32.584 37.1026L31.6396 36.316C30.8348 35.6455 30.3766 34.6629 30.3803 33.6154L30.3848 32.3863C30.3871 32.2007 30.2696 32.0367 30.0967 31.9738C29.9238 31.9109 29.7285 31.961 29.6109 32.1047L28.8243 33.049C28.1538 33.8539 27.1712 34.312 26.1237 34.3084L24.8946 34.3039C24.709 34.3016 24.5451 34.4191 24.4821 34.5919C24.4192 34.7648 24.4693 34.9602 24.613 35.0778L25.5574 35.8643C26.3622 36.5349 26.8204 37.5174 26.8167 38.565L26.8122 39.794C26.8099 39.9796 26.9274 40.1436 27.1003 40.2065C27.2731 40.2694 27.4685 40.2194 27.5861 40.0757L28.3727 39.1313C29.0432 38.3265 30.0257 37.8683 31.0733 37.872L32.3023 37.8765C32.488 37.8788 32.6519 37.7613 32.7148 37.5884C32.7778 37.4155 32.7277 37.2201 32.584 37.1026Z" fill="#FFC929"/>
</g>
<defs>
<filter id="filter0_d_1_386" x="3.20122" y="5.24027" width="43.826" height="43.825" filterUnits="userSpaceOnUse" color-interpolation-filters="sRGB">
<feFlood flood-opacity="0" result="BackgroundImageFix"/>
<feColorMatrix in="SourceAlpha" type="matrix" values="0 0 0 0 0 0 0 0 0 0 0 0 0 0 0 0 0 0 127 0" result="hardAlpha"/>
<feOffset dx="-1.01947" dy="1.01947"/>
<feGaussianBlur stdDeviation="0.764602"/>
<feComposite in2="hardAlpha" operator="out"/>
<feColorMatrix type="matrix" values="0 0 0 0 0.693604 0 0 0 0 0.693604 0 0 0 0 0.693604 0 0 0 0.6 0"/>
<feBlend mode="normal" in2="BackgroundImageFix" result="effect1_dropShadow_1_386"/>
<feBlend mode="normal" in="SourceGraphic" in2="effect1_dropShadow_1_386" result="shape"/>
</filter>
<clipPath id="clip0_1_386">
<rect width="28.0354" height="28.0354" fill="white" transform="translate(15.5077 8.01758) rotate(20)"/>
</clipPath>
</defs>
</svg>
