<svg width="51" height="51" viewBox="0 0 51 51" fill="none" xmlns="http://www.w3.org/2000/svg">
<g filter="url(#filter0_d_1_407)">
<rect x="0.0214844" y="7.77705" width="40.7562" height="40.7562" rx="6.16082" transform="rotate(-10.9682 0.0214844 7.77705)" fill="white"/>
</g>
<g clip-path="url(#clip0_1_407)">
<path d="M10.486 16.4723C11.5096 16.2738 12.1786 15.2832 11.9801 14.2596C11.7817 13.236 10.7911 12.567 9.76747 12.7654C8.74386 12.9639 8.07491 13.9545 8.27332 14.9781C8.47173 16.0017 9.46238 16.6707 10.486 16.4723Z" fill="#EF5350"/>
<path d="M25.5543 19.8023C26.578 19.6039 27.2469 18.6133 27.0485 17.5897C26.8501 16.5661 25.8594 15.8971 24.8358 16.0955C23.8122 16.2939 23.1433 17.2846 23.3417 18.3082C23.5401 19.3318 24.5307 20.0008 25.5543 19.8023Z" fill="#EF5350"/>
<path d="M31.0266 18.2604C31.7943 18.1116 32.296 17.3686 32.1472 16.6009C31.9984 15.8332 31.2554 15.3315 30.4877 15.4803C29.72 15.6291 29.2183 16.3721 29.3671 17.1398C29.5159 17.9075 30.2589 18.4092 31.0266 18.2604Z" fill="#79DCF3"/>
<path d="M20.9657 13.4801C21.4775 13.3809 21.8119 12.8856 21.7127 12.3738C21.6135 11.862 21.1182 11.5275 20.6064 11.6267C20.0946 11.7259 19.7601 12.2212 19.8593 12.733C19.9585 13.2449 20.4538 13.5793 20.9657 13.4801Z" fill="#2ABCC8"/>
<path d="M30.2293 11.6852C30.7411 11.586 31.0756 11.0907 30.9764 10.5789C30.8772 10.0671 30.3819 9.73259 29.8701 9.83179C29.3583 9.931 29.0238 10.4263 29.123 10.9381C29.2222 11.4499 29.7175 11.7844 30.2293 11.6852Z" fill="#79DCF3"/>
<path d="M35.5672 16.9C36.079 16.8008 36.4135 16.3055 36.3143 15.7937C36.2151 15.2819 35.7198 14.9474 35.208 15.0466C34.6961 15.1458 34.3617 15.6412 34.4609 16.153C34.5601 16.6648 35.0554 16.9993 35.5672 16.9Z" fill="#79DCF3"/>
<path d="M34.3992 10.8756C34.911 10.7764 35.2455 10.2811 35.1463 9.7693C35.0471 9.25749 34.5518 8.92302 34.04 9.02222C33.5282 9.12143 33.1937 9.61675 33.2929 10.1286C33.3921 10.6404 33.8874 10.9748 34.3992 10.8756Z" fill="#79DCF3"/>
<path d="M15.9582 14.9313C16.7259 14.7825 17.2277 14.0395 17.0789 13.2718C16.93 12.5041 16.1871 12.0023 15.4194 12.1512C14.6516 12.3 14.1499 13.043 14.2987 13.8107C14.4476 14.5784 15.1905 15.0801 15.9582 14.9313Z" fill="#EF5350"/>
<path d="M25.6868 13.0446C26.4545 12.8957 26.9562 12.1528 26.8074 11.3851C26.6586 10.6173 25.9156 10.1156 25.1479 10.2644C24.3802 10.4133 23.8784 11.1562 24.0273 11.9239C24.1761 12.6916 24.9191 13.1934 25.6868 13.0446Z" fill="#2ABCC8"/>
<path d="M35.9001 23.566C36.9237 23.3676 37.5926 22.377 37.3942 21.3533C37.1958 20.3297 36.2051 19.6608 35.1815 19.8592C34.1579 20.0576 33.489 21.0483 33.6874 22.0719C33.8858 23.0955 34.8764 23.7644 35.9001 23.566Z" fill="#79DCF3"/>
<path d="M25.0614 24.7038C25.5732 24.6045 25.9076 24.1092 25.8084 23.5974C25.7092 23.0856 25.2139 22.7511 24.7021 22.8503C24.1903 22.9496 23.8558 23.4449 23.955 23.9567C24.0542 24.4685 24.5495 24.803 25.0614 24.7038Z" fill="#EF5350"/>
<path d="M15.7957 26.5006C16.3075 26.4014 16.642 25.9061 16.5428 25.3943C16.4436 24.8825 15.9483 24.548 15.4365 24.6472C14.9247 24.7464 14.5902 25.2418 14.6894 25.7536C14.7886 26.2654 15.2839 26.5998 15.7957 26.5006Z" fill="#2ABCC8"/>
<path d="M11.6258 27.3102C12.1376 27.211 12.4721 26.7157 12.3729 26.2039C12.2737 25.6921 11.7784 25.3576 11.2665 25.4568C10.7547 25.556 10.4203 26.0513 10.5195 26.5631C10.6187 27.0749 11.114 27.4094 11.6258 27.3102Z" fill="#79DCF3"/>
<path d="M30.2493 24.1803C31.017 24.0315 31.5187 23.2885 31.3699 22.5208C31.2211 21.7531 30.4781 21.2514 29.7104 21.4002C28.9427 21.549 28.4409 22.292 28.5898 23.0597C28.7386 23.8274 29.4816 24.3291 30.2493 24.1803Z" fill="#EF5350"/>
<path d="M20.5188 26.0651C21.2865 25.9162 21.7882 25.1733 21.6394 24.4056C21.4906 23.6379 20.7476 23.1361 19.9799 23.2849C19.2122 23.4338 18.7105 24.1767 18.8593 24.9444C19.0081 25.7122 19.7511 26.2139 20.5188 26.0651Z" fill="#2ABCC8"/>
<path d="M16.1082 20.6715C16.62 20.5723 16.9545 20.077 16.8553 19.5652C16.7561 19.0534 16.2608 18.7189 15.749 18.8181C15.2372 18.9173 14.9027 19.4127 15.0019 19.9245C15.1011 20.4363 15.5964 20.7707 16.1082 20.6715Z" fill="#2ABCC8"/>
<path d="M11.5637 22.0328C12.3314 21.884 12.8331 21.141 12.6843 20.3733C12.5355 19.6056 11.7925 19.1039 11.0248 19.2527C10.2571 19.4015 9.7554 20.1445 9.90421 20.9122C10.053 21.6799 10.796 22.1816 11.5637 22.0328Z" fill="#2ABCC8"/>
<path d="M20.2782 19.862C20.79 19.7628 21.1244 19.2674 21.0252 18.7556C20.926 18.2438 20.4307 17.9093 19.9189 18.0086C19.4071 18.1078 19.0726 18.6031 19.1718 19.1149C19.271 19.6267 19.7663 19.9612 20.2782 19.862Z" fill="#EF5350"/>
<path d="M36.9782 29.1256C38.0018 28.9272 38.6707 27.9365 38.4723 26.9129C38.2739 25.8893 37.2833 25.2204 36.2597 25.4188C35.236 25.6172 34.5671 26.6078 34.7655 27.6314C34.9639 28.655 35.9546 29.324 36.9782 29.1256Z" fill="#79DCF3"/>
<path d="M24.2438 37.8443C25.2674 37.6459 25.9364 36.6553 25.7379 35.6317C25.5395 34.6081 24.5489 33.9391 23.5253 34.1375C22.5017 34.3359 21.8327 35.3266 22.0311 36.3502C22.2295 37.3738 23.2202 38.0427 24.2438 37.8443Z" fill="#2ABCC8"/>
<path d="M18.595 38.4586C19.3627 38.3098 19.8644 37.5668 19.7156 36.7991C19.5668 36.0314 18.8238 35.5297 18.0561 35.6785C17.2884 35.8273 16.7866 36.5703 16.9355 37.338C17.0843 38.1057 17.8273 38.6074 18.595 38.4586Z" fill="#2ABCC8"/>
<path d="M26.1414 30.2653C26.6532 30.1661 26.9877 29.6708 26.8885 29.1589C26.7893 28.6471 26.294 28.3127 25.7822 28.4119C25.2704 28.5111 24.9359 29.0064 25.0351 29.5182C25.1343 30.03 25.6296 30.3645 26.1414 30.2653Z" fill="#2ABCC8"/>
<path d="M16.8739 32.0602C17.3857 31.961 17.7201 31.4657 17.6209 30.9539C17.5217 30.4421 17.0264 30.1076 16.5146 30.2068C16.0028 30.306 15.6683 30.8013 15.7675 31.3131C15.8667 31.8249 16.362 32.1594 16.8739 32.0602Z" fill="#EF5350"/>
<path d="M13.8699 38.8932C14.3818 38.794 14.7162 38.2987 14.617 37.7869C14.5178 37.2751 14.0225 36.9406 13.5107 37.0398C12.9989 37.139 12.6644 37.6343 12.7636 38.1461C12.8628 38.6579 13.3581 38.9924 13.8699 38.8932Z" fill="#79DCF3"/>
<path d="M12.7039 32.8688C13.2157 32.7696 13.5502 32.2743 13.451 31.7625C13.3518 31.2507 12.8565 30.9162 12.3447 31.0154C11.8329 31.1146 11.4984 31.6099 11.5976 32.1217C11.6968 32.6335 12.1921 32.968 12.7039 32.8688Z" fill="#79DCF3"/>
<path d="M31.3274 29.7408C32.0951 29.592 32.5968 28.849 32.448 28.0813C32.2992 27.3136 31.5562 26.8119 30.7885 26.9607C30.0208 27.1095 29.5191 27.8525 29.6679 28.6202C29.8167 29.3879 30.5597 29.8897 31.3274 29.7408Z" fill="#2ABCC8"/>
<path d="M21.5969 31.6266C22.3646 31.4778 22.8663 30.7348 22.7175 29.9671C22.5687 29.1994 21.8257 28.6977 21.058 28.8465C20.2903 28.9953 19.7886 29.7383 19.9374 30.506C20.0862 31.2737 20.8292 31.7754 21.5969 31.6266Z" fill="#EF5350"/>
<path d="M33.3328 35.1207C33.8446 35.0215 34.1791 34.5262 34.0799 34.0144C33.9807 33.5026 33.4854 33.1681 32.9736 33.2673C32.4618 33.3665 32.1273 33.8619 32.2265 34.3737C32.3257 34.8855 32.821 35.22 33.3328 35.1207Z" fill="#EF5350"/>
<path d="M38.0559 34.6852C38.8236 34.5364 39.3253 33.7934 39.1765 33.0257C39.0277 32.258 38.2847 31.7563 37.517 31.9051C36.7493 32.0539 36.2476 32.7969 36.3964 33.5646C36.5452 34.3323 37.2882 34.834 38.0559 34.6852Z" fill="#79DCF3"/>
<path d="M29.1629 35.9284C29.6747 35.8292 30.0092 35.3338 29.91 34.822C29.8108 34.3102 29.3155 33.9758 28.8037 34.075C28.2919 34.1742 27.9574 34.6695 28.0566 35.1813C28.1558 35.6931 28.6511 36.0276 29.1629 35.9284Z" fill="#EF5350"/>
</g>
<defs>
<filter id="filter0_d_1_407" x="0.606169" y="1.08076" width="49.4397" height="49.9146" filterUnits="userSpaceOnUse" color-interpolation-filters="sRGB">
<feFlood flood-opacity="0" result="BackgroundImageFix"/>
<feColorMatrix in="SourceAlpha" type="matrix" values="0 0 0 0 0 0 0 0 0 0 0 0 0 0 0 0 0 0 127 0" result="hardAlpha"/>
<feOffset dx="1.42173" dy="2.36955"/>
<feGaussianBlur stdDeviation="0.947818"/>
<feComposite in2="hardAlpha" operator="out"/>
<feColorMatrix type="matrix" values="0 0 0 0 0.575646 0 0 0 0 0.575646 0 0 0 0 0.575646 0 0 0 0.6 0"/>
<feBlend mode="normal" in2="BackgroundImageFix" result="effect1_dropShadow_1_407"/>
<feBlend mode="normal" in="SourceGraphic" in2="effect1_dropShadow_1_407" result="shape"/>
</filter>
<clipPath id="clip0_1_407">
<rect width="28.3186" height="28.3186" fill="white" transform="translate(7.36133 12.7517) rotate(-10.97)"/>
</clipPath>
</defs>
</svg>
