<svg width="119" height="68" viewBox="0 0 119 68" fill="none" xmlns="http://www.w3.org/2000/svg">
<path d="M40.0638 67.467C2.98635 67.467 0.753906 58.3678 0.753906 35.1904H25.4991C25.4991 42.3167 27.3953 46.5711 40.0638 46.5711H78.1364C90.7915 46.5711 93.3736 40.2097 93.3736 33.1773V20.9242H79.1585V0.0283203H118.119V33.1773C118.119 56.2608 113.076 67.467 78.1364 67.467H40.0638Z" fill="#131313"/>
<path d="M28.2283 8.42816V12.6959C28.2283 17.3529 24.4493 21.1241 19.7827 21.1241H8.44564C3.77902 21.1241 0 17.3529 0 12.6959V8.42816C0 3.7712 3.77902 0 8.44564 0H19.7827C24.4493 0 28.2283 3.7712 28.2283 8.42816Z" fill="#131313"/>
</svg>
